<?xml version="1.0" standalone="no"?>
 <!DOCTYPE svg PUBLIC "-//W3C//DTD SVG 1.1//EN" 
 "http://www.w3.org/Graphics/SVG/1.1/DTD/svg11.dtd"> 
<svg xmlns="http://www.w3.org/2000/svg" version="1.1" 
    width="29.7002cm" height="21.0007cm" viewBox="0 0 116930 82680 ">
<title>SVG Picture created as vumeter-F.Cu.svg date 2017/08/19 21:29:09 </title>
  <desc>Picture generated by PCBNEW </desc>
<g style="fill:#000000; fill-opacity:1;stroke:#000000; stroke-opacity:1;
stroke-linecap:round; stroke-linejoin:round; "
 transform="translate(0 0) scale(1 1)">
</g>
<g style="fill:#000000; fill-opacity:0.0; 
stroke:#000000; stroke-width:-0.000393701; stroke-opacity:1; 
stroke-linecap:round; stroke-linejoin:round;">
</g>
<g style="fill:#000000; fill-opacity:1.0; 
stroke:#000000; stroke-width:0; stroke-opacity:1; 
stroke-linecap:round; stroke-linejoin:round;">
<circle cx="61318.5" cy="50750" r="460.63" /> 
</g>
<g style="fill:#000000; fill-opacity:1.0; 
stroke:#000000; stroke-width:39.3701; stroke-opacity:1; 
stroke-linecap:round; stroke-linejoin:round;">
</g>
<g style="fill:#000000; fill-opacity:1.0; 
stroke:#000000; stroke-width:0; stroke-opacity:1; 
stroke-linecap:round; stroke-linejoin:round;">
<circle cx="60334.3" cy="49765.7" r="460.63" /> 
</g>
<g style="fill:#000000; fill-opacity:1.0; 
stroke:#000000; stroke-width:39.3701; stroke-opacity:1; 
stroke-linecap:round; stroke-linejoin:round;">
</g>
<g style="fill:#000000; fill-opacity:1.0; 
stroke:#000000; stroke-width:0; stroke-opacity:1; 
stroke-linecap:round; stroke-linejoin:round;">
<circle cx="59350" cy="50750" r="460.63" /> 
</g>
<g style="fill:#000000; fill-opacity:1.0; 
stroke:#000000; stroke-width:39.3701; stroke-opacity:1; 
stroke-linecap:round; stroke-linejoin:round;">
</g>
<g style="fill:#000000; fill-opacity:1.0; 
stroke:#000000; stroke-width:0; stroke-opacity:1; 
stroke-linecap:round; stroke-linejoin:round;">
<polyline style="fill-rule:evenodd;"
points="62272,47535
62272,48164
61327,48164
61327,47535
62272,47535
" /> 
</g>
<g style="fill:#000000; fill-opacity:1.0; 
stroke:#000000; stroke-width:629.921; stroke-opacity:1; 
stroke-linecap:round; stroke-linejoin:round;">
</g>
<g style="fill:#000000; fill-opacity:0.0; 
stroke:#000000; stroke-width:629.921; stroke-opacity:1; 
stroke-linecap:round; stroke-linejoin:round;">
<path d="M58957 44850
L58642 44850
" />
<path d="M61957 46850
L61642 46850
" />
<path d="M58957 45850
L58642 45850
" />
<path d="M61957 45850
L61642 45850
" />
<path d="M58957 46850
L58642 46850
" />
<path d="M61957 44850
L61642 44850
" />
<path d="M58957 47850
L58642 47850
" />
</g>
<g style="fill:#000000; fill-opacity:0.0; 
stroke:#000000; stroke-width:0; stroke-opacity:1; 
stroke-linecap:round; stroke-linejoin:round;">
</g>
<g style="fill:#000000; fill-opacity:1.0; 
stroke:#000000; stroke-width:0; stroke-opacity:1; 
stroke-linecap:round; stroke-linejoin:round;">
<polyline style="fill-rule:evenodd;"
points="49034,44884
48365,44884
48365,44215
49034,44215
49034,44884
" /> 
</g>
<g style="fill:#000000; fill-opacity:1.0; 
stroke:#000000; stroke-width:669.291; stroke-opacity:1; 
stroke-linecap:round; stroke-linejoin:round;">
</g>
<g style="fill:#000000; fill-opacity:0.0; 
stroke:#000000; stroke-width:669.291; stroke-opacity:1; 
stroke-linecap:round; stroke-linejoin:round;">
<path d="M49700 44550
L49700 44550
" />
<path d="M50700 44550
L50700 44550
" />
<path d="M51700 44550
L51700 44550
" />
</g>
<g style="fill:#000000; fill-opacity:0.0; 
stroke:#000000; stroke-width:0; stroke-opacity:1; 
stroke-linecap:round; stroke-linejoin:round;">
</g>
<g style="fill:#000000; fill-opacity:1.0; 
stroke:#000000; stroke-width:0; stroke-opacity:1; 
stroke-linecap:round; stroke-linejoin:round;">
<polyline style="fill-rule:evenodd;"
points="60322,39885
60322,40514
59377,40514
59377,39885
60322,39885
" /> 
</g>
<g style="fill:#000000; fill-opacity:1.0; 
stroke:#000000; stroke-width:629.921; stroke-opacity:1; 
stroke-linecap:round; stroke-linejoin:round;">
</g>
<g style="fill:#000000; fill-opacity:0.0; 
stroke:#000000; stroke-width:629.921; stroke-opacity:1; 
stroke-linecap:round; stroke-linejoin:round;">
<path d="M57007 32200
L56692 32200
" />
<path d="M60007 39200
L59692 39200
" />
<path d="M57007 33200
L56692 33200
" />
<path d="M60007 38200
L59692 38200
" />
<path d="M57007 34200
L56692 34200
" />
<path d="M60007 37200
L59692 37200
" />
<path d="M57007 35200
L56692 35200
" />
<path d="M60007 36200
L59692 36200
" />
<path d="M57007 36200
L56692 36200
" />
<path d="M60007 35200
L59692 35200
" />
<path d="M57007 37200
L56692 37200
" />
<path d="M60007 34200
L59692 34200
" />
<path d="M57007 38200
L56692 38200
" />
<path d="M60007 33200
L59692 33200
" />
<path d="M57007 39200
L56692 39200
" />
<path d="M60007 32200
L59692 32200
" />
<path d="M57007 40200
L56692 40200
" />
</g>
<g style="fill:#000000; fill-opacity:1.0; 
stroke:#000000; stroke-width:0; stroke-opacity:1; 
stroke-linecap:round; stroke-linejoin:round;">
<circle cx="60100" cy="41400" r="314.961" /> 
</g>
<g style="fill:#000000; fill-opacity:1.0; 
stroke:#000000; stroke-width:39.3701; stroke-opacity:1; 
stroke-linecap:round; stroke-linejoin:round;">
</g>
<g style="fill:#000000; fill-opacity:1.0; 
stroke:#000000; stroke-width:0; stroke-opacity:1; 
stroke-linecap:round; stroke-linejoin:round;">
<circle cx="58131.5" cy="41400" r="314.961" /> 
</g>
<g style="fill:#000000; fill-opacity:1.0; 
stroke:#000000; stroke-width:39.3701; stroke-opacity:1; 
stroke-linecap:round; stroke-linejoin:round;">
</g>
<g style="fill:#000000; fill-opacity:1.0; 
stroke:#000000; stroke-width:0; stroke-opacity:1; 
stroke-linecap:round; stroke-linejoin:round;">
<polyline style="fill-rule:evenodd;"
points="50057,31184
50057,30515
51001,30515
51001,31184
50057,31184
" /> 
<polyline style="fill-rule:evenodd;"
points="49663,32208
49663,31538
50608,31538
50608,32208
49663,32208
" /> 
<polyline style="fill-rule:evenodd;"
points="47084,33369
47084,32424
47753,32424
47753,33369
47084,33369
" /> 
<polyline style="fill-rule:evenodd;"
points="51533,34983
51533,34038
52202,34038
52202,34983
51533,34983
" /> 
<polyline style="fill-rule:evenodd;"
points="48600,35042
48600,34373
49545,34373
49545,35042
48600,35042
" /> 
<polyline style="fill-rule:evenodd;"
points="49034,43334
48365,43334
48365,42665
49034,42665
49034,43334
" /> 
</g>
<g style="fill:#000000; fill-opacity:1.0; 
stroke:#000000; stroke-width:669.291; stroke-opacity:1; 
stroke-linecap:round; stroke-linejoin:round;">
</g>
<g style="fill:#000000; fill-opacity:0.0; 
stroke:#000000; stroke-width:669.291; stroke-opacity:1; 
stroke-linecap:round; stroke-linejoin:round;">
<path d="M49700 43000
L49700 43000
" />
<path d="M50700 43000
L50700 43000
" />
<path d="M51700 43000
L51700 43000
" />
</g>
<g style="fill:#000000; fill-opacity:1.0; 
stroke:#000000; stroke-width:0; stroke-opacity:1; 
stroke-linecap:round; stroke-linejoin:round;">
<circle cx="57500" cy="43500" r="314.961" /> 
</g>
<g style="fill:#000000; fill-opacity:1.0; 
stroke:#000000; stroke-width:39.3701; stroke-opacity:1; 
stroke-linecap:round; stroke-linejoin:round;">
</g>
<g style="fill:#000000; fill-opacity:1.0; 
stroke:#000000; stroke-width:629.921; stroke-opacity:1; 
stroke-linecap:round; stroke-linejoin:round;">
</g>
<g style="fill:#000000; fill-opacity:0.0; 
stroke:#000000; stroke-width:629.921; stroke-opacity:1; 
stroke-linecap:round; stroke-linejoin:round;">
<path d="M57500 42500
L57500 42500
" />
</g>
<g style="fill:#000000; fill-opacity:1.0; 
stroke:#000000; stroke-width:0; stroke-opacity:1; 
stroke-linecap:round; stroke-linejoin:round;">
<circle cx="60100" cy="43500" r="314.961" /> 
</g>
<g style="fill:#000000; fill-opacity:1.0; 
stroke:#000000; stroke-width:39.3701; stroke-opacity:1; 
stroke-linecap:round; stroke-linejoin:round;">
</g>
<g style="fill:#000000; fill-opacity:1.0; 
stroke:#000000; stroke-width:629.921; stroke-opacity:1; 
stroke-linecap:round; stroke-linejoin:round;">
</g>
<g style="fill:#000000; fill-opacity:0.0; 
stroke:#000000; stroke-width:629.921; stroke-opacity:1; 
stroke-linecap:round; stroke-linejoin:round;">
<path d="M60100 42500
L60100 42500
" />
</g>
<g style="fill:#000000; fill-opacity:0.0; 
stroke:#000000; stroke-width:0; stroke-opacity:1; 
stroke-linecap:round; stroke-linejoin:round;">
</g>
<g style="fill:#000000; fill-opacity:1.0; 
stroke:#000000; stroke-width:0; stroke-opacity:1; 
stroke-linecap:round; stroke-linejoin:round;">
<polyline style="fill-rule:evenodd;"
points="52404,46095
52404,46804
51695,46804
51695,46095
52404,46095
" /> 
</g>
<g style="fill:#000000; fill-opacity:1.0; 
stroke:#000000; stroke-width:708.661; stroke-opacity:1; 
stroke-linecap:round; stroke-linejoin:round;">
</g>
<g style="fill:#000000; fill-opacity:0.0; 
stroke:#000000; stroke-width:708.661; stroke-opacity:1; 
stroke-linecap:round; stroke-linejoin:round;">
<path d="M48050 46450
L48050 46450
" />
</g>
<g style="fill:#000000; fill-opacity:1.0; 
stroke:#000000; stroke-width:0; stroke-opacity:1; 
stroke-linecap:round; stroke-linejoin:round;">
<circle cx="61500" cy="37750" r="314.961" /> 
</g>
<g style="fill:#000000; fill-opacity:1.0; 
stroke:#000000; stroke-width:39.3701; stroke-opacity:1; 
stroke-linecap:round; stroke-linejoin:round;">
</g>
<g style="fill:#000000; fill-opacity:1.0; 
stroke:#000000; stroke-width:0; stroke-opacity:1; 
stroke-linecap:round; stroke-linejoin:round;">
<circle cx="61500" cy="35781.5" r="314.961" /> 
</g>
<g style="fill:#000000; fill-opacity:1.0; 
stroke:#000000; stroke-width:39.3701; stroke-opacity:1; 
stroke-linecap:round; stroke-linejoin:round;">
</g>
<g style="fill:#000000; fill-opacity:1.0; 
stroke:#000000; stroke-width:0; stroke-opacity:1; 
stroke-linecap:round; stroke-linejoin:round;">
<circle cx="61500" cy="40900" r="314.961" /> 
</g>
<g style="fill:#000000; fill-opacity:1.0; 
stroke:#000000; stroke-width:39.3701; stroke-opacity:1; 
stroke-linecap:round; stroke-linejoin:round;">
</g>
<g style="fill:#000000; fill-opacity:1.0; 
stroke:#000000; stroke-width:0; stroke-opacity:1; 
stroke-linecap:round; stroke-linejoin:round;">
<circle cx="61500" cy="38931.5" r="314.961" /> 
</g>
<g style="fill:#000000; fill-opacity:1.0; 
stroke:#000000; stroke-width:39.3701; stroke-opacity:1; 
stroke-linecap:round; stroke-linejoin:round;">
</g>
<g style="fill:#000000; fill-opacity:1.0; 
stroke:#000000; stroke-width:0; stroke-opacity:1; 
stroke-linecap:round; stroke-linejoin:round;">
<polyline style="fill-rule:evenodd;"
points="60754,55054
60045,55054
60045,54345
60754,54345
60754,55054
" /> 
<circle cx="60400" cy="53700" r="354.331" /> 
</g>
<g style="fill:#000000; fill-opacity:1.0; 
stroke:#000000; stroke-width:39.3701; stroke-opacity:1; 
stroke-linecap:round; stroke-linejoin:round;">
</g>
<g style="fill:#000000; fill-opacity:1.0; 
stroke:#000000; stroke-width:0; stroke-opacity:1; 
stroke-linecap:round; stroke-linejoin:round;">
<polyline style="fill-rule:evenodd;"
points="57095,44345
57804,44345
57804,45054
57095,45054
57095,44345
" /> 
</g>
<g style="fill:#000000; fill-opacity:1.0; 
stroke:#000000; stroke-width:708.661; stroke-opacity:1; 
stroke-linecap:round; stroke-linejoin:round;">
</g>
<g style="fill:#000000; fill-opacity:0.0; 
stroke:#000000; stroke-width:708.661; stroke-opacity:1; 
stroke-linecap:round; stroke-linejoin:round;">
<path d="M57450 48700
L57450 48700
" />
</g>
<g style="fill:#000000; fill-opacity:0.0; 
stroke:#000000; stroke-width:0; stroke-opacity:1; 
stroke-linecap:round; stroke-linejoin:round;">
</g>
<g style="fill:#000000; fill-opacity:1.0; 
stroke:#000000; stroke-width:0; stroke-opacity:1; 
stroke-linecap:round; stroke-linejoin:round;">
<polyline style="fill-rule:evenodd;"
points="55254,55245
55254,55954
54545,55954
54545,55245
55254,55245
" /> 
<circle cx="53900" cy="55600" r="354.331" /> 
</g>
<g style="fill:#000000; fill-opacity:1.0; 
stroke:#000000; stroke-width:39.3701; stroke-opacity:1; 
stroke-linecap:round; stroke-linejoin:round;">
</g>
<g style="fill:#000000; fill-opacity:1.0; 
stroke:#000000; stroke-width:0; stroke-opacity:1; 
stroke-linecap:round; stroke-linejoin:round;">
<polyline style="fill-rule:evenodd;"
points="55254,52645
55254,53354
54545,53354
54545,52645
55254,52645
" /> 
<circle cx="53900" cy="53000" r="354.331" /> 
</g>
<g style="fill:#000000; fill-opacity:1.0; 
stroke:#000000; stroke-width:39.3701; stroke-opacity:1; 
stroke-linecap:round; stroke-linejoin:round;">
</g>
<g style="fill:#000000; fill-opacity:1.0; 
stroke:#000000; stroke-width:0; stroke-opacity:1; 
stroke-linecap:round; stroke-linejoin:round;">
<polyline style="fill-rule:evenodd;"
points="55254,50045
55254,50754
54545,50754
54545,50045
55254,50045
" /> 
<circle cx="53900" cy="50400" r="354.331" /> 
</g>
<g style="fill:#000000; fill-opacity:1.0; 
stroke:#000000; stroke-width:39.3701; stroke-opacity:1; 
stroke-linecap:round; stroke-linejoin:round;">
</g>
<g style="fill:#000000; fill-opacity:1.0; 
stroke:#000000; stroke-width:0; stroke-opacity:1; 
stroke-linecap:round; stroke-linejoin:round;">
<polyline style="fill-rule:evenodd;"
points="55254,47445
55254,48154
54545,48154
54545,47445
55254,47445
" /> 
<circle cx="53900" cy="47800" r="354.331" /> 
</g>
<g style="fill:#000000; fill-opacity:1.0; 
stroke:#000000; stroke-width:39.3701; stroke-opacity:1; 
stroke-linecap:round; stroke-linejoin:round;">
</g>
<g style="fill:#000000; fill-opacity:1.0; 
stroke:#000000; stroke-width:0; stroke-opacity:1; 
stroke-linecap:round; stroke-linejoin:round;">
<polyline style="fill-rule:evenodd;"
points="55254,44845
55254,45554
54545,45554
54545,44845
55254,44845
" /> 
<circle cx="53900" cy="45200" r="354.331" /> 
</g>
<g style="fill:#000000; fill-opacity:1.0; 
stroke:#000000; stroke-width:39.3701; stroke-opacity:1; 
stroke-linecap:round; stroke-linejoin:round;">
</g>
<g style="fill:#000000; fill-opacity:1.0; 
stroke:#000000; stroke-width:0; stroke-opacity:1; 
stroke-linecap:round; stroke-linejoin:round;">
<polyline style="fill-rule:evenodd;"
points="55254,42245
55254,42954
54545,42954
54545,42245
55254,42245
" /> 
<circle cx="53900" cy="42600" r="354.331" /> 
</g>
<g style="fill:#000000; fill-opacity:1.0; 
stroke:#000000; stroke-width:39.3701; stroke-opacity:1; 
stroke-linecap:round; stroke-linejoin:round;">
</g>
<g style="fill:#000000; fill-opacity:1.0; 
stroke:#000000; stroke-width:0; stroke-opacity:1; 
stroke-linecap:round; stroke-linejoin:round;">
<polyline style="fill-rule:evenodd;"
points="55254,39645
55254,40354
54545,40354
54545,39645
55254,39645
" /> 
<circle cx="53900" cy="40000" r="354.331" /> 
</g>
<g style="fill:#000000; fill-opacity:1.0; 
stroke:#000000; stroke-width:39.3701; stroke-opacity:1; 
stroke-linecap:round; stroke-linejoin:round;">
</g>
<g style="fill:#000000; fill-opacity:1.0; 
stroke:#000000; stroke-width:0; stroke-opacity:1; 
stroke-linecap:round; stroke-linejoin:round;">
<polyline style="fill-rule:evenodd;"
points="55254,37045
55254,37754
54545,37754
54545,37045
55254,37045
" /> 
<circle cx="53900" cy="37400" r="354.331" /> 
</g>
<g style="fill:#000000; fill-opacity:1.0; 
stroke:#000000; stroke-width:39.3701; stroke-opacity:1; 
stroke-linecap:round; stroke-linejoin:round;">
</g>
<g style="fill:#000000; fill-opacity:1.0; 
stroke:#000000; stroke-width:0; stroke-opacity:1; 
stroke-linecap:round; stroke-linejoin:round;">
<polyline style="fill-rule:evenodd;"
points="55254,34445
55254,35154
54545,35154
54545,34445
55254,34445
" /> 
<circle cx="53900" cy="34800" r="354.331" /> 
</g>
<g style="fill:#000000; fill-opacity:1.0; 
stroke:#000000; stroke-width:39.3701; stroke-opacity:1; 
stroke-linecap:round; stroke-linejoin:round;">
</g>
<g style="fill:#000000; fill-opacity:1.0; 
stroke:#000000; stroke-width:0; stroke-opacity:1; 
stroke-linecap:round; stroke-linejoin:round;">
<polyline style="fill-rule:evenodd;"
points="55254,31845
55254,32554
54545,32554
54545,31845
55254,31845
" /> 
<circle cx="53900" cy="32200" r="354.331" /> 
</g>
<g style="fill:#000000; fill-opacity:1.0; 
stroke:#000000; stroke-width:39.3701; stroke-opacity:1; 
stroke-linecap:round; stroke-linejoin:round;">
</g>
<g style="fill:#000000; fill-opacity:1.0; 
stroke:#000000; stroke-width:0; stroke-opacity:1; 
stroke-linecap:round; stroke-linejoin:round;">
<polyline style="fill-rule:evenodd;"
points="50057,36184
50057,35515
51001,35515
51001,36184
50057,36184
" /> 
<polyline style="fill-rule:evenodd;"
points="49663,37208
49663,36538
50608,36538
50608,37208
49663,37208
" /> 
<polyline style="fill-rule:evenodd;"
points="47084,38369
47084,37424
47753,37424
47753,38369
47084,38369
" /> 
<polyline style="fill-rule:evenodd;"
points="51533,39983
51533,39038
52202,39038
52202,39983
51533,39983
" /> 
<polyline style="fill-rule:evenodd;"
points="48600,40042
48600,39373
49545,39373
49545,40042
48600,40042
" /> 
<polyline style="fill-rule:evenodd;"
points="50765,40865
51434,40865
51434,41534
50765,41534
50765,40865
" /> 
</g>
<g style="fill:#000000; fill-opacity:1.0; 
stroke:#000000; stroke-width:669.291; stroke-opacity:1; 
stroke-linecap:round; stroke-linejoin:round;">
</g>
<g style="fill:#000000; fill-opacity:0.0; 
stroke:#000000; stroke-width:669.291; stroke-opacity:1; 
stroke-linecap:round; stroke-linejoin:round;">
<path d="M50100 41200
L50100 41200
" />
<path d="M49100 41200
L49100 41200
" />
</g>
<g style="fill:#000000; fill-opacity:0.0; 
stroke:#000000; stroke-width:0; stroke-opacity:1; 
stroke-linecap:round; stroke-linejoin:round;">
</g>
<g style="fill:#000000; fill-opacity:1.0; 
stroke:#000000; stroke-width:0; stroke-opacity:1; 
stroke-linecap:round; stroke-linejoin:round;">
<polyline style="fill-rule:evenodd;"
points="51511,52338
51511,50961
52888,50961
52888,52338
51511,52338
" /> 
<polyline style="fill-rule:evenodd;"
points="49148,52338
49148,50961
50526,50961
50526,52338
49148,52338
" /> 
<polyline style="fill-rule:evenodd;"
points="50329,54189
50329,52811
51707,52811
51707,54189
50329,54189
" /> 
<polyline style="fill-rule:evenodd;"
points="51365,55015
52034,55015
52034,55684
51365,55684
51365,55015
" /> 
</g>
<g style="fill:#000000; fill-opacity:1.0; 
stroke:#000000; stroke-width:669.291; stroke-opacity:1; 
stroke-linecap:round; stroke-linejoin:round;">
</g>
<g style="fill:#000000; fill-opacity:0.0; 
stroke:#000000; stroke-width:669.291; stroke-opacity:1; 
stroke-linecap:round; stroke-linejoin:round;">
<path d="M50700 55350
L50700 55350
" />
</g>
<g style="fill:#000000; fill-opacity:1.0; 
stroke:#000000; stroke-width:0; stroke-opacity:1; 
stroke-linecap:round; stroke-linejoin:round;">
<circle cx="57500" cy="52100" r="314.961" /> 
</g>
<g style="fill:#000000; fill-opacity:1.0; 
stroke:#000000; stroke-width:39.3701; stroke-opacity:1; 
stroke-linecap:round; stroke-linejoin:round;">
</g>
<g style="fill:#000000; fill-opacity:1.0; 
stroke:#000000; stroke-width:629.921; stroke-opacity:1; 
stroke-linecap:round; stroke-linejoin:round;">
</g>
<g style="fill:#000000; fill-opacity:0.0; 
stroke:#000000; stroke-width:629.921; stroke-opacity:1; 
stroke-linecap:round; stroke-linejoin:round;">
<path d="M58500 52100
L58500 52100
" />
</g>
<g style="fill:#000000; fill-opacity:1.0; 
stroke:#000000; stroke-width:0; stroke-opacity:1; 
stroke-linecap:round; stroke-linejoin:round;">
<circle cx="57500" cy="50700" r="314.961" /> 
</g>
<g style="fill:#000000; fill-opacity:1.0; 
stroke:#000000; stroke-width:39.3701; stroke-opacity:1; 
stroke-linecap:round; stroke-linejoin:round;">
</g>
<g style="fill:#000000; fill-opacity:1.0; 
stroke:#000000; stroke-width:629.921; stroke-opacity:1; 
stroke-linecap:round; stroke-linejoin:round;">
</g>
<g style="fill:#000000; fill-opacity:0.0; 
stroke:#000000; stroke-width:629.921; stroke-opacity:1; 
stroke-linecap:round; stroke-linejoin:round;">
<path d="M57500 49700
L57500 49700
" />
</g>
<g style="fill:#000000; fill-opacity:1.0; 
stroke:#000000; stroke-width:0; stroke-opacity:1; 
stroke-linecap:round; stroke-linejoin:round;">
<circle cx="61400" cy="34250" r="314.961" /> 
</g>
<g style="fill:#000000; fill-opacity:1.0; 
stroke:#000000; stroke-width:39.3701; stroke-opacity:1; 
stroke-linecap:round; stroke-linejoin:round;">
</g>
<g style="fill:#000000; fill-opacity:1.0; 
stroke:#000000; stroke-width:629.921; stroke-opacity:1; 
stroke-linecap:round; stroke-linejoin:round;">
</g>
<g style="fill:#000000; fill-opacity:0.0; 
stroke:#000000; stroke-width:629.921; stroke-opacity:1; 
stroke-linecap:round; stroke-linejoin:round;">
<path d="M61400 33250
L61400 33250
" />
</g>
<g style="fill:#000000; fill-opacity:1.0; 
stroke:#000000; stroke-width:0; stroke-opacity:1; 
stroke-linecap:round; stroke-linejoin:round;">
<circle cx="61400" cy="43500" r="314.961" /> 
</g>
<g style="fill:#000000; fill-opacity:1.0; 
stroke:#000000; stroke-width:39.3701; stroke-opacity:1; 
stroke-linecap:round; stroke-linejoin:round;">
</g>
<g style="fill:#000000; fill-opacity:1.0; 
stroke:#000000; stroke-width:629.921; stroke-opacity:1; 
stroke-linecap:round; stroke-linejoin:round;">
</g>
<g style="fill:#000000; fill-opacity:0.0; 
stroke:#000000; stroke-width:629.921; stroke-opacity:1; 
stroke-linecap:round; stroke-linejoin:round;">
<path d="M61400 42500
L61400 42500
" />
</g>
<g style="fill:#000000; fill-opacity:1.0; 
stroke:#000000; stroke-width:0; stroke-opacity:1; 
stroke-linecap:round; stroke-linejoin:round;">
<circle cx="58800" cy="42700" r="314.961" /> 
</g>
<g style="fill:#000000; fill-opacity:1.0; 
stroke:#000000; stroke-width:39.3701; stroke-opacity:1; 
stroke-linecap:round; stroke-linejoin:round;">
</g>
<g style="fill:#000000; fill-opacity:1.0; 
stroke:#000000; stroke-width:629.921; stroke-opacity:1; 
stroke-linecap:round; stroke-linejoin:round;">
</g>
<g style="fill:#000000; fill-opacity:0.0; 
stroke:#000000; stroke-width:629.921; stroke-opacity:1; 
stroke-linecap:round; stroke-linejoin:round;">
<path d="M58800 43700
L58800 43700
" />
</g>
<g style="fill:#000000; fill-opacity:1.0; 
stroke:#000000; stroke-width:0; stroke-opacity:1; 
stroke-linecap:round; stroke-linejoin:round;">
<circle cx="60600" cy="52100" r="314.961" /> 
</g>
<g style="fill:#000000; fill-opacity:1.0; 
stroke:#000000; stroke-width:39.3701; stroke-opacity:1; 
stroke-linecap:round; stroke-linejoin:round;">
</g>
<g style="fill:#000000; fill-opacity:1.0; 
stroke:#000000; stroke-width:629.921; stroke-opacity:1; 
stroke-linecap:round; stroke-linejoin:round;">
</g>
<g style="fill:#000000; fill-opacity:0.0; 
stroke:#000000; stroke-width:629.921; stroke-opacity:1; 
stroke-linecap:round; stroke-linejoin:round;">
<path d="M59600 52100
L59600 52100
" />
</g>
<g style="fill:#000000; fill-opacity:0.0; 
stroke:#000000; stroke-width:0; stroke-opacity:1; 
stroke-linecap:round; stroke-linejoin:round;">
</g>
<g style="fill:#000000; fill-opacity:1.0; 
stroke:#000000; stroke-width:0; stroke-opacity:1; 
stroke-linecap:round; stroke-linejoin:round;">
<polyline style="fill-rule:evenodd;"
points="58354,56354
57645,56354
57645,55645
58354,55645
58354,56354
" /> 
</g>
<g style="fill:#000000; fill-opacity:1.0; 
stroke:#000000; stroke-width:708.661; stroke-opacity:1; 
stroke-linecap:round; stroke-linejoin:round;">
</g>
<g style="fill:#000000; fill-opacity:0.0; 
stroke:#000000; stroke-width:708.661; stroke-opacity:1; 
stroke-linecap:round; stroke-linejoin:round;">
<path d="M58000 55000
L58000 55000
" />
<path d="M58000 54000
L58000 54000
" />
</g>
<g style="fill:#000000; fill-opacity:1.0; 
stroke:#000000; stroke-width:0; stroke-opacity:1; 
stroke-linecap:round; stroke-linejoin:round;">
<circle cx="47900" cy="56500" r="1082.68" /> 
</g>
<g style="fill:#000000; fill-opacity:1.0; 
stroke:#000000; stroke-width:39.3701; stroke-opacity:1; 
stroke-linecap:round; stroke-linejoin:round;">
</g>
<g style="fill:#000000; fill-opacity:1.0; 
stroke:#000000; stroke-width:0; stroke-opacity:1; 
stroke-linecap:round; stroke-linejoin:round;">
<circle cx="61600" cy="31000" r="1082.68" /> 
</g>
<g style="fill:#000000; fill-opacity:1.0; 
stroke:#000000; stroke-width:39.3701; stroke-opacity:1; 
stroke-linecap:round; stroke-linejoin:round;">
</g>
<g style="fill:#000000; fill-opacity:1.0; 
stroke:#000000; stroke-width:0; stroke-opacity:1; 
stroke-linecap:round; stroke-linejoin:round;">
<circle cx="61500" cy="56500" r="1082.68" /> 
</g>
<g style="fill:#000000; fill-opacity:1.0; 
stroke:#000000; stroke-width:39.3701; stroke-opacity:1; 
stroke-linecap:round; stroke-linejoin:round;">
</g>
<g style="fill:#000000; fill-opacity:1.0; 
stroke:#000000; stroke-width:0; stroke-opacity:1; 
stroke-linecap:round; stroke-linejoin:round;">
<circle cx="56850" cy="41550" r="118.11" /> 
</g>
<g style="fill:#000000; fill-opacity:1.0; 
stroke:#000000; stroke-width:39.3701; stroke-opacity:1; 
stroke-linecap:round; stroke-linejoin:round;">
</g>
<g style="fill:#000000; fill-opacity:1.0; 
stroke:#000000; stroke-width:0; stroke-opacity:1; 
stroke-linecap:round; stroke-linejoin:round;">
<circle cx="56450" cy="45300" r="118.11" /> 
</g>
<g style="fill:#000000; fill-opacity:1.0; 
stroke:#000000; stroke-width:39.3701; stroke-opacity:1; 
stroke-linecap:round; stroke-linejoin:round;">
</g>
<g style="fill:#000000; fill-opacity:1.0; 
stroke:#000000; stroke-width:0; stroke-opacity:1; 
stroke-linecap:round; stroke-linejoin:round;">
<circle cx="56050" cy="45650" r="118.11" /> 
</g>
<g style="fill:#000000; fill-opacity:1.0; 
stroke:#000000; stroke-width:39.3701; stroke-opacity:1; 
stroke-linecap:round; stroke-linejoin:round;">
</g>
<g style="fill:#000000; fill-opacity:1.0; 
stroke:#000000; stroke-width:0; stroke-opacity:1; 
stroke-linecap:round; stroke-linejoin:round;">
<circle cx="55650" cy="46000" r="118.11" /> 
</g>
<g style="fill:#000000; fill-opacity:1.0; 
stroke:#000000; stroke-width:39.3701; stroke-opacity:1; 
stroke-linecap:round; stroke-linejoin:round;">
</g>
<g style="fill:#000000; fill-opacity:1.0; 
stroke:#000000; stroke-width:157.48; stroke-opacity:1; 
stroke-linecap:round; stroke-linejoin:round;">
</g>
<g style="fill:#000000; fill-opacity:0.0; 
stroke:#000000; stroke-width:157.48; stroke-opacity:1; 
stroke-linecap:round; stroke-linejoin:round;">
<path d="M50700 55350
L50700 56500
" />
<path d="M51250 57050
L52800 57050
" />
<path d="M50700 56500
L51250 57050
" />
<path d="M52050 46450
L52050 47400
" />
<path d="M53150 56700
L52800 57050
" />
<path d="M53150 48500
L53150 56700
" />
<path d="M52050 47400
L53150 48500
" />
<path d="M52800 57050
L56950 57050
" />
<path d="M56950 57050
L58000 56000
" />
</g>
<g style="fill:#000000; fill-opacity:0.0; 
stroke:#000000; stroke-width:98.4252; stroke-opacity:1; 
stroke-linecap:round; stroke-linejoin:round;">
<path d="M58800 47850
L58800 47900
" />
</g>
<g style="fill:#000000; fill-opacity:0.0; 
stroke:#000000; stroke-width:157.48; stroke-opacity:1; 
stroke-linecap:round; stroke-linejoin:round;">
<path d="M59850 31150
L60500 31800
" />
<path d="M60350 38200
L59850 38200
" />
<path d="M60500 38050
L60350 38200
" />
<path d="M60500 31800
L60500 38050
" />
<path d="M52450 42900
L52450 31350
" />
<path d="M59850 31150
L59850 32200
" />
<path d="M59300 30600
L59850 31150
" />
<path d="M53200 30600
L59300 30600
" />
<path d="M52450 31350
L53200 30600
" />
<path d="M52050 46450
L52050 46050
" />
<path d="M50700 42550
L50700 43000
" />
<path d="M50950 42300
L50700 42550
" />
<path d="M51950 42300
L50950 42300
" />
<path d="M52450 42800
L51950 42300
" />
<path d="M52450 45650
L52450 42900
" />
<path d="M52450 42900
L52450 42800
" />
<path d="M52050 46050
L52450 45650
" />
</g>
<g style="fill:#000000; fill-opacity:0.0; 
stroke:#000000; stroke-width:98.4252; stroke-opacity:1; 
stroke-linecap:round; stroke-linejoin:round;">
<path d="M61400 42350
L62100 41650
" />
<path d="M62100 41650
L62100 38350
" />
<path d="M62100 38350
L61500 37750
" />
<path d="M61500 37750
L61400 37750
" />
<path d="M61400 37750
L60950 37300
" />
<path d="M60950 34700
L61400 34250
" />
<path d="M60950 37300
L60950 34700
" />
<path d="M61400 42500
L61400 42350
" />
<path d="M60334 49765
L60334 48465
" />
<path d="M60950 47850
L61800 47850
" />
<path d="M60334 48465
L60950 47850
" />
<path d="M61500 35781
L62131 35781
" />
<path d="M62350 47850
L61800 47850
" />
<path d="M62650 47550
L62350 47850
" />
<path d="M62650 36300
L62650 47550
" />
<path d="M62131 35781
L62650 36300
" />
<path d="M60800 44050
L60777 44072
" />
<path d="M58800 44850
L60000 44850
" />
<path d="M60000 44850
L60777 44072
" />
<path d="M61500 40900
L61500 41400
" />
<path d="M60800 42100
L60800 44050
" />
<path d="M61500 41400
L60800 42100
" />
<path d="M61350 43500
L60800 44050
" />
<path d="M61400 43500
L61350 43500
" />
</g>
<g style="fill:#000000; fill-opacity:0.0; 
stroke:#000000; stroke-width:157.48; stroke-opacity:1; 
stroke-linecap:round; stroke-linejoin:round;">
<path d="M59850 39200
L60300 39200
" />
</g>
<g style="fill:#000000; fill-opacity:0.0; 
stroke:#000000; stroke-width:98.4252; stroke-opacity:1; 
stroke-linecap:round; stroke-linejoin:round;">
<path d="M60250 41400
L60600 41750
" />
<path d="M60600 43000
L60100 43500
" />
<path d="M60600 41750
L60600 43000
" />
<path d="M59900 43500
L59100 44300
" />
<path d="M57850 44300
L57450 44700
" />
<path d="M59100 44300
L57850 44300
" />
<path d="M60100 43500
L59900 43500
" />
<path d="M58500 36200
L58250 36450
" />
<path d="M59850 36200
L58500 36200
" />
<path d="M59200 41400
L60100 41400
" />
<path d="M59000 41200
L59200 41400
" />
<path d="M59000 40500
L59000 41200
" />
<path d="M58250 39750
L59000 40500
" />
<path d="M58250 36450
L58250 39750
" />
<path d="M60100 41400
L60250 41400
" />
<path d="M60400 53700
L60400 52300
" />
<path d="M60400 52300
L60600 52100
" />
<path d="M58800 46850
L57700 46850
" />
<path d="M57450 47100
L57450 48700
" />
<path d="M57700 46850
L57450 47100
" />
<path d="M58800 45850
L58800 46850
" />
<path d="M54900 55600
L54900 55350
" />
<path d="M54900 55350
L56500 53750
" />
<path d="M56500 53750
L56500 46950
" />
<path d="M56500 46950
L56850 46600
" />
<path d="M56850 46600
L56850 41550
" />
<path d="M58000 54000
L58200 54000
" />
<path d="M58200 54000
L59600 52600
" />
<path d="M59600 52600
L59600 52100
" />
</g>
<g style="fill:#000000; fill-opacity:0.0; 
stroke:#000000; stroke-width:157.48; stroke-opacity:1; 
stroke-linecap:round; stroke-linejoin:round;">
<path d="M53900 55600
L53900 56350
" />
<path d="M56850 54000
L58000 54000
" />
<path d="M56250 54600
L56850 54000
" />
<path d="M56250 55500
L56250 54600
" />
<path d="M55200 56550
L56250 55500
" />
<path d="M54100 56550
L55200 56550
" />
<path d="M53900 56350
L54100 56550
" />
<path d="M53900 45200
L53900 47800
" />
<path d="M53900 47800
L53900 50400
" />
<path d="M53900 50400
L53900 53000
" />
<path d="M53900 53000
L53900 55600
" />
<path d="M53900 37400
L53900 40000
" />
<path d="M53900 40000
L53900 42600
" />
<path d="M53900 42600
L53900 45200
" />
<path d="M53900 32200
L53900 34800
" />
<path d="M53900 34800
L53900 37400
" />
</g>
<g style="fill:#000000; fill-opacity:0.0; 
stroke:#000000; stroke-width:98.4252; stroke-opacity:1; 
stroke-linecap:round; stroke-linejoin:round;">
<path d="M54900 51950
L54900 53000
" />
<path d="M56050 50800
L54900 51950
" />
<path d="M56050 46800
L56050 50800
" />
<path d="M56450 46400
L56050 46800
" />
<path d="M56450 45300
L56450 46400
" />
<path d="M56050 45650
L56050 46300
" />
<path d="M56050 46300
L55600 46750
" />
<path d="M55600 46750
L55600 48900
" />
<path d="M55600 48900
L54900 49600
" />
<path d="M54900 49600
L54900 50400
" />
<path d="M54900 46750
L54900 47800
" />
<path d="M55650 46000
L54900 46750
" />
<path d="M56850 37200
L56350 37200
" />
<path d="M54900 44250
L54900 45200
" />
<path d="M55700 43450
L54900 44250
" />
<path d="M55700 41050
L55700 43450
" />
<path d="M56050 40700
L55700 41050
" />
<path d="M56050 37500
L56050 40700
" />
<path d="M56350 37200
L56050 37500
" />
<path d="M56850 36200
L56450 36200
" />
<path d="M56450 36200
L55800 36850
" />
<path d="M55800 36850
L55800 40200
" />
<path d="M55800 40200
L54900 41100
" />
<path d="M54900 41100
L54900 42600
" />
<path d="M54900 40000
L54900 38500
" />
<path d="M56150 35200
L56850 35200
" />
<path d="M55550 35800
L56150 35200
" />
<path d="M55550 37850
L55550 35800
" />
<path d="M54900 38500
L55550 37850
" />
<path d="M54900 37400
L54900 36050
" />
<path d="M56050 34200
L56850 34200
" />
<path d="M55550 34700
L56050 34200
" />
<path d="M55550 35400
L55550 34700
" />
<path d="M54900 36050
L55550 35400
" />
<path d="M54900 34800
L54900 33750
" />
<path d="M55450 33200
L56850 33200
" />
<path d="M54900 33750
L55450 33200
" />
<path d="M54900 32200
L56850 32200
" />
<path d="M51300 41200
L51100 41200
" />
</g>
<g style="fill:#000000; fill-opacity:0.0; 
stroke:#000000; stroke-width:157.48; stroke-opacity:1; 
stroke-linecap:round; stroke-linejoin:round;">
<path d="M51700 55350
L51850 55350
" />
<path d="M51850 55350
L52200 55000
" />
<path d="M52200 55000
L52200 51650
" />
</g>
<g style="fill:#000000; fill-opacity:0.0; 
stroke:#000000; stroke-width:98.4252; stroke-opacity:1; 
stroke-linecap:round; stroke-linejoin:round;">
<path d="M57500 49700
L58200 49700
" />
<path d="M61050 46850
L61800 46850
" />
<path d="M58200 49700
L61050 46850
" />
<path d="M57500 52100
L57500 51950
" />
<path d="M57500 51950
L56850 51300
" />
<path d="M56850 51300
L56850 50350
" />
<path d="M56850 50350
L57500 49700
" />
<path d="M57500 50700
L59300 50700
" />
<path d="M59300 50700
L59350 50750
" />
<path d="M59850 35200
L58300 35200
" />
<path d="M58000 35500
L58000 35550
" />
<path d="M58300 35200
L58000 35500
" />
<path d="M58800 42700
L58800 40650
" />
<path d="M58300 34200
L59850 34200
" />
<path d="M58000 34500
L58300 34200
" />
<path d="M58000 39850
L58000 35550
" />
<path d="M58000 35550
L58000 34500
" />
<path d="M58800 40650
L58000 39850
" />
<path d="M58800 43700
L58050 42950
" />
<path d="M58350 33200
L59850 33200
" />
<path d="M57750 33800
L58350 33200
" />
<path d="M57750 40400
L57750 33800
" />
<path d="M57400 40750
L57750 40400
" />
<path d="M57400 41550
L57400 40750
" />
<path d="M58050 42200
L57400 41550
" />
<path d="M58050 42950
L58050 42200
" />
<path d="M58800 43700
L57700 43700
" />
<path d="M57700 43700
L57500 43500
" />
</g>
<g style="fill:#000000; fill-opacity:1.0; 
stroke:#000000; stroke-width:100; stroke-opacity:1; 
stroke-linecap:round; stroke-linejoin:round;">
<polyline style="fill-rule:evenodd;"
points="60470,30244
60267,30733
60267,31102
59532,30367
59527,30364
59425,30296
59300,30271
53200,30271
53074,30296
52972,30364
52967,30367
52217,31117
52146,31224
52121,31350
52121,33784
51533,33784
51440,33801
51355,33856
51298,33939
51278,34038
51278,34983
51295,35076
51350,35161
51434,35218
51533,35238
52121,35238
52121,38784
51533,38784
51440,38801
51355,38856
51298,38939
51278,39038
51278,39983
51295,40076
51350,40161
51434,40218
51533,40238
52121,40238
52121,42026
52075,41996
51950,41971
50950,41971
50824,41996
50717,42067
50467,42317
50396,42424
50378,42513
50286,42575
50196,42709
50170,42653
50001,42499
49840,42432
49750,42480
49750,42950
49757,42950
49757,43050
49750,43050
49750,43519
49840,43567
50001,43500
50170,43346
50196,43290
50286,43424
50476,43551
50700,43596
50923,43551
51113,43424
51200,43295
51286,43424
51476,43551
51700,43596
51923,43551
52113,43424
52121,43413
52121,44136
52113,44125
51923,43998
51700,43953
51476,43998
51286,44125
51200,44254
51113,44125
50923,43998
50700,43953
50476,43998
50286,44125
50196,44259
50170,44203
50001,44049
49840,43982
49750,44030
49750,44500
49757,44500
49757,44600
49750,44600
49750,45069
49840,45117
50001,45050
50170,44896
50196,44840
50286,44974
50476,45101
50700,45146
50923,45101
51113,44974
51200,44845
51286,44974
51476,45101
51700,45146
51923,45101
52113,44974
52121,44963
52121,45513
51817,45817
51802,45840
51695,45840
51603,45858
51517,45912
51460,45996
51440,46095
51440,46804
51458,46896
51512,46982
51596,47039
51695,47059
51721,47059
51721,47400
51746,47525
51817,47632
52821,48636
52821,50706
51511,50706
51418,50723
51333,50778
51276,50861
51256,50961
51256,52338
51273,52431
51328,52516
51393,52561
51131,52561
51068,52623
51068,53450
51076,53450
51076,53550
51068,53550
51068,54376
51131,54439
51757,54439
51849,54401
51871,54379
51871,54760
51365,54760
51272,54777
51187,54832
51130,54916
51125,54942
51113,54925
50923,54798
50700,54753
50476,54798
50286,54925
50159,55114
50115,55338
50115,55361
50159,55585
50286,55774
50371,55831
50371,56500
50396,56625
50460,56721
50467,56732
51017,57282
51124,57353
51250,57378
56950,57378
57075,57353
57182,57282
57855,56609
58354,56609
58446,56591
58532,56537
58589,56453
58609,56354
58609,55645
58591,55553
58537,55467
58453,55410
58433,55406
58487,55357
58587,55143
58539,55050
58050,55050
58050,55057
57950,55057
57950,55050
57460,55050
57412,55143
57512,55357
57565,55405
57553,55408
57467,55462
57410,55546
57390,55645
57390,56144
56813,56721
55493,56721
56482,55732
56553,55625
56578,55500
56578,54736
56986,54328
57498,54328
57572,54439
57666,54501
57512,54642
57412,54856
57460,54950
57950,54950
57950,54942
58050,54942
58050,54950
58539,54950
58587,54856
58566,54812
59795,54812
59795,55104
59833,55195
59904,55266
59995,55304
60287,55304
60350,55241
60350,54750
60450,54750
60450,55241
60512,55304
60804,55304
60895,55266
60966,55195
61004,55104
61004,54812
60941,54750
60450,54750
60350,54750
59858,54750
59795,54812
58566,54812
58487,54642
58333,54501
58427,54439
58558,54243
58602,54020
59811,52811
59876,52714
59880,52695
59899,52600
59899,52573
60010,52499
60099,52367
60100,52371
60100,53169
60058,53187
59887,53357
59795,53579
59795,53819
59887,54041
59957,54111
59904,54133
59833,54204
59795,54295
59795,54587
59858,54650
60350,54650
60350,54642
60450,54642
60450,54650
60941,54650
61004,54587
61004,54295
60966,54204
60895,54133
60842,54111
60912,54042
61004,53820
61004,53580
60912,53358
60742,53187
60699,53169
60699,52665
60711,52665
60919,52579
61078,52420
61164,52212
61165,51988
61079,51780
60920,51621
60712,51535
60488,51534
60280,51620
60121,51779
60099,51833
60010,51700
59827,51578
59611,51535
59588,51535
59372,51578
59189,51700
59066,51883
59033,52049
58999,52049
59047,51962
58984,51809
58836,51646
58637,51552
58550,51599
58550,52050
58557,52050
58557,52150
58550,52150
58550,52600
58637,52647
58836,52553
58984,52390
59047,52237
58999,52150
59033,52150
59066,52316
59189,52499
59242,52534
58300,53476
58231,53429
58000,53383
57768,53429
57572,53560
57498,53671
56850,53671
56799,53681
56799,51672
56987,51860
56935,51987
56934,52211
57020,52419
57179,52578
57387,52664
57611,52665
57819,52579
57978,52420
58003,52361
58015,52390
58163,52553
58362,52647
58450,52600
58450,52150
58442,52150
58442,52050
58450,52050
58450,51599
58362,51552
58163,51646
58015,51809
58003,51838
57979,51780
57820,51621
57612,51535
57508,51535
57149,51176
57149,51148
57179,51178
57387,51264
57611,51265
57819,51179
57978,51020
57987,50999
58684,50999
58747,51152
58946,51352
59208,51460
59490,51460
59752,51352
59952,51153
60060,50891
60060,50609
59967,50382
60192,50476
60474,50476
60701,50382
60607,50608
60607,50890
60715,51152
60915,51352
61176,51460
61459,51460
61720,51352
61920,51153
62029,50891
62029,50609
61921,50347
61721,50147
61460,50039
61177,50039
60951,50132
61044,49907
61045,49625
60937,49363
60737,49163
60633,49120
60633,48589
61072,48150
61072,48164
61090,48257
61144,48342
61228,48399
61327,48419
62272,48419
62365,48402
62450,48347
62507,48264
62527,48164
62527,48084
62561,48061
62700,47923
62700,55914
62630,55746
62255,55370
61766,55167
61236,55167
60746,55369
60370,55744
60167,56233
60167,56763
60369,57253
60744,57629
60914,57700
48485,57700
48653,57630
49029,57255
49232,56766
49232,56236
49030,55746
48655,55370
48166,55167
47636,55167
47146,55369
46770,55744
46700,55914
46700,53612
50079,53612
50079,54239
50117,54330
50188,54401
50280,54439
50906,54439
50968,54376
50968,53550
50142,53550
50079,53612
46700,53612
46700,51762
48898,51762
48898,52388
48936,52480
49007,52550
49099,52588
49725,52588
49787,52526
49787,51700
49887,51700
49887,52526
49950,52588
50213,52588
50188,52599
50117,52669
50079,52761
50079,53387
50142,53450
50968,53450
50968,52623
50906,52561
50643,52561
50668,52550
50738,52480
50776,52388
50776,51762
50714,51700
49887,51700
49787,51700
48961,51700
48898,51762
46700,51762
46700,50911
48898,50911
48898,51537
48961,51600
49787,51600
49787,50773
49887,50773
49887,51600
50714,51600
50776,51537
50776,50911
50738,50819
50668,50749
50576,50711
49950,50711
49887,50773
49787,50773
49725,50711
49099,50711
49007,50749
48936,50819
48898,50911
46700,50911
46700,46450
47433,46450
47479,46681
47610,46877
47806,47008
48038,47054
48061,47054
48293,47008
48489,46877
48620,46681
48666,46450
48620,46218
48489,46022
48293,45891
48061,45845
48038,45845
47806,45891
47610,46022
47479,46218
47433,46450
46700,46450
46700,44215
48110,44215
48110,44884
48127,44977
48182,45062
48266,45119
48365,45139
49034,45139
49127,45122
49212,45067
49269,44983
49278,44941
49398,45050
49559,45117
49650,45069
49650,44600
49642,44600
49642,44500
49650,44500
49650,44030
49559,43982
49398,44049
49278,44158
49272,44122
49217,44037
49133,43980
49034,43960
48365,43960
48272,43977
48187,44032
48130,44116
48110,44215
46700,44215
46700,42665
48110,42665
48110,43334
48127,43427
48182,43512
48266,43569
48365,43589
49034,43589
49127,43572
49212,43517
49269,43433
49278,43391
49398,43500
49559,43567
49650,43519
49650,43050
49642,43050
49642,42950
49650,42950
49650,42480
49559,42432
49398,42499
49278,42608
49272,42572
49217,42487
49133,42430
49034,42410
48365,42410
48272,42427
48187,42482
48130,42566
48110,42665
46700,42665
46700,41188
48515,41188
48515,41211
48559,41435
48686,41624
48876,41751
49100,41796
49323,41751
49513,41624
49600,41495
49686,41624
49876,41751
50100,41796
50323,41751
50513,41624
50524,41608
50527,41627
50582,41712
50666,41769
50765,41789
51434,41789
51527,41772
51612,41717
51669,41633
51689,41534
51689,40865
51672,40772
51617,40687
51533,40630
51434,40610
50765,40610
50672,40627
50587,40682
50530,40766
50525,40792
50513,40775
50323,40648
50100,40603
49876,40648
49686,40775
49600,40904
49513,40775
49323,40648
49100,40603
48876,40648
48686,40775
48559,40964
48515,41188
46700,41188
46700,39373
48345,39373
48345,40042
48362,40135
48417,40220
48501,40277
48600,40297
49545,40297
49637,40280
49723,40225
49780,40142
49800,40042
49800,39373
49782,39280
49727,39195
49644,39138
49545,39118
48600,39118
48507,39136
48422,39190
48365,39274
48345,39373
46700,39373
46700,38009
46834,38009
46834,38419
46872,38511
46943,38581
47034,38619
47306,38619
47369,38557
47369,37947
47469,37947
47469,38557
47531,38619
47803,38619
47895,38581
47965,38511
48003,38419
48003,38009
47941,37947
47469,37947
47369,37947
46897,37947
46834,38009
46700,38009
46700,37375
46834,37375
46834,37784
46897,37847
47369,37847
47369,37237
47469,37237
47469,37847
47941,37847
48003,37784
48003,37375
47965,37283
47895,37212
47803,37174
47531,37174
47469,37237
47369,37237
47306,37174
47034,37174
46943,37212
46872,37283
46834,37375
46700,37375
46700,36538
49408,36538
49408,37208
49425,37300
49480,37386
49564,37443
49663,37463
50608,37463
50700,37445
50786,37390
50843,37307
50863,37208
50863,36538
50845,36446
50841,36439
51001,36439
51094,36422
51179,36367
51236,36283
51256,36184
51256,35515
51239,35422
51184,35337
51101,35280
51001,35260
50057,35260
49964,35277
49879,35332
49822,35416
49802,35515
49802,36184
49819,36277
49823,36284
49663,36284
49570,36301
49485,36356
49428,36439
49408,36538
46700,36538
46700,34373
48345,34373
48345,35042
48362,35135
48417,35220
48501,35277
48600,35297
49545,35297
49637,35280
49723,35225
49780,35142
49800,35042
49800,34373
49782,34280
49727,34195
49644,34138
49545,34118
48600,34118
48507,34136
48422,34190
48365,34274
48345,34373
46700,34373
46700,33009
46834,33009
46834,33419
46872,33511
46943,33581
47034,33619
47306,33619
47369,33557
47369,32947
47469,32947
47469,33557
47531,33619
47803,33619
47895,33581
47965,33511
48003,33419
48003,33009
47941,32947
47469,32947
47369,32947
46897,32947
46834,33009
46700,33009
46700,32375
46834,32375
46834,32784
46897,32847
47369,32847
47369,32237
47469,32237
47469,32847
47941,32847
48003,32784
48003,32375
47965,32283
47895,32212
47803,32174
47531,32174
47469,32237
47369,32237
47306,32174
47034,32174
46943,32212
46872,32283
46834,32375
46700,32375
46700,31538
49408,31538
49408,32208
49425,32300
49480,32386
49564,32443
49663,32463
50608,32463
50700,32445
50786,32390
50843,32307
50863,32208
50863,31538
50845,31446
50841,31439
51001,31439
51094,31422
51179,31367
51236,31283
51256,31184
51256,30515
51239,30422
51184,30337
51101,30280
51001,30260
50057,30260
49964,30277
49879,30332
49822,30416
49802,30515
49802,31184
49819,31277
49823,31284
49663,31284
49570,31301
49485,31356
49428,31439
49408,31538
46700,31538
46700,30002
46740,29940
46802,29900
60815,29900
60470,30244
" /> 
<polyline style="fill-rule:evenodd;"
points="62350,44452
62219,44347
62007,44285
61850,44285
61850,44800
61857,44800
61857,44900
61850,44900
61850,44907
61750,44907
61750,44900
61142,44900
61094,44987
61101,45020
61207,45214
61377,45350
61228,45450
61106,45633
61063,45850
61106,46066
61228,46249
61379,46350
61228,46450
61161,46550
61050,46550
60935,46573
60838,46638
59514,47962
59536,47850
59493,47633
59371,47450
59220,47350
59371,47249
59493,47066
59536,46850
59493,46633
59371,46450
59220,46350
59371,46249
59493,46066
59536,45850
59493,45633
59371,45450
59220,45350
59371,45249
59438,45149
60000,45149
60114,45126
60211,45061
60560,44712
61094,44712
61142,44800
61750,44800
61750,44285
61592,44285
61380,44347
61207,44485
61101,44679
61094,44712
60560,44712
61231,44041
61287,44064
61511,44065
61719,43979
61878,43820
61964,43612
61965,43388
61879,43180
61720,43021
61666,42999
61799,42910
61921,42727
61964,42511
61964,42488
61921,42272
61913,42259
62311,41861
62350,41802
62350,44452
" /> 
<polyline style="fill-rule:evenodd;"
points="59200,41699
59612,41699
59620,41719
59779,41878
59959,41953
59809,42015
59646,42163
59552,42362
59599,42450
60050,42450
60050,42442
60150,42442
60150,42450
60157,42450
60157,42550
60150,42550
60150,42557
60050,42557
60050,42550
59599,42550
59552,42637
59646,42836
59809,42984
59838,42996
59780,43020
59621,43179
59535,43387
59535,43441
59352,43624
59321,43472
59199,43289
59067,43200
59119,43179
59278,43020
59364,42812
59365,42588
59279,42380
59120,42221
59099,42212
59099,41679
59200,41699
" /> 
<polyline style="fill-rule:evenodd;"
points="57550,42450
57557,42450
57557,42550
57550,42550
57550,42557
57450,42557
57450,42550
57442,42550
57442,42450
57450,42450
57450,42442
57550,42442
57550,42450
" /> 
<polyline style="fill-rule:evenodd;"
points="59278,36599
59427,36699
59257,36835
59151,37029
59144,37062
59192,37150
59800,37150
59800,37142
59900,37142
59900,37150
59907,37150
59907,37250
59900,37250
59900,37257
59800,37257
59800,37250
59192,37250
59144,37337
59151,37370
59257,37564
59427,37700
59278,37800
59156,37983
59113,38200
59156,38416
59278,38599
59427,38699
59257,38835
59151,39029
59144,39062
59192,39150
59800,39150
59800,39142
59900,39142
59900,39150
60507,39150
60555,39062
60548,39029
60447,38846
60930,38846
60941,39070
61006,39228
61103,39257
61429,38931
61103,38605
61006,38634
60930,38846
60447,38846
60442,38835
60272,38699
60421,38599
60492,38492
60582,38432
60732,38282
60803,38175
60828,38050
60828,37601
60935,37708
60934,37861
61020,38069
61179,38228
61387,38314
61611,38315
61633,38306
61746,38419
61585,38361
61360,38372
61203,38437
61173,38534
61500,38860
61505,38855
61576,38925
61570,38931
61576,38937
61505,39007
61500,39002
61173,39328
61203,39425
61414,39501
61639,39490
61796,39425
61800,39412
61800,40413
61612,40335
61388,40334
61180,40420
61021,40579
60935,40787
60934,41011
61020,41219
61138,41337
60862,41614
60811,41538
60664,41391
60665,41288
60579,41080
60420,40921
60212,40835
59988,40834
59780,40920
59621,41079
59612,41100
59323,41100
59299,41076
59299,40753
59377,40769
60322,40769
60415,40752
60500,40697
60557,40614
60577,40514
60577,39885
60559,39792
60505,39707
60421,39650
60352,39636
60442,39564
60548,39370
60555,39337
60507,39250
59900,39250
59900,39257
59800,39257
59800,39250
59192,39250
59144,39337
59151,39370
59257,39564
59346,39635
59284,39647
59199,39702
59142,39785
59122,39885
59122,40199
58549,39626
58549,36573
58623,36499
59211,36499
59278,36599
" /> 
<polyline style="fill-rule:evenodd;"
points="58500,40773
58500,40959
58457,41003
58428,40906
58216,40830
57992,40841
57834,40906
57805,41003
58131,41329
58137,41323
58207,41394
58202,41400
58207,41405
58137,41476
58131,41470
58125,41476
58055,41405
58060,41400
57734,41073
57699,41084
57699,40873
57961,40611
58026,40514
58049,40400
58049,40322
58500,40773
" /> 
<polyline style="fill-rule:evenodd;"
points="62700,35926
62343,35569
62245,35505
62131,35482
61987,35482
61979,35461
61820,35302
61612,35216
61388,35216
61249,35273
61249,34823
61266,34806
61287,34814
61511,34815
61719,34729
61878,34570
61964,34362
61965,34138
61879,33930
61720,33771
61661,33746
61690,33734
61853,33586
61947,33387
61900,33300
61450,33300
61450,33307
61350,33307
61350,33300
60899,33300
60852,33387
60946,33586
61109,33734
61138,33746
61080,33770
60921,33929
60835,34137
60834,34361
60843,34383
60828,34398
60828,33112
60852,33112
60899,33200
61350,33200
61350,32750
61450,32750
61450,33200
61900,33200
61947,33112
61853,32913
61690,32765
61537,32702
61450,32750
61350,32750
61262,32702
61109,32765
60946,32913
60852,33112
60828,33112
60828,32113
60844,32129
61333,32332
61863,32332
62353,32130
62700,31784
62700,35926
" /> 
</g> 
</svg>
