<?xml version="1.0" standalone="no"?>
 <!DOCTYPE svg PUBLIC "-//W3C//DTD SVG 1.1//EN" 
 "http://www.w3.org/Graphics/SVG/1.1/DTD/svg11.dtd"> 
<svg xmlns="http://www.w3.org/2000/svg" version="1.1" 
    width="29.7002cm" height="21.0007cm" viewBox="0 0 116930 82680 ">
<title>SVG Picture created as vumeter-F.SilkS.svg date 2017/08/19 21:29:09 </title>
  <desc>Picture generated by PCBNEW </desc>
<g style="fill:#000000; fill-opacity:1;stroke:#000000; stroke-opacity:1;
stroke-linecap:round; stroke-linejoin:round; "
 transform="translate(0 0) scale(1 1)">
</g>
<g style="fill:#000000; fill-opacity:0.0; 
stroke:#000000; stroke-width:-0.000393701; stroke-opacity:1; 
stroke-linecap:round; stroke-linejoin:round;">
</g>
<g style="fill:#000000; fill-opacity:0.0; 
stroke:#000000; stroke-width:118.11; stroke-opacity:1; 
stroke-linecap:round; stroke-linejoin:round;">
<path d="M46971 41467
L46690 41467
L46690 40876
" />
<path d="M47168 41242
L47618 41242
" />
<path d="M48237 41467
L48040 41185
" />
<path d="M47899 41467
L47899 40876
L48124 40876
L48181 40904
L48209 40932
L48237 40989
L48237 41073
L48209 41129
L48181 41157
L48124 41185
L47899 41185
" />
</g>
<g style="fill:#000000; fill-opacity:0.0; 
stroke:#000000; stroke-width:78.7402; stroke-opacity:1; 
stroke-linecap:round; stroke-linejoin:round;">
<path d="M60650 38500
L60650 40700
" />
<path d="M60650 38200
L60650 33000
" />
<path d="M46700 49650
L46700 48750
" />
<path d="M50250 49650
L46700 49650
" />
<path d="M50250 48750
L50250 49650
" />
<path d="M46700 48750
L50250 48750
" />
</g>
<g style="fill:#000000; fill-opacity:0.0; 
stroke:#000000; stroke-width:59.0551; stroke-opacity:1; 
stroke-linecap:round; stroke-linejoin:round;">
<path d="M46679 47177
L46784 47492
L46889 47177
" />
<path d="M46919 47522
L47159 47522
" />
<path d="M47399 47492
L47219 47492
" />
<path d="M47309 47492
L47309 47177
L47279 47222
L47249 47252
L47219 47267
" />
<path d="M47534 47462
L47549 47477
L47534 47492
L47519 47477
L47534 47462
L47534 47492
" />
<path d="M47744 47177
L47774 47177
L47804 47192
L47819 47207
L47834 47237
L47849 47297
L47849 47372
L47834 47432
L47819 47462
L47804 47477
L47774 47492
L47744 47492
L47714 47477
L47699 47462
L47684 47432
L47669 47372
L47669 47297
L47684 47237
L47699 47207
L47714 47192
L47744 47177
" />
<path d="M46724 47827
L46829 47827
" />
<path d="M46874 47992
L46724 47992
L46724 47677
L46874 47677
" />
<path d="M47009 47782
L47009 47992
" />
<path d="M47009 47812
L47024 47797
L47054 47782
L47099 47782
L47129 47797
L47144 47827
L47144 47992
" />
<path d="M47294 47992
L47294 47782
" />
<path d="M47294 47842
L47309 47812
L47324 47797
L47354 47782
L47384 47782
" />
<path d="M47489 47992
L47489 47782
" />
<path d="M47489 47677
L47474 47692
L47489 47707
L47504 47692
L47489 47677
L47489 47707
" />
<path d="M47774 47782
L47774 48097
" />
<path d="M47774 47977
L47744 47992
L47684 47992
L47654 47977
L47639 47962
L47624 47932
L47624 47842
L47639 47812
L47654 47797
L47684 47782
L47744 47782
L47774 47797
" />
<path d="M48059 47782
L48059 47992
" />
<path d="M47924 47782
L47924 47947
L47939 47977
L47969 47992
L48014 47992
L48044 47977
L48059 47962
" />
<path d="M48329 47977
L48299 47992
L48239 47992
L48209 47977
L48194 47947
L48194 47827
L48209 47797
L48239 47782
L48299 47782
L48329 47797
L48344 47827
L48344 47857
L48194 47887
" />
<path d="M46904 48492
L46799 48342
" />
<path d="M46724 48492
L46724 48177
L46844 48177
L46874 48192
L46889 48207
L46904 48237
L46904 48282
L46889 48312
L46874 48327
L46844 48342
L46724 48342
" />
<path d="M47039 48492
L47039 48282
" />
<path d="M47039 48177
L47024 48192
L47039 48207
L47054 48192
L47039 48177
L47039 48207
" />
<path d="M47189 48282
L47189 48492
" />
<path d="M47189 48312
L47204 48297
L47234 48282
L47279 48282
L47309 48297
L47324 48327
L47324 48492
" />
<path d="M47609 48477
L47579 48492
L47519 48492
L47489 48477
L47474 48462
L47459 48432
L47459 48342
L47474 48312
L47489 48297
L47519 48282
L47579 48282
L47609 48297
" />
<path d="M47789 48492
L47759 48477
L47744 48462
L47729 48432
L47729 48342
L47744 48312
L47759 48297
L47789 48282
L47834 48282
L47864 48297
L47879 48312
L47894 48342
L47894 48432
L47879 48462
L47864 48477
L47834 48492
L47789 48492
" />
<path d="M47849 48162
L47804 48207
" />
<path d="M48029 48282
L48029 48492
" />
<path d="M48029 48312
L48044 48297
L48074 48282
L48119 48282
L48149 48297
L48164 48327
L48164 48492
" />
<path d="M48314 48492
L48314 48177
" />
<path d="M48464 48282
L48464 48492
" />
<path d="M48464 48312
L48479 48297
L48509 48282
L48554 48282
L48584 48297
L48599 48327
L48599 48492
" />
<path d="M48884 48282
L48884 48537
L48869 48567
L48854 48582
L48824 48597
L48779 48597
L48749 48582
" />
<path d="M48884 48477
L48854 48492
L48794 48492
L48764 48477
L48749 48462
L48734 48432
L48734 48342
L48749 48312
L48764 48297
L48794 48282
L48854 48282
L48884 48297
" />
<path d="M49154 48477
L49124 48492
L49064 48492
L49034 48477
L49019 48447
L49019 48327
L49034 48297
L49064 48282
L49124 48282
L49154 48297
L49169 48327
L49169 48357
L49019 48387
" />
<path d="M49304 48282
L49304 48492
" />
<path d="M49304 48312
L49319 48297
L49349 48282
L49394 48282
L49424 48297
L49439 48327
L49439 48492
" />
<path d="M49589 48492
L49589 48282
" />
<path d="M49589 48177
L49574 48192
L49589 48207
L49604 48192
L49589 48177
L49589 48207
" />
<path d="M49859 48477
L49829 48492
L49769 48492
L49739 48477
L49724 48447
L49724 48327
L49739 48297
L49769 48282
L49829 48282
L49859 48297
L49874 48327
L49874 48357
L49724 48387
" />
<path d="M50009 48492
L50009 48282
" />
<path d="M50009 48342
L50024 48312
L50039 48297
L50069 48282
L50099 48282
" />
<path d="M50204 48492
L50204 48282
" />
<path d="M50204 48177
L50189 48192
L50204 48207
L50219 48192
L50204 48177
L50204 48207
" />
<path d="M50399 48492
L50369 48477
L50354 48447
L50354 48177
" />
<path d="M62728 42909
L62728 43190
L62334 43190
" />
<path d="M62728 42627
L62709 42684
L62690 42712
L62653 42740
L62540 42740
L62503 42712
L62484 42684
L62465 42627
L62465 42543
L62484 42487
L62503 42459
L62540 42431
L62653 42431
L62690 42459
L62709 42487
L62728 42543
L62728 42627
" />
<path d="M62465 42234
L62728 42121
L62540 42009
L62728 41896
L62465 41784
" />
<path d="M62728 41109
L62334 41109
L62334 40884
L62353 40828
L62371 40800
L62409 40771
L62465 40771
L62503 40800
L62521 40828
L62540 40884
L62540 41109
" />
<path d="M62728 40265
L62521 40265
L62484 40293
L62465 40350
L62465 40462
L62484 40518
" />
<path d="M62709 40265
L62728 40321
L62728 40462
L62709 40518
L62671 40546
L62634 40546
L62596 40518
L62578 40462
L62578 40321
L62559 40265
" />
<path d="M62709 40012
L62728 39956
L62728 39843
L62709 39787
L62671 39759
L62653 39759
L62615 39787
L62596 39843
L62596 39928
L62578 39984
L62540 40012
L62521 40012
L62484 39984
L62465 39928
L62465 39843
L62484 39787
" />
<path d="M62709 39534
L62728 39478
L62728 39365
L62709 39309
L62671 39281
L62653 39281
L62615 39309
L62596 39365
L62596 39450
L62578 39506
L62540 39534
L62521 39534
L62484 39506
L62465 39450
L62465 39365
L62484 39309
" />
<path d="M62728 37709
L62334 37709
" />
<path d="M62521 37709
L62521 37371
" />
<path d="M62728 37371
L62334 37371
" />
<path d="M62728 37090
L62465 37090
" />
<path d="M62334 37090
L62353 37118
L62371 37090
L62353 37062
L62334 37090
L62371 37090
" />
<path d="M62465 36556
L62784 36556
L62821 36584
L62840 36612
L62859 36668
L62859 36752
L62840 36809
" />
<path d="M62709 36556
L62728 36612
L62728 36724
L62709 36781
L62690 36809
L62653 36837
L62540 36837
L62503 36809
L62484 36781
L62465 36724
L62465 36612
L62484 36556
" />
<path d="M62728 36274
L62334 36274
" />
<path d="M62728 36021
L62521 36021
L62484 36049
L62465 36106
L62465 36190
L62484 36246
L62503 36274
" />
<path d="M62728 35290
L62334 35290
L62334 35065
L62353 35009
L62371 34981
L62409 34953
L62465 34953
L62503 34981
L62521 35009
L62540 35065
L62540 35290
" />
<path d="M62728 34447
L62521 34447
L62484 34475
L62465 34531
L62465 34643
L62484 34700
" />
<path d="M62709 34447
L62728 34503
L62728 34643
L62709 34700
L62671 34728
L62634 34728
L62596 34700
L62578 34643
L62578 34503
L62559 34447
" />
<path d="M62709 34193
L62728 34137
L62728 34025
L62709 33968
L62671 33940
L62653 33940
L62615 33968
L62596 34025
L62596 34109
L62578 34165
L62540 34193
L62521 34193
L62484 34165
L62465 34109
L62465 34025
L62484 33968
" />
<path d="M62709 33715
L62728 33659
L62728 33547
L62709 33490
L62671 33462
L62653 33462
L62615 33490
L62596 33547
L62596 33631
L62578 33687
L62540 33715
L62521 33715
L62484 33687
L62465 33631
L62465 33547
L62484 33490
" />
</g>
<g style="fill:#000000; fill-opacity:0.0; 
stroke:#000000; stroke-width:78.7402; stroke-opacity:1; 
stroke-linecap:round; stroke-linejoin:round;">
<path d="M62150 38200
L62150 33000
" />
<path d="M62150 38500
L62150 44050
" />
</g>
<g style="fill:#000000; fill-opacity:0.0; 
stroke:#000000; stroke-width:47.2441; stroke-opacity:1; 
stroke-linecap:round; stroke-linejoin:round;">
<path d="M58381 50774
L58381 48836
" />
<path d="M62287 50774
L62287 48836
" />
<path d="M58381 48836
L62287 48836
" />
<path d="M61855 50774
L62287 50774
" />
<path d="M58381 50774
L58812 50774
" />
<path d="M59887 50774
L60781 50774
" />
<path d="M59720 50283
L59720 48836
" />
<path d="M60948 50283
L60948 48836
" />
<path d="M59887 50774
L60781 50774
" />
<path d="M59720 48836
L60948 48836
" />
<path d="M60693 48397
L61233 48397
" />
<path d="M61233 48397
L61233 44302
" />
<path d="M61233 44302
L59366 44302
" />
<path d="M59366 44302
L59366 48397
" />
<path d="M59366 48397
L59906 48397
" />
<path d="M60693.7 48397.2 A393.701 393.701 0.0 0 0 59906.3 48397.2 " />
<path d="M52223 45073
L52223 44026
" />
<path d="M49200 45073
L52223 45073
" />
<path d="M49200 44026
L52223 44026
" />
<path d="M49200 45073
L49200 44026
" />
<path d="M48700 45073
L48176 45073
" />
<path d="M48176 45073
L48176 44550
" />
<path d="M58743 40747
L59283 40747
" />
<path d="M59283 40747
L59283 31652
" />
<path d="M59283 31652
L57416 31652
" />
<path d="M57416 31652
L57416 40747
" />
<path d="M57416 40747
L57956 40747
" />
<path d="M58743.7 40747.2 A393.701 393.701 0.0 0 0 57956.3 40747.2 " />
<path d="M60517 41817
L57714 41817
" />
<path d="M60517 40982
L57714 40982
" />
<path d="M60517 41817
L60517 40982
" />
<path d="M57714 41817
L57714 40982
" />
</g>
<g style="fill:#000000; fill-opacity:0.0; 
stroke:#000000; stroke-width:59.0551; stroke-opacity:1; 
stroke-linecap:round; stroke-linejoin:round;">
<path d="M46750 31850
L46250 31850
" />
<path d="M46250 31850
L46250 34350
" />
<path d="M46250 34350
L46750 34350
" />
<path d="M46750 35200
L46750 30850
" />
<path d="M52450 35200
L46750 35200
" />
<path d="M51200 30850
L52450 30850
" />
<path d="M52450 30850
L52450 35200
" />
<path d="M46750 30850
L49800 30850
" />
<path d="M49800 30850
L49750 30850
" />
</g>
<g style="fill:#000000; fill-opacity:0.0; 
stroke:#000000; stroke-width:47.2441; stroke-opacity:1; 
stroke-linecap:round; stroke-linejoin:round;">
<path d="M52223 43523
L52223 42476
" />
<path d="M49200 43523
L52223 43523
" />
<path d="M49200 42476
L52223 42476
" />
<path d="M49200 43523
L49200 42476
" />
<path d="M48700 43523
L48176 43523
" />
<path d="M48176 43523
L48176 43000
" />
<circle cx="57500" cy="43500" r="515.748" /> 
<path d="M57500 42984
L57500 42933
" />
<circle cx="60100" cy="43500" r="515.748" /> 
<path d="M60100 42984
L60100 42933
" />
<path d="M51097 47005
L51097 45894
" />
<path d="M51097 45894
L49002 45894
" />
<path d="M49002 45894
L49002 47005
" />
<path d="M49002 47005
L51097 47005
" />
<path d="M51624 46450
L51097 46450
" />
<path d="M48475 46450
L49002 46450
" />
<path d="M50766 47005
L50766 45894
" />
<path d="M61082 38167
L61082 35364
" />
<path d="M61917 38167
L61917 35364
" />
<path d="M61082 38167
L61917 38167
" />
<path d="M61082 35364
L61917 35364
" />
<path d="M61082 41317
L61082 38514
" />
<path d="M61917 41317
L61917 38514
" />
<path d="M61082 41317
L61917 41317
" />
<path d="M61082 38514
L61917 38514
" />
<path d="M60400.2 53022.8 A1177.17 1177.17 0.0 0 0 59791.8 55207.9 " />
<path d="M61008.2 55207.9 A1177.17 1177.17 0.0 0 0 60399.8 53022.8 " />
<circle cx="60400" cy="54200" r="984.252" /> 
<path d="M59791 55207
L61008 55207
" />
<path d="M58005 45652
L56894 45652
" />
<path d="M56894 45652
L56894 47747
" />
<path d="M56894 47747
L58005 47747
" />
<path d="M58005 47747
L58005 45652
" />
<path d="M57450 45125
L57450 45652
" />
<path d="M57450 48274
L57450 47747
" />
<path d="M58005 45983
L56894 45983
" />
<path d="M53222.8 55599.8 A1177.17 1177.17 0.0 0 0 55407.9 56208.2 " />
<path d="M55407.9 54991.8 A1177.17 1177.17 0.0 0 0 53222.8 55600.2 " />
<circle cx="54400" cy="55600" r="984.252" /> 
<path d="M55407 56208
L55407 54991
" />
<path d="M53222.8 52999.8 A1177.17 1177.17 0.0 0 0 55407.9 53608.2 " />
<path d="M55407.9 52391.8 A1177.17 1177.17 0.0 0 0 53222.8 53000.2 " />
<circle cx="54400" cy="53000" r="984.252" /> 
<path d="M55407 53608
L55407 52391
" />
<path d="M53222.8 50399.8 A1177.17 1177.17 0.0 0 0 55407.9 51008.2 " />
<path d="M55407.9 49791.8 A1177.17 1177.17 0.0 0 0 53222.8 50400.2 " />
<circle cx="54400" cy="50400" r="984.252" /> 
<path d="M55407 51008
L55407 49791
" />
<path d="M53222.8 47799.8 A1177.17 1177.17 0.0 0 0 55407.9 48408.2 " />
<path d="M55407.9 47191.8 A1177.17 1177.17 0.0 0 0 53222.8 47800.2 " />
<circle cx="54400" cy="47800" r="984.252" /> 
<path d="M55407 48408
L55407 47191
" />
<path d="M53222.8 45199.8 A1177.17 1177.17 0.0 0 0 55407.9 45808.2 " />
<path d="M55407.9 44591.8 A1177.17 1177.17 0.0 0 0 53222.8 45200.2 " />
<circle cx="54400" cy="45200" r="984.252" /> 
<path d="M55407 45808
L55407 44591
" />
<path d="M53222.8 42599.8 A1177.17 1177.17 0.0 0 0 55407.9 43208.2 " />
<path d="M55407.9 41991.8 A1177.17 1177.17 0.0 0 0 53222.8 42600.2 " />
<circle cx="54400" cy="42600" r="984.252" /> 
<path d="M55407 43208
L55407 41991
" />
<path d="M53222.8 39999.8 A1177.17 1177.17 0.0 0 0 55407.9 40608.2 " />
<path d="M55407.9 39391.8 A1177.17 1177.17 0.0 0 0 53222.8 40000.2 " />
<circle cx="54400" cy="40000" r="984.252" /> 
<path d="M55407 40608
L55407 39391
" />
<path d="M53222.8 37399.8 A1177.17 1177.17 0.0 0 0 55407.9 38008.2 " />
<path d="M55407.9 36791.8 A1177.17 1177.17 0.0 0 0 53222.8 37400.2 " />
<circle cx="54400" cy="37400" r="984.252" /> 
<path d="M55407 38008
L55407 36791
" />
<path d="M53222.8 34799.8 A1177.17 1177.17 0.0 0 0 55407.9 35408.2 " />
<path d="M55407.9 34191.8 A1177.17 1177.17 0.0 0 0 53222.8 34800.2 " />
<circle cx="54400" cy="34800" r="984.252" /> 
<path d="M55407 35408
L55407 34191
" />
<path d="M53222.8 32199.8 A1177.17 1177.17 0.0 0 0 55407.9 32808.2 " />
<path d="M55407.9 31591.8 A1177.17 1177.17 0.0 0 0 53222.8 32200.2 " />
<circle cx="54400" cy="32200" r="984.252" /> 
<path d="M55407 32808
L55407 31591
" />
</g>
<g style="fill:#000000; fill-opacity:0.0; 
stroke:#000000; stroke-width:59.0551; stroke-opacity:1; 
stroke-linecap:round; stroke-linejoin:round;">
<path d="M46750 36850
L46250 36850
" />
<path d="M46250 36850
L46250 39350
" />
<path d="M46250 39350
L46750 39350
" />
<path d="M46750 40200
L46750 35850
" />
<path d="M52450 40200
L46750 40200
" />
<path d="M51200 35850
L52450 35850
" />
<path d="M52450 35850
L52450 40200
" />
<path d="M46750 35850
L49800 35850
" />
<path d="M49800 35850
L49750 35850
" />
</g>
<g style="fill:#000000; fill-opacity:0.0; 
stroke:#000000; stroke-width:47.2441; stroke-opacity:1; 
stroke-linecap:round; stroke-linejoin:round;">
<path d="M48576 40676
L48576 41723
" />
<path d="M50600 40676
L48576 40676
" />
<path d="M50600 41723
L48576 41723
" />
<path d="M50600 40676
L50600 41723
" />
<path d="M51100 40676
L51623 40676
" />
<path d="M51623 40676
L51623 41200
" />
<path d="M50231 53461
L46766 53461
" />
<path d="M46766 53461
L46766 49838
" />
<path d="M52554 52398
L52554 53461
" />
<path d="M52554 53461
L51806 53461
" />
<path d="M46766 49838
L52554 49838
" />
<path d="M52554 49838
L52554 50862
" />
<path d="M50176 54826
L50176 55873
" />
<path d="M51200 54826
L50176 54826
" />
<path d="M51200 55873
L50176 55873
" />
<path d="M51200 54826
L51200 55873
" />
<path d="M51700 54826
L52223 54826
" />
<path d="M52223 54826
L52223 55350
" />
<circle cx="57500" cy="52100" r="515.748" /> 
<path d="M58015 52100
L58066 52100
" />
<circle cx="57500" cy="50700" r="515.748" /> 
<path d="M57500 50184
L57500 50133
" />
<circle cx="61400" cy="34250" r="515.748" /> 
<path d="M61400 33734
L61400 33683
" />
<circle cx="61400" cy="43500" r="515.748" /> 
<path d="M61400 42984
L61400 42933
" />
<circle cx="58800" cy="42700" r="515.748" /> 
<path d="M58800 43215
L58800 43266
" />
<circle cx="60600" cy="52100" r="515.748" /> 
<path d="M60084 52100
L60033 52100
" />
<path d="M56968 57015
L56968 52984
" />
<path d="M58795 57015
L58795 52984
" />
<path d="M56968 57015
L58795 57015
" />
<path d="M56968 52984
L58795 52984
" />
<path d="M57562 57015
L57562 52984
" />
<path d="M56968 55728
L57562 55728
" />
<path d="M56968 54271
L57562 54271
" />
</g>
<g style="fill:#000000; fill-opacity:1.0; 
stroke:#000000; stroke-width:3.93701; stroke-opacity:1; 
stroke-linecap:round; stroke-linejoin:round;">
<polyline style="fill-rule:evenodd;"
points="50955,49155
50976,49166
50996,49186
51001,49194
51007,49203
51010,49214
51013,49228
51014,49248
51014,49275
51013,49312
51009,49340
51003,49360
50993,49376
50978,49389
50977,49390
50963,49397
50946,49401
50924,49402
50888,49402
50888,49437
50888,49456
50886,49468
50880,49474
50870,49480
50868,49481
50856,49487
50848,49490
50841,49491
50837,49487
50834,49477
50832,49461
50831,49437
50831,49405
50832,49362
50832,49350
50833,49306
50833,49277
50888,49277
50888,49301
50890,49317
50893,49328
50898,49336
50902,49340
50917,49351
50931,49352
50945,49343
50945,49342
50951,49335
50954,49325
50956,49310
50957,49286
50957,49281
50955,49248
50951,49226
50943,49212
50932,49206
50925,49205
50909,49208
50898,49218
50891,49235
50888,49262
50888,49277
50833,49277
50833,49272
50834,49246
50835,49227
50837,49214
50839,49205
50842,49198
50845,49192
50847,49189
50869,49168
50896,49155
50927,49152
50955,49155
" /> 
<polyline style="fill-rule:evenodd;"
points="51394,49158
51412,49169
51425,49180
51434,49191
51441,49204
51445,49222
51447,49246
51448,49279
51448,49302
51448,49389
51424,49400
51400,49410
51397,49316
51395,49281
51394,49255
51393,49237
51391,49226
51388,49219
51384,49214
51383,49213
51364,49206
51345,49209
51334,49217
51329,49222
51326,49230
51324,49241
51323,49257
51322,49282
51322,49308
51322,49340
51322,49363
51320,49378
51316,49388
51309,49395
51299,49400
51285,49405
51270,49411
51272,49309
51273,49273
51274,49246
51275,49227
51277,49213
51279,49203
51283,49196
51288,49189
51309,49167
51336,49155
51365,49152
51394,49158
" /> 
<polyline style="fill-rule:evenodd;"
points="50735,49156
50761,49170
50781,49193
50788,49207
50794,49229
50796,49257
50797,49287
50795,49317
50790,49342
50784,49360
50782,49364
50758,49387
50730,49401
50699,49405
50668,49399
50660,49395
50643,49383
50628,49368
50627,49366
50621,49356
50617,49346
50615,49333
50614,49313
50614,49286
50614,49280
50614,49278
50671,49278
50671,49304
50673,49321
50675,49332
50680,49340
50682,49342
50696,49352
50709,49352
50723,49343
50731,49334
50735,49321
50738,49300
50738,49298
50739,49260
50734,49232
50724,49214
50709,49206
50704,49205
50690,49207
50680,49215
50674,49230
50671,49253
50671,49278
50614,49278
50614,49250
50615,49229
50617,49215
50620,49205
50625,49195
50627,49194
50646,49170
50667,49157
50693,49152
50702,49151
50735,49156
" /> 
<polyline style="fill-rule:evenodd;"
points="51178,49160
51201,49175
51218,49197
51229,49225
51231,49245
51231,49254
51229,49260
51223,49266
51212,49273
51195,49281
51168,49293
51168,49293
51144,49304
51124,49314
51110,49322
51105,49326
51105,49326
51110,49335
51120,49345
51132,49352
51138,49354
51155,49349
51169,49336
51176,49323
51183,49312
51196,49301
51211,49291
51225,49286
51228,49285
51231,49290
51231,49303
51229,49320
51224,49338
51218,49353
51218,49354
51200,49379
51176,49397
51149,49405
51121,49404
51095,49393
51094,49392
51073,49373
51059,49348
51051,49316
51050,49307
51048,49263
51050,49243
51105,49243
51106,49256
51110,49259
51120,49257
51135,49250
51152,49242
51152,49242
51167,49234
51173,49229
51171,49224
51165,49217
51150,49207
51133,49206
51118,49213
51108,49227
51105,49243
51050,49243
51052,49229
51062,49201
51075,49182
51099,49162
51126,49153
51153,49152
51178,49160
" /> 
<polyline style="fill-rule:evenodd;"
points="51654,49128
51655,49152
51657,49165
51660,49171
51664,49172
51665,49171
51682,49166
51704,49166
51726,49171
51740,49178
51754,49189
51765,49202
51772,49218
51776,49239
51779,49267
51779,49305
51779,49312
51780,49393
51762,49399
51749,49403
51742,49405
51742,49405
51741,49400
51740,49385
51740,49363
51740,49335
51740,49318
51739,49284
51739,49260
51738,49244
51736,49233
51733,49226
51729,49220
51726,49218
51708,49207
51688,49206
51670,49215
51666,49218
51661,49224
51658,49232
51656,49242
51654,49258
51654,49281
51654,49312
51654,49393
51636,49399
51623,49403
51616,49405
51616,49405
51615,49400
51615,49384
51614,49360
51614,49329
51614,49293
51614,49252
51614,49096
51632,49088
51651,49080
51654,49128
" /> 
<polyline style="fill-rule:evenodd;"
points="51915,49168
51938,49176
51938,49176
51952,49186
51962,49198
51969,49214
51974,49235
51977,49263
51978,49301
51978,49306
51981,49387
51963,49396
51951,49402
51943,49405
51943,49405
51941,49400
51940,49386
51940,49365
51940,49348
51939,49320
51938,49303
51934,49295
51925,49294
51908,49301
51884,49312
51866,49322
51857,49330
51854,49339
51854,49339
51858,49355
51872,49363
51892,49364
51907,49364
51914,49368
51919,49378
51922,49391
51918,49399
51916,49400
51902,49404
51882,49405
51862,49402
51847,49397
51827,49380
51816,49356
51814,49337
51816,49321
51822,49307
51834,49295
51854,49283
51883,49269
51885,49269
51912,49256
51928,49246
51935,49237
51933,49228
51924,49218
51921,49215
51903,49206
51884,49206
51867,49215
51856,49232
51855,49236
51845,49252
51832,49260
51814,49268
51814,49248
51819,49218
51836,49192
51845,49183
51864,49171
51889,49166
51915,49168
" /> 
<polyline style="fill-rule:evenodd;"
points="52108,49167
52134,49177
52155,49194
52163,49206
52172,49227
52172,49243
52163,49254
52159,49256
52144,49261
52137,49260
52134,49250
52134,49245
52129,49226
52117,49212
52099,49206
52080,49208
52064,49216
52059,49221
52055,49227
52053,49236
52051,49250
52050,49270
52049,49300
52049,49310
52048,49342
52047,49365
52046,49380
52044,49389
52041,49394
52036,49397
52033,49399
52020,49404
52013,49405
52010,49400
52009,49384
52008,49357
52009,49318
52009,49312
52010,49277
52011,49252
52012,49234
52014,49221
52018,49212
52022,49204
52024,49201
52037,49186
52052,49175
52054,49174
52080,49166
52108,49167
" /> 
<polyline style="fill-rule:evenodd;"
points="52368,49213
52368,49255
52368,49288
52367,49313
52366,49331
52364,49343
52362,49353
52359,49360
52357,49364
52337,49386
52313,49400
52285,49405
52258,49400
52242,49392
52225,49378
52213,49361
52206,49338
52203,49307
52202,49285
52202,49284
52242,49284
52243,49309
52244,49326
52246,49337
52251,49345
52256,49351
52275,49363
52295,49364
52313,49354
52315,49353
52321,49346
52325,49338
52327,49326
52328,49307
52328,49286
52328,49260
52327,49242
52324,49231
52319,49223
52316,49218
52298,49207
52278,49206
52259,49215
52256,49218
52249,49225
52245,49233
52243,49245
52242,49264
52242,49284
52202,49284
52204,49249
52208,49222
52217,49202
52231,49186
52242,49178
52261,49169
52284,49165
52305,49166
52317,49171
52321,49172
52324,49167
52326,49155
52328,49136
52330,49115
52332,49102
52337,49095
52345,49090
52350,49088
52368,49080
52368,49213
" /> 
<polyline style="fill-rule:evenodd;"
points="52600,49171
52601,49186
52602,49209
52602,49237
52602,49268
52602,49370
52584,49388
52572,49399
52561,49404
52546,49404
52540,49403
52521,49401
52506,49399
52502,49399
52490,49400
52472,49402
52465,49403
52448,49404
52436,49401
52425,49392
52420,49388
52402,49370
52402,49178
52417,49172
52429,49167
52437,49165
52439,49171
52440,49186
52442,49209
52443,49239
52444,49264
52445,49362
52459,49364
52471,49363
52477,49359
52479,49350
52480,49333
52482,49309
52482,49279
52482,49264
52482,49178
52500,49171
52513,49167
52520,49165
52520,49165
52521,49171
52522,49186
52522,49208
52523,49237
52524,49264
52525,49362
52560,49362
52561,49272
52563,49183
52579,49174
52592,49168
52599,49165
52599,49165
52600,49171
" /> 
<polyline style="fill-rule:evenodd;"
points="52744,49170
52760,49177
52773,49186
52783,49196
52789,49209
52793,49227
52796,49252
52797,49285
52797,49307
52797,49392
52782,49399
52771,49403
52765,49405
52764,49400
52763,49386
52762,49365
52762,49348
52762,49324
52761,49305
52759,49293
52757,49291
52747,49293
52731,49300
52713,49309
52695,49318
52681,49327
52675,49332
52675,49333
52676,49343
52681,49354
52689,49362
52702,49365
52713,49364
52728,49364
52736,49368
52741,49377
52741,49379
52743,49392
52738,49401
52723,49404
52707,49405
52679,49400
52665,49392
52647,49374
52637,49352
52636,49329
52644,49307
52656,49294
52669,49286
52688,49277
52710,49267
52714,49265
52738,49255
52752,49245
52757,49236
52752,49225
52745,49217
52728,49206
52709,49206
52692,49214
52679,49229
52678,49233
52668,49248
52654,49259
52637,49268
52637,49243
52638,49227
52642,49214
52652,49201
52661,49191
52676,49177
52687,49169
52700,49166
52714,49165
52744,49170
" /> 
<polyline style="fill-rule:evenodd;"
points="52944,49171
52951,49174
52967,49187
52981,49205
52990,49225
52991,49235
52986,49249
52976,49256
52965,49260
52960,49261
52957,49255
52952,49242
52950,49237
52938,49217
52921,49207
52899,49207
52897,49207
52885,49213
52876,49224
52870,49242
52867,49267
52865,49303
52865,49321
52865,49351
52865,49371
52863,49384
52861,49391
52857,49395
52851,49398
52851,49399
52839,49403
52834,49405
52833,49400
52832,49385
52831,49362
52831,49334
52831,49314
52831,49274
52833,49243
52835,49221
52840,49204
52847,49192
52857,49183
52867,49176
52891,49168
52918,49166
52944,49171
" /> 
<polyline style="fill-rule:evenodd;"
points="53141,49174
53164,49189
53175,49202
53183,49226
53184,49245
53182,49270
53124,49296
53095,49309
53077,49320
53067,49329
53065,49338
53071,49347
53077,49354
53094,49364
53113,49365
53130,49357
53143,49341
53145,49335
53156,49317
53168,49310
53185,49303
53185,49328
53184,49344
53178,49359
53165,49375
53164,49377
53150,49391
53138,49399
53123,49402
53111,49404
53089,49404
53073,49400
53063,49395
53048,49383
53037,49370
53030,49354
53027,49332
53025,49302
53025,49286
53026,49268
53060,49268
53061,49278
53062,49280
53068,49277
53082,49272
53101,49263
53105,49262
53129,49249
53142,49239
53145,49229
53138,49219
53133,49214
53112,49205
53093,49207
53076,49218
53065,49237
53062,49252
53060,49268
53026,49268
53026,49251
53029,49224
53034,49205
53043,49191
53056,49180
53061,49176
53087,49167
53114,49166
53141,49174
" /> 
<polyline style="fill-rule:evenodd;"
points="51940,47314
51971,47314
51994,47314
52009,47315
52019,47317
52024,47319
52027,47322
52028,47326
52028,47327
52030,47336
52034,47355
52039,47381
52044,47412
52051,47447
52051,47448
52058,47482
52064,47512
52069,47536
52073,47552
52075,47560
52075,47560
52082,47563
52097,47569
52117,47576
52117,47576
52141,47586
52169,47597
52196,47609
52198,47609
52242,47629
52339,47563
52368,47543
52395,47525
52418,47510
52435,47499
52444,47494
52445,47493
52451,47495
52464,47504
52483,47520
52508,47544
52534,47569
52559,47594
52582,47617
52600,47636
52614,47650
52620,47658
52620,47658
52621,47664
52618,47672
52612,47686
52600,47705
52583,47730
52561,47764
52541,47793
52523,47820
52508,47841
52498,47857
52492,47865
52492,47866
52493,47874
52498,47889
52506,47908
52509,47914
52521,47942
52535,47974
52546,48001
52554,48021
52560,48037
52564,48045
52564,48045
52571,48046
52587,48049
52610,48053
52638,48058
52668,48064
52699,48070
52729,48076
52756,48081
52776,48085
52789,48088
52792,48089
52796,48090
52798,48095
52800,48103
52801,48116
52802,48136
52802,48164
52802,48201
52802,48217
52802,48342
52772,48347
52756,48351
52731,48355
52701,48361
52668,48367
52660,48369
52630,48374
52604,48380
52584,48385
52572,48389
52570,48390
52565,48398
52559,48414
52551,48435
52549,48440
52539,48467
52527,48498
52515,48526
52515,48526
52495,48570
52561,48668
52628,48766
52542,48851
52516,48877
52493,48899
52473,48917
52458,48930
52449,48936
52448,48937
52440,48934
52425,48925
52404,48912
52378,48895
52351,48877
52323,48858
52297,48841
52277,48828
52263,48820
52257,48817
52249,48819
52234,48826
52215,48835
52214,48837
52188,48849
52171,48855
52161,48855
52155,48850
52155,48850
52152,48843
52146,48827
52136,48802
52123,48771
52108,48735
52091,48694
52074,48654
52056,48611
52040,48570
52025,48534
52013,48504
52004,48481
51998,48465
51997,48460
52001,48453
52013,48443
52028,48431
52071,48395
52106,48354
52130,48308
52144,48258
52147,48206
52144,48182
52132,48132
52111,48088
52083,48051
52048,48020
52009,47996
51966,47979
51920,47971
51874,47971
51828,47980
51784,47998
51742,48026
51725,48042
51692,48083
51668,48127
51655,48174
51652,48222
51658,48270
51674,48316
51699,48360
51733,48400
51771,48431
51787,48443
51798,48454
51802,48460
51800,48466
51794,48482
51785,48506
51772,48537
51758,48574
51741,48615
51725,48654
51706,48698
51690,48739
51675,48775
51662,48805
51653,48829
51646,48844
51644,48850
51638,48855
51628,48855
51611,48849
51586,48837
51585,48837
51567,48827
51551,48820
51543,48817
51542,48817
51536,48820
51522,48828
51501,48841
51476,48858
51448,48877
51420,48896
51394,48912
51373,48925
51358,48934
51351,48937
51345,48933
51331,48922
51313,48905
51290,48884
51265,48859
51257,48851
51171,48765
51236,48670
51256,48641
51273,48614
51287,48593
51297,48577
51301,48569
51301,48568
51299,48561
51293,48545
51284,48524
51278,48511
51267,48484
51256,48458
51247,48435
51245,48428
51239,48410
51232,48396
51229,48390
51221,48387
51204,48382
51181,48377
51152,48371
51140,48369
51107,48363
51076,48357
51050,48352
51030,48348
51027,48347
50997,48342
50997,48217
50997,48176
50997,48144
50998,48122
50999,48107
51000,48097
51002,48092
51005,48089
51007,48089
51014,48087
51030,48084
51054,48079
51082,48074
51112,48068
51144,48062
51173,48056
51199,48051
51219,48048
51232,48046
51235,48045
51237,48040
51243,48027
51250,48008
51253,48001
51264,47972
51278,47941
51290,47914
51299,47894
51305,47877
51307,47867
51307,47866
51303,47859
51293,47845
51279,47824
51262,47799
51242,47770
51238,47764
51215,47730
51199,47704
51187,47685
51181,47672
51178,47664
51179,47658
51179,47658
51184,47651
51197,47638
51215,47619
51237,47596
51262,47572
51265,47569
51296,47538
51320,47516
51338,47502
51349,47494
51354,47493
51362,47497
51377,47507
51398,47521
51424,47538
51454,47558
51460,47563
51557,47629
51601,47609
51628,47598
51657,47586
51681,47577
51682,47576
51702,47569
51716,47563
51724,47560
51724,47560
51726,47553
51730,47537
51735,47514
51741,47484
51747,47451
51748,47448
51754,47413
51760,47382
51765,47356
51769,47337
51771,47327
51771,47327
51772,47322
51775,47319
51780,47317
51789,47315
51803,47315
51825,47314
51855,47314
51894,47314
51900,47314
51940,47314
" /> 
</g>
<g style="fill:#000000; fill-opacity:0.0; 
stroke:#000000; stroke-width:47.2441; stroke-opacity:1; 
stroke-linecap:round; stroke-linejoin:round;">
<circle cx="47900" cy="56500" r="900" /> 
<circle cx="61600" cy="31000" r="900" /> 
<circle cx="61500" cy="56500" r="900" /> 
</g>
<g style="fill:#000000; fill-opacity:0.0; 
stroke:#000000; stroke-width:59.0551; stroke-opacity:1; 
stroke-linecap:round; stroke-linejoin:round;">
<path d="M61784 51928
L61653 51740
" />
<path d="M61559 51928
L61559 51534
L61709 51534
L61746 51553
L61765 51571
L61784 51609
L61784 51665
L61765 51703
L61746 51721
L61709 51740
L61559 51740
" />
<path d="M61915 51665
L62009 51928
L62103 51665
" />
<path d="M62459 51928
L62234 51928
" />
<path d="M62346 51928
L62346 51534
L62309 51590
L62271 51628
L62234 51646
" />
<path d="M60000 46134
L60000 46453
L60018 46490
L60037 46509
L60075 46528
L60150 46528
L60187 46509
L60206 46490
L60225 46453
L60225 46134
" />
<path d="M60618 46528
L60393 46528
" />
<path d="M60506 46528
L60506 46134
L60468 46190
L60431 46228
L60393 46246
" />
<path d="M52484 44681
L52765 44681
L52821 44699
L52859 44737
L52878 44793
L52878 44831
" />
<path d="M52615 44325
L52878 44325
" />
<path d="M52465 44418
L52746 44512
L52746 44268
" />
<path d="M47878 44728
L47484 44728
" />
<path d="M47615 44540
L47878 44540
" />
<path d="M47653 44540
L47634 44521
L47615 44484
L47615 44428
L47634 44390
L47671 44371
L47878 44371
" />
<path d="M58050 30984
L58050 31303
L58068 31340
L58087 31359
L58125 31378
L58200 31378
L58237 31359
L58256 31340
L58275 31303
L58275 30984
" />
<path d="M58424 30984
L58668 30984
L58537 31134
L58593 31134
L58631 31153
L58649 31171
L58668 31209
L58668 31303
L58649 31340
L58631 31359
L58593 31378
L58481 31378
L58443 31359
L58424 31340
" />
<path d="M58884 41540
L58865 41559
L58809 41578
L58771 41578
L58715 41559
L58678 41521
L58659 41484
L58640 41409
L58640 41353
L58659 41278
L58678 41240
L58715 41203
L58771 41184
L58809 41184
L58865 41203
L58884 41221
" />
<path d="M59015 41184
L59259 41184
L59128 41334
L59184 41334
L59221 41353
L59240 41371
L59259 41409
L59259 41503
L59240 41540
L59221 41559
L59184 41578
L59071 41578
L59034 41559
L59015 41540
" />
<path d="M47068 30184
L47068 30465
L47050 30521
L47012 30559
L46956 30578
L46918 30578
" />
<path d="M47237 30221
L47256 30203
L47293 30184
L47387 30184
L47424 30203
L47443 30221
L47462 30259
L47462 30296
L47443 30353
L47218 30578
L47462 30578
" />
<path d="M52484 43131
L52765 43131
L52821 43149
L52859 43187
L52878 43243
L52878 43281
" />
<path d="M52484 42756
L52484 42943
L52671 42962
L52653 42943
L52634 42906
L52634 42812
L52653 42775
L52671 42756
L52709 42737
L52803 42737
L52840 42756
L52859 42775
L52878 42812
L52878 42906
L52859 42943
L52840 42962
" />
<path d="M47484 43328
L47484 43253
L47503 43215
L47540 43178
L47615 43159
L47746 43159
L47821 43178
L47859 43215
L47878 43253
L47878 43328
L47859 43365
L47821 43403
L47746 43421
L47615 43421
L47540 43403
L47503 43365
L47484 43328
" />
<path d="M47615 42821
L47878 42821
" />
<path d="M47615 42990
L47821 42990
L47859 42971
L47878 42934
L47878 42878
L47859 42840
L47840 42821
" />
<path d="M47615 42690
L47615 42540
" />
<path d="M47484 42634
L47821 42634
L47859 42615
L47878 42578
L47878 42540
" />
<path d="M56334 41828
L56203 41640
" />
<path d="M56109 41828
L56109 41434
L56259 41434
L56296 41453
L56315 41471
L56334 41509
L56334 41565
L56315 41603
L56296 41621
L56259 41640
L56109 41640
" />
<path d="M56465 41434
L56728 41434
L56559 41828
" />
<path d="M60934 41978
L60803 41790
" />
<path d="M60709 41978
L60709 41584
L60859 41584
L60896 41603
L60915 41621
L60934 41659
L60934 41715
L60915 41753
L60896 41771
L60859 41790
L60709 41790
" />
<path d="M61290 41584
L61103 41584
L61084 41771
L61103 41753
L61140 41734
L61234 41734
L61271 41753
L61290 41771
L61309 41809
L61309 41903
L61290 41940
L61271 41959
L61234 41978
L61140 41978
L61103 41959
L61084 41940
" />
<path d="M49759 46628
L49759 46234
L49853 46234
L49909 46253
L49946 46290
L49965 46328
L49984 46403
L49984 46459
L49965 46534
L49946 46571
L49909 46609
L49853 46628
L49759 46628
" />
<path d="M50115 46234
L50359 46234
L50228 46384
L50284 46384
L50321 46403
L50340 46421
L50359 46459
L50359 46553
L50340 46590
L50321 46609
L50284 46628
L50171 46628
L50134 46609
L50115 46590
" />
<path d="M61640 36831
L61659 36850
L61678 36906
L61678 36943
L61659 37000
L61621 37037
L61584 37056
L61509 37075
L61453 37075
L61378 37056
L61340 37037
L61303 37000
L61284 36943
L61284 36906
L61303 36850
L61321 36831
" />
<path d="M61678 36456
L61678 36681
" />
<path d="M61678 36568
L61284 36568
L61340 36606
L61378 36643
L61396 36681
" />
<path d="M61640 39981
L61659 40000
L61678 40056
L61678 40093
L61659 40150
L61621 40187
L61584 40206
L61509 40225
L61453 40225
L61378 40206
L61340 40187
L61303 40150
L61284 40093
L61284 40056
L61303 40000
L61321 39981
" />
<path d="M61321 39831
L61303 39812
L61284 39775
L61284 39681
L61303 39643
L61321 39625
L61359 39606
L61396 39606
L61453 39625
L61678 39850
L61678 39606
" />
<path d="M62628 54490
L62234 54490
L62234 54396
L62253 54340
L62290 54303
L62328 54284
L62403 54265
L62459 54265
L62534 54284
L62571 54303
L62609 54340
L62628 54396
L62628 54490
" />
<path d="M62628 53890
L62628 54115
" />
<path d="M62628 54003
L62234 54003
L62290 54040
L62328 54078
L62346 54115
" />
<path d="M62078 54978
L61684 54978
L61684 54828
L61703 54790
L61721 54771
L61759 54753
L61815 54753
L61853 54771
L61871 54790
L61890 54828
L61890 54978
" />
<path d="M62078 54528
L62059 54565
L62040 54584
L62003 54603
L61890 54603
L61853 54584
L61834 54565
L61815 54528
L61815 54471
L61834 54434
L61853 54415
L61890 54396
L62003 54396
L62040 54415
L62059 54434
L62078 54471
L62078 54528
" />
<path d="M61815 54265
L62078 54190
L61890 54115
L62078 54040
L61815 53965
" />
<path d="M62059 53665
L62078 53703
L62078 53778
L62059 53815
L62021 53834
L61871 53834
L61834 53815
L61815 53778
L61815 53703
L61834 53665
L61871 53646
L61909 53646
L61946 53834
" />
<path d="M62078 53478
L61815 53478
" />
<path d="M61890 53478
L61853 53459
L61834 53440
L61815 53403
L61815 53365
" />
<path d="M57628 46990
L57234 46990
L57234 46896
L57253 46840
L57290 46803
L57328 46784
L57403 46765
L57459 46765
L57534 46784
L57571 46803
L57609 46840
L57628 46896
L57628 46990
" />
<path d="M57271 46615
L57253 46596
L57234 46559
L57234 46465
L57253 46428
L57271 46409
L57309 46390
L57346 46390
L57403 46409
L57628 46634
L57628 46390
" />
<path d="M56178 56153
L55784 56153
L55784 56059
L55803 56003
L55840 55965
L55878 55946
L55953 55928
L56009 55928
L56084 55946
L56121 55965
L56159 56003
L56178 56059
L56178 56153
" />
<path d="M56178 55759
L55915 55759
" />
<path d="M55953 55759
L55934 55740
L55915 55703
L55915 55646
L55934 55609
L55971 55590
L56178 55590
" />
<path d="M55971 55590
L55934 55571
L55915 55534
L55915 55478
L55934 55440
L55971 55421
L56178 55421
" />
<path d="M56178 55028
L56178 55253
" />
<path d="M56178 55140
L55784 55140
L55840 55178
L55878 55215
L55896 55253
" />
<path d="M56178 53553
L55784 53553
L55784 53459
L55803 53403
L55840 53365
L55878 53346
L55953 53328
L56009 53328
L56084 53346
L56121 53365
L56159 53403
L56178 53459
L56178 53553
" />
<path d="M56178 53159
L55915 53159
" />
<path d="M55953 53159
L55934 53140
L55915 53103
L55915 53046
L55934 53009
L55971 52990
L56178 52990
" />
<path d="M55971 52990
L55934 52971
L55915 52934
L55915 52878
L55934 52840
L55971 52821
L56178 52821
" />
<path d="M55821 52653
L55803 52634
L55784 52596
L55784 52503
L55803 52465
L55821 52446
L55859 52428
L55896 52428
L55953 52446
L56178 52671
L56178 52428
" />
<path d="M56178 50953
L55784 50953
L55784 50859
L55803 50803
L55840 50765
L55878 50746
L55953 50728
L56009 50728
L56084 50746
L56121 50765
L56159 50803
L56178 50859
L56178 50953
" />
<path d="M56178 50559
L55915 50559
" />
<path d="M55953 50559
L55934 50540
L55915 50503
L55915 50446
L55934 50409
L55971 50390
L56178 50390
" />
<path d="M55971 50390
L55934 50371
L55915 50334
L55915 50278
L55934 50240
L55971 50221
L56178 50221
" />
<path d="M55784 50071
L55784 49828
L55934 49959
L55934 49903
L55953 49865
L55971 49846
L56009 49828
L56103 49828
L56140 49846
L56159 49865
L56178 49903
L56178 50015
L56159 50053
L56140 50071
" />
<path d="M56178 48353
L55784 48353
L55784 48259
L55803 48203
L55840 48165
L55878 48146
L55953 48128
L56009 48128
L56084 48146
L56121 48165
L56159 48203
L56178 48259
L56178 48353
" />
<path d="M56178 47959
L55915 47959
" />
<path d="M55953 47959
L55934 47940
L55915 47903
L55915 47846
L55934 47809
L55971 47790
L56178 47790
" />
<path d="M55971 47790
L55934 47771
L55915 47734
L55915 47678
L55934 47640
L55971 47621
L56178 47621
" />
<path d="M55915 47265
L56178 47265
" />
<path d="M55765 47359
L56046 47453
L56046 47209
" />
<path d="M56178 45753
L55784 45753
L55784 45659
L55803 45603
L55840 45565
L55878 45546
L55953 45528
L56009 45528
L56084 45546
L56121 45565
L56159 45603
L56178 45659
L56178 45753
" />
<path d="M56178 45359
L55915 45359
" />
<path d="M55953 45359
L55934 45340
L55915 45303
L55915 45246
L55934 45209
L55971 45190
L56178 45190
" />
<path d="M55971 45190
L55934 45171
L55915 45134
L55915 45078
L55934 45040
L55971 45021
L56178 45021
" />
<path d="M55784 44646
L55784 44834
L55971 44853
L55953 44834
L55934 44796
L55934 44703
L55953 44665
L55971 44646
L56009 44628
L56103 44628
L56140 44646
L56159 44665
L56178 44703
L56178 44796
L56159 44834
L56140 44853
" />
<path d="M56178 43153
L55784 43153
L55784 43059
L55803 43003
L55840 42965
L55878 42946
L55953 42928
L56009 42928
L56084 42946
L56121 42965
L56159 43003
L56178 43059
L56178 43153
" />
<path d="M56178 42759
L55915 42759
" />
<path d="M55953 42759
L55934 42740
L55915 42703
L55915 42646
L55934 42609
L55971 42590
L56178 42590
" />
<path d="M55971 42590
L55934 42571
L55915 42534
L55915 42478
L55934 42440
L55971 42421
L56178 42421
" />
<path d="M55784 42065
L55784 42140
L55803 42178
L55821 42196
L55878 42234
L55953 42253
L56103 42253
L56140 42234
L56159 42215
L56178 42178
L56178 42103
L56159 42065
L56140 42046
L56103 42028
L56009 42028
L55971 42046
L55953 42065
L55934 42103
L55934 42178
L55953 42215
L55971 42234
L56009 42253
" />
<path d="M56178 40553
L55784 40553
L55784 40459
L55803 40403
L55840 40365
L55878 40346
L55953 40328
L56009 40328
L56084 40346
L56121 40365
L56159 40403
L56178 40459
L56178 40553
" />
<path d="M56178 40159
L55915 40159
" />
<path d="M55953 40159
L55934 40140
L55915 40103
L55915 40046
L55934 40009
L55971 39990
L56178 39990
" />
<path d="M55971 39990
L55934 39971
L55915 39934
L55915 39878
L55934 39840
L55971 39821
L56178 39821
" />
<path d="M55784 39671
L55784 39409
L56178 39578
" />
<path d="M56178 37953
L55784 37953
L55784 37859
L55803 37803
L55840 37765
L55878 37746
L55953 37728
L56009 37728
L56084 37746
L56121 37765
L56159 37803
L56178 37859
L56178 37953
" />
<path d="M56178 37559
L55915 37559
" />
<path d="M55953 37559
L55934 37540
L55915 37503
L55915 37446
L55934 37409
L55971 37390
L56178 37390
" />
<path d="M55971 37390
L55934 37371
L55915 37334
L55915 37278
L55934 37240
L55971 37221
L56178 37221
" />
<path d="M55953 36978
L55934 37015
L55915 37034
L55878 37053
L55859 37053
L55821 37034
L55803 37015
L55784 36978
L55784 36903
L55803 36865
L55821 36846
L55859 36828
L55878 36828
L55915 36846
L55934 36865
L55953 36903
L55953 36978
L55971 37015
L55990 37034
L56028 37053
L56103 37053
L56140 37034
L56159 37015
L56178 36978
L56178 36903
L56159 36865
L56140 36846
L56103 36828
L56028 36828
L55990 36846
L55971 36865
L55953 36903
" />
<path d="M56178 35353
L55784 35353
L55784 35259
L55803 35203
L55840 35165
L55878 35146
L55953 35128
L56009 35128
L56084 35146
L56121 35165
L56159 35203
L56178 35259
L56178 35353
" />
<path d="M56178 34959
L55915 34959
" />
<path d="M55953 34959
L55934 34940
L55915 34903
L55915 34846
L55934 34809
L55971 34790
L56178 34790
" />
<path d="M55971 34790
L55934 34771
L55915 34734
L55915 34678
L55934 34640
L55971 34621
L56178 34621
" />
<path d="M56178 34415
L56178 34340
L56159 34303
L56140 34284
L56084 34246
L56009 34228
L55859 34228
L55821 34246
L55803 34265
L55784 34303
L55784 34378
L55803 34415
L55821 34434
L55859 34453
L55953 34453
L55990 34434
L56009 34415
L56028 34378
L56028 34303
L56009 34265
L55990 34246
L55953 34228
" />
<path d="M56178 32940
L55784 32940
L55784 32846
L55803 32790
L55840 32753
L55878 32734
L55953 32715
L56009 32715
L56084 32734
L56121 32753
L56159 32790
L56178 32846
L56178 32940
" />
<path d="M56178 32546
L55915 32546
" />
<path d="M55953 32546
L55934 32528
L55915 32490
L55915 32434
L55934 32396
L55971 32378
L56178 32378
" />
<path d="M55971 32378
L55934 32359
L55915 32321
L55915 32265
L55934 32228
L55971 32209
L56178 32209
" />
<path d="M56178 31815
L56178 32040
" />
<path d="M56178 31928
L55784 31928
L55840 31965
L55878 32003
L55896 32040
" />
<path d="M55784 31571
L55784 31534
L55803 31496
L55821 31478
L55859 31459
L55934 31440
L56028 31440
L56103 31459
L56140 31478
L56159 31496
L56178 31534
L56178 31571
L56159 31609
L56140 31628
L56103 31646
L56028 31665
L55934 31665
L55859 31646
L55821 31628
L55803 31609
L55784 31571
" />
<path d="M47068 40384
L47068 40665
L47050 40721
L47012 40759
L46956 40778
L46918 40778
" />
<path d="M47462 40778
L47237 40778
" />
<path d="M47349 40778
L47349 40384
L47312 40440
L47274 40478
L47237 40496
" />
<path d="M52484 41331
L52765 41331
L52821 41349
L52859 41387
L52878 41443
L52878 41481
" />
<path d="M52484 41181
L52484 40937
L52634 41068
L52634 41012
L52653 40975
L52671 40956
L52709 40937
L52803 40937
L52840 40956
L52859 40975
L52878 41012
L52878 41125
L52859 41162
L52840 41181
" />
<path d="M47018 53734
L47018 54015
L47000 54071
L46962 54109
L46906 54128
L46868 54128
" />
<path d="M47374 53734
L47299 53734
L47262 53753
L47243 53771
L47206 53828
L47187 53903
L47187 54053
L47206 54090
L47224 54109
L47262 54128
L47337 54128
L47374 54109
L47393 54090
L47412 54053
L47412 53959
L47393 53921
L47374 53903
L47337 53884
L47262 53884
L47224 53903
L47206 53921
L47187 53959
" />
<path d="M52484 55481
L52765 55481
L52821 55499
L52859 55537
L52878 55593
L52878 55631
" />
<path d="M52484 55331
L52484 55068
L52878 55237
" />
<path d="M50328 56509
L50384 56528
L50478 56528
L50515 56509
L50534 56490
L50553 56453
L50553 56415
L50534 56378
L50515 56359
L50478 56340
L50403 56321
L50365 56303
L50346 56284
L50328 56246
L50328 56209
L50346 56171
L50365 56153
L50403 56134
L50496 56134
L50553 56153
" />
<path d="M50684 56265
L50759 56528
L50834 56340
L50909 56528
L50984 56265
" />
<path d="M51134 56528
L51134 56265
" />
<path d="M51134 56134
L51115 56153
L51134 56171
L51153 56153
L51134 56134
L51134 56171
" />
<path d="M51265 56265
L51415 56265
" />
<path d="M51321 56134
L51321 56471
L51340 56509
L51378 56528
L51415 56528
" />
<path d="M51715 56509
L51678 56528
L51603 56528
L51565 56509
L51546 56490
L51528 56453
L51528 56340
L51546 56303
L51565 56284
L51603 56265
L51678 56265
L51715 56284
" />
<path d="M51884 56528
L51884 56134
" />
<path d="M52053 56528
L52053 56321
L52034 56284
L51996 56265
L51940 56265
L51903 56284
L51884 56303
" />
<path d="M56728 52515
L56540 52646
" />
<path d="M56728 52740
L56334 52740
L56334 52590
L56353 52553
L56371 52534
L56409 52515
L56465 52515
L56503 52534
L56521 52553
L56540 52590
L56540 52740
" />
<path d="M56728 52140
L56728 52365
" />
<path d="M56728 52253
L56334 52253
L56390 52290
L56428 52328
L56446 52365
" />
<path d="M56728 51065
L56540 51196
" />
<path d="M56728 51290
L56334 51290
L56334 51140
L56353 51103
L56371 51084
L56409 51065
L56465 51065
L56503 51084
L56521 51103
L56540 51140
L56540 51290
" />
<path d="M56371 50915
L56353 50896
L56334 50859
L56334 50765
L56353 50728
L56371 50709
L56409 50690
L56446 50690
L56503 50709
L56728 50934
L56728 50690
" />
<path d="M61334 32728
L61203 32540
" />
<path d="M61109 32728
L61109 32334
L61259 32334
L61296 32353
L61315 32371
L61334 32409
L61334 32465
L61315 32503
L61296 32521
L61259 32540
L61109 32540
" />
<path d="M61465 32334
L61709 32334
L61578 32484
L61634 32484
L61671 32503
L61690 32521
L61709 32559
L61709 32653
L61690 32690
L61671 32709
L61634 32728
L61521 32728
L61484 32709
L61465 32690
" />
<path d="M61734 41978
L61603 41790
" />
<path d="M61509 41978
L61509 41584
L61659 41584
L61696 41603
L61715 41621
L61734 41659
L61734 41715
L61715 41753
L61696 41771
L61659 41790
L61509 41790
" />
<path d="M62071 41715
L62071 41978
" />
<path d="M61978 41565
L61884 41846
L62128 41846
" />
<path d="M57234 41828
L57103 41640
" />
<path d="M57009 41828
L57009 41434
L57159 41434
L57196 41453
L57215 41471
L57234 41509
L57234 41565
L57215 41603
L57196 41621
L57159 41640
L57009 41640
" />
<path d="M57571 41434
L57496 41434
L57459 41453
L57440 41471
L57403 41528
L57384 41603
L57384 41753
L57403 41790
L57421 41809
L57459 41828
L57534 41828
L57571 41809
L57590 41790
L57609 41753
L57609 41659
L57590 41621
L57571 41603
L57534 41584
L57459 41584
L57421 41603
L57403 41621
L57384 41659
" />
<path d="M61728 52465
L61540 52596
" />
<path d="M61728 52690
L61334 52690
L61334 52540
L61353 52503
L61371 52484
L61409 52465
L61465 52465
L61503 52484
L61521 52503
L61540 52540
L61540 52690
" />
<path d="M61503 52240
L61484 52278
L61465 52296
L61428 52315
L61409 52315
L61371 52296
L61353 52278
L61334 52240
L61334 52165
L61353 52128
L61371 52109
L61409 52090
L61428 52090
L61465 52109
L61484 52128
L61503 52165
L61503 52240
L61521 52278
L61540 52296
L61578 52315
L61653 52315
L61690 52296
L61709 52278
L61728 52240
L61728 52165
L61709 52128
L61690 52109
L61653 52090
L61578 52090
L61540 52109
L61521 52128
L61503 52165
" />
<path d="M56484 56999
L56803 56999
L56840 56981
L56859 56962
L56878 56924
L56878 56849
L56859 56812
L56840 56793
L56803 56774
L56484 56774
" />
<path d="M56521 56606
L56503 56587
L56484 56550
L56484 56456
L56503 56418
L56521 56400
L56559 56381
L56596 56381
L56653 56400
L56878 56625
L56878 56381
" />
</g> 
</svg>
