<?xml version="1.0" standalone="no"?>
 <!DOCTYPE svg PUBLIC "-//W3C//DTD SVG 1.1//EN" 
 "http://www.w3.org/Graphics/SVG/1.1/DTD/svg11.dtd"> 
<svg xmlns="http://www.w3.org/2000/svg" version="1.1" 
    width="29.7002cm" height="21.0007cm" viewBox="0 0 116930 82680 ">
<title>SVG Picture created as vumeter-B.Cu.svg date 2017/08/19 21:29:09 </title>
  <desc>Picture generated by PCBNEW </desc>
<g style="fill:#000000; fill-opacity:1;stroke:#000000; stroke-opacity:1;
stroke-linecap:round; stroke-linejoin:round; "
 transform="translate(0 0) scale(1 1)">
</g>
<g style="fill:#000000; fill-opacity:0.0; 
stroke:#000000; stroke-width:-0.000393701; stroke-opacity:1; 
stroke-linecap:round; stroke-linejoin:round;">
</g>
<g style="fill:#000000; fill-opacity:1.0; 
stroke:#000000; stroke-width:0; stroke-opacity:1; 
stroke-linecap:round; stroke-linejoin:round;">
<circle cx="61318.5" cy="50750" r="460.63" /> 
</g>
<g style="fill:#000000; fill-opacity:1.0; 
stroke:#000000; stroke-width:39.3701; stroke-opacity:1; 
stroke-linecap:round; stroke-linejoin:round;">
</g>
<g style="fill:#000000; fill-opacity:1.0; 
stroke:#000000; stroke-width:0; stroke-opacity:1; 
stroke-linecap:round; stroke-linejoin:round;">
<circle cx="60334.3" cy="49765.7" r="460.63" /> 
</g>
<g style="fill:#000000; fill-opacity:1.0; 
stroke:#000000; stroke-width:39.3701; stroke-opacity:1; 
stroke-linecap:round; stroke-linejoin:round;">
</g>
<g style="fill:#000000; fill-opacity:1.0; 
stroke:#000000; stroke-width:0; stroke-opacity:1; 
stroke-linecap:round; stroke-linejoin:round;">
<circle cx="59350" cy="50750" r="460.63" /> 
</g>
<g style="fill:#000000; fill-opacity:1.0; 
stroke:#000000; stroke-width:39.3701; stroke-opacity:1; 
stroke-linecap:round; stroke-linejoin:round;">
</g>
<g style="fill:#000000; fill-opacity:1.0; 
stroke:#000000; stroke-width:0; stroke-opacity:1; 
stroke-linecap:round; stroke-linejoin:round;">
<polyline style="fill-rule:evenodd;"
points="62272,47535
62272,48164
61327,48164
61327,47535
62272,47535
" /> 
</g>
<g style="fill:#000000; fill-opacity:1.0; 
stroke:#000000; stroke-width:629.921; stroke-opacity:1; 
stroke-linecap:round; stroke-linejoin:round;">
</g>
<g style="fill:#000000; fill-opacity:0.0; 
stroke:#000000; stroke-width:629.921; stroke-opacity:1; 
stroke-linecap:round; stroke-linejoin:round;">
<path d="M58957 44850
L58642 44850
" />
<path d="M61957 46850
L61642 46850
" />
<path d="M58957 45850
L58642 45850
" />
<path d="M61957 45850
L61642 45850
" />
<path d="M58957 46850
L58642 46850
" />
<path d="M61957 44850
L61642 44850
" />
<path d="M58957 47850
L58642 47850
" />
</g>
<g style="fill:#000000; fill-opacity:0.0; 
stroke:#000000; stroke-width:0; stroke-opacity:1; 
stroke-linecap:round; stroke-linejoin:round;">
</g>
<g style="fill:#000000; fill-opacity:1.0; 
stroke:#000000; stroke-width:0; stroke-opacity:1; 
stroke-linecap:round; stroke-linejoin:round;">
<polyline style="fill-rule:evenodd;"
points="49034,44884
48365,44884
48365,44215
49034,44215
49034,44884
" /> 
</g>
<g style="fill:#000000; fill-opacity:1.0; 
stroke:#000000; stroke-width:669.291; stroke-opacity:1; 
stroke-linecap:round; stroke-linejoin:round;">
</g>
<g style="fill:#000000; fill-opacity:0.0; 
stroke:#000000; stroke-width:669.291; stroke-opacity:1; 
stroke-linecap:round; stroke-linejoin:round;">
<path d="M49700 44550
L49700 44550
" />
<path d="M50700 44550
L50700 44550
" />
<path d="M51700 44550
L51700 44550
" />
</g>
<g style="fill:#000000; fill-opacity:0.0; 
stroke:#000000; stroke-width:0; stroke-opacity:1; 
stroke-linecap:round; stroke-linejoin:round;">
</g>
<g style="fill:#000000; fill-opacity:1.0; 
stroke:#000000; stroke-width:0; stroke-opacity:1; 
stroke-linecap:round; stroke-linejoin:round;">
<polyline style="fill-rule:evenodd;"
points="60322,39885
60322,40514
59377,40514
59377,39885
60322,39885
" /> 
</g>
<g style="fill:#000000; fill-opacity:1.0; 
stroke:#000000; stroke-width:629.921; stroke-opacity:1; 
stroke-linecap:round; stroke-linejoin:round;">
</g>
<g style="fill:#000000; fill-opacity:0.0; 
stroke:#000000; stroke-width:629.921; stroke-opacity:1; 
stroke-linecap:round; stroke-linejoin:round;">
<path d="M57007 32200
L56692 32200
" />
<path d="M60007 39200
L59692 39200
" />
<path d="M57007 33200
L56692 33200
" />
<path d="M60007 38200
L59692 38200
" />
<path d="M57007 34200
L56692 34200
" />
<path d="M60007 37200
L59692 37200
" />
<path d="M57007 35200
L56692 35200
" />
<path d="M60007 36200
L59692 36200
" />
<path d="M57007 36200
L56692 36200
" />
<path d="M60007 35200
L59692 35200
" />
<path d="M57007 37200
L56692 37200
" />
<path d="M60007 34200
L59692 34200
" />
<path d="M57007 38200
L56692 38200
" />
<path d="M60007 33200
L59692 33200
" />
<path d="M57007 39200
L56692 39200
" />
<path d="M60007 32200
L59692 32200
" />
<path d="M57007 40200
L56692 40200
" />
</g>
<g style="fill:#000000; fill-opacity:1.0; 
stroke:#000000; stroke-width:0; stroke-opacity:1; 
stroke-linecap:round; stroke-linejoin:round;">
<circle cx="60100" cy="41400" r="314.961" /> 
</g>
<g style="fill:#000000; fill-opacity:1.0; 
stroke:#000000; stroke-width:39.3701; stroke-opacity:1; 
stroke-linecap:round; stroke-linejoin:round;">
</g>
<g style="fill:#000000; fill-opacity:1.0; 
stroke:#000000; stroke-width:0; stroke-opacity:1; 
stroke-linecap:round; stroke-linejoin:round;">
<circle cx="58131.5" cy="41400" r="314.961" /> 
</g>
<g style="fill:#000000; fill-opacity:1.0; 
stroke:#000000; stroke-width:39.3701; stroke-opacity:1; 
stroke-linecap:round; stroke-linejoin:round;">
</g>
<g style="fill:#000000; fill-opacity:1.0; 
stroke:#000000; stroke-width:0; stroke-opacity:1; 
stroke-linecap:round; stroke-linejoin:round;">
<polyline style="fill-rule:evenodd;"
points="50057,31184
50057,30515
51001,30515
51001,31184
50057,31184
" /> 
<polyline style="fill-rule:evenodd;"
points="49663,32208
49663,31538
50608,31538
50608,32208
49663,32208
" /> 
<polyline style="fill-rule:evenodd;"
points="47084,33369
47084,32424
47753,32424
47753,33369
47084,33369
" /> 
<polyline style="fill-rule:evenodd;"
points="51533,34983
51533,34038
52202,34038
52202,34983
51533,34983
" /> 
<polyline style="fill-rule:evenodd;"
points="48600,35042
48600,34373
49545,34373
49545,35042
48600,35042
" /> 
<polyline style="fill-rule:evenodd;"
points="49034,43334
48365,43334
48365,42665
49034,42665
49034,43334
" /> 
</g>
<g style="fill:#000000; fill-opacity:1.0; 
stroke:#000000; stroke-width:669.291; stroke-opacity:1; 
stroke-linecap:round; stroke-linejoin:round;">
</g>
<g style="fill:#000000; fill-opacity:0.0; 
stroke:#000000; stroke-width:669.291; stroke-opacity:1; 
stroke-linecap:round; stroke-linejoin:round;">
<path d="M49700 43000
L49700 43000
" />
<path d="M50700 43000
L50700 43000
" />
<path d="M51700 43000
L51700 43000
" />
</g>
<g style="fill:#000000; fill-opacity:1.0; 
stroke:#000000; stroke-width:0; stroke-opacity:1; 
stroke-linecap:round; stroke-linejoin:round;">
<circle cx="57500" cy="43500" r="314.961" /> 
</g>
<g style="fill:#000000; fill-opacity:1.0; 
stroke:#000000; stroke-width:39.3701; stroke-opacity:1; 
stroke-linecap:round; stroke-linejoin:round;">
</g>
<g style="fill:#000000; fill-opacity:1.0; 
stroke:#000000; stroke-width:629.921; stroke-opacity:1; 
stroke-linecap:round; stroke-linejoin:round;">
</g>
<g style="fill:#000000; fill-opacity:0.0; 
stroke:#000000; stroke-width:629.921; stroke-opacity:1; 
stroke-linecap:round; stroke-linejoin:round;">
<path d="M57500 42500
L57500 42500
" />
</g>
<g style="fill:#000000; fill-opacity:1.0; 
stroke:#000000; stroke-width:0; stroke-opacity:1; 
stroke-linecap:round; stroke-linejoin:round;">
<circle cx="60100" cy="43500" r="314.961" /> 
</g>
<g style="fill:#000000; fill-opacity:1.0; 
stroke:#000000; stroke-width:39.3701; stroke-opacity:1; 
stroke-linecap:round; stroke-linejoin:round;">
</g>
<g style="fill:#000000; fill-opacity:1.0; 
stroke:#000000; stroke-width:629.921; stroke-opacity:1; 
stroke-linecap:round; stroke-linejoin:round;">
</g>
<g style="fill:#000000; fill-opacity:0.0; 
stroke:#000000; stroke-width:629.921; stroke-opacity:1; 
stroke-linecap:round; stroke-linejoin:round;">
<path d="M60100 42500
L60100 42500
" />
</g>
<g style="fill:#000000; fill-opacity:0.0; 
stroke:#000000; stroke-width:0; stroke-opacity:1; 
stroke-linecap:round; stroke-linejoin:round;">
</g>
<g style="fill:#000000; fill-opacity:1.0; 
stroke:#000000; stroke-width:0; stroke-opacity:1; 
stroke-linecap:round; stroke-linejoin:round;">
<polyline style="fill-rule:evenodd;"
points="52404,46095
52404,46804
51695,46804
51695,46095
52404,46095
" /> 
</g>
<g style="fill:#000000; fill-opacity:1.0; 
stroke:#000000; stroke-width:708.661; stroke-opacity:1; 
stroke-linecap:round; stroke-linejoin:round;">
</g>
<g style="fill:#000000; fill-opacity:0.0; 
stroke:#000000; stroke-width:708.661; stroke-opacity:1; 
stroke-linecap:round; stroke-linejoin:round;">
<path d="M48050 46450
L48050 46450
" />
</g>
<g style="fill:#000000; fill-opacity:1.0; 
stroke:#000000; stroke-width:0; stroke-opacity:1; 
stroke-linecap:round; stroke-linejoin:round;">
<circle cx="61500" cy="37750" r="314.961" /> 
</g>
<g style="fill:#000000; fill-opacity:1.0; 
stroke:#000000; stroke-width:39.3701; stroke-opacity:1; 
stroke-linecap:round; stroke-linejoin:round;">
</g>
<g style="fill:#000000; fill-opacity:1.0; 
stroke:#000000; stroke-width:0; stroke-opacity:1; 
stroke-linecap:round; stroke-linejoin:round;">
<circle cx="61500" cy="35781.5" r="314.961" /> 
</g>
<g style="fill:#000000; fill-opacity:1.0; 
stroke:#000000; stroke-width:39.3701; stroke-opacity:1; 
stroke-linecap:round; stroke-linejoin:round;">
</g>
<g style="fill:#000000; fill-opacity:1.0; 
stroke:#000000; stroke-width:0; stroke-opacity:1; 
stroke-linecap:round; stroke-linejoin:round;">
<circle cx="61500" cy="40900" r="314.961" /> 
</g>
<g style="fill:#000000; fill-opacity:1.0; 
stroke:#000000; stroke-width:39.3701; stroke-opacity:1; 
stroke-linecap:round; stroke-linejoin:round;">
</g>
<g style="fill:#000000; fill-opacity:1.0; 
stroke:#000000; stroke-width:0; stroke-opacity:1; 
stroke-linecap:round; stroke-linejoin:round;">
<circle cx="61500" cy="38931.5" r="314.961" /> 
</g>
<g style="fill:#000000; fill-opacity:1.0; 
stroke:#000000; stroke-width:39.3701; stroke-opacity:1; 
stroke-linecap:round; stroke-linejoin:round;">
</g>
<g style="fill:#000000; fill-opacity:1.0; 
stroke:#000000; stroke-width:0; stroke-opacity:1; 
stroke-linecap:round; stroke-linejoin:round;">
<polyline style="fill-rule:evenodd;"
points="60754,55054
60045,55054
60045,54345
60754,54345
60754,55054
" /> 
<circle cx="60400" cy="53700" r="354.331" /> 
</g>
<g style="fill:#000000; fill-opacity:1.0; 
stroke:#000000; stroke-width:39.3701; stroke-opacity:1; 
stroke-linecap:round; stroke-linejoin:round;">
</g>
<g style="fill:#000000; fill-opacity:1.0; 
stroke:#000000; stroke-width:0; stroke-opacity:1; 
stroke-linecap:round; stroke-linejoin:round;">
<polyline style="fill-rule:evenodd;"
points="57095,44345
57804,44345
57804,45054
57095,45054
57095,44345
" /> 
</g>
<g style="fill:#000000; fill-opacity:1.0; 
stroke:#000000; stroke-width:708.661; stroke-opacity:1; 
stroke-linecap:round; stroke-linejoin:round;">
</g>
<g style="fill:#000000; fill-opacity:0.0; 
stroke:#000000; stroke-width:708.661; stroke-opacity:1; 
stroke-linecap:round; stroke-linejoin:round;">
<path d="M57450 48700
L57450 48700
" />
</g>
<g style="fill:#000000; fill-opacity:0.0; 
stroke:#000000; stroke-width:0; stroke-opacity:1; 
stroke-linecap:round; stroke-linejoin:round;">
</g>
<g style="fill:#000000; fill-opacity:1.0; 
stroke:#000000; stroke-width:0; stroke-opacity:1; 
stroke-linecap:round; stroke-linejoin:round;">
<polyline style="fill-rule:evenodd;"
points="55254,55245
55254,55954
54545,55954
54545,55245
55254,55245
" /> 
<circle cx="53900" cy="55600" r="354.331" /> 
</g>
<g style="fill:#000000; fill-opacity:1.0; 
stroke:#000000; stroke-width:39.3701; stroke-opacity:1; 
stroke-linecap:round; stroke-linejoin:round;">
</g>
<g style="fill:#000000; fill-opacity:1.0; 
stroke:#000000; stroke-width:0; stroke-opacity:1; 
stroke-linecap:round; stroke-linejoin:round;">
<polyline style="fill-rule:evenodd;"
points="55254,52645
55254,53354
54545,53354
54545,52645
55254,52645
" /> 
<circle cx="53900" cy="53000" r="354.331" /> 
</g>
<g style="fill:#000000; fill-opacity:1.0; 
stroke:#000000; stroke-width:39.3701; stroke-opacity:1; 
stroke-linecap:round; stroke-linejoin:round;">
</g>
<g style="fill:#000000; fill-opacity:1.0; 
stroke:#000000; stroke-width:0; stroke-opacity:1; 
stroke-linecap:round; stroke-linejoin:round;">
<polyline style="fill-rule:evenodd;"
points="55254,50045
55254,50754
54545,50754
54545,50045
55254,50045
" /> 
<circle cx="53900" cy="50400" r="354.331" /> 
</g>
<g style="fill:#000000; fill-opacity:1.0; 
stroke:#000000; stroke-width:39.3701; stroke-opacity:1; 
stroke-linecap:round; stroke-linejoin:round;">
</g>
<g style="fill:#000000; fill-opacity:1.0; 
stroke:#000000; stroke-width:0; stroke-opacity:1; 
stroke-linecap:round; stroke-linejoin:round;">
<polyline style="fill-rule:evenodd;"
points="55254,47445
55254,48154
54545,48154
54545,47445
55254,47445
" /> 
<circle cx="53900" cy="47800" r="354.331" /> 
</g>
<g style="fill:#000000; fill-opacity:1.0; 
stroke:#000000; stroke-width:39.3701; stroke-opacity:1; 
stroke-linecap:round; stroke-linejoin:round;">
</g>
<g style="fill:#000000; fill-opacity:1.0; 
stroke:#000000; stroke-width:0; stroke-opacity:1; 
stroke-linecap:round; stroke-linejoin:round;">
<polyline style="fill-rule:evenodd;"
points="55254,44845
55254,45554
54545,45554
54545,44845
55254,44845
" /> 
<circle cx="53900" cy="45200" r="354.331" /> 
</g>
<g style="fill:#000000; fill-opacity:1.0; 
stroke:#000000; stroke-width:39.3701; stroke-opacity:1; 
stroke-linecap:round; stroke-linejoin:round;">
</g>
<g style="fill:#000000; fill-opacity:1.0; 
stroke:#000000; stroke-width:0; stroke-opacity:1; 
stroke-linecap:round; stroke-linejoin:round;">
<polyline style="fill-rule:evenodd;"
points="55254,42245
55254,42954
54545,42954
54545,42245
55254,42245
" /> 
<circle cx="53900" cy="42600" r="354.331" /> 
</g>
<g style="fill:#000000; fill-opacity:1.0; 
stroke:#000000; stroke-width:39.3701; stroke-opacity:1; 
stroke-linecap:round; stroke-linejoin:round;">
</g>
<g style="fill:#000000; fill-opacity:1.0; 
stroke:#000000; stroke-width:0; stroke-opacity:1; 
stroke-linecap:round; stroke-linejoin:round;">
<polyline style="fill-rule:evenodd;"
points="55254,39645
55254,40354
54545,40354
54545,39645
55254,39645
" /> 
<circle cx="53900" cy="40000" r="354.331" /> 
</g>
<g style="fill:#000000; fill-opacity:1.0; 
stroke:#000000; stroke-width:39.3701; stroke-opacity:1; 
stroke-linecap:round; stroke-linejoin:round;">
</g>
<g style="fill:#000000; fill-opacity:1.0; 
stroke:#000000; stroke-width:0; stroke-opacity:1; 
stroke-linecap:round; stroke-linejoin:round;">
<polyline style="fill-rule:evenodd;"
points="55254,37045
55254,37754
54545,37754
54545,37045
55254,37045
" /> 
<circle cx="53900" cy="37400" r="354.331" /> 
</g>
<g style="fill:#000000; fill-opacity:1.0; 
stroke:#000000; stroke-width:39.3701; stroke-opacity:1; 
stroke-linecap:round; stroke-linejoin:round;">
</g>
<g style="fill:#000000; fill-opacity:1.0; 
stroke:#000000; stroke-width:0; stroke-opacity:1; 
stroke-linecap:round; stroke-linejoin:round;">
<polyline style="fill-rule:evenodd;"
points="55254,34445
55254,35154
54545,35154
54545,34445
55254,34445
" /> 
<circle cx="53900" cy="34800" r="354.331" /> 
</g>
<g style="fill:#000000; fill-opacity:1.0; 
stroke:#000000; stroke-width:39.3701; stroke-opacity:1; 
stroke-linecap:round; stroke-linejoin:round;">
</g>
<g style="fill:#000000; fill-opacity:1.0; 
stroke:#000000; stroke-width:0; stroke-opacity:1; 
stroke-linecap:round; stroke-linejoin:round;">
<polyline style="fill-rule:evenodd;"
points="55254,31845
55254,32554
54545,32554
54545,31845
55254,31845
" /> 
<circle cx="53900" cy="32200" r="354.331" /> 
</g>
<g style="fill:#000000; fill-opacity:1.0; 
stroke:#000000; stroke-width:39.3701; stroke-opacity:1; 
stroke-linecap:round; stroke-linejoin:round;">
</g>
<g style="fill:#000000; fill-opacity:1.0; 
stroke:#000000; stroke-width:0; stroke-opacity:1; 
stroke-linecap:round; stroke-linejoin:round;">
<polyline style="fill-rule:evenodd;"
points="50057,36184
50057,35515
51001,35515
51001,36184
50057,36184
" /> 
<polyline style="fill-rule:evenodd;"
points="49663,37208
49663,36538
50608,36538
50608,37208
49663,37208
" /> 
<polyline style="fill-rule:evenodd;"
points="47084,38369
47084,37424
47753,37424
47753,38369
47084,38369
" /> 
<polyline style="fill-rule:evenodd;"
points="51533,39983
51533,39038
52202,39038
52202,39983
51533,39983
" /> 
<polyline style="fill-rule:evenodd;"
points="48600,40042
48600,39373
49545,39373
49545,40042
48600,40042
" /> 
<polyline style="fill-rule:evenodd;"
points="50765,40865
51434,40865
51434,41534
50765,41534
50765,40865
" /> 
</g>
<g style="fill:#000000; fill-opacity:1.0; 
stroke:#000000; stroke-width:669.291; stroke-opacity:1; 
stroke-linecap:round; stroke-linejoin:round;">
</g>
<g style="fill:#000000; fill-opacity:0.0; 
stroke:#000000; stroke-width:669.291; stroke-opacity:1; 
stroke-linecap:round; stroke-linejoin:round;">
<path d="M50100 41200
L50100 41200
" />
<path d="M49100 41200
L49100 41200
" />
</g>
<g style="fill:#000000; fill-opacity:0.0; 
stroke:#000000; stroke-width:0; stroke-opacity:1; 
stroke-linecap:round; stroke-linejoin:round;">
</g>
<g style="fill:#000000; fill-opacity:1.0; 
stroke:#000000; stroke-width:0; stroke-opacity:1; 
stroke-linecap:round; stroke-linejoin:round;">
<polyline style="fill-rule:evenodd;"
points="51511,52338
51511,50961
52888,50961
52888,52338
51511,52338
" /> 
<polyline style="fill-rule:evenodd;"
points="49148,52338
49148,50961
50526,50961
50526,52338
49148,52338
" /> 
<polyline style="fill-rule:evenodd;"
points="50329,54189
50329,52811
51707,52811
51707,54189
50329,54189
" /> 
<polyline style="fill-rule:evenodd;"
points="51365,55015
52034,55015
52034,55684
51365,55684
51365,55015
" /> 
</g>
<g style="fill:#000000; fill-opacity:1.0; 
stroke:#000000; stroke-width:669.291; stroke-opacity:1; 
stroke-linecap:round; stroke-linejoin:round;">
</g>
<g style="fill:#000000; fill-opacity:0.0; 
stroke:#000000; stroke-width:669.291; stroke-opacity:1; 
stroke-linecap:round; stroke-linejoin:round;">
<path d="M50700 55350
L50700 55350
" />
</g>
<g style="fill:#000000; fill-opacity:1.0; 
stroke:#000000; stroke-width:0; stroke-opacity:1; 
stroke-linecap:round; stroke-linejoin:round;">
<circle cx="57500" cy="52100" r="314.961" /> 
</g>
<g style="fill:#000000; fill-opacity:1.0; 
stroke:#000000; stroke-width:39.3701; stroke-opacity:1; 
stroke-linecap:round; stroke-linejoin:round;">
</g>
<g style="fill:#000000; fill-opacity:1.0; 
stroke:#000000; stroke-width:629.921; stroke-opacity:1; 
stroke-linecap:round; stroke-linejoin:round;">
</g>
<g style="fill:#000000; fill-opacity:0.0; 
stroke:#000000; stroke-width:629.921; stroke-opacity:1; 
stroke-linecap:round; stroke-linejoin:round;">
<path d="M58500 52100
L58500 52100
" />
</g>
<g style="fill:#000000; fill-opacity:1.0; 
stroke:#000000; stroke-width:0; stroke-opacity:1; 
stroke-linecap:round; stroke-linejoin:round;">
<circle cx="57500" cy="50700" r="314.961" /> 
</g>
<g style="fill:#000000; fill-opacity:1.0; 
stroke:#000000; stroke-width:39.3701; stroke-opacity:1; 
stroke-linecap:round; stroke-linejoin:round;">
</g>
<g style="fill:#000000; fill-opacity:1.0; 
stroke:#000000; stroke-width:629.921; stroke-opacity:1; 
stroke-linecap:round; stroke-linejoin:round;">
</g>
<g style="fill:#000000; fill-opacity:0.0; 
stroke:#000000; stroke-width:629.921; stroke-opacity:1; 
stroke-linecap:round; stroke-linejoin:round;">
<path d="M57500 49700
L57500 49700
" />
</g>
<g style="fill:#000000; fill-opacity:1.0; 
stroke:#000000; stroke-width:0; stroke-opacity:1; 
stroke-linecap:round; stroke-linejoin:round;">
<circle cx="61400" cy="34250" r="314.961" /> 
</g>
<g style="fill:#000000; fill-opacity:1.0; 
stroke:#000000; stroke-width:39.3701; stroke-opacity:1; 
stroke-linecap:round; stroke-linejoin:round;">
</g>
<g style="fill:#000000; fill-opacity:1.0; 
stroke:#000000; stroke-width:629.921; stroke-opacity:1; 
stroke-linecap:round; stroke-linejoin:round;">
</g>
<g style="fill:#000000; fill-opacity:0.0; 
stroke:#000000; stroke-width:629.921; stroke-opacity:1; 
stroke-linecap:round; stroke-linejoin:round;">
<path d="M61400 33250
L61400 33250
" />
</g>
<g style="fill:#000000; fill-opacity:1.0; 
stroke:#000000; stroke-width:0; stroke-opacity:1; 
stroke-linecap:round; stroke-linejoin:round;">
<circle cx="61400" cy="43500" r="314.961" /> 
</g>
<g style="fill:#000000; fill-opacity:1.0; 
stroke:#000000; stroke-width:39.3701; stroke-opacity:1; 
stroke-linecap:round; stroke-linejoin:round;">
</g>
<g style="fill:#000000; fill-opacity:1.0; 
stroke:#000000; stroke-width:629.921; stroke-opacity:1; 
stroke-linecap:round; stroke-linejoin:round;">
</g>
<g style="fill:#000000; fill-opacity:0.0; 
stroke:#000000; stroke-width:629.921; stroke-opacity:1; 
stroke-linecap:round; stroke-linejoin:round;">
<path d="M61400 42500
L61400 42500
" />
</g>
<g style="fill:#000000; fill-opacity:1.0; 
stroke:#000000; stroke-width:0; stroke-opacity:1; 
stroke-linecap:round; stroke-linejoin:round;">
<circle cx="58800" cy="42700" r="314.961" /> 
</g>
<g style="fill:#000000; fill-opacity:1.0; 
stroke:#000000; stroke-width:39.3701; stroke-opacity:1; 
stroke-linecap:round; stroke-linejoin:round;">
</g>
<g style="fill:#000000; fill-opacity:1.0; 
stroke:#000000; stroke-width:629.921; stroke-opacity:1; 
stroke-linecap:round; stroke-linejoin:round;">
</g>
<g style="fill:#000000; fill-opacity:0.0; 
stroke:#000000; stroke-width:629.921; stroke-opacity:1; 
stroke-linecap:round; stroke-linejoin:round;">
<path d="M58800 43700
L58800 43700
" />
</g>
<g style="fill:#000000; fill-opacity:1.0; 
stroke:#000000; stroke-width:0; stroke-opacity:1; 
stroke-linecap:round; stroke-linejoin:round;">
<circle cx="60600" cy="52100" r="314.961" /> 
</g>
<g style="fill:#000000; fill-opacity:1.0; 
stroke:#000000; stroke-width:39.3701; stroke-opacity:1; 
stroke-linecap:round; stroke-linejoin:round;">
</g>
<g style="fill:#000000; fill-opacity:1.0; 
stroke:#000000; stroke-width:629.921; stroke-opacity:1; 
stroke-linecap:round; stroke-linejoin:round;">
</g>
<g style="fill:#000000; fill-opacity:0.0; 
stroke:#000000; stroke-width:629.921; stroke-opacity:1; 
stroke-linecap:round; stroke-linejoin:round;">
<path d="M59600 52100
L59600 52100
" />
</g>
<g style="fill:#000000; fill-opacity:0.0; 
stroke:#000000; stroke-width:0; stroke-opacity:1; 
stroke-linecap:round; stroke-linejoin:round;">
</g>
<g style="fill:#000000; fill-opacity:1.0; 
stroke:#000000; stroke-width:0; stroke-opacity:1; 
stroke-linecap:round; stroke-linejoin:round;">
<polyline style="fill-rule:evenodd;"
points="58354,56354
57645,56354
57645,55645
58354,55645
58354,56354
" /> 
</g>
<g style="fill:#000000; fill-opacity:1.0; 
stroke:#000000; stroke-width:708.661; stroke-opacity:1; 
stroke-linecap:round; stroke-linejoin:round;">
</g>
<g style="fill:#000000; fill-opacity:0.0; 
stroke:#000000; stroke-width:708.661; stroke-opacity:1; 
stroke-linecap:round; stroke-linejoin:round;">
<path d="M58000 55000
L58000 55000
" />
<path d="M58000 54000
L58000 54000
" />
</g>
<g style="fill:#000000; fill-opacity:1.0; 
stroke:#000000; stroke-width:0; stroke-opacity:1; 
stroke-linecap:round; stroke-linejoin:round;">
<circle cx="47900" cy="56500" r="1082.68" /> 
</g>
<g style="fill:#000000; fill-opacity:1.0; 
stroke:#000000; stroke-width:39.3701; stroke-opacity:1; 
stroke-linecap:round; stroke-linejoin:round;">
</g>
<g style="fill:#000000; fill-opacity:1.0; 
stroke:#000000; stroke-width:0; stroke-opacity:1; 
stroke-linecap:round; stroke-linejoin:round;">
<circle cx="61600" cy="31000" r="1082.68" /> 
</g>
<g style="fill:#000000; fill-opacity:1.0; 
stroke:#000000; stroke-width:39.3701; stroke-opacity:1; 
stroke-linecap:round; stroke-linejoin:round;">
</g>
<g style="fill:#000000; fill-opacity:1.0; 
stroke:#000000; stroke-width:0; stroke-opacity:1; 
stroke-linecap:round; stroke-linejoin:round;">
<circle cx="61500" cy="56500" r="1082.68" /> 
</g>
<g style="fill:#000000; fill-opacity:1.0; 
stroke:#000000; stroke-width:39.3701; stroke-opacity:1; 
stroke-linecap:round; stroke-linejoin:round;">
</g>
<g style="fill:#000000; fill-opacity:1.0; 
stroke:#000000; stroke-width:0; stroke-opacity:1; 
stroke-linecap:round; stroke-linejoin:round;">
<circle cx="56850" cy="41550" r="118.11" /> 
</g>
<g style="fill:#000000; fill-opacity:1.0; 
stroke:#000000; stroke-width:39.3701; stroke-opacity:1; 
stroke-linecap:round; stroke-linejoin:round;">
</g>
<g style="fill:#000000; fill-opacity:1.0; 
stroke:#000000; stroke-width:0; stroke-opacity:1; 
stroke-linecap:round; stroke-linejoin:round;">
<circle cx="56450" cy="45300" r="118.11" /> 
</g>
<g style="fill:#000000; fill-opacity:1.0; 
stroke:#000000; stroke-width:39.3701; stroke-opacity:1; 
stroke-linecap:round; stroke-linejoin:round;">
</g>
<g style="fill:#000000; fill-opacity:1.0; 
stroke:#000000; stroke-width:0; stroke-opacity:1; 
stroke-linecap:round; stroke-linejoin:round;">
<circle cx="56050" cy="45650" r="118.11" /> 
</g>
<g style="fill:#000000; fill-opacity:1.0; 
stroke:#000000; stroke-width:39.3701; stroke-opacity:1; 
stroke-linecap:round; stroke-linejoin:round;">
</g>
<g style="fill:#000000; fill-opacity:1.0; 
stroke:#000000; stroke-width:0; stroke-opacity:1; 
stroke-linecap:round; stroke-linejoin:round;">
<circle cx="55650" cy="46000" r="118.11" /> 
</g>
<g style="fill:#000000; fill-opacity:1.0; 
stroke:#000000; stroke-width:39.3701; stroke-opacity:1; 
stroke-linecap:round; stroke-linejoin:round;">
</g>
<g style="fill:#000000; fill-opacity:1.0; 
stroke:#000000; stroke-width:157.48; stroke-opacity:1; 
stroke-linecap:round; stroke-linejoin:round;">
</g>
<g style="fill:#000000; fill-opacity:0.0; 
stroke:#000000; stroke-width:157.48; stroke-opacity:1; 
stroke-linecap:round; stroke-linejoin:round;">
<path d="M52050 46450
L52050 47350
" />
<path d="M57350 47850
L58800 47850
" />
<path d="M56450 48750
L57350 47850
" />
<path d="M53450 48750
L56450 48750
" />
<path d="M52050 47350
L53450 48750
" />
<path d="M48050 46450
L49900 46450
" />
<path d="M50700 45650
L50700 44550
" />
<path d="M49900 46450
L50700 45650
" />
<path d="M49700 43000
L49700 44550
" />
<path d="M49700 44550
L49700 45050
" />
<path d="M47600 45550
L47419 45730
" />
<path d="M49200 45550
L47600 45550
" />
<path d="M49700 45050
L49200 45550
" />
<path d="M60400 54700
L60400 54800
" />
<path d="M60400 54800
L59125 56075
" />
<path d="M59125 56075
L59100 56100
" />
<path d="M58000 55000
L58600 55000
" />
<path d="M58600 55000
L59100 55500
" />
<path d="M58500 52100
L58500 52200
" />
<path d="M58500 52200
L59100 52800
" />
<path d="M59100 52800
L59100 55500
" />
<path d="M59100 55500
L59100 56100
" />
<path d="M59100 56100
L59100 56600
" />
<path d="M59100 56600
L58250 57450
" />
<path d="M58250 57450
L50400 57450
" />
<path d="M50400 57450
L49837 56887
" />
<path d="M49837 56887
L49837 53237
" />
<path d="M60800 41800
L62100 41800
" />
<path d="M62550 42250
L62550 45300
" />
<path d="M62100 41800
L62550 42250
" />
<path d="M60400 54700
L61400 54700
" />
<path d="M62550 53550
L62550 45300
" />
<path d="M61400 54700
L62550 53550
" />
<path d="M62350 44850
L61800 44850
" />
<path d="M62550 45300
L62550 45050
" />
<path d="M62550 45050
L62350 44850
" />
<path d="M47419 32897
L47419 37897
" />
<path d="M47419 37897
L47419 45730
" />
<path d="M47419 45730
L47419 49231
" />
<path d="M47419 49231
L49837 51650
" />
<path d="M59850 37200
L60400 37200
" />
<path d="M60400 37200
L60800 37600
" />
<path d="M61500 38931
L61318 38931
" />
<path d="M61318 38931
L60800 39450
" />
<path d="M60800 39650
L60800 39450
" />
<path d="M60800 39450
L60800 37600
" />
<path d="M60800 37600
L60800 33400
" />
<path d="M60950 33250
L61400 33250
" />
<path d="M60800 33400
L60950 33250
" />
<path d="M60100 42500
L60800 41800
" />
<path d="M60450 39200
L59850 39200
" />
<path d="M60800 39550
L60450 39200
" />
<path d="M60800 41800
L60800 39650
" />
<path d="M60800 39650
L60800 39550
" />
</g>
<g style="fill:#000000; fill-opacity:0.0; 
stroke:#000000; stroke-width:98.4252; stroke-opacity:1; 
stroke-linecap:round; stroke-linejoin:round;">
<path d="M58131 41400
L58131 41781
" />
<path d="M58131 41781
L58400 42050
" />
<path d="M58400 42050
L59650 42050
" />
<path d="M59650 42050
L60100 42500
" />
</g>
<g style="fill:#000000; fill-opacity:0.0; 
stroke:#000000; stroke-width:157.48; stroke-opacity:1; 
stroke-linecap:round; stroke-linejoin:round;">
<path d="M51018 53500
L50100 53500
" />
<path d="M50100 53500
L49837 53237
" />
<path d="M49837 53237
L49837 51650
" />
</g>
<g style="fill:#000000; fill-opacity:0.0; 
stroke:#000000; stroke-width:98.4252; stroke-opacity:1; 
stroke-linecap:round; stroke-linejoin:round;">
<path d="M57500 42500
L57950 42500
" />
<path d="M58131 42318
L58131 41400
" />
<path d="M57950 42500
L58131 42318
" />
<path d="M58150 41418
L58131 41400
" />
<path d="M56850 41550
L58200 40200
" />
<path d="M58200 40200
L59850 40200
" />
<path d="M56850 40200
L56850 40650
" />
<path d="M56450 41050
L56450 45300
" />
<path d="M56850 40650
L56450 41050
" />
<path d="M56850 39200
L56400 39200
" />
<path d="M56400 39200
L56050 39550
" />
<path d="M56050 39550
L56050 45650
" />
<path d="M56850 38200
L56200 38200
" />
<path d="M55650 38750
L55650 46000
" />
<path d="M56200 38200
L55650 38750
" />
<path d="M51700 43000
L51700 42950
" />
<path d="M51700 42950
L51000 42250
" />
<path d="M50750 40450
L51100 40100
" />
<path d="M49950 40450
L50750 40450
" />
<path d="M49600 40800
L49950 40450
" />
<path d="M49600 41950
L49600 40800
" />
<path d="M49900 42250
L49600 41950
" />
<path d="M51000 42250
L49900 42250
" />
<path d="M51700 43000
L51700 43050
" />
<path d="M51700 43000
L51700 44550
" />
<path d="M50529 35850
L50600 35850
" />
<path d="M50600 35850
L51100 36350
" />
<path d="M51100 36350
L51100 40100
" />
<path d="M51100 40100
L51100 40300
" />
<path d="M51100 40300
L51100 41200
" />
<path d="M50529 30850
L50600 30850
" />
<path d="M50600 30850
L51200 31450
" />
<path d="M51200 31450
L51200 33100
" />
<path d="M51200 33100
L50529 33770
" />
<path d="M50529 33770
L50529 35850
" />
<path d="M48700 43000
L48700 41600
" />
<path d="M48700 41600
L49100 41200
" />
<path d="M48700 44550
L48700 43000
" />
<path d="M49072 39708
L49072 41172
" />
<path d="M49072 41172
L49100 41200
" />
<path d="M49072 34708
L49072 39708
" />
<path d="M61800 45850
L60800 45850
" />
<path d="M60800 45850
L60300 45350
" />
<path d="M60300 45350
L56950 45350
" />
<path d="M56950 45350
L55750 46550
" />
<path d="M55750 46550
L53400 46550
" />
<path d="M53400 46550
L52800 45950
" />
<path d="M52800 45950
L52800 42550
" />
<path d="M52800 42550
L52250 42000
" />
<path d="M52250 42000
L50900 42000
" />
<path d="M50900 42000
L50100 41200
" />
</g>
<g style="fill:#000000; fill-opacity:1.0; 
stroke:#000000; stroke-width:100; stroke-opacity:1; 
stroke-linecap:round; stroke-linejoin:round;">
<polyline style="fill-rule:evenodd;"
points="60470,30244
60267,30733
60267,31263
60469,31753
60844,32129
61333,32332
61863,32332
62353,32130
62700,31784
62700,55914
62630,55746
62255,55370
61766,55167
61236,55167
60746,55369
60370,55744
60167,56233
60167,56763
60369,57253
60744,57629
60914,57700
48485,57700
48653,57630
49029,57255
49232,56766
49232,56236
49030,55746
48655,55370
48578,55338
50115,55338
50115,55361
50159,55585
50286,55774
50476,55901
50700,55946
50923,55901
51113,55774
51124,55758
51127,55777
51182,55862
51266,55919
51365,55939
52034,55939
52127,55922
52212,55867
52269,55783
52282,55719
53295,55719
53387,55941
53557,56112
53779,56204
54019,56204
54241,56112
54308,56046
54308,56046
54362,56132
54446,56189
54545,56209
55254,56209
55346,56191
55432,56137
55489,56053
55509,55954
55509,55645
57390,55645
57390,56354
57408,56446
57462,56532
57546,56589
57645,56609
58354,56609
58446,56591
58532,56537
58589,56453
58609,56354
58609,55645
58591,55553
58537,55467
58453,55410
58433,55406
58487,55357
58587,55143
58539,55050
58050,55050
58050,55057
57950,55057
57950,55050
57460,55050
57412,55143
57512,55357
57565,55405
57553,55408
57467,55462
57410,55546
57390,55645
55509,55645
55509,55245
55491,55153
55437,55067
55353,55010
55254,54990
54545,54990
54453,55008
54367,55062
54310,55146
54309,55154
54242,55087
54020,54995
53780,54995
53558,55087
53387,55257
53295,55479
53295,55719
52282,55719
52289,55684
52289,55015
52272,54922
52217,54837
52133,54780
52034,54760
51365,54760
51272,54777
51187,54832
51130,54916
51125,54942
51113,54925
50923,54798
50700,54753
50476,54798
50286,54925
50159,55114
50115,55338
48578,55338
48166,55167
47636,55167
47146,55369
46770,55744
46700,55914
46700,53612
50079,53612
50079,54239
50117,54330
50188,54401
50280,54439
50906,54439
50968,54376
50968,53550
51068,53550
51068,54376
51131,54439
51757,54439
51849,54401
51919,54330
51957,54239
51957,53988
57395,53988
57395,54011
57441,54243
57572,54439
57666,54501
57512,54642
57412,54856
57460,54950
57950,54950
57950,54942
58050,54942
58050,54950
58539,54950
58587,54856
58566,54812
59795,54812
59795,55104
59833,55195
59904,55266
59995,55304
60287,55304
60350,55241
60350,54750
60450,54750
60450,55241
60512,55304
60804,55304
60895,55266
60966,55195
61004,55104
61004,54812
60941,54750
60450,54750
60350,54750
59858,54750
59795,54812
58566,54812
58487,54642
58333,54501
58427,54439
58558,54243
58604,54011
58604,53988
58570,53819
59795,53819
59887,54041
59957,54111
59904,54133
59833,54204
59795,54295
59795,54587
59858,54650
60350,54650
60350,54642
60450,54642
60450,54650
60941,54650
61004,54587
61004,54295
60966,54204
60895,54133
60842,54111
60912,54042
61004,53820
61004,53580
60912,53358
60742,53187
60520,53095
60280,53095
60058,53187
59887,53357
59795,53579
59795,53819
58570,53819
58558,53756
58427,53560
58231,53429
58000,53383
57768,53429
57572,53560
57441,53756
57395,53988
51957,53988
51957,53612
51895,53550
51068,53550
50968,53550
50142,53550
50079,53612
46700,53612
46700,51762
48898,51762
48898,52388
48936,52480
49007,52550
49099,52588
49725,52588
49787,52526
49787,51700
49887,51700
49887,52526
49950,52588
50213,52588
50188,52599
50117,52669
50079,52761
50079,53387
50142,53450
50968,53450
50968,52623
51068,52623
51068,53450
51895,53450
51957,53387
51957,53119
53295,53119
53387,53341
53557,53512
53779,53604
54019,53604
54241,53512
54308,53446
54308,53446
54362,53532
54446,53589
54545,53609
55254,53609
55346,53591
55432,53537
55489,53453
55509,53354
55509,52645
55491,52553
55437,52467
55353,52410
55254,52390
54545,52390
54453,52408
54367,52462
54310,52546
54309,52554
54242,52487
54020,52395
53780,52395
53558,52487
53387,52657
53295,52879
53295,53119
51957,53119
51957,52761
51919,52669
51849,52599
51835,52593
52888,52593
52981,52576
53066,52521
53123,52438
53143,52338
53143,52211
56934,52211
57020,52419
57179,52578
57387,52664
57611,52665
57819,52579
57978,52420
58003,52361
58015,52390
58163,52553
58362,52647
58450,52600
58450,52150
58442,52150
58442,52050
58450,52050
58450,51599
58550,51599
58550,52050
58557,52050
58557,52150
58550,52150
58550,52600
58637,52647
58836,52553
58984,52390
59047,52237
58999,52150
59033,52150
59066,52316
59189,52499
59372,52621
59588,52664
59611,52664
59827,52621
60010,52499
60099,52367
60120,52419
60279,52578
60487,52664
60711,52665
60919,52579
61078,52420
61164,52212
61165,51988
61079,51780
60920,51621
60712,51535
60488,51534
60280,51620
60121,51779
60099,51833
60010,51700
59827,51578
59611,51535
59588,51535
59372,51578
59189,51700
59066,51883
59033,52049
58999,52049
59047,51962
58984,51809
58836,51646
58637,51552
58550,51599
58450,51599
58362,51552
58163,51646
58015,51809
58003,51838
57979,51780
57820,51621
57612,51535
57388,51534
57180,51620
57021,51779
56935,51987
56934,52211
53143,52211
53143,50961
53126,50868
53071,50783
52988,50726
52888,50706
51511,50706
51418,50723
51333,50778
51276,50861
51256,50961
51256,52338
51273,52431
51328,52516
51393,52561
51131,52561
51068,52623
50968,52623
50906,52561
50643,52561
50668,52550
50738,52480
50776,52388
50776,51762
50714,51700
49887,51700
49787,51700
48961,51700
48898,51762
46700,51762
46700,50911
48898,50911
48898,51537
48961,51600
49787,51600
49787,50773
49887,50773
49887,51600
50714,51600
50776,51537
50776,50911
50738,50819
50668,50749
50576,50711
49950,50711
49887,50773
49787,50773
49725,50711
49099,50711
49007,50749
48936,50819
48898,50911
46700,50911
46700,50519
53295,50519
53387,50741
53557,50912
53779,51004
54019,51004
54241,50912
54308,50846
54308,50846
54362,50932
54446,50989
54545,51009
55254,51009
55346,50991
55432,50937
55489,50853
55509,50754
55509,50045
55491,49953
55437,49867
55353,49810
55254,49790
54545,49790
54453,49808
54367,49862
54310,49946
54309,49954
54242,49887
54020,49795
53780,49795
53558,49887
53387,50057
53295,50279
53295,50519
46700,50519
46700,46450
47433,46450
47479,46681
47610,46877
47806,47008
48038,47054
48061,47054
48293,47008
48489,46877
48555,46778
49900,46778
50025,46753
50132,46682
50932,45882
51003,45775
51028,45650
51028,45031
51113,44974
51200,44845
51286,44974
51476,45101
51700,45146
51923,45101
52113,44974
52240,44785
52284,44561
52284,44538
52240,44314
52113,44125
51999,44048
51999,43501
52113,43424
52240,43235
52284,43011
52284,42988
52240,42764
52113,42575
51923,42448
51700,42403
51597,42424
51472,42299
52126,42299
52500,42673
52500,45860
52404,45840
51695,45840
51603,45858
51517,45912
51460,45996
51440,46095
51440,46804
51458,46896
51512,46982
51596,47039
51695,47059
51721,47059
51721,47350
51746,47475
51817,47582
53217,48982
53324,49053
53450,49078
56450,49078
56575,49053
56682,48982
56863,48801
56891,48943
57022,49139
57174,49240
57100,49289
56978,49472
56935,49688
56935,49711
56978,49927
57100,50110
57232,50199
57180,50220
57021,50379
56935,50587
56934,50811
57020,51019
57179,51178
57387,51264
57611,51265
57819,51179
57978,51020
58032,50890
58639,50890
58747,51152
58946,51352
59208,51460
59490,51460
59752,51352
59952,51153
60060,50891
60060,50609
59967,50382
60192,50476
60474,50476
60701,50382
60607,50608
60607,50890
60715,51152
60915,51352
61176,51460
61459,51460
61720,51352
61920,51153
62029,50891
62029,50609
61921,50347
61721,50147
61460,50039
61177,50039
60951,50132
61044,49907
61045,49625
60937,49363
60737,49163
60476,49055
60193,49054
59932,49162
59732,49362
59623,49623
59623,49906
59717,50132
59491,50039
59209,50039
58947,50147
58747,50346
58639,50608
58639,50890
58032,50890
58064,50812
58065,50588
57979,50380
57820,50221
57766,50199
57899,50110
58021,49927
58064,49711
58064,49688
58021,49472
57899,49289
57775,49206
57877,49139
58008,48943
58054,48711
58054,48688
58008,48456
57877,48260
57754,48178
58181,48178
58228,48249
58412,48371
58628,48414
58971,48414
59187,48371
59371,48249
59493,48066
59536,47850
59493,47633
59371,47450
59220,47350
59371,47249
59493,47066
59536,46850
59493,46633
59371,46450
59220,46350
59371,46249
59493,46066
59536,45850
59496,45649
60176,45649
60588,46061
60685,46126
60800,46149
61161,46149
61228,46249
61379,46350
61228,46450
61106,46633
61063,46850
61106,47066
61228,47249
61286,47287
61234,47297
61149,47352
61092,47435
61072,47535
61072,48164
61090,48257
61144,48342
61228,48399
61327,48419
62272,48419
62365,48402
62450,48347
62507,48264
62527,48164
62527,47535
62509,47442
62455,47357
62371,47300
62312,47288
62371,47249
62493,47066
62536,46850
62493,46633
62371,46450
62220,46350
62371,46249
62493,46066
62536,45850
62493,45633
62371,45450
62222,45350
62392,45214
62498,45020
62505,44987
62457,44900
61850,44900
61850,44907
61750,44907
61750,44900
61142,44900
61094,44987
61101,45020
61207,45214
61377,45350
61228,45450
61161,45550
60923,45550
60511,45138
60414,45073
60300,45050
59496,45050
59536,44850
59509,44712
61094,44712
61142,44800
61750,44800
61750,44285
61850,44285
61850,44800
62457,44800
62505,44712
62498,44679
62392,44485
62219,44347
62007,44285
61850,44285
61750,44285
61592,44285
61380,44347
61207,44485
61101,44679
61094,44712
59509,44712
59493,44633
59371,44450
59187,44328
58971,44285
58628,44285
58412,44328
58228,44450
58106,44633
58063,44850
58103,45050
58059,45050
58059,44345
58041,44253
57987,44167
57903,44110
57804,44090
57095,44090
57003,44108
56917,44162
56860,44246
56840,44345
56840,45054
56844,45071
56835,45073
56772,45115
56762,45091
56749,45078
56749,43611
56934,43611
57020,43819
57179,43978
57387,44064
57611,44065
57819,43979
57978,43820
58064,43612
58065,43388
57979,43180
57820,43021
57761,42996
57790,42984
57953,42836
57965,42811
58234,42811
58320,43019
58479,43178
58533,43200
58400,43289
58278,43472
58235,43688
58235,43711
58278,43927
58400,44110
58583,44233
58800,44276
59016,44233
59199,44110
59321,43927
59364,43711
59364,43688
59349,43611
59534,43611
59620,43819
59779,43978
59987,44064
60211,44065
60419,43979
60578,43820
60664,43612
60664,43611
60834,43611
60920,43819
61079,43978
61287,44064
61511,44065
61719,43979
61878,43820
61964,43612
61965,43388
61879,43180
61720,43021
61666,42999
61799,42910
61921,42727
61964,42511
61964,42488
61921,42272
61799,42089
61616,41966
61400,41923
61183,41966
61000,42089
60878,42272
60835,42488
60835,42511
60878,42727
61000,42910
61132,42999
61080,43020
60921,43179
60835,43387
60834,43611
60664,43611
60665,43388
60579,43180
60420,43021
60361,42996
60390,42984
60553,42836
60647,42637
60600,42550
60150,42550
60150,42557
60050,42557
60050,42550
59599,42550
59552,42637
59646,42836
59809,42984
59838,42996
59780,43020
59621,43179
59535,43387
59534,43611
59349,43611
59321,43472
59199,43289
59067,43200
59119,43179
59278,43020
59364,42812
59365,42588
59279,42380
59120,42221
58912,42135
58688,42134
58480,42220
58321,42379
58235,42587
58234,42811
57965,42811
58047,42637
58000,42550
57550,42550
57550,42557
57450,42557
57450,42550
56999,42550
56952,42637
57046,42836
57209,42984
57238,42996
57180,43020
57021,43179
56935,43387
56934,43611
56749,43611
56749,42362
56952,42362
56999,42450
57450,42450
57450,42000
57550,42000
57550,42450
58000,42450
58047,42362
57953,42163
57790,42015
57637,41952
57550,42000
57450,42000
57362,41952
57209,42015
57046,42163
56952,42362
56749,42362
56749,41906
56776,41918
56922,41918
57058,41862
57123,41796
57805,41796
57834,41893
58046,41969
58270,41958
58428,41893
58457,41796
58131,41470
57805,41796
57123,41796
57161,41758
57218,41623
57218,41605
57591,41231
57561,41314
57572,41539
57637,41696
57734,41726
58060,41400
58202,41400
58528,41726
58625,41696
58691,41511
59534,41511
59620,41719
59779,41878
59959,41953
59809,42015
59646,42163
59552,42362
59599,42450
60050,42450
60050,42442
60150,42442
60150,42450
60600,42450
60647,42362
60553,42163
60390,42015
60240,41953
60419,41879
60578,41720
60664,41512
60665,41288
60579,41080
60510,41011
60934,41011
61020,41219
61179,41378
61387,41464
61611,41465
61819,41379
61978,41220
62064,41012
62065,40788
61979,40580
61820,40421
61612,40335
61388,40334
61180,40420
61021,40579
60935,40787
60934,41011
60510,41011
60420,40921
60212,40835
59988,40834
59780,40920
59621,41079
59535,41287
59534,41511
58691,41511
58701,41485
58690,41260
58625,41103
58528,41073
58202,41400
58060,41400
58055,41394
58125,41323
58131,41329
58457,41003
58428,40906
58216,40830
57992,40841
57974,40848
58323,40499
59122,40499
59122,40514
59140,40607
59194,40692
59278,40749
59377,40769
60322,40769
60415,40752
60500,40697
60557,40614
60577,40514
60577,39885
60559,39792
60505,39707
60421,39650
60352,39636
60442,39564
60548,39370
60555,39337
60550,39328
61173,39328
61203,39425
61414,39501
61639,39490
61796,39425
61826,39328
61500,39002
61173,39328
60550,39328
60507,39250
59900,39250
59900,39257
59800,39257
59800,39250
59192,39250
59144,39337
59151,39370
59257,39564
59346,39635
59284,39647
59199,39702
59142,39785
59122,39885
59122,39900
58200,39900
58085,39923
57988,39988
57509,40467
57543,40416
57586,40200
57543,39983
57421,39800
57270,39700
57421,39599
57543,39416
57586,39200
57543,38983
57421,38800
57270,38700
57421,38599
57543,38416
57586,38200
59113,38200
59156,38416
59278,38599
59427,38699
59257,38835
59151,39029
59144,39062
59192,39150
59800,39150
59800,39142
59900,39142
59900,39150
60507,39150
60555,39062
60548,39029
60447,38846
60930,38846
60941,39070
61006,39228
61103,39257
61429,38931
61570,38931
61896,39257
61993,39228
62069,39016
62058,38792
61993,38634
61896,38605
61570,38931
61429,38931
61103,38605
61006,38634
60930,38846
60447,38846
60442,38835
60272,38699
60421,38599
60464,38534
61173,38534
61500,38860
61826,38534
61796,38437
61585,38361
61360,38372
61203,38437
61173,38534
60464,38534
60543,38416
60586,38200
60543,37983
60462,37861
60934,37861
61020,38069
61179,38228
61387,38314
61611,38315
61819,38229
61978,38070
62064,37862
62065,37638
61979,37430
61820,37271
61612,37185
61388,37184
61180,37270
61021,37429
60935,37637
60934,37861
60462,37861
60421,37800
60272,37700
60442,37564
60548,37370
60555,37337
60507,37250
59900,37250
59900,37257
59800,37257
59800,37250
59192,37250
59144,37337
59151,37370
59257,37564
59427,37700
59278,37800
59156,37983
59113,38200
57586,38200
57543,37983
57421,37800
57270,37700
57421,37599
57543,37416
57586,37200
57543,36983
57421,36800
57270,36700
57421,36599
57543,36416
57586,36200
57543,35983
57421,35800
57270,35700
57421,35599
57543,35416
57586,35200
57543,34983
57421,34800
57270,34700
57421,34599
57543,34416
57586,34200
57543,33983
57421,33800
57270,33700
57421,33599
57543,33416
57586,33200
57543,32983
57421,32800
57270,32700
57421,32599
57543,32416
57586,32200
59113,32200
59156,32416
59278,32599
59429,32700
59278,32800
59156,32983
59113,33200
59156,33416
59278,33599
59429,33700
59278,33800
59156,33983
59113,34200
59156,34416
59278,34599
59429,34700
59278,34800
59156,34983
59113,35200
59156,35416
59278,35599
59429,35700
59278,35800
59156,35983
59113,36200
59156,36416
59278,36599
59427,36699
59257,36835
59151,37029
59144,37062
59192,37150
59800,37150
59800,37142
59900,37142
59900,37150
60507,37150
60555,37062
60548,37029
60442,36835
60272,36699
60421,36599
60543,36416
60586,36200
60543,35983
60483,35893
60934,35893
61020,36101
61179,36260
61387,36346
61611,36346
61819,36260
61978,36101
62064,35894
62065,35669
61979,35461
61820,35302
61612,35216
61388,35216
61180,35302
61021,35461
60935,35668
60934,35893
60483,35893
60421,35800
60270,35700
60421,35599
60543,35416
60586,35200
60543,34983
60421,34800
60270,34700
60421,34599
60543,34416
60554,34361
60834,34361
60920,34569
61079,34728
61287,34814
61511,34815
61719,34729
61878,34570
61964,34362
61965,34138
61879,33930
61720,33771
61661,33746
61690,33734
61853,33586
61947,33387
61900,33300
61450,33300
61450,33307
61350,33307
61350,33300
60899,33300
60852,33387
60946,33586
61109,33734
61138,33746
61080,33770
60921,33929
60835,34137
60834,34361
60554,34361
60586,34200
60543,33983
60421,33800
60270,33700
60421,33599
60543,33416
60586,33200
60569,33112
60852,33112
60899,33200
61350,33200
61350,32750
61450,32750
61450,33200
61900,33200
61947,33112
61853,32913
61690,32765
61537,32702
61450,32750
61350,32750
61262,32702
61109,32765
60946,32913
60852,33112
60569,33112
60543,32983
60421,32800
60270,32700
60421,32599
60543,32416
60586,32200
60543,31983
60421,31800
60237,31678
60021,31635
59678,31635
59462,31678
59278,31800
59156,31983
59113,32200
57586,32200
57543,31983
57421,31800
57237,31678
57021,31635
56678,31635
56462,31678
56278,31800
56156,31983
56113,32200
56156,32416
56278,32599
56429,32700
56278,32800
56156,32983
56113,33200
56156,33416
56278,33599
56429,33700
56278,33800
56156,33983
56113,34200
56156,34416
56278,34599
56429,34700
56278,34800
56156,34983
56113,35200
56156,35416
56278,35599
56429,35700
56278,35800
56156,35983
56113,36200
56156,36416
56278,36599
56429,36700
56278,36800
56156,36983
56113,37200
56156,37416
56278,37599
56429,37700
56278,37800
56211,37900
56200,37900
56085,37923
55988,37988
55438,38538
55373,38635
55350,38750
55350,39410
55254,39390
54545,39390
54453,39408
54367,39462
54310,39546
54309,39554
54242,39487
54020,39395
53780,39395
53558,39487
53387,39657
53295,39879
53295,40119
53387,40341
53557,40512
53779,40604
54019,40604
54241,40512
54308,40446
54308,40446
54362,40532
54446,40589
54545,40609
55254,40609
55346,40591
55350,40589
55350,42010
55254,41990
54545,41990
54453,42008
54367,42062
54310,42146
54309,42154
54242,42087
54020,41995
53780,41995
53558,42087
53387,42257
53295,42479
53295,42719
53387,42941
53557,43112
53779,43204
54019,43204
54241,43112
54308,43046
54308,43046
54362,43132
54446,43189
54545,43209
55254,43209
55346,43191
55350,43189
55350,44610
55254,44590
54545,44590
54453,44608
54367,44662
54310,44746
54309,44754
54242,44687
54020,44595
53780,44595
53558,44687
53387,44857
53295,45079
53295,45319
53387,45541
53557,45712
53779,45804
54019,45804
54241,45712
54308,45646
54308,45646
54362,45732
54446,45789
54545,45809
55254,45809
55337,45793
55281,45926
55281,46072
55337,46208
55380,46250
53523,46250
53099,45826
53099,42550
53079,42450
53076,42435
53011,42338
52461,41788
52364,41723
52250,41700
51623,41700
51669,41633
51689,41534
51689,40865
51672,40772
51617,40687
51533,40630
51434,40610
51399,40610
51399,40194
51434,40218
51533,40238
52202,40238
52295,40221
52380,40166
52437,40083
52457,39983
52457,39038
52440,38946
52385,38861
52301,38804
52202,38784
51533,38784
51440,38801
51399,38828
51399,37519
53295,37519
53387,37741
53557,37912
53779,38004
54019,38004
54241,37912
54308,37846
54308,37846
54362,37932
54446,37989
54545,38009
55254,38009
55346,37991
55432,37937
55489,37853
55509,37754
55509,37045
55491,36953
55437,36867
55353,36810
55254,36790
54545,36790
54453,36808
54367,36862
54310,36946
54309,36954
54242,36887
54020,36795
53780,36795
53558,36887
53387,37057
53295,37279
53295,37519
51399,37519
51399,36350
51376,36235
51376,36235
51311,36138
51256,36083
51256,35515
51239,35422
51184,35337
51101,35280
51001,35260
50828,35260
50828,34038
51278,34038
51278,34983
51295,35076
51350,35161
51434,35218
51533,35238
52202,35238
52295,35221
52380,35166
52437,35083
52457,34983
52457,34919
53295,34919
53387,35141
53557,35312
53779,35404
54019,35404
54241,35312
54308,35246
54308,35246
54362,35332
54446,35389
54545,35409
55254,35409
55346,35391
55432,35337
55489,35253
55509,35154
55509,34445
55491,34353
55437,34267
55353,34210
55254,34190
54545,34190
54453,34208
54367,34262
54310,34346
54309,34354
54242,34287
54020,34195
53780,34195
53558,34287
53387,34457
53295,34679
53295,34919
52457,34919
52457,34038
52440,33946
52385,33861
52301,33804
52202,33784
51533,33784
51440,33801
51355,33856
51298,33939
51278,34038
50828,34038
50828,33894
51411,33311
51476,33214
51499,33100
51499,32319
53295,32319
53387,32541
53557,32712
53779,32804
54019,32804
54241,32712
54308,32646
54308,32646
54362,32732
54446,32789
54545,32809
55254,32809
55346,32791
55432,32737
55489,32653
55509,32554
55509,31845
55491,31753
55437,31667
55353,31610
55254,31590
54545,31590
54453,31608
54367,31662
54310,31746
54309,31754
54242,31687
54020,31595
53780,31595
53558,31687
53387,31857
53295,32079
53295,32319
51499,32319
51499,31450
51476,31335
51476,31335
51411,31238
51256,31083
51256,30515
51239,30422
51184,30337
51101,30280
51001,30260
50057,30260
49964,30277
49879,30332
49822,30416
49802,30515
49802,31184
49819,31277
49823,31284
49663,31284
49570,31301
49485,31356
49428,31439
49408,31538
49408,32208
49425,32300
49480,32386
49564,32443
49663,32463
50608,32463
50700,32445
50786,32390
50843,32307
50863,32208
50863,31538
50862,31535
50900,31573
50900,32976
50317,33558
50253,33655
50230,33770
50230,35260
50057,35260
49964,35277
49879,35332
49822,35416
49802,35515
49802,36184
49819,36277
49823,36284
49663,36284
49570,36301
49485,36356
49428,36439
49408,36538
49408,37208
49425,37300
49480,37386
49564,37443
49663,37463
50608,37463
50700,37445
50786,37390
50800,37369
50800,39976
50626,40150
49950,40150
49835,40173
49738,40238
49388,40588
49372,40612
49372,40297
49545,40297
49637,40280
49723,40225
49780,40142
49800,40042
49800,39373
49782,39280
49727,39195
49644,39138
49545,39118
49372,39118
49372,35297
49545,35297
49637,35280
49723,35225
49780,35142
49800,35042
49800,34373
49782,34280
49727,34195
49644,34138
49545,34118
48600,34118
48507,34136
48422,34190
48365,34274
48345,34373
48345,35042
48362,35135
48417,35220
48501,35277
48600,35297
48773,35297
48773,39118
48600,39118
48507,39136
48422,39190
48365,39274
48345,39373
48345,40042
48362,40135
48417,40220
48501,40277
48600,40297
48773,40297
48773,40716
48686,40775
48559,40964
48515,41188
48515,41211
48540,41336
48488,41388
48423,41485
48400,41600
48400,42410
48365,42410
48272,42427
48187,42482
48130,42566
48110,42665
48110,43334
48127,43427
48182,43512
48266,43569
48365,43589
48400,43589
48400,43960
48365,43960
48272,43977
48187,44032
48130,44116
48110,44215
48110,44884
48127,44977
48182,45062
48266,45119
48365,45139
49034,45139
49127,45122
49212,45067
49269,44983
49278,44941
49398,45050
49559,45117
49650,45069
49650,44600
49642,44600
49642,44500
49650,44500
49650,44030
49559,43982
49398,44049
49278,44158
49272,44122
49217,44037
49133,43980
49034,43960
48999,43960
48999,43589
49034,43589
49127,43572
49212,43517
49269,43433
49278,43391
49398,43500
49559,43567
49650,43519
49650,43050
49642,43050
49642,42950
49650,42950
49650,42942
49750,42942
49750,42950
49757,42950
49757,43050
49750,43050
49750,43519
49840,43567
50001,43500
50170,43346
50196,43290
50286,43424
50476,43551
50700,43596
50923,43551
51113,43424
51200,43295
51286,43424
51400,43501
51400,44048
51286,44125
51200,44254
51113,44125
50923,43998
50700,43953
50476,43998
50286,44125
50196,44259
50170,44203
50001,44049
49840,43982
49750,44030
49750,44500
49757,44500
49757,44600
49750,44600
49750,45069
49840,45117
50001,45050
50170,44896
50196,44840
50286,44974
50371,45031
50371,45513
49763,46121
48555,46121
48489,46022
48293,45891
48061,45845
48038,45845
47806,45891
47610,46022
47479,46218
47433,46450
46700,46450
46700,38009
46834,38009
46834,38419
46872,38511
46943,38581
47034,38619
47306,38619
47369,38557
47369,37947
47469,37947
47469,38557
47531,38619
47803,38619
47895,38581
47965,38511
48003,38419
48003,38009
47941,37947
47469,37947
47369,37947
46897,37947
46834,38009
46700,38009
46700,37375
46834,37375
46834,37784
46897,37847
47369,37847
47369,37237
47469,37237
47469,37847
47941,37847
48003,37784
48003,37375
47965,37283
47895,37212
47803,37174
47531,37174
47469,37237
47369,37237
47306,37174
47034,37174
46943,37212
46872,37283
46834,37375
46700,37375
46700,33009
46834,33009
46834,33419
46872,33511
46943,33581
47034,33619
47306,33619
47369,33557
47369,32947
47469,32947
47469,33557
47531,33619
47803,33619
47895,33581
47965,33511
48003,33419
48003,33009
47941,32947
47469,32947
47369,32947
46897,32947
46834,33009
46700,33009
46700,32375
46834,32375
46834,32784
46897,32847
47369,32847
47369,32237
47469,32237
47469,32847
47941,32847
48003,32784
48003,32375
47965,32283
47895,32212
47803,32174
47531,32174
47469,32237
47369,32237
47306,32174
47034,32174
46943,32212
46872,32283
46834,32375
46700,32375
46700,30002
46740,29940
46802,29900
60815,29900
60470,30244
" /> 
</g> 
</svg>
