M48
;DRILL file {KiCad 4.0.2-stable} date 19/08/2017 21:25:31
;FORMAT={-:-/ absolute / metric / decimal}
FMAT,2
METRIC,TZ
T1C0.400
T2C0.800
T3C0.900
T4C1.000
T5C1.300
%
G90
G05
M71
T1
X23.495Y30.48
X24.511Y31.369
X25.527Y32.258
X26.543Y41.783
T2
X26.543Y65.532
X26.543Y62.992
X26.543Y60.452
X26.543Y57.912
X26.543Y55.372
X26.543Y52.832
X26.543Y50.292
X26.543Y47.752
X26.543Y45.212
X28.194Y39.37
X28.194Y36.83
X28.194Y21.082
X28.194Y18.542
X28.194Y14.986
X29.798Y42.164
X30.734Y14.986
X31.496Y38.862
X31.496Y36.322
X31.496Y33.401
X31.496Y30.861
X31.496Y28.321
X31.496Y25.781
X33.528Y14.986
X34.163Y65.532
X34.163Y62.992
X34.163Y60.452
X34.163Y57.912
X34.163Y55.372
X34.163Y52.832
X34.163Y50.292
X34.163Y47.752
X34.163Y45.212
X34.798Y42.164
X34.798Y39.37
X34.798Y36.83
X36.068Y14.986
X38.1Y62.865
X38.1Y60.325
X38.1Y39.37
X38.1Y36.83
X38.354Y56.435
X38.354Y51.435
X38.354Y48.434
X38.354Y43.434
X39.116Y33.401
X39.116Y30.861
X39.116Y28.321
X39.116Y25.781
T3
X4.191Y29.337
X14.351Y29.337
X19.05Y65.532
X19.05Y58.928
X19.05Y52.324
X19.05Y45.72
X19.05Y39.116
X19.05Y32.512
X19.05Y25.908
X19.05Y19.304
X19.05Y12.7
X19.05Y6.096
X21.59Y65.532
X21.59Y58.928
X21.59Y52.324
X21.59Y45.72
X21.59Y39.116
X21.59Y32.512
X21.59Y25.908
X21.59Y19.304
X21.59Y12.7
X21.59Y6.096
X28.067Y33.782
X28.067Y23.622
X35.56Y10.922
X35.56Y8.382
T4
X5.842Y38.1
X5.842Y34.163
X6.858Y42.672
X8.382Y38.1
X8.382Y34.163
X9.398Y42.672
X10.922Y38.1
X10.922Y34.163
X10.922Y6.731
X11.938Y42.672
X13.462Y38.1
X13.462Y34.163
X13.462Y6.731
X29.464Y10.16
X29.464Y7.62
X29.464Y5.08
T5
X32.893Y18.415
X35.393Y20.915
X37.893Y18.415
T4
X2.589Y64.111G85X2.589Y63.411
G05
X2.589Y51.411G85X2.589Y50.711
G05
X6.439Y59.161G85X7.139Y59.161
G05
X6.439Y46.461G85X7.139Y46.461
G05
X8.732Y17.129G85X8.732Y15.129
G05
X9.139Y66.361G85X9.839Y66.361
G05
X9.139Y53.661G85X9.839Y53.661
G05
X10.139Y68.961G85X10.839Y68.961
G05
X10.139Y56.261G85X10.839Y56.261
G05
X10.732Y11.429G85X12.732Y11.429
G05
X13.889Y60.011G85X13.889Y59.311
G05
X13.889Y47.311G85X13.889Y46.611
G05
X14.732Y17.129G85X14.732Y15.129
G05
T0
M30
