G04 #@! TF.FileFunction,Soldermask,Bot*
%FSLAX46Y46*%
G04 Gerber Fmt 4.6, Leading zero omitted, Abs format (unit mm)*
G04 Created by KiCad (PCBNEW 4.0.2-stable) date 19/08/2017 21:27:21*
%MOMM*%
G01*
G04 APERTURE LIST*
%ADD10C,0.100000*%
%ADD11C,2.340000*%
%ADD12R,2.400000X1.600000*%
%ADD13O,2.400000X1.600000*%
%ADD14R,1.700000X1.700000*%
%ADD15O,1.700000X1.700000*%
%ADD16C,1.600000*%
%ADD17R,2.400000X1.700000*%
%ADD18R,1.700000X2.400000*%
%ADD19O,1.600000X1.600000*%
%ADD20R,1.800000X1.800000*%
%ADD21O,1.800000X1.800000*%
%ADD22C,1.800000*%
%ADD23R,3.500000X3.500000*%
%ADD24C,5.500000*%
G04 APERTURE END LIST*
D10*
D11*
X155749000Y-128905000D03*
X153249000Y-126405000D03*
X150749000Y-128905000D03*
D12*
X156972000Y-121539000D03*
D13*
X149352000Y-113919000D03*
X156972000Y-118999000D03*
X149352000Y-116459000D03*
X156972000Y-116459000D03*
X149352000Y-118999000D03*
X156972000Y-113919000D03*
X149352000Y-121539000D03*
D14*
X123698000Y-113157000D03*
D15*
X126238000Y-113157000D03*
X128778000Y-113157000D03*
X131318000Y-113157000D03*
D12*
X152019000Y-102108000D03*
D13*
X144399000Y-81788000D03*
X152019000Y-99568000D03*
X144399000Y-84328000D03*
X152019000Y-97028000D03*
X144399000Y-86868000D03*
X152019000Y-94488000D03*
X144399000Y-89408000D03*
X152019000Y-91948000D03*
X144399000Y-91948000D03*
X152019000Y-89408000D03*
X144399000Y-94488000D03*
X152019000Y-86868000D03*
X144399000Y-97028000D03*
X152019000Y-84328000D03*
X144399000Y-99568000D03*
X152019000Y-81788000D03*
X144399000Y-102108000D03*
D16*
X152654000Y-105156000D03*
X147654000Y-105156000D03*
D17*
X128345000Y-78359000D03*
X127345000Y-80959000D03*
D18*
X120445000Y-83559000D03*
X131745000Y-87659000D03*
D17*
X124645000Y-88159000D03*
D14*
X123698000Y-109220000D03*
D15*
X126238000Y-109220000D03*
X128778000Y-109220000D03*
X131318000Y-109220000D03*
D16*
X146050000Y-110490000D03*
D19*
X146050000Y-107950000D03*
D16*
X152654000Y-110490000D03*
D19*
X152654000Y-107950000D03*
D20*
X132207000Y-117983000D03*
D21*
X122047000Y-117983000D03*
D16*
X156210000Y-95885000D03*
X156210000Y-90885000D03*
X156210000Y-103886000D03*
X156210000Y-98886000D03*
D20*
X153416000Y-138938000D03*
D22*
X153416000Y-136398000D03*
D20*
X145923000Y-113538000D03*
D21*
X145923000Y-123698000D03*
D20*
X139446000Y-141224000D03*
D22*
X136906000Y-141224000D03*
D20*
X139446000Y-134620000D03*
D22*
X136906000Y-134620000D03*
D20*
X139446000Y-128016000D03*
D22*
X136906000Y-128016000D03*
D20*
X139446000Y-121412000D03*
D22*
X136906000Y-121412000D03*
D20*
X139446000Y-114808000D03*
D22*
X136906000Y-114808000D03*
D20*
X139446000Y-108204000D03*
D22*
X136906000Y-108204000D03*
D20*
X139446000Y-101600000D03*
D22*
X136906000Y-101600000D03*
D20*
X139446000Y-94996000D03*
D22*
X136906000Y-94996000D03*
D20*
X139446000Y-88392000D03*
D22*
X136906000Y-88392000D03*
D20*
X139446000Y-81788000D03*
D22*
X136906000Y-81788000D03*
D17*
X128345000Y-91059000D03*
X127345000Y-93659000D03*
D18*
X120445000Y-96259000D03*
X131745000Y-100359000D03*
D17*
X124645000Y-100859000D03*
D14*
X129794000Y-104648000D03*
D15*
X127254000Y-104648000D03*
X124714000Y-104648000D03*
D23*
X132588000Y-131191000D03*
X126588000Y-131191000D03*
X129588000Y-135891000D03*
D14*
X131318000Y-140589000D03*
D15*
X128778000Y-140589000D03*
D16*
X146050000Y-132334000D03*
D19*
X148590000Y-132334000D03*
D16*
X146050000Y-128778000D03*
D19*
X146050000Y-126238000D03*
D16*
X155956000Y-86995000D03*
D19*
X155956000Y-84455000D03*
D16*
X155956000Y-110490000D03*
D19*
X155956000Y-107950000D03*
D16*
X149352000Y-108458000D03*
D19*
X149352000Y-110998000D03*
D16*
X153924000Y-132334000D03*
D19*
X151384000Y-132334000D03*
D20*
X147320000Y-142240000D03*
D21*
X147320000Y-139700000D03*
X147320000Y-137160000D03*
D24*
X121666000Y-143510000D03*
X156464000Y-78740000D03*
X156210000Y-143510000D03*
M02*
