G04 #@! TF.FileFunction,Legend,Top*
%FSLAX46Y46*%
G04 Gerber Fmt 4.6, Leading zero omitted, Abs format (unit mm)*
G04 Created by KiCad (PCBNEW 4.0.2-stable) date 19/08/2017 21:27:20*
%MOMM*%
G01*
G04 APERTURE LIST*
%ADD10C,0.100000*%
%ADD11C,0.300000*%
%ADD12C,0.200000*%
%ADD13C,0.150000*%
%ADD14C,0.120000*%
%ADD15C,0.010000*%
G04 APERTURE END LIST*
D10*
D11*
X119308715Y-105326571D02*
X118594429Y-105326571D01*
X118594429Y-103826571D01*
X119808715Y-104755143D02*
X120951572Y-104755143D01*
X122523001Y-105326571D02*
X122023001Y-104612286D01*
X121665858Y-105326571D02*
X121665858Y-103826571D01*
X122237286Y-103826571D01*
X122380144Y-103898000D01*
X122451572Y-103969429D01*
X122523001Y-104112286D01*
X122523001Y-104326571D01*
X122451572Y-104469429D01*
X122380144Y-104540857D01*
X122237286Y-104612286D01*
X121665858Y-104612286D01*
D12*
X154051000Y-97790000D02*
X154051000Y-103378000D01*
X154051000Y-97028000D02*
X154051000Y-83820000D01*
X118618000Y-126111000D02*
X118618000Y-123825000D01*
X127635000Y-126111000D02*
X118618000Y-126111000D01*
X127635000Y-123825000D02*
X127635000Y-126111000D01*
X118618000Y-123825000D02*
X127635000Y-123825000D01*
D13*
X118567190Y-119830905D02*
X118833857Y-120630905D01*
X119100524Y-119830905D01*
X119176714Y-120707095D02*
X119786238Y-120707095D01*
X120395762Y-120630905D02*
X119938619Y-120630905D01*
X120167190Y-120630905D02*
X120167190Y-119830905D01*
X120091000Y-119945190D01*
X120014809Y-120021381D01*
X119938619Y-120059476D01*
X120738619Y-120554714D02*
X120776714Y-120592810D01*
X120738619Y-120630905D01*
X120700524Y-120592810D01*
X120738619Y-120554714D01*
X120738619Y-120630905D01*
X121271952Y-119830905D02*
X121348143Y-119830905D01*
X121424333Y-119869000D01*
X121462428Y-119907095D01*
X121500524Y-119983286D01*
X121538619Y-120135667D01*
X121538619Y-120326143D01*
X121500524Y-120478524D01*
X121462428Y-120554714D01*
X121424333Y-120592810D01*
X121348143Y-120630905D01*
X121271952Y-120630905D01*
X121195762Y-120592810D01*
X121157666Y-120554714D01*
X121119571Y-120478524D01*
X121081476Y-120326143D01*
X121081476Y-120135667D01*
X121119571Y-119983286D01*
X121157666Y-119907095D01*
X121195762Y-119869000D01*
X121271952Y-119830905D01*
X118681476Y-121481857D02*
X118948143Y-121481857D01*
X119062429Y-121900905D02*
X118681476Y-121900905D01*
X118681476Y-121100905D01*
X119062429Y-121100905D01*
X119405286Y-121367571D02*
X119405286Y-121900905D01*
X119405286Y-121443762D02*
X119443381Y-121405667D01*
X119519572Y-121367571D01*
X119633858Y-121367571D01*
X119710048Y-121405667D01*
X119748143Y-121481857D01*
X119748143Y-121900905D01*
X120129096Y-121900905D02*
X120129096Y-121367571D01*
X120129096Y-121519952D02*
X120167191Y-121443762D01*
X120205287Y-121405667D01*
X120281477Y-121367571D01*
X120357668Y-121367571D01*
X120624334Y-121900905D02*
X120624334Y-121367571D01*
X120624334Y-121100905D02*
X120586239Y-121139000D01*
X120624334Y-121177095D01*
X120662429Y-121139000D01*
X120624334Y-121100905D01*
X120624334Y-121177095D01*
X121348143Y-121367571D02*
X121348143Y-122167571D01*
X121348143Y-121862810D02*
X121271953Y-121900905D01*
X121119572Y-121900905D01*
X121043381Y-121862810D01*
X121005286Y-121824714D01*
X120967191Y-121748524D01*
X120967191Y-121519952D01*
X121005286Y-121443762D01*
X121043381Y-121405667D01*
X121119572Y-121367571D01*
X121271953Y-121367571D01*
X121348143Y-121405667D01*
X122071953Y-121367571D02*
X122071953Y-121900905D01*
X121729096Y-121367571D02*
X121729096Y-121786619D01*
X121767191Y-121862810D01*
X121843382Y-121900905D01*
X121957668Y-121900905D01*
X122033858Y-121862810D01*
X122071953Y-121824714D01*
X122757668Y-121862810D02*
X122681478Y-121900905D01*
X122529097Y-121900905D01*
X122452906Y-121862810D01*
X122414811Y-121786619D01*
X122414811Y-121481857D01*
X122452906Y-121405667D01*
X122529097Y-121367571D01*
X122681478Y-121367571D01*
X122757668Y-121405667D01*
X122795763Y-121481857D01*
X122795763Y-121558048D01*
X122414811Y-121634238D01*
X119138619Y-123170905D02*
X118871952Y-122789952D01*
X118681476Y-123170905D02*
X118681476Y-122370905D01*
X118986238Y-122370905D01*
X119062429Y-122409000D01*
X119100524Y-122447095D01*
X119138619Y-122523286D01*
X119138619Y-122637571D01*
X119100524Y-122713762D01*
X119062429Y-122751857D01*
X118986238Y-122789952D01*
X118681476Y-122789952D01*
X119481476Y-123170905D02*
X119481476Y-122637571D01*
X119481476Y-122370905D02*
X119443381Y-122409000D01*
X119481476Y-122447095D01*
X119519571Y-122409000D01*
X119481476Y-122370905D01*
X119481476Y-122447095D01*
X119862428Y-122637571D02*
X119862428Y-123170905D01*
X119862428Y-122713762D02*
X119900523Y-122675667D01*
X119976714Y-122637571D01*
X120091000Y-122637571D01*
X120167190Y-122675667D01*
X120205285Y-122751857D01*
X120205285Y-123170905D01*
X120929095Y-123132810D02*
X120852905Y-123170905D01*
X120700524Y-123170905D01*
X120624333Y-123132810D01*
X120586238Y-123094714D01*
X120548143Y-123018524D01*
X120548143Y-122789952D01*
X120586238Y-122713762D01*
X120624333Y-122675667D01*
X120700524Y-122637571D01*
X120852905Y-122637571D01*
X120929095Y-122675667D01*
X121386238Y-123170905D02*
X121310047Y-123132810D01*
X121271952Y-123094714D01*
X121233857Y-123018524D01*
X121233857Y-122789952D01*
X121271952Y-122713762D01*
X121310047Y-122675667D01*
X121386238Y-122637571D01*
X121500524Y-122637571D01*
X121576714Y-122675667D01*
X121614809Y-122713762D01*
X121652905Y-122789952D01*
X121652905Y-123018524D01*
X121614809Y-123094714D01*
X121576714Y-123132810D01*
X121500524Y-123170905D01*
X121386238Y-123170905D01*
X121538619Y-122332810D02*
X121424333Y-122447095D01*
X121995762Y-122637571D02*
X121995762Y-123170905D01*
X121995762Y-122713762D02*
X122033857Y-122675667D01*
X122110048Y-122637571D01*
X122224334Y-122637571D01*
X122300524Y-122675667D01*
X122338619Y-122751857D01*
X122338619Y-123170905D01*
X122719572Y-123170905D02*
X122719572Y-122370905D01*
X123100524Y-122637571D02*
X123100524Y-123170905D01*
X123100524Y-122713762D02*
X123138619Y-122675667D01*
X123214810Y-122637571D01*
X123329096Y-122637571D01*
X123405286Y-122675667D01*
X123443381Y-122751857D01*
X123443381Y-123170905D01*
X124167191Y-122637571D02*
X124167191Y-123285190D01*
X124129096Y-123361381D01*
X124091001Y-123399476D01*
X124014810Y-123437571D01*
X123900525Y-123437571D01*
X123824334Y-123399476D01*
X124167191Y-123132810D02*
X124091001Y-123170905D01*
X123938620Y-123170905D01*
X123862429Y-123132810D01*
X123824334Y-123094714D01*
X123786239Y-123018524D01*
X123786239Y-122789952D01*
X123824334Y-122713762D01*
X123862429Y-122675667D01*
X123938620Y-122637571D01*
X124091001Y-122637571D01*
X124167191Y-122675667D01*
X124852906Y-123132810D02*
X124776716Y-123170905D01*
X124624335Y-123170905D01*
X124548144Y-123132810D01*
X124510049Y-123056619D01*
X124510049Y-122751857D01*
X124548144Y-122675667D01*
X124624335Y-122637571D01*
X124776716Y-122637571D01*
X124852906Y-122675667D01*
X124891001Y-122751857D01*
X124891001Y-122828048D01*
X124510049Y-122904238D01*
X125233858Y-122637571D02*
X125233858Y-123170905D01*
X125233858Y-122713762D02*
X125271953Y-122675667D01*
X125348144Y-122637571D01*
X125462430Y-122637571D01*
X125538620Y-122675667D01*
X125576715Y-122751857D01*
X125576715Y-123170905D01*
X125957668Y-123170905D02*
X125957668Y-122637571D01*
X125957668Y-122370905D02*
X125919573Y-122409000D01*
X125957668Y-122447095D01*
X125995763Y-122409000D01*
X125957668Y-122370905D01*
X125957668Y-122447095D01*
X126643382Y-123132810D02*
X126567192Y-123170905D01*
X126414811Y-123170905D01*
X126338620Y-123132810D01*
X126300525Y-123056619D01*
X126300525Y-122751857D01*
X126338620Y-122675667D01*
X126414811Y-122637571D01*
X126567192Y-122637571D01*
X126643382Y-122675667D01*
X126681477Y-122751857D01*
X126681477Y-122828048D01*
X126300525Y-122904238D01*
X127024334Y-123170905D02*
X127024334Y-122637571D01*
X127024334Y-122789952D02*
X127062429Y-122713762D01*
X127100525Y-122675667D01*
X127176715Y-122637571D01*
X127252906Y-122637571D01*
X127519572Y-123170905D02*
X127519572Y-122637571D01*
X127519572Y-122370905D02*
X127481477Y-122409000D01*
X127519572Y-122447095D01*
X127557667Y-122409000D01*
X127519572Y-122370905D01*
X127519572Y-122447095D01*
X128014810Y-123170905D02*
X127938619Y-123132810D01*
X127900524Y-123056619D01*
X127900524Y-122370905D01*
X159329381Y-108989286D02*
X159329381Y-109703572D01*
X158329381Y-109703572D01*
X159329381Y-108275000D02*
X159281762Y-108417858D01*
X159234143Y-108489286D01*
X159138905Y-108560715D01*
X158853190Y-108560715D01*
X158757952Y-108489286D01*
X158710333Y-108417858D01*
X158662714Y-108275000D01*
X158662714Y-108060715D01*
X158710333Y-107917858D01*
X158757952Y-107846429D01*
X158853190Y-107775000D01*
X159138905Y-107775000D01*
X159234143Y-107846429D01*
X159281762Y-107917858D01*
X159329381Y-108060715D01*
X159329381Y-108275000D01*
X158662714Y-107275000D02*
X159329381Y-106989286D01*
X158853190Y-106703572D01*
X159329381Y-106417857D01*
X158662714Y-106132143D01*
X159329381Y-104417857D02*
X158329381Y-104417857D01*
X158329381Y-103846429D01*
X158377000Y-103703571D01*
X158424619Y-103632143D01*
X158519857Y-103560714D01*
X158662714Y-103560714D01*
X158757952Y-103632143D01*
X158805571Y-103703571D01*
X158853190Y-103846429D01*
X158853190Y-104417857D01*
X159329381Y-102275000D02*
X158805571Y-102275000D01*
X158710333Y-102346429D01*
X158662714Y-102489286D01*
X158662714Y-102775000D01*
X158710333Y-102917857D01*
X159281762Y-102275000D02*
X159329381Y-102417857D01*
X159329381Y-102775000D01*
X159281762Y-102917857D01*
X159186524Y-102989286D01*
X159091286Y-102989286D01*
X158996048Y-102917857D01*
X158948429Y-102775000D01*
X158948429Y-102417857D01*
X158900810Y-102275000D01*
X159281762Y-101632143D02*
X159329381Y-101489286D01*
X159329381Y-101203571D01*
X159281762Y-101060714D01*
X159186524Y-100989286D01*
X159138905Y-100989286D01*
X159043667Y-101060714D01*
X158996048Y-101203571D01*
X158996048Y-101417857D01*
X158948429Y-101560714D01*
X158853190Y-101632143D01*
X158805571Y-101632143D01*
X158710333Y-101560714D01*
X158662714Y-101417857D01*
X158662714Y-101203571D01*
X158710333Y-101060714D01*
X159281762Y-100417857D02*
X159329381Y-100275000D01*
X159329381Y-99989285D01*
X159281762Y-99846428D01*
X159186524Y-99775000D01*
X159138905Y-99775000D01*
X159043667Y-99846428D01*
X158996048Y-99989285D01*
X158996048Y-100203571D01*
X158948429Y-100346428D01*
X158853190Y-100417857D01*
X158805571Y-100417857D01*
X158710333Y-100346428D01*
X158662714Y-100203571D01*
X158662714Y-99989285D01*
X158710333Y-99846428D01*
X159329381Y-95781143D02*
X158329381Y-95781143D01*
X158805571Y-95781143D02*
X158805571Y-94924000D01*
X159329381Y-94924000D02*
X158329381Y-94924000D01*
X159329381Y-94209714D02*
X158662714Y-94209714D01*
X158329381Y-94209714D02*
X158377000Y-94281143D01*
X158424619Y-94209714D01*
X158377000Y-94138286D01*
X158329381Y-94209714D01*
X158424619Y-94209714D01*
X158662714Y-92852571D02*
X159472238Y-92852571D01*
X159567476Y-92924000D01*
X159615095Y-92995428D01*
X159662714Y-93138285D01*
X159662714Y-93352571D01*
X159615095Y-93495428D01*
X159281762Y-92852571D02*
X159329381Y-92995428D01*
X159329381Y-93281142D01*
X159281762Y-93424000D01*
X159234143Y-93495428D01*
X159138905Y-93566857D01*
X158853190Y-93566857D01*
X158757952Y-93495428D01*
X158710333Y-93424000D01*
X158662714Y-93281142D01*
X158662714Y-92995428D01*
X158710333Y-92852571D01*
X159329381Y-92138285D02*
X158329381Y-92138285D01*
X159329381Y-91495428D02*
X158805571Y-91495428D01*
X158710333Y-91566857D01*
X158662714Y-91709714D01*
X158662714Y-91923999D01*
X158710333Y-92066857D01*
X158757952Y-92138285D01*
X159329381Y-89638285D02*
X158329381Y-89638285D01*
X158329381Y-89066857D01*
X158377000Y-88923999D01*
X158424619Y-88852571D01*
X158519857Y-88781142D01*
X158662714Y-88781142D01*
X158757952Y-88852571D01*
X158805571Y-88923999D01*
X158853190Y-89066857D01*
X158853190Y-89638285D01*
X159329381Y-87495428D02*
X158805571Y-87495428D01*
X158710333Y-87566857D01*
X158662714Y-87709714D01*
X158662714Y-87995428D01*
X158710333Y-88138285D01*
X159281762Y-87495428D02*
X159329381Y-87638285D01*
X159329381Y-87995428D01*
X159281762Y-88138285D01*
X159186524Y-88209714D01*
X159091286Y-88209714D01*
X158996048Y-88138285D01*
X158948429Y-87995428D01*
X158948429Y-87638285D01*
X158900810Y-87495428D01*
X159281762Y-86852571D02*
X159329381Y-86709714D01*
X159329381Y-86423999D01*
X159281762Y-86281142D01*
X159186524Y-86209714D01*
X159138905Y-86209714D01*
X159043667Y-86281142D01*
X158996048Y-86423999D01*
X158996048Y-86638285D01*
X158948429Y-86781142D01*
X158853190Y-86852571D01*
X158805571Y-86852571D01*
X158710333Y-86781142D01*
X158662714Y-86638285D01*
X158662714Y-86423999D01*
X158710333Y-86281142D01*
X159281762Y-85638285D02*
X159329381Y-85495428D01*
X159329381Y-85209713D01*
X159281762Y-85066856D01*
X159186524Y-84995428D01*
X159138905Y-84995428D01*
X159043667Y-85066856D01*
X158996048Y-85209713D01*
X158996048Y-85423999D01*
X158948429Y-85566856D01*
X158853190Y-85638285D01*
X158805571Y-85638285D01*
X158710333Y-85566856D01*
X158662714Y-85423999D01*
X158662714Y-85209713D01*
X158710333Y-85066856D01*
D12*
X157861000Y-97028000D02*
X157861000Y-83820000D01*
X157861000Y-97790000D02*
X157861000Y-111887000D01*
D14*
X148288000Y-128966000D02*
X148288000Y-124045000D01*
X158209000Y-128966000D02*
X158209000Y-124045000D01*
X148288000Y-124045000D02*
X158209000Y-124045000D01*
X157114000Y-128966000D02*
X158209000Y-128966000D01*
X148288000Y-128966000D02*
X149384000Y-128966000D01*
X152114000Y-128966000D02*
X154384000Y-128966000D01*
X151689000Y-127720000D02*
X151689000Y-124045000D01*
X154810000Y-127720000D02*
X154810000Y-124045000D01*
X152114000Y-128966000D02*
X154384000Y-128966000D01*
X151689000Y-124045000D02*
X154810000Y-124045000D01*
X154162000Y-122929000D02*
X155532000Y-122929000D01*
X155532000Y-122929000D02*
X155532000Y-112529000D01*
X155532000Y-112529000D02*
X150792000Y-112529000D01*
X150792000Y-112529000D02*
X150792000Y-122929000D01*
X150792000Y-122929000D02*
X152162000Y-122929000D01*
X152162000Y-122929000D02*
G75*
G02X154162000Y-122929000I1000000J0D01*
G01*
X132648000Y-114487000D02*
X132648000Y-111827000D01*
X124968000Y-114487000D02*
X132648000Y-114487000D01*
X124968000Y-111827000D02*
X132648000Y-111827000D01*
X124968000Y-114487000D02*
X124968000Y-111827000D01*
X123698000Y-114487000D02*
X122368000Y-114487000D01*
X122368000Y-114487000D02*
X122368000Y-113157000D01*
X149209000Y-103498000D02*
X150579000Y-103498000D01*
X150579000Y-103498000D02*
X150579000Y-80398000D01*
X150579000Y-80398000D02*
X145839000Y-80398000D01*
X145839000Y-80398000D02*
X145839000Y-103498000D01*
X145839000Y-103498000D02*
X147209000Y-103498000D01*
X147209000Y-103498000D02*
G75*
G02X149209000Y-103498000I1000000J0D01*
G01*
X153714000Y-106216000D02*
X146594000Y-106216000D01*
X153714000Y-104096000D02*
X146594000Y-104096000D01*
X153714000Y-106216000D02*
X153714000Y-104096000D01*
X146594000Y-106216000D02*
X146594000Y-104096000D01*
D13*
X118745000Y-80899000D02*
X117475000Y-80899000D01*
X117475000Y-80899000D02*
X117475000Y-87249000D01*
X117475000Y-87249000D02*
X118745000Y-87249000D01*
X118745000Y-89408000D02*
X118745000Y-78359000D01*
X133223000Y-89408000D02*
X118745000Y-89408000D01*
X130048000Y-78359000D02*
X133223000Y-78359000D01*
X133223000Y-78359000D02*
X133223000Y-89408000D01*
X118745000Y-78359000D02*
X126492000Y-78359000D01*
X126492000Y-78359000D02*
X126365000Y-78359000D01*
D14*
X132648000Y-110550000D02*
X132648000Y-107890000D01*
X124968000Y-110550000D02*
X132648000Y-110550000D01*
X124968000Y-107890000D02*
X132648000Y-107890000D01*
X124968000Y-110550000D02*
X124968000Y-107890000D01*
X123698000Y-110550000D02*
X122368000Y-110550000D01*
X122368000Y-110550000D02*
X122368000Y-109220000D01*
X147360000Y-110490000D02*
G75*
G03X147360000Y-110490000I-1310000J0D01*
G01*
X146050000Y-109180000D02*
X146050000Y-109050000D01*
X153964000Y-110490000D02*
G75*
G03X153964000Y-110490000I-1310000J0D01*
G01*
X152654000Y-109180000D02*
X152654000Y-109050000D01*
X129787000Y-119393000D02*
X129787000Y-116573000D01*
X129787000Y-116573000D02*
X124467000Y-116573000D01*
X124467000Y-116573000D02*
X124467000Y-119393000D01*
X124467000Y-119393000D02*
X129787000Y-119393000D01*
X131127000Y-117983000D02*
X129787000Y-117983000D01*
X123127000Y-117983000D02*
X124467000Y-117983000D01*
X128947000Y-119393000D02*
X128947000Y-116573000D01*
X155150000Y-96945000D02*
X155150000Y-89825000D01*
X157270000Y-96945000D02*
X157270000Y-89825000D01*
X155150000Y-96945000D02*
X157270000Y-96945000D01*
X155150000Y-89825000D02*
X157270000Y-89825000D01*
X155150000Y-104946000D02*
X155150000Y-97826000D01*
X157270000Y-104946000D02*
X157270000Y-97826000D01*
X155150000Y-104946000D02*
X157270000Y-104946000D01*
X155150000Y-97826000D02*
X157270000Y-97826000D01*
X153416462Y-134678000D02*
G75*
G03X151871170Y-140228000I-462J-2990000D01*
G01*
X153415538Y-134678000D02*
G75*
G02X154960830Y-140228000I462J-2990000D01*
G01*
X155916000Y-137668000D02*
G75*
G03X155916000Y-137668000I-2500000J0D01*
G01*
X151871000Y-140228000D02*
X154961000Y-140228000D01*
X147333000Y-115958000D02*
X144513000Y-115958000D01*
X144513000Y-115958000D02*
X144513000Y-121278000D01*
X144513000Y-121278000D02*
X147333000Y-121278000D01*
X147333000Y-121278000D02*
X147333000Y-115958000D01*
X145923000Y-114618000D02*
X145923000Y-115958000D01*
X145923000Y-122618000D02*
X145923000Y-121278000D01*
X147333000Y-116798000D02*
X144513000Y-116798000D01*
X135186000Y-141223538D02*
G75*
G03X140736000Y-142768830I2990000J-462D01*
G01*
X135186000Y-141224462D02*
G75*
G02X140736000Y-139679170I2990000J462D01*
G01*
X140676000Y-141224000D02*
G75*
G03X140676000Y-141224000I-2500000J0D01*
G01*
X140736000Y-142769000D02*
X140736000Y-139679000D01*
X135186000Y-134619538D02*
G75*
G03X140736000Y-136164830I2990000J-462D01*
G01*
X135186000Y-134620462D02*
G75*
G02X140736000Y-133075170I2990000J462D01*
G01*
X140676000Y-134620000D02*
G75*
G03X140676000Y-134620000I-2500000J0D01*
G01*
X140736000Y-136165000D02*
X140736000Y-133075000D01*
X135186000Y-128015538D02*
G75*
G03X140736000Y-129560830I2990000J-462D01*
G01*
X135186000Y-128016462D02*
G75*
G02X140736000Y-126471170I2990000J462D01*
G01*
X140676000Y-128016000D02*
G75*
G03X140676000Y-128016000I-2500000J0D01*
G01*
X140736000Y-129561000D02*
X140736000Y-126471000D01*
X135186000Y-121411538D02*
G75*
G03X140736000Y-122956830I2990000J-462D01*
G01*
X135186000Y-121412462D02*
G75*
G02X140736000Y-119867170I2990000J462D01*
G01*
X140676000Y-121412000D02*
G75*
G03X140676000Y-121412000I-2500000J0D01*
G01*
X140736000Y-122957000D02*
X140736000Y-119867000D01*
X135186000Y-114807538D02*
G75*
G03X140736000Y-116352830I2990000J-462D01*
G01*
X135186000Y-114808462D02*
G75*
G02X140736000Y-113263170I2990000J462D01*
G01*
X140676000Y-114808000D02*
G75*
G03X140676000Y-114808000I-2500000J0D01*
G01*
X140736000Y-116353000D02*
X140736000Y-113263000D01*
X135186000Y-108203538D02*
G75*
G03X140736000Y-109748830I2990000J-462D01*
G01*
X135186000Y-108204462D02*
G75*
G02X140736000Y-106659170I2990000J462D01*
G01*
X140676000Y-108204000D02*
G75*
G03X140676000Y-108204000I-2500000J0D01*
G01*
X140736000Y-109749000D02*
X140736000Y-106659000D01*
X135186000Y-101599538D02*
G75*
G03X140736000Y-103144830I2990000J-462D01*
G01*
X135186000Y-101600462D02*
G75*
G02X140736000Y-100055170I2990000J462D01*
G01*
X140676000Y-101600000D02*
G75*
G03X140676000Y-101600000I-2500000J0D01*
G01*
X140736000Y-103145000D02*
X140736000Y-100055000D01*
X135186000Y-94995538D02*
G75*
G03X140736000Y-96540830I2990000J-462D01*
G01*
X135186000Y-94996462D02*
G75*
G02X140736000Y-93451170I2990000J462D01*
G01*
X140676000Y-94996000D02*
G75*
G03X140676000Y-94996000I-2500000J0D01*
G01*
X140736000Y-96541000D02*
X140736000Y-93451000D01*
X135186000Y-88391538D02*
G75*
G03X140736000Y-89936830I2990000J-462D01*
G01*
X135186000Y-88392462D02*
G75*
G02X140736000Y-86847170I2990000J462D01*
G01*
X140676000Y-88392000D02*
G75*
G03X140676000Y-88392000I-2500000J0D01*
G01*
X140736000Y-89937000D02*
X140736000Y-86847000D01*
X135186000Y-81787538D02*
G75*
G03X140736000Y-83332830I2990000J-462D01*
G01*
X135186000Y-81788462D02*
G75*
G02X140736000Y-80243170I2990000J462D01*
G01*
X140676000Y-81788000D02*
G75*
G03X140676000Y-81788000I-2500000J0D01*
G01*
X140736000Y-83333000D02*
X140736000Y-80243000D01*
D13*
X118745000Y-93599000D02*
X117475000Y-93599000D01*
X117475000Y-93599000D02*
X117475000Y-99949000D01*
X117475000Y-99949000D02*
X118745000Y-99949000D01*
X118745000Y-102108000D02*
X118745000Y-91059000D01*
X133223000Y-102108000D02*
X118745000Y-102108000D01*
X130048000Y-91059000D02*
X133223000Y-91059000D01*
X133223000Y-91059000D02*
X133223000Y-102108000D01*
X118745000Y-91059000D02*
X126492000Y-91059000D01*
X126492000Y-91059000D02*
X126365000Y-91059000D01*
D14*
X123384000Y-103318000D02*
X123384000Y-105978000D01*
X128524000Y-103318000D02*
X123384000Y-103318000D01*
X128524000Y-105978000D02*
X123384000Y-105978000D01*
X128524000Y-103318000D02*
X128524000Y-105978000D01*
X129794000Y-103318000D02*
X131124000Y-103318000D01*
X131124000Y-103318000D02*
X131124000Y-104648000D01*
X127588000Y-135791000D02*
X118788000Y-135791000D01*
X118788000Y-135791000D02*
X118788000Y-126591000D01*
X133488000Y-133091000D02*
X133488000Y-135791000D01*
X133488000Y-135791000D02*
X131588000Y-135791000D01*
X118788000Y-126591000D02*
X133488000Y-126591000D01*
X133488000Y-126591000D02*
X133488000Y-129191000D01*
X127448000Y-139259000D02*
X127448000Y-141919000D01*
X130048000Y-139259000D02*
X127448000Y-139259000D01*
X130048000Y-141919000D02*
X127448000Y-141919000D01*
X130048000Y-139259000D02*
X130048000Y-141919000D01*
X131318000Y-139259000D02*
X132648000Y-139259000D01*
X132648000Y-139259000D02*
X132648000Y-140589000D01*
X147360000Y-132334000D02*
G75*
G03X147360000Y-132334000I-1310000J0D01*
G01*
X147360000Y-132334000D02*
X147490000Y-132334000D01*
X147360000Y-128778000D02*
G75*
G03X147360000Y-128778000I-1310000J0D01*
G01*
X146050000Y-127468000D02*
X146050000Y-127338000D01*
X157266000Y-86995000D02*
G75*
G03X157266000Y-86995000I-1310000J0D01*
G01*
X155956000Y-85685000D02*
X155956000Y-85555000D01*
X157266000Y-110490000D02*
G75*
G03X157266000Y-110490000I-1310000J0D01*
G01*
X155956000Y-109180000D02*
X155956000Y-109050000D01*
X150662000Y-108458000D02*
G75*
G03X150662000Y-108458000I-1310000J0D01*
G01*
X149352000Y-109768000D02*
X149352000Y-109898000D01*
X155234000Y-132334000D02*
G75*
G03X155234000Y-132334000I-1310000J0D01*
G01*
X152614000Y-132334000D02*
X152484000Y-132334000D01*
X144700000Y-144820000D02*
X144700000Y-134580000D01*
X149341000Y-144820000D02*
X149341000Y-134580000D01*
X144700000Y-144820000D02*
X149341000Y-144820000D01*
X144700000Y-134580000D02*
X149341000Y-134580000D01*
X146210000Y-144820000D02*
X146210000Y-134580000D01*
X144700000Y-141550000D02*
X146210000Y-141550000D01*
X144700000Y-137849000D02*
X146210000Y-137849000D01*
D15*
G36*
X129425744Y-124855918D02*
X129481201Y-124883568D01*
X129530148Y-124934480D01*
X129543629Y-124953338D01*
X129558314Y-124978015D01*
X129567842Y-125004816D01*
X129573293Y-125040587D01*
X129575747Y-125092169D01*
X129576286Y-125160267D01*
X129573852Y-125253588D01*
X129565394Y-125323657D01*
X129549174Y-125375931D01*
X129523454Y-125415869D01*
X129486497Y-125448929D01*
X129483782Y-125450886D01*
X129447360Y-125470908D01*
X129403502Y-125480815D01*
X129347724Y-125483257D01*
X129257048Y-125483257D01*
X129257010Y-125571283D01*
X129256166Y-125620308D01*
X129251024Y-125649065D01*
X129237587Y-125666311D01*
X129211858Y-125680808D01*
X129205679Y-125683769D01*
X129176764Y-125697648D01*
X129154376Y-125706414D01*
X129137729Y-125707171D01*
X129126036Y-125697023D01*
X129118510Y-125673073D01*
X129114366Y-125632426D01*
X129112815Y-125572186D01*
X129113071Y-125489455D01*
X129114349Y-125381339D01*
X129114748Y-125349000D01*
X129116185Y-125237524D01*
X129117472Y-125164603D01*
X129256971Y-125164603D01*
X129257755Y-125226499D01*
X129261240Y-125266997D01*
X129269124Y-125293708D01*
X129283105Y-125314244D01*
X129292597Y-125324260D01*
X129331404Y-125353567D01*
X129365763Y-125355952D01*
X129401216Y-125331750D01*
X129402114Y-125330857D01*
X129416539Y-125312153D01*
X129425313Y-125286732D01*
X129429739Y-125247584D01*
X129431118Y-125187697D01*
X129431143Y-125174430D01*
X129427812Y-125091901D01*
X129416969Y-125034691D01*
X129397340Y-124999766D01*
X129367650Y-124984094D01*
X129350491Y-124982514D01*
X129309766Y-124989926D01*
X129281832Y-125014330D01*
X129265017Y-125058980D01*
X129257650Y-125127130D01*
X129256971Y-125164603D01*
X129117472Y-125164603D01*
X129117708Y-125151245D01*
X129119677Y-125086333D01*
X129122450Y-125038958D01*
X129126388Y-125005290D01*
X129131849Y-124981498D01*
X129139192Y-124963753D01*
X129148777Y-124948224D01*
X129152887Y-124942381D01*
X129207405Y-124887185D01*
X129276336Y-124855890D01*
X129356072Y-124847165D01*
X129425744Y-124855918D01*
X129425744Y-124855918D01*
G37*
X129425744Y-124855918D02*
X129481201Y-124883568D01*
X129530148Y-124934480D01*
X129543629Y-124953338D01*
X129558314Y-124978015D01*
X129567842Y-125004816D01*
X129573293Y-125040587D01*
X129575747Y-125092169D01*
X129576286Y-125160267D01*
X129573852Y-125253588D01*
X129565394Y-125323657D01*
X129549174Y-125375931D01*
X129523454Y-125415869D01*
X129486497Y-125448929D01*
X129483782Y-125450886D01*
X129447360Y-125470908D01*
X129403502Y-125480815D01*
X129347724Y-125483257D01*
X129257048Y-125483257D01*
X129257010Y-125571283D01*
X129256166Y-125620308D01*
X129251024Y-125649065D01*
X129237587Y-125666311D01*
X129211858Y-125680808D01*
X129205679Y-125683769D01*
X129176764Y-125697648D01*
X129154376Y-125706414D01*
X129137729Y-125707171D01*
X129126036Y-125697023D01*
X129118510Y-125673073D01*
X129114366Y-125632426D01*
X129112815Y-125572186D01*
X129113071Y-125489455D01*
X129114349Y-125381339D01*
X129114748Y-125349000D01*
X129116185Y-125237524D01*
X129117472Y-125164603D01*
X129256971Y-125164603D01*
X129257755Y-125226499D01*
X129261240Y-125266997D01*
X129269124Y-125293708D01*
X129283105Y-125314244D01*
X129292597Y-125324260D01*
X129331404Y-125353567D01*
X129365763Y-125355952D01*
X129401216Y-125331750D01*
X129402114Y-125330857D01*
X129416539Y-125312153D01*
X129425313Y-125286732D01*
X129429739Y-125247584D01*
X129431118Y-125187697D01*
X129431143Y-125174430D01*
X129427812Y-125091901D01*
X129416969Y-125034691D01*
X129397340Y-124999766D01*
X129367650Y-124984094D01*
X129350491Y-124982514D01*
X129309766Y-124989926D01*
X129281832Y-125014330D01*
X129265017Y-125058980D01*
X129257650Y-125127130D01*
X129256971Y-125164603D01*
X129117472Y-125164603D01*
X129117708Y-125151245D01*
X129119677Y-125086333D01*
X129122450Y-125038958D01*
X129126388Y-125005290D01*
X129131849Y-124981498D01*
X129139192Y-124963753D01*
X129148777Y-124948224D01*
X129152887Y-124942381D01*
X129207405Y-124887185D01*
X129276336Y-124855890D01*
X129356072Y-124847165D01*
X129425744Y-124855918D01*
G36*
X130542093Y-124863780D02*
X130588672Y-124890723D01*
X130621057Y-124917466D01*
X130644742Y-124945484D01*
X130661059Y-124979748D01*
X130671339Y-125025227D01*
X130676914Y-125086892D01*
X130679116Y-125169711D01*
X130679371Y-125229246D01*
X130679371Y-125448391D01*
X130617686Y-125476044D01*
X130556000Y-125503697D01*
X130548743Y-125263670D01*
X130545744Y-125174028D01*
X130542598Y-125108962D01*
X130538701Y-125064026D01*
X130533447Y-125034770D01*
X130526231Y-125016748D01*
X130516450Y-125005511D01*
X130513312Y-125003079D01*
X130465761Y-124984083D01*
X130417697Y-124991600D01*
X130389086Y-125011543D01*
X130377447Y-125025675D01*
X130369391Y-125044220D01*
X130364271Y-125072334D01*
X130361441Y-125115173D01*
X130360256Y-125177895D01*
X130360057Y-125243261D01*
X130360018Y-125325268D01*
X130358614Y-125383316D01*
X130353914Y-125422465D01*
X130343987Y-125447780D01*
X130326903Y-125464323D01*
X130300732Y-125477156D01*
X130265775Y-125490491D01*
X130227596Y-125505007D01*
X130232141Y-125247389D01*
X130233971Y-125154519D01*
X130236112Y-125085889D01*
X130239181Y-125036711D01*
X130243794Y-125002198D01*
X130250568Y-124977562D01*
X130260119Y-124958016D01*
X130271634Y-124940770D01*
X130327190Y-124885680D01*
X130394980Y-124853822D01*
X130468713Y-124846191D01*
X130542093Y-124863780D01*
X130542093Y-124863780D01*
G37*
X130542093Y-124863780D02*
X130588672Y-124890723D01*
X130621057Y-124917466D01*
X130644742Y-124945484D01*
X130661059Y-124979748D01*
X130671339Y-125025227D01*
X130676914Y-125086892D01*
X130679116Y-125169711D01*
X130679371Y-125229246D01*
X130679371Y-125448391D01*
X130617686Y-125476044D01*
X130556000Y-125503697D01*
X130548743Y-125263670D01*
X130545744Y-125174028D01*
X130542598Y-125108962D01*
X130538701Y-125064026D01*
X130533447Y-125034770D01*
X130526231Y-125016748D01*
X130516450Y-125005511D01*
X130513312Y-125003079D01*
X130465761Y-124984083D01*
X130417697Y-124991600D01*
X130389086Y-125011543D01*
X130377447Y-125025675D01*
X130369391Y-125044220D01*
X130364271Y-125072334D01*
X130361441Y-125115173D01*
X130360256Y-125177895D01*
X130360057Y-125243261D01*
X130360018Y-125325268D01*
X130358614Y-125383316D01*
X130353914Y-125422465D01*
X130343987Y-125447780D01*
X130326903Y-125464323D01*
X130300732Y-125477156D01*
X130265775Y-125490491D01*
X130227596Y-125505007D01*
X130232141Y-125247389D01*
X130233971Y-125154519D01*
X130236112Y-125085889D01*
X130239181Y-125036711D01*
X130243794Y-125002198D01*
X130250568Y-124977562D01*
X130260119Y-124958016D01*
X130271634Y-124940770D01*
X130327190Y-124885680D01*
X130394980Y-124853822D01*
X130468713Y-124846191D01*
X130542093Y-124863780D01*
G36*
X128867115Y-124857962D02*
X128935145Y-124893733D01*
X128985351Y-124951301D01*
X129003185Y-124988312D01*
X129017063Y-125043882D01*
X129024167Y-125114096D01*
X129024840Y-125190727D01*
X129019427Y-125265552D01*
X129008270Y-125330342D01*
X128991714Y-125376873D01*
X128986626Y-125384887D01*
X128926355Y-125444707D01*
X128854769Y-125480535D01*
X128777092Y-125491020D01*
X128698548Y-125474810D01*
X128676689Y-125465092D01*
X128634122Y-125435143D01*
X128596763Y-125395433D01*
X128593232Y-125390397D01*
X128578881Y-125366124D01*
X128569394Y-125340178D01*
X128563790Y-125306022D01*
X128561086Y-125257119D01*
X128560299Y-125186935D01*
X128560286Y-125171200D01*
X128560322Y-125166192D01*
X128705429Y-125166192D01*
X128706273Y-125232430D01*
X128709596Y-125276386D01*
X128716583Y-125304779D01*
X128728416Y-125324325D01*
X128734457Y-125330857D01*
X128769186Y-125355680D01*
X128802903Y-125354548D01*
X128836995Y-125333016D01*
X128857329Y-125310029D01*
X128869371Y-125276478D01*
X128876134Y-125223569D01*
X128876598Y-125217399D01*
X128877752Y-125121513D01*
X128865688Y-125050299D01*
X128840570Y-125004194D01*
X128802560Y-124983635D01*
X128788992Y-124982514D01*
X128753364Y-124988152D01*
X128728994Y-125007686D01*
X128714093Y-125045042D01*
X128706875Y-125104150D01*
X128705429Y-125166192D01*
X128560322Y-125166192D01*
X128560826Y-125096413D01*
X128563096Y-125044159D01*
X128568068Y-125007949D01*
X128576713Y-124981299D01*
X128590005Y-124957722D01*
X128592943Y-124953338D01*
X128642313Y-124894249D01*
X128696109Y-124859947D01*
X128761602Y-124846331D01*
X128783842Y-124845665D01*
X128867115Y-124857962D01*
X128867115Y-124857962D01*
G37*
X128867115Y-124857962D02*
X128935145Y-124893733D01*
X128985351Y-124951301D01*
X129003185Y-124988312D01*
X129017063Y-125043882D01*
X129024167Y-125114096D01*
X129024840Y-125190727D01*
X129019427Y-125265552D01*
X129008270Y-125330342D01*
X128991714Y-125376873D01*
X128986626Y-125384887D01*
X128926355Y-125444707D01*
X128854769Y-125480535D01*
X128777092Y-125491020D01*
X128698548Y-125474810D01*
X128676689Y-125465092D01*
X128634122Y-125435143D01*
X128596763Y-125395433D01*
X128593232Y-125390397D01*
X128578881Y-125366124D01*
X128569394Y-125340178D01*
X128563790Y-125306022D01*
X128561086Y-125257119D01*
X128560299Y-125186935D01*
X128560286Y-125171200D01*
X128560322Y-125166192D01*
X128705429Y-125166192D01*
X128706273Y-125232430D01*
X128709596Y-125276386D01*
X128716583Y-125304779D01*
X128728416Y-125324325D01*
X128734457Y-125330857D01*
X128769186Y-125355680D01*
X128802903Y-125354548D01*
X128836995Y-125333016D01*
X128857329Y-125310029D01*
X128869371Y-125276478D01*
X128876134Y-125223569D01*
X128876598Y-125217399D01*
X128877752Y-125121513D01*
X128865688Y-125050299D01*
X128840570Y-125004194D01*
X128802560Y-124983635D01*
X128788992Y-124982514D01*
X128753364Y-124988152D01*
X128728994Y-125007686D01*
X128714093Y-125045042D01*
X128706875Y-125104150D01*
X128705429Y-125166192D01*
X128560322Y-125166192D01*
X128560826Y-125096413D01*
X128563096Y-125044159D01*
X128568068Y-125007949D01*
X128576713Y-124981299D01*
X128590005Y-124957722D01*
X128592943Y-124953338D01*
X128642313Y-124894249D01*
X128696109Y-124859947D01*
X128761602Y-124846331D01*
X128783842Y-124845665D01*
X128867115Y-124857962D01*
G36*
X129994303Y-124867239D02*
X130051527Y-124905735D01*
X130095749Y-124961335D01*
X130122167Y-125032086D01*
X130127510Y-125084162D01*
X130126903Y-125105893D01*
X130121822Y-125122531D01*
X130107855Y-125137437D01*
X130080589Y-125153973D01*
X130035612Y-125175498D01*
X129968511Y-125205374D01*
X129968171Y-125205524D01*
X129906407Y-125233813D01*
X129855759Y-125258933D01*
X129821404Y-125278179D01*
X129808518Y-125288848D01*
X129808514Y-125288934D01*
X129819872Y-125312166D01*
X129846431Y-125337774D01*
X129876923Y-125356221D01*
X129892370Y-125359886D01*
X129934515Y-125347212D01*
X129970808Y-125315471D01*
X129988517Y-125280572D01*
X130005552Y-125254845D01*
X130038922Y-125225546D01*
X130078149Y-125200235D01*
X130112756Y-125186471D01*
X130119993Y-125185714D01*
X130128139Y-125198160D01*
X130128630Y-125229972D01*
X130122643Y-125272866D01*
X130111357Y-125318558D01*
X130095950Y-125358761D01*
X130095171Y-125360322D01*
X130048804Y-125425062D01*
X129988711Y-125469097D01*
X129920465Y-125490711D01*
X129849638Y-125488185D01*
X129781804Y-125459804D01*
X129778788Y-125457808D01*
X129725427Y-125409448D01*
X129690340Y-125346352D01*
X129670922Y-125263387D01*
X129668316Y-125240078D01*
X129663701Y-125130055D01*
X129669233Y-125078748D01*
X129808514Y-125078748D01*
X129810324Y-125110753D01*
X129820222Y-125120093D01*
X129844898Y-125113105D01*
X129883795Y-125096587D01*
X129927275Y-125075881D01*
X129928356Y-125075333D01*
X129965209Y-125055949D01*
X129980000Y-125043013D01*
X129976353Y-125029451D01*
X129960995Y-125011632D01*
X129921923Y-124985845D01*
X129879846Y-124983950D01*
X129842103Y-125002717D01*
X129816034Y-125038915D01*
X129808514Y-125078748D01*
X129669233Y-125078748D01*
X129673194Y-125042027D01*
X129697550Y-124972212D01*
X129731456Y-124923302D01*
X129792653Y-124873878D01*
X129860063Y-124849359D01*
X129928880Y-124847797D01*
X129994303Y-124867239D01*
X129994303Y-124867239D01*
G37*
X129994303Y-124867239D02*
X130051527Y-124905735D01*
X130095749Y-124961335D01*
X130122167Y-125032086D01*
X130127510Y-125084162D01*
X130126903Y-125105893D01*
X130121822Y-125122531D01*
X130107855Y-125137437D01*
X130080589Y-125153973D01*
X130035612Y-125175498D01*
X129968511Y-125205374D01*
X129968171Y-125205524D01*
X129906407Y-125233813D01*
X129855759Y-125258933D01*
X129821404Y-125278179D01*
X129808518Y-125288848D01*
X129808514Y-125288934D01*
X129819872Y-125312166D01*
X129846431Y-125337774D01*
X129876923Y-125356221D01*
X129892370Y-125359886D01*
X129934515Y-125347212D01*
X129970808Y-125315471D01*
X129988517Y-125280572D01*
X130005552Y-125254845D01*
X130038922Y-125225546D01*
X130078149Y-125200235D01*
X130112756Y-125186471D01*
X130119993Y-125185714D01*
X130128139Y-125198160D01*
X130128630Y-125229972D01*
X130122643Y-125272866D01*
X130111357Y-125318558D01*
X130095950Y-125358761D01*
X130095171Y-125360322D01*
X130048804Y-125425062D01*
X129988711Y-125469097D01*
X129920465Y-125490711D01*
X129849638Y-125488185D01*
X129781804Y-125459804D01*
X129778788Y-125457808D01*
X129725427Y-125409448D01*
X129690340Y-125346352D01*
X129670922Y-125263387D01*
X129668316Y-125240078D01*
X129663701Y-125130055D01*
X129669233Y-125078748D01*
X129808514Y-125078748D01*
X129810324Y-125110753D01*
X129820222Y-125120093D01*
X129844898Y-125113105D01*
X129883795Y-125096587D01*
X129927275Y-125075881D01*
X129928356Y-125075333D01*
X129965209Y-125055949D01*
X129980000Y-125043013D01*
X129976353Y-125029451D01*
X129960995Y-125011632D01*
X129921923Y-124985845D01*
X129879846Y-124983950D01*
X129842103Y-125002717D01*
X129816034Y-125038915D01*
X129808514Y-125078748D01*
X129669233Y-125078748D01*
X129673194Y-125042027D01*
X129697550Y-124972212D01*
X129731456Y-124923302D01*
X129792653Y-124873878D01*
X129860063Y-124849359D01*
X129928880Y-124847797D01*
X129994303Y-124867239D01*
G36*
X131201886Y-124787289D02*
X131206139Y-124846613D01*
X131211025Y-124881572D01*
X131217795Y-124896820D01*
X131227702Y-124897015D01*
X131230914Y-124895195D01*
X131273644Y-124882015D01*
X131329227Y-124882785D01*
X131385737Y-124896333D01*
X131421082Y-124913861D01*
X131457321Y-124941861D01*
X131483813Y-124973549D01*
X131501999Y-125013813D01*
X131513322Y-125067543D01*
X131519222Y-125139626D01*
X131521143Y-125234951D01*
X131521177Y-125253237D01*
X131521200Y-125458646D01*
X131475491Y-125474580D01*
X131443027Y-125485420D01*
X131425215Y-125490468D01*
X131424691Y-125490514D01*
X131422937Y-125476828D01*
X131421444Y-125439076D01*
X131420326Y-125382224D01*
X131419697Y-125311234D01*
X131419600Y-125268073D01*
X131419398Y-125182973D01*
X131418358Y-125121981D01*
X131415831Y-125080177D01*
X131411164Y-125052642D01*
X131403707Y-125034456D01*
X131392811Y-125020698D01*
X131386007Y-125014073D01*
X131339272Y-124987375D01*
X131288272Y-124985375D01*
X131242001Y-125007955D01*
X131233444Y-125016107D01*
X131220893Y-125031436D01*
X131212188Y-125049618D01*
X131206631Y-125075909D01*
X131203526Y-125115562D01*
X131202176Y-125173832D01*
X131201886Y-125254173D01*
X131201886Y-125458646D01*
X131156177Y-125474580D01*
X131123713Y-125485420D01*
X131105901Y-125490468D01*
X131105377Y-125490514D01*
X131104037Y-125476623D01*
X131102828Y-125437439D01*
X131101801Y-125376700D01*
X131101002Y-125298141D01*
X131100481Y-125205498D01*
X131100286Y-125102509D01*
X131100286Y-124705342D01*
X131147457Y-124685444D01*
X131194629Y-124665547D01*
X131201886Y-124787289D01*
X131201886Y-124787289D01*
G37*
X131201886Y-124787289D02*
X131206139Y-124846613D01*
X131211025Y-124881572D01*
X131217795Y-124896820D01*
X131227702Y-124897015D01*
X131230914Y-124895195D01*
X131273644Y-124882015D01*
X131329227Y-124882785D01*
X131385737Y-124896333D01*
X131421082Y-124913861D01*
X131457321Y-124941861D01*
X131483813Y-124973549D01*
X131501999Y-125013813D01*
X131513322Y-125067543D01*
X131519222Y-125139626D01*
X131521143Y-125234951D01*
X131521177Y-125253237D01*
X131521200Y-125458646D01*
X131475491Y-125474580D01*
X131443027Y-125485420D01*
X131425215Y-125490468D01*
X131424691Y-125490514D01*
X131422937Y-125476828D01*
X131421444Y-125439076D01*
X131420326Y-125382224D01*
X131419697Y-125311234D01*
X131419600Y-125268073D01*
X131419398Y-125182973D01*
X131418358Y-125121981D01*
X131415831Y-125080177D01*
X131411164Y-125052642D01*
X131403707Y-125034456D01*
X131392811Y-125020698D01*
X131386007Y-125014073D01*
X131339272Y-124987375D01*
X131288272Y-124985375D01*
X131242001Y-125007955D01*
X131233444Y-125016107D01*
X131220893Y-125031436D01*
X131212188Y-125049618D01*
X131206631Y-125075909D01*
X131203526Y-125115562D01*
X131202176Y-125173832D01*
X131201886Y-125254173D01*
X131201886Y-125458646D01*
X131156177Y-125474580D01*
X131123713Y-125485420D01*
X131105901Y-125490468D01*
X131105377Y-125490514D01*
X131104037Y-125476623D01*
X131102828Y-125437439D01*
X131101801Y-125376700D01*
X131101002Y-125298141D01*
X131100481Y-125205498D01*
X131100286Y-125102509D01*
X131100286Y-124705342D01*
X131147457Y-124685444D01*
X131194629Y-124665547D01*
X131201886Y-124787289D01*
G36*
X131865744Y-124886968D02*
X131922616Y-124908087D01*
X131923267Y-124908493D01*
X131958440Y-124934380D01*
X131984407Y-124964633D01*
X132002670Y-125004058D01*
X132014732Y-125057462D01*
X132022096Y-125129651D01*
X132026264Y-125225432D01*
X132026629Y-125239078D01*
X132031876Y-125444842D01*
X131987716Y-125467678D01*
X131955763Y-125483110D01*
X131936470Y-125490423D01*
X131935578Y-125490514D01*
X131932239Y-125477022D01*
X131929587Y-125440626D01*
X131927956Y-125387452D01*
X131927600Y-125344393D01*
X131927592Y-125274641D01*
X131924403Y-125230837D01*
X131913288Y-125209944D01*
X131889501Y-125208925D01*
X131848296Y-125224741D01*
X131786086Y-125253815D01*
X131740341Y-125277963D01*
X131716813Y-125298913D01*
X131709896Y-125321747D01*
X131709886Y-125322877D01*
X131721299Y-125362212D01*
X131755092Y-125383462D01*
X131806809Y-125386539D01*
X131844061Y-125386006D01*
X131863703Y-125396735D01*
X131875952Y-125422505D01*
X131883002Y-125455337D01*
X131872842Y-125473966D01*
X131869017Y-125476632D01*
X131833001Y-125487340D01*
X131782566Y-125488856D01*
X131730626Y-125481759D01*
X131693822Y-125468788D01*
X131642938Y-125425585D01*
X131614014Y-125365446D01*
X131608286Y-125318462D01*
X131612657Y-125276082D01*
X131628475Y-125241488D01*
X131659797Y-125210763D01*
X131710678Y-125179990D01*
X131785176Y-125145252D01*
X131789714Y-125143288D01*
X131856821Y-125112287D01*
X131898232Y-125086862D01*
X131915981Y-125064014D01*
X131912107Y-125040745D01*
X131888643Y-125014056D01*
X131881627Y-125007914D01*
X131834630Y-124984100D01*
X131785933Y-124985103D01*
X131743522Y-125008451D01*
X131715384Y-125051675D01*
X131712769Y-125060160D01*
X131687308Y-125101308D01*
X131655001Y-125121128D01*
X131608286Y-125140770D01*
X131608286Y-125089950D01*
X131622496Y-125016082D01*
X131664675Y-124948327D01*
X131686624Y-124925661D01*
X131736517Y-124896569D01*
X131799967Y-124883400D01*
X131865744Y-124886968D01*
X131865744Y-124886968D01*
G37*
X131865744Y-124886968D02*
X131922616Y-124908087D01*
X131923267Y-124908493D01*
X131958440Y-124934380D01*
X131984407Y-124964633D01*
X132002670Y-125004058D01*
X132014732Y-125057462D01*
X132022096Y-125129651D01*
X132026264Y-125225432D01*
X132026629Y-125239078D01*
X132031876Y-125444842D01*
X131987716Y-125467678D01*
X131955763Y-125483110D01*
X131936470Y-125490423D01*
X131935578Y-125490514D01*
X131932239Y-125477022D01*
X131929587Y-125440626D01*
X131927956Y-125387452D01*
X131927600Y-125344393D01*
X131927592Y-125274641D01*
X131924403Y-125230837D01*
X131913288Y-125209944D01*
X131889501Y-125208925D01*
X131848296Y-125224741D01*
X131786086Y-125253815D01*
X131740341Y-125277963D01*
X131716813Y-125298913D01*
X131709896Y-125321747D01*
X131709886Y-125322877D01*
X131721299Y-125362212D01*
X131755092Y-125383462D01*
X131806809Y-125386539D01*
X131844061Y-125386006D01*
X131863703Y-125396735D01*
X131875952Y-125422505D01*
X131883002Y-125455337D01*
X131872842Y-125473966D01*
X131869017Y-125476632D01*
X131833001Y-125487340D01*
X131782566Y-125488856D01*
X131730626Y-125481759D01*
X131693822Y-125468788D01*
X131642938Y-125425585D01*
X131614014Y-125365446D01*
X131608286Y-125318462D01*
X131612657Y-125276082D01*
X131628475Y-125241488D01*
X131659797Y-125210763D01*
X131710678Y-125179990D01*
X131785176Y-125145252D01*
X131789714Y-125143288D01*
X131856821Y-125112287D01*
X131898232Y-125086862D01*
X131915981Y-125064014D01*
X131912107Y-125040745D01*
X131888643Y-125014056D01*
X131881627Y-125007914D01*
X131834630Y-124984100D01*
X131785933Y-124985103D01*
X131743522Y-125008451D01*
X131715384Y-125051675D01*
X131712769Y-125060160D01*
X131687308Y-125101308D01*
X131655001Y-125121128D01*
X131608286Y-125140770D01*
X131608286Y-125089950D01*
X131622496Y-125016082D01*
X131664675Y-124948327D01*
X131686624Y-124925661D01*
X131736517Y-124896569D01*
X131799967Y-124883400D01*
X131865744Y-124886968D01*
G36*
X132355926Y-124885755D02*
X132421858Y-124910084D01*
X132475273Y-124953117D01*
X132496164Y-124983409D01*
X132518939Y-125038994D01*
X132518466Y-125079186D01*
X132494562Y-125106217D01*
X132485717Y-125110813D01*
X132447530Y-125125144D01*
X132428028Y-125121472D01*
X132421422Y-125097407D01*
X132421086Y-125084114D01*
X132408992Y-125035210D01*
X132377471Y-125000999D01*
X132333659Y-124984476D01*
X132284695Y-124988634D01*
X132244894Y-125010227D01*
X132231450Y-125022544D01*
X132221921Y-125037487D01*
X132215485Y-125060075D01*
X132211317Y-125095328D01*
X132208597Y-125148266D01*
X132206502Y-125223907D01*
X132205960Y-125247857D01*
X132203981Y-125329790D01*
X132201731Y-125387455D01*
X132198357Y-125425608D01*
X132193006Y-125449004D01*
X132184824Y-125462398D01*
X132172959Y-125470545D01*
X132165362Y-125474144D01*
X132133102Y-125486452D01*
X132114111Y-125490514D01*
X132107836Y-125476948D01*
X132104006Y-125435934D01*
X132102600Y-125366999D01*
X132103598Y-125269669D01*
X132103908Y-125254657D01*
X132106101Y-125165859D01*
X132108693Y-125101019D01*
X132112382Y-125055067D01*
X132117864Y-125022935D01*
X132125835Y-124999553D01*
X132136993Y-124979852D01*
X132142830Y-124971410D01*
X132176296Y-124934057D01*
X132213727Y-124905003D01*
X132218309Y-124902467D01*
X132285426Y-124882443D01*
X132355926Y-124885755D01*
X132355926Y-124885755D01*
G37*
X132355926Y-124885755D02*
X132421858Y-124910084D01*
X132475273Y-124953117D01*
X132496164Y-124983409D01*
X132518939Y-125038994D01*
X132518466Y-125079186D01*
X132494562Y-125106217D01*
X132485717Y-125110813D01*
X132447530Y-125125144D01*
X132428028Y-125121472D01*
X132421422Y-125097407D01*
X132421086Y-125084114D01*
X132408992Y-125035210D01*
X132377471Y-125000999D01*
X132333659Y-124984476D01*
X132284695Y-124988634D01*
X132244894Y-125010227D01*
X132231450Y-125022544D01*
X132221921Y-125037487D01*
X132215485Y-125060075D01*
X132211317Y-125095328D01*
X132208597Y-125148266D01*
X132206502Y-125223907D01*
X132205960Y-125247857D01*
X132203981Y-125329790D01*
X132201731Y-125387455D01*
X132198357Y-125425608D01*
X132193006Y-125449004D01*
X132184824Y-125462398D01*
X132172959Y-125470545D01*
X132165362Y-125474144D01*
X132133102Y-125486452D01*
X132114111Y-125490514D01*
X132107836Y-125476948D01*
X132104006Y-125435934D01*
X132102600Y-125366999D01*
X132103598Y-125269669D01*
X132103908Y-125254657D01*
X132106101Y-125165859D01*
X132108693Y-125101019D01*
X132112382Y-125055067D01*
X132117864Y-125022935D01*
X132125835Y-124999553D01*
X132136993Y-124979852D01*
X132142830Y-124971410D01*
X132176296Y-124934057D01*
X132213727Y-124905003D01*
X132218309Y-124902467D01*
X132285426Y-124882443D01*
X132355926Y-124885755D01*
G36*
X133016117Y-125001358D02*
X133015933Y-125109837D01*
X133015219Y-125193287D01*
X133013675Y-125255704D01*
X133011001Y-125301085D01*
X133006894Y-125333429D01*
X133001055Y-125356733D01*
X132993182Y-125374995D01*
X132987221Y-125385418D01*
X132937855Y-125441945D01*
X132875264Y-125477377D01*
X132806013Y-125490090D01*
X132736668Y-125478463D01*
X132695375Y-125457568D01*
X132652025Y-125421422D01*
X132622481Y-125377276D01*
X132604655Y-125319462D01*
X132596463Y-125242313D01*
X132595302Y-125185714D01*
X132595458Y-125181647D01*
X132696857Y-125181647D01*
X132697476Y-125246550D01*
X132700314Y-125289514D01*
X132706840Y-125317622D01*
X132718523Y-125337953D01*
X132732483Y-125353288D01*
X132779365Y-125382890D01*
X132829701Y-125385419D01*
X132877276Y-125360705D01*
X132880979Y-125357356D01*
X132896783Y-125339935D01*
X132906693Y-125319209D01*
X132912058Y-125288362D01*
X132914228Y-125240577D01*
X132914571Y-125187748D01*
X132913827Y-125121381D01*
X132910748Y-125077106D01*
X132904061Y-125048009D01*
X132892496Y-125027173D01*
X132883013Y-125016107D01*
X132838960Y-124988198D01*
X132788224Y-124984843D01*
X132739796Y-125006159D01*
X132730450Y-125014073D01*
X132714540Y-125031647D01*
X132704610Y-125052587D01*
X132699278Y-125083782D01*
X132697163Y-125132122D01*
X132696857Y-125181647D01*
X132595458Y-125181647D01*
X132598810Y-125094568D01*
X132610726Y-125026086D01*
X132633135Y-124974600D01*
X132668124Y-124934443D01*
X132695375Y-124913861D01*
X132744907Y-124891625D01*
X132802316Y-124881304D01*
X132855682Y-124884067D01*
X132885543Y-124895212D01*
X132897261Y-124898383D01*
X132905037Y-124886557D01*
X132910465Y-124854866D01*
X132914571Y-124806593D01*
X132919067Y-124752829D01*
X132925313Y-124720482D01*
X132936676Y-124701985D01*
X132956528Y-124689770D01*
X132969000Y-124684362D01*
X133016171Y-124664601D01*
X133016117Y-125001358D01*
X133016117Y-125001358D01*
G37*
X133016117Y-125001358D02*
X133015933Y-125109837D01*
X133015219Y-125193287D01*
X133013675Y-125255704D01*
X133011001Y-125301085D01*
X133006894Y-125333429D01*
X133001055Y-125356733D01*
X132993182Y-125374995D01*
X132987221Y-125385418D01*
X132937855Y-125441945D01*
X132875264Y-125477377D01*
X132806013Y-125490090D01*
X132736668Y-125478463D01*
X132695375Y-125457568D01*
X132652025Y-125421422D01*
X132622481Y-125377276D01*
X132604655Y-125319462D01*
X132596463Y-125242313D01*
X132595302Y-125185714D01*
X132595458Y-125181647D01*
X132696857Y-125181647D01*
X132697476Y-125246550D01*
X132700314Y-125289514D01*
X132706840Y-125317622D01*
X132718523Y-125337953D01*
X132732483Y-125353288D01*
X132779365Y-125382890D01*
X132829701Y-125385419D01*
X132877276Y-125360705D01*
X132880979Y-125357356D01*
X132896783Y-125339935D01*
X132906693Y-125319209D01*
X132912058Y-125288362D01*
X132914228Y-125240577D01*
X132914571Y-125187748D01*
X132913827Y-125121381D01*
X132910748Y-125077106D01*
X132904061Y-125048009D01*
X132892496Y-125027173D01*
X132883013Y-125016107D01*
X132838960Y-124988198D01*
X132788224Y-124984843D01*
X132739796Y-125006159D01*
X132730450Y-125014073D01*
X132714540Y-125031647D01*
X132704610Y-125052587D01*
X132699278Y-125083782D01*
X132697163Y-125132122D01*
X132696857Y-125181647D01*
X132595458Y-125181647D01*
X132598810Y-125094568D01*
X132610726Y-125026086D01*
X132633135Y-124974600D01*
X132668124Y-124934443D01*
X132695375Y-124913861D01*
X132744907Y-124891625D01*
X132802316Y-124881304D01*
X132855682Y-124884067D01*
X132885543Y-124895212D01*
X132897261Y-124898383D01*
X132905037Y-124886557D01*
X132910465Y-124854866D01*
X132914571Y-124806593D01*
X132919067Y-124752829D01*
X132925313Y-124720482D01*
X132936676Y-124701985D01*
X132956528Y-124689770D01*
X132969000Y-124684362D01*
X133016171Y-124664601D01*
X133016117Y-125001358D01*
G36*
X133605833Y-124894663D02*
X133608048Y-124932850D01*
X133609784Y-124990886D01*
X133610899Y-125064180D01*
X133611257Y-125141055D01*
X133611257Y-125401196D01*
X133565326Y-125447127D01*
X133533675Y-125475429D01*
X133505890Y-125486893D01*
X133467915Y-125486168D01*
X133452840Y-125484321D01*
X133405726Y-125478948D01*
X133366756Y-125475869D01*
X133357257Y-125475585D01*
X133325233Y-125477445D01*
X133279432Y-125482114D01*
X133261674Y-125484321D01*
X133218057Y-125487735D01*
X133188745Y-125480320D01*
X133159680Y-125457427D01*
X133149188Y-125447127D01*
X133103257Y-125401196D01*
X133103257Y-124914602D01*
X133140226Y-124897758D01*
X133172059Y-124885282D01*
X133190683Y-124880914D01*
X133195458Y-124894718D01*
X133199921Y-124933286D01*
X133203775Y-124992356D01*
X133206722Y-125067663D01*
X133208143Y-125131286D01*
X133212114Y-125381657D01*
X133246759Y-125386556D01*
X133278268Y-125383131D01*
X133293708Y-125372041D01*
X133298023Y-125351308D01*
X133301708Y-125307145D01*
X133304469Y-125245146D01*
X133306012Y-125170909D01*
X133306235Y-125132706D01*
X133306457Y-124912783D01*
X133352166Y-124896849D01*
X133384518Y-124886015D01*
X133402115Y-124880962D01*
X133402623Y-124880914D01*
X133404388Y-124894648D01*
X133406329Y-124932730D01*
X133408282Y-124990482D01*
X133410084Y-125063227D01*
X133411343Y-125131286D01*
X133415314Y-125381657D01*
X133502400Y-125381657D01*
X133506396Y-125153240D01*
X133510392Y-124924822D01*
X133552847Y-124902868D01*
X133584192Y-124887793D01*
X133602744Y-124880951D01*
X133603279Y-124880914D01*
X133605833Y-124894663D01*
X133605833Y-124894663D01*
G37*
X133605833Y-124894663D02*
X133608048Y-124932850D01*
X133609784Y-124990886D01*
X133610899Y-125064180D01*
X133611257Y-125141055D01*
X133611257Y-125401196D01*
X133565326Y-125447127D01*
X133533675Y-125475429D01*
X133505890Y-125486893D01*
X133467915Y-125486168D01*
X133452840Y-125484321D01*
X133405726Y-125478948D01*
X133366756Y-125475869D01*
X133357257Y-125475585D01*
X133325233Y-125477445D01*
X133279432Y-125482114D01*
X133261674Y-125484321D01*
X133218057Y-125487735D01*
X133188745Y-125480320D01*
X133159680Y-125457427D01*
X133149188Y-125447127D01*
X133103257Y-125401196D01*
X133103257Y-124914602D01*
X133140226Y-124897758D01*
X133172059Y-124885282D01*
X133190683Y-124880914D01*
X133195458Y-124894718D01*
X133199921Y-124933286D01*
X133203775Y-124992356D01*
X133206722Y-125067663D01*
X133208143Y-125131286D01*
X133212114Y-125381657D01*
X133246759Y-125386556D01*
X133278268Y-125383131D01*
X133293708Y-125372041D01*
X133298023Y-125351308D01*
X133301708Y-125307145D01*
X133304469Y-125245146D01*
X133306012Y-125170909D01*
X133306235Y-125132706D01*
X133306457Y-124912783D01*
X133352166Y-124896849D01*
X133384518Y-124886015D01*
X133402115Y-124880962D01*
X133402623Y-124880914D01*
X133404388Y-124894648D01*
X133406329Y-124932730D01*
X133408282Y-124990482D01*
X133410084Y-125063227D01*
X133411343Y-125131286D01*
X133415314Y-125381657D01*
X133502400Y-125381657D01*
X133506396Y-125153240D01*
X133510392Y-124924822D01*
X133552847Y-124902868D01*
X133584192Y-124887793D01*
X133602744Y-124880951D01*
X133603279Y-124880914D01*
X133605833Y-124894663D01*
G36*
X133970876Y-124892335D02*
X134012667Y-124911344D01*
X134045469Y-124934378D01*
X134069503Y-124960133D01*
X134086097Y-124993358D01*
X134096577Y-125038800D01*
X134102271Y-125101207D01*
X134104507Y-125185327D01*
X134104743Y-125240721D01*
X134104743Y-125456826D01*
X134067774Y-125473670D01*
X134038656Y-125485981D01*
X134024231Y-125490514D01*
X134021472Y-125477025D01*
X134019282Y-125440653D01*
X134017942Y-125387542D01*
X134017657Y-125345372D01*
X134016434Y-125284447D01*
X134013136Y-125236115D01*
X134008321Y-125206518D01*
X134004496Y-125200229D01*
X133978783Y-125206652D01*
X133938418Y-125223125D01*
X133891679Y-125245458D01*
X133846845Y-125269457D01*
X133812193Y-125290930D01*
X133796002Y-125305685D01*
X133795938Y-125305845D01*
X133797330Y-125333152D01*
X133809818Y-125359219D01*
X133831743Y-125380392D01*
X133863743Y-125387474D01*
X133891092Y-125386649D01*
X133929826Y-125386042D01*
X133950158Y-125395116D01*
X133962369Y-125419092D01*
X133963909Y-125423613D01*
X133969203Y-125457806D01*
X133955047Y-125478568D01*
X133918148Y-125488462D01*
X133878289Y-125490292D01*
X133806562Y-125476727D01*
X133769432Y-125457355D01*
X133723576Y-125411845D01*
X133699256Y-125355983D01*
X133697073Y-125296957D01*
X133717629Y-125241953D01*
X133748549Y-125207486D01*
X133779420Y-125188189D01*
X133827942Y-125163759D01*
X133884485Y-125138985D01*
X133893910Y-125135199D01*
X133956019Y-125107791D01*
X133991822Y-125083634D01*
X134003337Y-125059619D01*
X133992580Y-125032635D01*
X133974114Y-125011543D01*
X133930469Y-124985572D01*
X133882446Y-124983624D01*
X133838406Y-125003637D01*
X133806709Y-125043551D01*
X133802549Y-125053848D01*
X133778327Y-125091724D01*
X133742965Y-125119842D01*
X133698343Y-125142917D01*
X133698343Y-125077485D01*
X133700969Y-125037506D01*
X133712230Y-125005997D01*
X133737199Y-124972378D01*
X133761169Y-124946484D01*
X133798441Y-124909817D01*
X133827401Y-124890121D01*
X133858505Y-124882220D01*
X133893713Y-124880914D01*
X133970876Y-124892335D01*
X133970876Y-124892335D01*
G37*
X133970876Y-124892335D02*
X134012667Y-124911344D01*
X134045469Y-124934378D01*
X134069503Y-124960133D01*
X134086097Y-124993358D01*
X134096577Y-125038800D01*
X134102271Y-125101207D01*
X134104507Y-125185327D01*
X134104743Y-125240721D01*
X134104743Y-125456826D01*
X134067774Y-125473670D01*
X134038656Y-125485981D01*
X134024231Y-125490514D01*
X134021472Y-125477025D01*
X134019282Y-125440653D01*
X134017942Y-125387542D01*
X134017657Y-125345372D01*
X134016434Y-125284447D01*
X134013136Y-125236115D01*
X134008321Y-125206518D01*
X134004496Y-125200229D01*
X133978783Y-125206652D01*
X133938418Y-125223125D01*
X133891679Y-125245458D01*
X133846845Y-125269457D01*
X133812193Y-125290930D01*
X133796002Y-125305685D01*
X133795938Y-125305845D01*
X133797330Y-125333152D01*
X133809818Y-125359219D01*
X133831743Y-125380392D01*
X133863743Y-125387474D01*
X133891092Y-125386649D01*
X133929826Y-125386042D01*
X133950158Y-125395116D01*
X133962369Y-125419092D01*
X133963909Y-125423613D01*
X133969203Y-125457806D01*
X133955047Y-125478568D01*
X133918148Y-125488462D01*
X133878289Y-125490292D01*
X133806562Y-125476727D01*
X133769432Y-125457355D01*
X133723576Y-125411845D01*
X133699256Y-125355983D01*
X133697073Y-125296957D01*
X133717629Y-125241953D01*
X133748549Y-125207486D01*
X133779420Y-125188189D01*
X133827942Y-125163759D01*
X133884485Y-125138985D01*
X133893910Y-125135199D01*
X133956019Y-125107791D01*
X133991822Y-125083634D01*
X134003337Y-125059619D01*
X133992580Y-125032635D01*
X133974114Y-125011543D01*
X133930469Y-124985572D01*
X133882446Y-124983624D01*
X133838406Y-125003637D01*
X133806709Y-125043551D01*
X133802549Y-125053848D01*
X133778327Y-125091724D01*
X133742965Y-125119842D01*
X133698343Y-125142917D01*
X133698343Y-125077485D01*
X133700969Y-125037506D01*
X133712230Y-125005997D01*
X133737199Y-124972378D01*
X133761169Y-124946484D01*
X133798441Y-124909817D01*
X133827401Y-124890121D01*
X133858505Y-124882220D01*
X133893713Y-124880914D01*
X133970876Y-124892335D01*
G36*
X134478600Y-124894752D02*
X134495948Y-124902334D01*
X134537356Y-124935128D01*
X134572765Y-124982547D01*
X134594664Y-125033151D01*
X134598229Y-125058098D01*
X134586279Y-125092927D01*
X134560067Y-125111357D01*
X134531964Y-125122516D01*
X134519095Y-125124572D01*
X134512829Y-125109649D01*
X134500456Y-125077175D01*
X134495028Y-125062502D01*
X134464590Y-125011744D01*
X134420520Y-124986427D01*
X134364010Y-124987206D01*
X134359825Y-124988203D01*
X134329655Y-125002507D01*
X134307476Y-125030393D01*
X134292327Y-125075287D01*
X134283250Y-125140615D01*
X134279286Y-125229804D01*
X134278914Y-125277261D01*
X134278730Y-125352071D01*
X134277522Y-125403069D01*
X134274309Y-125435471D01*
X134268109Y-125454495D01*
X134257940Y-125465356D01*
X134242819Y-125473272D01*
X134241946Y-125473670D01*
X134212828Y-125485981D01*
X134198403Y-125490514D01*
X134196186Y-125476809D01*
X134194289Y-125438925D01*
X134192847Y-125381715D01*
X134191998Y-125310027D01*
X134191829Y-125257565D01*
X134192692Y-125156047D01*
X134196070Y-125079032D01*
X134203142Y-125022023D01*
X134215088Y-124980526D01*
X134233090Y-124950043D01*
X134258327Y-124926080D01*
X134283247Y-124909355D01*
X134343171Y-124887097D01*
X134412911Y-124882076D01*
X134478600Y-124894752D01*
X134478600Y-124894752D01*
G37*
X134478600Y-124894752D02*
X134495948Y-124902334D01*
X134537356Y-124935128D01*
X134572765Y-124982547D01*
X134594664Y-125033151D01*
X134598229Y-125058098D01*
X134586279Y-125092927D01*
X134560067Y-125111357D01*
X134531964Y-125122516D01*
X134519095Y-125124572D01*
X134512829Y-125109649D01*
X134500456Y-125077175D01*
X134495028Y-125062502D01*
X134464590Y-125011744D01*
X134420520Y-124986427D01*
X134364010Y-124987206D01*
X134359825Y-124988203D01*
X134329655Y-125002507D01*
X134307476Y-125030393D01*
X134292327Y-125075287D01*
X134283250Y-125140615D01*
X134279286Y-125229804D01*
X134278914Y-125277261D01*
X134278730Y-125352071D01*
X134277522Y-125403069D01*
X134274309Y-125435471D01*
X134268109Y-125454495D01*
X134257940Y-125465356D01*
X134242819Y-125473272D01*
X134241946Y-125473670D01*
X134212828Y-125485981D01*
X134198403Y-125490514D01*
X134196186Y-125476809D01*
X134194289Y-125438925D01*
X134192847Y-125381715D01*
X134191998Y-125310027D01*
X134191829Y-125257565D01*
X134192692Y-125156047D01*
X134196070Y-125079032D01*
X134203142Y-125022023D01*
X134215088Y-124980526D01*
X134233090Y-124950043D01*
X134258327Y-124926080D01*
X134283247Y-124909355D01*
X134343171Y-124887097D01*
X134412911Y-124882076D01*
X134478600Y-124894752D01*
G36*
X134979595Y-124902966D02*
X135037021Y-124940497D01*
X135064719Y-124974096D01*
X135086662Y-125035064D01*
X135088405Y-125083308D01*
X135084457Y-125147816D01*
X134935686Y-125212934D01*
X134863349Y-125246202D01*
X134816084Y-125272964D01*
X134791507Y-125296144D01*
X134787237Y-125318667D01*
X134800889Y-125343455D01*
X134815943Y-125359886D01*
X134859746Y-125386235D01*
X134907389Y-125388081D01*
X134951145Y-125367546D01*
X134983289Y-125326752D01*
X134989038Y-125312347D01*
X135016576Y-125267356D01*
X135048258Y-125248182D01*
X135091714Y-125231779D01*
X135091714Y-125293966D01*
X135087872Y-125336283D01*
X135072823Y-125371969D01*
X135041280Y-125412943D01*
X135036592Y-125418267D01*
X135001506Y-125454720D01*
X134971347Y-125474283D01*
X134933615Y-125483283D01*
X134902335Y-125486230D01*
X134846385Y-125486965D01*
X134806555Y-125477660D01*
X134781708Y-125463846D01*
X134742656Y-125433467D01*
X134715625Y-125400613D01*
X134698517Y-125359294D01*
X134689238Y-125303521D01*
X134685693Y-125227305D01*
X134685410Y-125188622D01*
X134686372Y-125142247D01*
X134774007Y-125142247D01*
X134775023Y-125167126D01*
X134777556Y-125171200D01*
X134794274Y-125165665D01*
X134830249Y-125151017D01*
X134878331Y-125130190D01*
X134888386Y-125125714D01*
X134949152Y-125094814D01*
X134982632Y-125067657D01*
X134989990Y-125042220D01*
X134972391Y-125016481D01*
X134957856Y-125005109D01*
X134905410Y-124982364D01*
X134856322Y-124986122D01*
X134815227Y-125013884D01*
X134786758Y-125063152D01*
X134777631Y-125102257D01*
X134774007Y-125142247D01*
X134686372Y-125142247D01*
X134687285Y-125098249D01*
X134694196Y-125031384D01*
X134707884Y-124982695D01*
X134730096Y-124946849D01*
X134762574Y-124918513D01*
X134776733Y-124909355D01*
X134841053Y-124885507D01*
X134911473Y-124884006D01*
X134979595Y-124902966D01*
X134979595Y-124902966D01*
G37*
X134979595Y-124902966D02*
X135037021Y-124940497D01*
X135064719Y-124974096D01*
X135086662Y-125035064D01*
X135088405Y-125083308D01*
X135084457Y-125147816D01*
X134935686Y-125212934D01*
X134863349Y-125246202D01*
X134816084Y-125272964D01*
X134791507Y-125296144D01*
X134787237Y-125318667D01*
X134800889Y-125343455D01*
X134815943Y-125359886D01*
X134859746Y-125386235D01*
X134907389Y-125388081D01*
X134951145Y-125367546D01*
X134983289Y-125326752D01*
X134989038Y-125312347D01*
X135016576Y-125267356D01*
X135048258Y-125248182D01*
X135091714Y-125231779D01*
X135091714Y-125293966D01*
X135087872Y-125336283D01*
X135072823Y-125371969D01*
X135041280Y-125412943D01*
X135036592Y-125418267D01*
X135001506Y-125454720D01*
X134971347Y-125474283D01*
X134933615Y-125483283D01*
X134902335Y-125486230D01*
X134846385Y-125486965D01*
X134806555Y-125477660D01*
X134781708Y-125463846D01*
X134742656Y-125433467D01*
X134715625Y-125400613D01*
X134698517Y-125359294D01*
X134689238Y-125303521D01*
X134685693Y-125227305D01*
X134685410Y-125188622D01*
X134686372Y-125142247D01*
X134774007Y-125142247D01*
X134775023Y-125167126D01*
X134777556Y-125171200D01*
X134794274Y-125165665D01*
X134830249Y-125151017D01*
X134878331Y-125130190D01*
X134888386Y-125125714D01*
X134949152Y-125094814D01*
X134982632Y-125067657D01*
X134989990Y-125042220D01*
X134972391Y-125016481D01*
X134957856Y-125005109D01*
X134905410Y-124982364D01*
X134856322Y-124986122D01*
X134815227Y-125013884D01*
X134786758Y-125063152D01*
X134777631Y-125102257D01*
X134774007Y-125142247D01*
X134686372Y-125142247D01*
X134687285Y-125098249D01*
X134694196Y-125031384D01*
X134707884Y-124982695D01*
X134730096Y-124946849D01*
X134762574Y-124918513D01*
X134776733Y-124909355D01*
X134841053Y-124885507D01*
X134911473Y-124884006D01*
X134979595Y-124902966D01*
G36*
X131929910Y-120178348D02*
X132008454Y-120178778D01*
X132065298Y-120179942D01*
X132104105Y-120182207D01*
X132128538Y-120185940D01*
X132142262Y-120191506D01*
X132148940Y-120199273D01*
X132152236Y-120209605D01*
X132152556Y-120210943D01*
X132157562Y-120235079D01*
X132166829Y-120282701D01*
X132179392Y-120348741D01*
X132194287Y-120428128D01*
X132210551Y-120515796D01*
X132211119Y-120518875D01*
X132227410Y-120604789D01*
X132242652Y-120680696D01*
X132255861Y-120742045D01*
X132266054Y-120784282D01*
X132272248Y-120802855D01*
X132272543Y-120803184D01*
X132290788Y-120812253D01*
X132328405Y-120827367D01*
X132377271Y-120845262D01*
X132377543Y-120845358D01*
X132439093Y-120868493D01*
X132511657Y-120897965D01*
X132580057Y-120927597D01*
X132583294Y-120929062D01*
X132694702Y-120979626D01*
X132941399Y-120811160D01*
X133017077Y-120759803D01*
X133085631Y-120713889D01*
X133143088Y-120676030D01*
X133185476Y-120648837D01*
X133208825Y-120634921D01*
X133211042Y-120633889D01*
X133228010Y-120638484D01*
X133259701Y-120660655D01*
X133307352Y-120701447D01*
X133372198Y-120761905D01*
X133438397Y-120826227D01*
X133502214Y-120889612D01*
X133559329Y-120947451D01*
X133606305Y-120996175D01*
X133639703Y-121032210D01*
X133656085Y-121051984D01*
X133656694Y-121053002D01*
X133658505Y-121066572D01*
X133651683Y-121088733D01*
X133634540Y-121122478D01*
X133605393Y-121170800D01*
X133562555Y-121236692D01*
X133505448Y-121321517D01*
X133454766Y-121396177D01*
X133409461Y-121463140D01*
X133372150Y-121518516D01*
X133345452Y-121558420D01*
X133331985Y-121578962D01*
X133331137Y-121580356D01*
X133332781Y-121600038D01*
X133345245Y-121638293D01*
X133366048Y-121687889D01*
X133373462Y-121703728D01*
X133405814Y-121774290D01*
X133440328Y-121854353D01*
X133468365Y-121923629D01*
X133488568Y-121975045D01*
X133504615Y-122014119D01*
X133513888Y-122034541D01*
X133515041Y-122036114D01*
X133532096Y-122038721D01*
X133572298Y-122045863D01*
X133630302Y-122056523D01*
X133700763Y-122069685D01*
X133778335Y-122084333D01*
X133857672Y-122099449D01*
X133933431Y-122114018D01*
X134000264Y-122127022D01*
X134052828Y-122137445D01*
X134085776Y-122144270D01*
X134093857Y-122146199D01*
X134102205Y-122150962D01*
X134108506Y-122161718D01*
X134113045Y-122182098D01*
X134116104Y-122215734D01*
X134117967Y-122266255D01*
X134118918Y-122337292D01*
X134119240Y-122432476D01*
X134119257Y-122471492D01*
X134119257Y-122788799D01*
X134043057Y-122803839D01*
X134000663Y-122811995D01*
X133937400Y-122823899D01*
X133860962Y-122838116D01*
X133779043Y-122853210D01*
X133756400Y-122857355D01*
X133680806Y-122872053D01*
X133614953Y-122886505D01*
X133564366Y-122899375D01*
X133534574Y-122909322D01*
X133529612Y-122912287D01*
X133517426Y-122933283D01*
X133499953Y-122973967D01*
X133480577Y-123026322D01*
X133476734Y-123037600D01*
X133451339Y-123107523D01*
X133419817Y-123186418D01*
X133388969Y-123257266D01*
X133388817Y-123257595D01*
X133337447Y-123368733D01*
X133506399Y-123617253D01*
X133675352Y-123865772D01*
X133458429Y-124083058D01*
X133392819Y-124147726D01*
X133332979Y-124204733D01*
X133282267Y-124251033D01*
X133244046Y-124283584D01*
X133221675Y-124299343D01*
X133218466Y-124300343D01*
X133199626Y-124292469D01*
X133161180Y-124270578D01*
X133107330Y-124237267D01*
X133042276Y-124195131D01*
X132971940Y-124147943D01*
X132900555Y-124099810D01*
X132836908Y-124057928D01*
X132785041Y-124024871D01*
X132748995Y-124003218D01*
X132732867Y-123995543D01*
X132713189Y-124002037D01*
X132675875Y-124019150D01*
X132628621Y-124043326D01*
X132623612Y-124046013D01*
X132559977Y-124077927D01*
X132516341Y-124093579D01*
X132489202Y-124093745D01*
X132475057Y-124079204D01*
X132474975Y-124079000D01*
X132467905Y-124061779D01*
X132451042Y-124020899D01*
X132425695Y-123959525D01*
X132393171Y-123880819D01*
X132354778Y-123787947D01*
X132311822Y-123684072D01*
X132270222Y-123583502D01*
X132224504Y-123472516D01*
X132182526Y-123369703D01*
X132145548Y-123278215D01*
X132114827Y-123201201D01*
X132091622Y-123141815D01*
X132077190Y-123103209D01*
X132072743Y-123088800D01*
X132083896Y-123072272D01*
X132113069Y-123045930D01*
X132151971Y-123016887D01*
X132262757Y-122925039D01*
X132349351Y-122819759D01*
X132410716Y-122703266D01*
X132445815Y-122577776D01*
X132453608Y-122445507D01*
X132447943Y-122384457D01*
X132417078Y-122257795D01*
X132363920Y-122145941D01*
X132291767Y-122050001D01*
X132203917Y-121971076D01*
X132103665Y-121910270D01*
X131994310Y-121868687D01*
X131879147Y-121847428D01*
X131761475Y-121847599D01*
X131644590Y-121870301D01*
X131531789Y-121916638D01*
X131426369Y-121987713D01*
X131382368Y-122027911D01*
X131297979Y-122131129D01*
X131239222Y-122243925D01*
X131205704Y-122363010D01*
X131197035Y-122485095D01*
X131212823Y-122606893D01*
X131252678Y-122725116D01*
X131316207Y-122836475D01*
X131403021Y-122937684D01*
X131500029Y-123016887D01*
X131540437Y-123047162D01*
X131568982Y-123073219D01*
X131579257Y-123088825D01*
X131573877Y-123105843D01*
X131558575Y-123146500D01*
X131534612Y-123207642D01*
X131503244Y-123286119D01*
X131465732Y-123378780D01*
X131423333Y-123482472D01*
X131381663Y-123583526D01*
X131335690Y-123694607D01*
X131293107Y-123797541D01*
X131255221Y-123889165D01*
X131223340Y-123966316D01*
X131198771Y-124025831D01*
X131182820Y-124064544D01*
X131176910Y-124079000D01*
X131162948Y-124093685D01*
X131135940Y-124093642D01*
X131092413Y-124078099D01*
X131028890Y-124046284D01*
X131028388Y-124046013D01*
X130980560Y-124021323D01*
X130941897Y-124003338D01*
X130920095Y-123995614D01*
X130919133Y-123995543D01*
X130902721Y-124003378D01*
X130866487Y-124025165D01*
X130814474Y-124058328D01*
X130750725Y-124100291D01*
X130680060Y-124147943D01*
X130608116Y-124196191D01*
X130543274Y-124238151D01*
X130489735Y-124271227D01*
X130451697Y-124292821D01*
X130433533Y-124300343D01*
X130416808Y-124290457D01*
X130383180Y-124262826D01*
X130336010Y-124220495D01*
X130278658Y-124166505D01*
X130214484Y-124103899D01*
X130193497Y-124082983D01*
X129976499Y-123865623D01*
X130141668Y-123623220D01*
X130191864Y-123548781D01*
X130235919Y-123481972D01*
X130271362Y-123426665D01*
X130295719Y-123386729D01*
X130306522Y-123366036D01*
X130306838Y-123364563D01*
X130301143Y-123345058D01*
X130285826Y-123305822D01*
X130263537Y-123253430D01*
X130247893Y-123218355D01*
X130218641Y-123151201D01*
X130191094Y-123083358D01*
X130169737Y-123026034D01*
X130163935Y-123008572D01*
X130147452Y-122961938D01*
X130131340Y-122925905D01*
X130122490Y-122912287D01*
X130102960Y-122903952D01*
X130060334Y-122892137D01*
X130000145Y-122878181D01*
X129927922Y-122863422D01*
X129895600Y-122857355D01*
X129813522Y-122842273D01*
X129734795Y-122827669D01*
X129667109Y-122814980D01*
X129618160Y-122805642D01*
X129608943Y-122803839D01*
X129532743Y-122788799D01*
X129532743Y-122471492D01*
X129532914Y-122367154D01*
X129533616Y-122288213D01*
X129535134Y-122231038D01*
X129537749Y-122191999D01*
X129541746Y-122167465D01*
X129547409Y-122153805D01*
X129555020Y-122147389D01*
X129558143Y-122146199D01*
X129576978Y-122141980D01*
X129618588Y-122133562D01*
X129677630Y-122121961D01*
X129748757Y-122108195D01*
X129826625Y-122093280D01*
X129905887Y-122078232D01*
X129981198Y-122064069D01*
X130047213Y-122051806D01*
X130098587Y-122042461D01*
X130129975Y-122037050D01*
X130136959Y-122036114D01*
X130143285Y-122023596D01*
X130157290Y-121990246D01*
X130176355Y-121942377D01*
X130183634Y-121923629D01*
X130212996Y-121851195D01*
X130247571Y-121771170D01*
X130278537Y-121703728D01*
X130301323Y-121652159D01*
X130316482Y-121609785D01*
X130321542Y-121583834D01*
X130320736Y-121580356D01*
X130310041Y-121563936D01*
X130285620Y-121527417D01*
X130250095Y-121474687D01*
X130206087Y-121409635D01*
X130156217Y-121336151D01*
X130146356Y-121321645D01*
X130088492Y-121235704D01*
X130045956Y-121170261D01*
X130017054Y-121122304D01*
X130000090Y-121088820D01*
X129993367Y-121066795D01*
X129995190Y-121053217D01*
X129995236Y-121053131D01*
X130009586Y-121035297D01*
X130041323Y-121000817D01*
X130087010Y-120953268D01*
X130143204Y-120896222D01*
X130206468Y-120833255D01*
X130213602Y-120826227D01*
X130293330Y-120749020D01*
X130354857Y-120692330D01*
X130399421Y-120655110D01*
X130428257Y-120636315D01*
X130440958Y-120633889D01*
X130459494Y-120644471D01*
X130497961Y-120668916D01*
X130552386Y-120704612D01*
X130618798Y-120748947D01*
X130693225Y-120799311D01*
X130710601Y-120811160D01*
X130957297Y-120979626D01*
X131068706Y-120929062D01*
X131136457Y-120899595D01*
X131209183Y-120869959D01*
X131271703Y-120846330D01*
X131274457Y-120845358D01*
X131323360Y-120827457D01*
X131361057Y-120812320D01*
X131379425Y-120803210D01*
X131379456Y-120803184D01*
X131385285Y-120786717D01*
X131395192Y-120746219D01*
X131408195Y-120686242D01*
X131423309Y-120611340D01*
X131439552Y-120526064D01*
X131440881Y-120518875D01*
X131457175Y-120431014D01*
X131472133Y-120351260D01*
X131484791Y-120284681D01*
X131494186Y-120236347D01*
X131499354Y-120211325D01*
X131499444Y-120210943D01*
X131502589Y-120200299D01*
X131508704Y-120192262D01*
X131521453Y-120186467D01*
X131544500Y-120182547D01*
X131581509Y-120180135D01*
X131636144Y-120178865D01*
X131712067Y-120178371D01*
X131812944Y-120178286D01*
X131826000Y-120178286D01*
X131929910Y-120178348D01*
X131929910Y-120178348D01*
G37*
X131929910Y-120178348D02*
X132008454Y-120178778D01*
X132065298Y-120179942D01*
X132104105Y-120182207D01*
X132128538Y-120185940D01*
X132142262Y-120191506D01*
X132148940Y-120199273D01*
X132152236Y-120209605D01*
X132152556Y-120210943D01*
X132157562Y-120235079D01*
X132166829Y-120282701D01*
X132179392Y-120348741D01*
X132194287Y-120428128D01*
X132210551Y-120515796D01*
X132211119Y-120518875D01*
X132227410Y-120604789D01*
X132242652Y-120680696D01*
X132255861Y-120742045D01*
X132266054Y-120784282D01*
X132272248Y-120802855D01*
X132272543Y-120803184D01*
X132290788Y-120812253D01*
X132328405Y-120827367D01*
X132377271Y-120845262D01*
X132377543Y-120845358D01*
X132439093Y-120868493D01*
X132511657Y-120897965D01*
X132580057Y-120927597D01*
X132583294Y-120929062D01*
X132694702Y-120979626D01*
X132941399Y-120811160D01*
X133017077Y-120759803D01*
X133085631Y-120713889D01*
X133143088Y-120676030D01*
X133185476Y-120648837D01*
X133208825Y-120634921D01*
X133211042Y-120633889D01*
X133228010Y-120638484D01*
X133259701Y-120660655D01*
X133307352Y-120701447D01*
X133372198Y-120761905D01*
X133438397Y-120826227D01*
X133502214Y-120889612D01*
X133559329Y-120947451D01*
X133606305Y-120996175D01*
X133639703Y-121032210D01*
X133656085Y-121051984D01*
X133656694Y-121053002D01*
X133658505Y-121066572D01*
X133651683Y-121088733D01*
X133634540Y-121122478D01*
X133605393Y-121170800D01*
X133562555Y-121236692D01*
X133505448Y-121321517D01*
X133454766Y-121396177D01*
X133409461Y-121463140D01*
X133372150Y-121518516D01*
X133345452Y-121558420D01*
X133331985Y-121578962D01*
X133331137Y-121580356D01*
X133332781Y-121600038D01*
X133345245Y-121638293D01*
X133366048Y-121687889D01*
X133373462Y-121703728D01*
X133405814Y-121774290D01*
X133440328Y-121854353D01*
X133468365Y-121923629D01*
X133488568Y-121975045D01*
X133504615Y-122014119D01*
X133513888Y-122034541D01*
X133515041Y-122036114D01*
X133532096Y-122038721D01*
X133572298Y-122045863D01*
X133630302Y-122056523D01*
X133700763Y-122069685D01*
X133778335Y-122084333D01*
X133857672Y-122099449D01*
X133933431Y-122114018D01*
X134000264Y-122127022D01*
X134052828Y-122137445D01*
X134085776Y-122144270D01*
X134093857Y-122146199D01*
X134102205Y-122150962D01*
X134108506Y-122161718D01*
X134113045Y-122182098D01*
X134116104Y-122215734D01*
X134117967Y-122266255D01*
X134118918Y-122337292D01*
X134119240Y-122432476D01*
X134119257Y-122471492D01*
X134119257Y-122788799D01*
X134043057Y-122803839D01*
X134000663Y-122811995D01*
X133937400Y-122823899D01*
X133860962Y-122838116D01*
X133779043Y-122853210D01*
X133756400Y-122857355D01*
X133680806Y-122872053D01*
X133614953Y-122886505D01*
X133564366Y-122899375D01*
X133534574Y-122909322D01*
X133529612Y-122912287D01*
X133517426Y-122933283D01*
X133499953Y-122973967D01*
X133480577Y-123026322D01*
X133476734Y-123037600D01*
X133451339Y-123107523D01*
X133419817Y-123186418D01*
X133388969Y-123257266D01*
X133388817Y-123257595D01*
X133337447Y-123368733D01*
X133506399Y-123617253D01*
X133675352Y-123865772D01*
X133458429Y-124083058D01*
X133392819Y-124147726D01*
X133332979Y-124204733D01*
X133282267Y-124251033D01*
X133244046Y-124283584D01*
X133221675Y-124299343D01*
X133218466Y-124300343D01*
X133199626Y-124292469D01*
X133161180Y-124270578D01*
X133107330Y-124237267D01*
X133042276Y-124195131D01*
X132971940Y-124147943D01*
X132900555Y-124099810D01*
X132836908Y-124057928D01*
X132785041Y-124024871D01*
X132748995Y-124003218D01*
X132732867Y-123995543D01*
X132713189Y-124002037D01*
X132675875Y-124019150D01*
X132628621Y-124043326D01*
X132623612Y-124046013D01*
X132559977Y-124077927D01*
X132516341Y-124093579D01*
X132489202Y-124093745D01*
X132475057Y-124079204D01*
X132474975Y-124079000D01*
X132467905Y-124061779D01*
X132451042Y-124020899D01*
X132425695Y-123959525D01*
X132393171Y-123880819D01*
X132354778Y-123787947D01*
X132311822Y-123684072D01*
X132270222Y-123583502D01*
X132224504Y-123472516D01*
X132182526Y-123369703D01*
X132145548Y-123278215D01*
X132114827Y-123201201D01*
X132091622Y-123141815D01*
X132077190Y-123103209D01*
X132072743Y-123088800D01*
X132083896Y-123072272D01*
X132113069Y-123045930D01*
X132151971Y-123016887D01*
X132262757Y-122925039D01*
X132349351Y-122819759D01*
X132410716Y-122703266D01*
X132445815Y-122577776D01*
X132453608Y-122445507D01*
X132447943Y-122384457D01*
X132417078Y-122257795D01*
X132363920Y-122145941D01*
X132291767Y-122050001D01*
X132203917Y-121971076D01*
X132103665Y-121910270D01*
X131994310Y-121868687D01*
X131879147Y-121847428D01*
X131761475Y-121847599D01*
X131644590Y-121870301D01*
X131531789Y-121916638D01*
X131426369Y-121987713D01*
X131382368Y-122027911D01*
X131297979Y-122131129D01*
X131239222Y-122243925D01*
X131205704Y-122363010D01*
X131197035Y-122485095D01*
X131212823Y-122606893D01*
X131252678Y-122725116D01*
X131316207Y-122836475D01*
X131403021Y-122937684D01*
X131500029Y-123016887D01*
X131540437Y-123047162D01*
X131568982Y-123073219D01*
X131579257Y-123088825D01*
X131573877Y-123105843D01*
X131558575Y-123146500D01*
X131534612Y-123207642D01*
X131503244Y-123286119D01*
X131465732Y-123378780D01*
X131423333Y-123482472D01*
X131381663Y-123583526D01*
X131335690Y-123694607D01*
X131293107Y-123797541D01*
X131255221Y-123889165D01*
X131223340Y-123966316D01*
X131198771Y-124025831D01*
X131182820Y-124064544D01*
X131176910Y-124079000D01*
X131162948Y-124093685D01*
X131135940Y-124093642D01*
X131092413Y-124078099D01*
X131028890Y-124046284D01*
X131028388Y-124046013D01*
X130980560Y-124021323D01*
X130941897Y-124003338D01*
X130920095Y-123995614D01*
X130919133Y-123995543D01*
X130902721Y-124003378D01*
X130866487Y-124025165D01*
X130814474Y-124058328D01*
X130750725Y-124100291D01*
X130680060Y-124147943D01*
X130608116Y-124196191D01*
X130543274Y-124238151D01*
X130489735Y-124271227D01*
X130451697Y-124292821D01*
X130433533Y-124300343D01*
X130416808Y-124290457D01*
X130383180Y-124262826D01*
X130336010Y-124220495D01*
X130278658Y-124166505D01*
X130214484Y-124103899D01*
X130193497Y-124082983D01*
X129976499Y-123865623D01*
X130141668Y-123623220D01*
X130191864Y-123548781D01*
X130235919Y-123481972D01*
X130271362Y-123426665D01*
X130295719Y-123386729D01*
X130306522Y-123366036D01*
X130306838Y-123364563D01*
X130301143Y-123345058D01*
X130285826Y-123305822D01*
X130263537Y-123253430D01*
X130247893Y-123218355D01*
X130218641Y-123151201D01*
X130191094Y-123083358D01*
X130169737Y-123026034D01*
X130163935Y-123008572D01*
X130147452Y-122961938D01*
X130131340Y-122925905D01*
X130122490Y-122912287D01*
X130102960Y-122903952D01*
X130060334Y-122892137D01*
X130000145Y-122878181D01*
X129927922Y-122863422D01*
X129895600Y-122857355D01*
X129813522Y-122842273D01*
X129734795Y-122827669D01*
X129667109Y-122814980D01*
X129618160Y-122805642D01*
X129608943Y-122803839D01*
X129532743Y-122788799D01*
X129532743Y-122471492D01*
X129532914Y-122367154D01*
X129533616Y-122288213D01*
X129535134Y-122231038D01*
X129537749Y-122191999D01*
X129541746Y-122167465D01*
X129547409Y-122153805D01*
X129555020Y-122147389D01*
X129558143Y-122146199D01*
X129576978Y-122141980D01*
X129618588Y-122133562D01*
X129677630Y-122121961D01*
X129748757Y-122108195D01*
X129826625Y-122093280D01*
X129905887Y-122078232D01*
X129981198Y-122064069D01*
X130047213Y-122051806D01*
X130098587Y-122042461D01*
X130129975Y-122037050D01*
X130136959Y-122036114D01*
X130143285Y-122023596D01*
X130157290Y-121990246D01*
X130176355Y-121942377D01*
X130183634Y-121923629D01*
X130212996Y-121851195D01*
X130247571Y-121771170D01*
X130278537Y-121703728D01*
X130301323Y-121652159D01*
X130316482Y-121609785D01*
X130321542Y-121583834D01*
X130320736Y-121580356D01*
X130310041Y-121563936D01*
X130285620Y-121527417D01*
X130250095Y-121474687D01*
X130206087Y-121409635D01*
X130156217Y-121336151D01*
X130146356Y-121321645D01*
X130088492Y-121235704D01*
X130045956Y-121170261D01*
X130017054Y-121122304D01*
X130000090Y-121088820D01*
X129993367Y-121066795D01*
X129995190Y-121053217D01*
X129995236Y-121053131D01*
X130009586Y-121035297D01*
X130041323Y-121000817D01*
X130087010Y-120953268D01*
X130143204Y-120896222D01*
X130206468Y-120833255D01*
X130213602Y-120826227D01*
X130293330Y-120749020D01*
X130354857Y-120692330D01*
X130399421Y-120655110D01*
X130428257Y-120636315D01*
X130440958Y-120633889D01*
X130459494Y-120644471D01*
X130497961Y-120668916D01*
X130552386Y-120704612D01*
X130618798Y-120748947D01*
X130693225Y-120799311D01*
X130710601Y-120811160D01*
X130957297Y-120979626D01*
X131068706Y-120929062D01*
X131136457Y-120899595D01*
X131209183Y-120869959D01*
X131271703Y-120846330D01*
X131274457Y-120845358D01*
X131323360Y-120827457D01*
X131361057Y-120812320D01*
X131379425Y-120803210D01*
X131379456Y-120803184D01*
X131385285Y-120786717D01*
X131395192Y-120746219D01*
X131408195Y-120686242D01*
X131423309Y-120611340D01*
X131439552Y-120526064D01*
X131440881Y-120518875D01*
X131457175Y-120431014D01*
X131472133Y-120351260D01*
X131484791Y-120284681D01*
X131494186Y-120236347D01*
X131499354Y-120211325D01*
X131499444Y-120210943D01*
X131502589Y-120200299D01*
X131508704Y-120192262D01*
X131521453Y-120186467D01*
X131544500Y-120182547D01*
X131581509Y-120180135D01*
X131636144Y-120178865D01*
X131712067Y-120178371D01*
X131812944Y-120178286D01*
X131826000Y-120178286D01*
X131929910Y-120178348D01*
D14*
X123952000Y-143510000D02*
G75*
G03X123952000Y-143510000I-2286000J0D01*
G01*
X158750000Y-78740000D02*
G75*
G03X158750000Y-78740000I-2286000J0D01*
G01*
X158496000Y-143510000D02*
G75*
G03X158496000Y-143510000I-2286000J0D01*
G01*
D13*
X156932381Y-131897381D02*
X156599047Y-131421190D01*
X156360952Y-131897381D02*
X156360952Y-130897381D01*
X156741905Y-130897381D01*
X156837143Y-130945000D01*
X156884762Y-130992619D01*
X156932381Y-131087857D01*
X156932381Y-131230714D01*
X156884762Y-131325952D01*
X156837143Y-131373571D01*
X156741905Y-131421190D01*
X156360952Y-131421190D01*
X157265714Y-131230714D02*
X157503809Y-131897381D01*
X157741905Y-131230714D01*
X158646667Y-131897381D02*
X158075238Y-131897381D01*
X158360952Y-131897381D02*
X158360952Y-130897381D01*
X158265714Y-131040238D01*
X158170476Y-131135476D01*
X158075238Y-131183095D01*
X152400095Y-117181381D02*
X152400095Y-117990905D01*
X152447714Y-118086143D01*
X152495333Y-118133762D01*
X152590571Y-118181381D01*
X152781048Y-118181381D01*
X152876286Y-118133762D01*
X152923905Y-118086143D01*
X152971524Y-117990905D01*
X152971524Y-117181381D01*
X153971524Y-118181381D02*
X153400095Y-118181381D01*
X153685809Y-118181381D02*
X153685809Y-117181381D01*
X153590571Y-117324238D01*
X153495333Y-117419476D01*
X153400095Y-117467095D01*
X133310381Y-113490333D02*
X134024667Y-113490333D01*
X134167524Y-113537953D01*
X134262762Y-113633191D01*
X134310381Y-113776048D01*
X134310381Y-113871286D01*
X133643714Y-112585571D02*
X134310381Y-112585571D01*
X133262762Y-112823667D02*
X133977048Y-113061762D01*
X133977048Y-112442714D01*
X121610381Y-113609381D02*
X120610381Y-113609381D01*
X120943714Y-113133191D02*
X121610381Y-113133191D01*
X121038952Y-113133191D02*
X120991333Y-113085572D01*
X120943714Y-112990334D01*
X120943714Y-112847476D01*
X120991333Y-112752238D01*
X121086571Y-112704619D01*
X121610381Y-112704619D01*
X147447095Y-78700381D02*
X147447095Y-79509905D01*
X147494714Y-79605143D01*
X147542333Y-79652762D01*
X147637571Y-79700381D01*
X147828048Y-79700381D01*
X147923286Y-79652762D01*
X147970905Y-79605143D01*
X148018524Y-79509905D01*
X148018524Y-78700381D01*
X148399476Y-78700381D02*
X149018524Y-78700381D01*
X148685190Y-79081333D01*
X148828048Y-79081333D01*
X148923286Y-79128952D01*
X148970905Y-79176571D01*
X149018524Y-79271810D01*
X149018524Y-79509905D01*
X148970905Y-79605143D01*
X148923286Y-79652762D01*
X148828048Y-79700381D01*
X148542333Y-79700381D01*
X148447095Y-79652762D01*
X148399476Y-79605143D01*
X149566334Y-105513143D02*
X149518715Y-105560762D01*
X149375858Y-105608381D01*
X149280620Y-105608381D01*
X149137762Y-105560762D01*
X149042524Y-105465524D01*
X148994905Y-105370286D01*
X148947286Y-105179810D01*
X148947286Y-105036952D01*
X148994905Y-104846476D01*
X149042524Y-104751238D01*
X149137762Y-104656000D01*
X149280620Y-104608381D01*
X149375858Y-104608381D01*
X149518715Y-104656000D01*
X149566334Y-104703619D01*
X149899667Y-104608381D02*
X150518715Y-104608381D01*
X150185381Y-104989333D01*
X150328239Y-104989333D01*
X150423477Y-105036952D01*
X150471096Y-105084571D01*
X150518715Y-105179810D01*
X150518715Y-105417905D01*
X150471096Y-105513143D01*
X150423477Y-105560762D01*
X150328239Y-105608381D01*
X150042524Y-105608381D01*
X149947286Y-105560762D01*
X149899667Y-105513143D01*
X119554667Y-76668381D02*
X119554667Y-77382667D01*
X119507047Y-77525524D01*
X119411809Y-77620762D01*
X119268952Y-77668381D01*
X119173714Y-77668381D01*
X119983238Y-76763619D02*
X120030857Y-76716000D01*
X120126095Y-76668381D01*
X120364191Y-76668381D01*
X120459429Y-76716000D01*
X120507048Y-76763619D01*
X120554667Y-76858857D01*
X120554667Y-76954095D01*
X120507048Y-77096952D01*
X119935619Y-77668381D01*
X120554667Y-77668381D01*
X133310381Y-109553333D02*
X134024667Y-109553333D01*
X134167524Y-109600953D01*
X134262762Y-109696191D01*
X134310381Y-109839048D01*
X134310381Y-109934286D01*
X133310381Y-108600952D02*
X133310381Y-109077143D01*
X133786571Y-109124762D01*
X133738952Y-109077143D01*
X133691333Y-108981905D01*
X133691333Y-108743809D01*
X133738952Y-108648571D01*
X133786571Y-108600952D01*
X133881810Y-108553333D01*
X134119905Y-108553333D01*
X134215143Y-108600952D01*
X134262762Y-108648571D01*
X134310381Y-108743809D01*
X134310381Y-108981905D01*
X134262762Y-109077143D01*
X134215143Y-109124762D01*
X120610381Y-110053334D02*
X120610381Y-109862857D01*
X120658000Y-109767619D01*
X120753238Y-109672381D01*
X120943714Y-109624762D01*
X121277048Y-109624762D01*
X121467524Y-109672381D01*
X121562762Y-109767619D01*
X121610381Y-109862857D01*
X121610381Y-110053334D01*
X121562762Y-110148572D01*
X121467524Y-110243810D01*
X121277048Y-110291429D01*
X120943714Y-110291429D01*
X120753238Y-110243810D01*
X120658000Y-110148572D01*
X120610381Y-110053334D01*
X120943714Y-108767619D02*
X121610381Y-108767619D01*
X120943714Y-109196191D02*
X121467524Y-109196191D01*
X121562762Y-109148572D01*
X121610381Y-109053334D01*
X121610381Y-108910476D01*
X121562762Y-108815238D01*
X121515143Y-108767619D01*
X120943714Y-108434286D02*
X120943714Y-108053334D01*
X120610381Y-108291429D02*
X121467524Y-108291429D01*
X121562762Y-108243810D01*
X121610381Y-108148572D01*
X121610381Y-108053334D01*
X143089334Y-106243381D02*
X142756000Y-105767190D01*
X142517905Y-106243381D02*
X142517905Y-105243381D01*
X142898858Y-105243381D01*
X142994096Y-105291000D01*
X143041715Y-105338619D01*
X143089334Y-105433857D01*
X143089334Y-105576714D01*
X143041715Y-105671952D01*
X142994096Y-105719571D01*
X142898858Y-105767190D01*
X142517905Y-105767190D01*
X143422667Y-105243381D02*
X144089334Y-105243381D01*
X143660762Y-106243381D01*
X154773334Y-106624381D02*
X154440000Y-106148190D01*
X154201905Y-106624381D02*
X154201905Y-105624381D01*
X154582858Y-105624381D01*
X154678096Y-105672000D01*
X154725715Y-105719619D01*
X154773334Y-105814857D01*
X154773334Y-105957714D01*
X154725715Y-106052952D01*
X154678096Y-106100571D01*
X154582858Y-106148190D01*
X154201905Y-106148190D01*
X155678096Y-105624381D02*
X155201905Y-105624381D01*
X155154286Y-106100571D01*
X155201905Y-106052952D01*
X155297143Y-106005333D01*
X155535239Y-106005333D01*
X155630477Y-106052952D01*
X155678096Y-106100571D01*
X155725715Y-106195810D01*
X155725715Y-106433905D01*
X155678096Y-106529143D01*
X155630477Y-106576762D01*
X155535239Y-106624381D01*
X155297143Y-106624381D01*
X155201905Y-106576762D01*
X155154286Y-106529143D01*
X126388905Y-118435381D02*
X126388905Y-117435381D01*
X126627000Y-117435381D01*
X126769858Y-117483000D01*
X126865096Y-117578238D01*
X126912715Y-117673476D01*
X126960334Y-117863952D01*
X126960334Y-118006810D01*
X126912715Y-118197286D01*
X126865096Y-118292524D01*
X126769858Y-118387762D01*
X126627000Y-118435381D01*
X126388905Y-118435381D01*
X127293667Y-117435381D02*
X127912715Y-117435381D01*
X127579381Y-117816333D01*
X127722239Y-117816333D01*
X127817477Y-117863952D01*
X127865096Y-117911571D01*
X127912715Y-118006810D01*
X127912715Y-118244905D01*
X127865096Y-118340143D01*
X127817477Y-118387762D01*
X127722239Y-118435381D01*
X127436524Y-118435381D01*
X127341286Y-118387762D01*
X127293667Y-118340143D01*
X156567143Y-93551666D02*
X156614762Y-93599285D01*
X156662381Y-93742142D01*
X156662381Y-93837380D01*
X156614762Y-93980238D01*
X156519524Y-94075476D01*
X156424286Y-94123095D01*
X156233810Y-94170714D01*
X156090952Y-94170714D01*
X155900476Y-94123095D01*
X155805238Y-94075476D01*
X155710000Y-93980238D01*
X155662381Y-93837380D01*
X155662381Y-93742142D01*
X155710000Y-93599285D01*
X155757619Y-93551666D01*
X156662381Y-92599285D02*
X156662381Y-93170714D01*
X156662381Y-92885000D02*
X155662381Y-92885000D01*
X155805238Y-92980238D01*
X155900476Y-93075476D01*
X155948095Y-93170714D01*
X156567143Y-101552666D02*
X156614762Y-101600285D01*
X156662381Y-101743142D01*
X156662381Y-101838380D01*
X156614762Y-101981238D01*
X156519524Y-102076476D01*
X156424286Y-102124095D01*
X156233810Y-102171714D01*
X156090952Y-102171714D01*
X155900476Y-102124095D01*
X155805238Y-102076476D01*
X155710000Y-101981238D01*
X155662381Y-101838380D01*
X155662381Y-101743142D01*
X155710000Y-101600285D01*
X155757619Y-101552666D01*
X155757619Y-101171714D02*
X155710000Y-101124095D01*
X155662381Y-101028857D01*
X155662381Y-100790761D01*
X155710000Y-100695523D01*
X155757619Y-100647904D01*
X155852857Y-100600285D01*
X155948095Y-100600285D01*
X156090952Y-100647904D01*
X156662381Y-101219333D01*
X156662381Y-100600285D01*
X159075381Y-138406095D02*
X158075381Y-138406095D01*
X158075381Y-138168000D01*
X158123000Y-138025142D01*
X158218238Y-137929904D01*
X158313476Y-137882285D01*
X158503952Y-137834666D01*
X158646810Y-137834666D01*
X158837286Y-137882285D01*
X158932524Y-137929904D01*
X159027762Y-138025142D01*
X159075381Y-138168000D01*
X159075381Y-138406095D01*
X159075381Y-136882285D02*
X159075381Y-137453714D01*
X159075381Y-137168000D02*
X158075381Y-137168000D01*
X158218238Y-137263238D01*
X158313476Y-137358476D01*
X158361095Y-137453714D01*
X157678381Y-139644191D02*
X156678381Y-139644191D01*
X156678381Y-139263238D01*
X156726000Y-139168000D01*
X156773619Y-139120381D01*
X156868857Y-139072762D01*
X157011714Y-139072762D01*
X157106952Y-139120381D01*
X157154571Y-139168000D01*
X157202190Y-139263238D01*
X157202190Y-139644191D01*
X157678381Y-138501334D02*
X157630762Y-138596572D01*
X157583143Y-138644191D01*
X157487905Y-138691810D01*
X157202190Y-138691810D01*
X157106952Y-138644191D01*
X157059333Y-138596572D01*
X157011714Y-138501334D01*
X157011714Y-138358476D01*
X157059333Y-138263238D01*
X157106952Y-138215619D01*
X157202190Y-138168000D01*
X157487905Y-138168000D01*
X157583143Y-138215619D01*
X157630762Y-138263238D01*
X157678381Y-138358476D01*
X157678381Y-138501334D01*
X157011714Y-137834667D02*
X157678381Y-137644191D01*
X157202190Y-137453714D01*
X157678381Y-137263238D01*
X157011714Y-137072762D01*
X157630762Y-136310857D02*
X157678381Y-136406095D01*
X157678381Y-136596572D01*
X157630762Y-136691810D01*
X157535524Y-136739429D01*
X157154571Y-136739429D01*
X157059333Y-136691810D01*
X157011714Y-136596572D01*
X157011714Y-136406095D01*
X157059333Y-136310857D01*
X157154571Y-136263238D01*
X157249810Y-136263238D01*
X157345048Y-136739429D01*
X157678381Y-135834667D02*
X157011714Y-135834667D01*
X157202190Y-135834667D02*
X157106952Y-135787048D01*
X157059333Y-135739429D01*
X157011714Y-135644191D01*
X157011714Y-135548952D01*
X146375381Y-119356095D02*
X145375381Y-119356095D01*
X145375381Y-119118000D01*
X145423000Y-118975142D01*
X145518238Y-118879904D01*
X145613476Y-118832285D01*
X145803952Y-118784666D01*
X145946810Y-118784666D01*
X146137286Y-118832285D01*
X146232524Y-118879904D01*
X146327762Y-118975142D01*
X146375381Y-119118000D01*
X146375381Y-119356095D01*
X145470619Y-118403714D02*
X145423000Y-118356095D01*
X145375381Y-118260857D01*
X145375381Y-118022761D01*
X145423000Y-117927523D01*
X145470619Y-117879904D01*
X145565857Y-117832285D01*
X145661095Y-117832285D01*
X145803952Y-117879904D01*
X146375381Y-118451333D01*
X146375381Y-117832285D01*
X142692381Y-142628762D02*
X141692381Y-142628762D01*
X141692381Y-142390667D01*
X141740000Y-142247809D01*
X141835238Y-142152571D01*
X141930476Y-142104952D01*
X142120952Y-142057333D01*
X142263810Y-142057333D01*
X142454286Y-142104952D01*
X142549524Y-142152571D01*
X142644762Y-142247809D01*
X142692381Y-142390667D01*
X142692381Y-142628762D01*
X142692381Y-141628762D02*
X142025714Y-141628762D01*
X142120952Y-141628762D02*
X142073333Y-141581143D01*
X142025714Y-141485905D01*
X142025714Y-141343047D01*
X142073333Y-141247809D01*
X142168571Y-141200190D01*
X142692381Y-141200190D01*
X142168571Y-141200190D02*
X142073333Y-141152571D01*
X142025714Y-141057333D01*
X142025714Y-140914476D01*
X142073333Y-140819238D01*
X142168571Y-140771619D01*
X142692381Y-140771619D01*
X142692381Y-139771619D02*
X142692381Y-140343048D01*
X142692381Y-140057334D02*
X141692381Y-140057334D01*
X141835238Y-140152572D01*
X141930476Y-140247810D01*
X141978095Y-140343048D01*
X142692381Y-136024762D02*
X141692381Y-136024762D01*
X141692381Y-135786667D01*
X141740000Y-135643809D01*
X141835238Y-135548571D01*
X141930476Y-135500952D01*
X142120952Y-135453333D01*
X142263810Y-135453333D01*
X142454286Y-135500952D01*
X142549524Y-135548571D01*
X142644762Y-135643809D01*
X142692381Y-135786667D01*
X142692381Y-136024762D01*
X142692381Y-135024762D02*
X142025714Y-135024762D01*
X142120952Y-135024762D02*
X142073333Y-134977143D01*
X142025714Y-134881905D01*
X142025714Y-134739047D01*
X142073333Y-134643809D01*
X142168571Y-134596190D01*
X142692381Y-134596190D01*
X142168571Y-134596190D02*
X142073333Y-134548571D01*
X142025714Y-134453333D01*
X142025714Y-134310476D01*
X142073333Y-134215238D01*
X142168571Y-134167619D01*
X142692381Y-134167619D01*
X141787619Y-133739048D02*
X141740000Y-133691429D01*
X141692381Y-133596191D01*
X141692381Y-133358095D01*
X141740000Y-133262857D01*
X141787619Y-133215238D01*
X141882857Y-133167619D01*
X141978095Y-133167619D01*
X142120952Y-133215238D01*
X142692381Y-133786667D01*
X142692381Y-133167619D01*
X142692381Y-129420762D02*
X141692381Y-129420762D01*
X141692381Y-129182667D01*
X141740000Y-129039809D01*
X141835238Y-128944571D01*
X141930476Y-128896952D01*
X142120952Y-128849333D01*
X142263810Y-128849333D01*
X142454286Y-128896952D01*
X142549524Y-128944571D01*
X142644762Y-129039809D01*
X142692381Y-129182667D01*
X142692381Y-129420762D01*
X142692381Y-128420762D02*
X142025714Y-128420762D01*
X142120952Y-128420762D02*
X142073333Y-128373143D01*
X142025714Y-128277905D01*
X142025714Y-128135047D01*
X142073333Y-128039809D01*
X142168571Y-127992190D01*
X142692381Y-127992190D01*
X142168571Y-127992190D02*
X142073333Y-127944571D01*
X142025714Y-127849333D01*
X142025714Y-127706476D01*
X142073333Y-127611238D01*
X142168571Y-127563619D01*
X142692381Y-127563619D01*
X141692381Y-127182667D02*
X141692381Y-126563619D01*
X142073333Y-126896953D01*
X142073333Y-126754095D01*
X142120952Y-126658857D01*
X142168571Y-126611238D01*
X142263810Y-126563619D01*
X142501905Y-126563619D01*
X142597143Y-126611238D01*
X142644762Y-126658857D01*
X142692381Y-126754095D01*
X142692381Y-127039810D01*
X142644762Y-127135048D01*
X142597143Y-127182667D01*
X142692381Y-122816762D02*
X141692381Y-122816762D01*
X141692381Y-122578667D01*
X141740000Y-122435809D01*
X141835238Y-122340571D01*
X141930476Y-122292952D01*
X142120952Y-122245333D01*
X142263810Y-122245333D01*
X142454286Y-122292952D01*
X142549524Y-122340571D01*
X142644762Y-122435809D01*
X142692381Y-122578667D01*
X142692381Y-122816762D01*
X142692381Y-121816762D02*
X142025714Y-121816762D01*
X142120952Y-121816762D02*
X142073333Y-121769143D01*
X142025714Y-121673905D01*
X142025714Y-121531047D01*
X142073333Y-121435809D01*
X142168571Y-121388190D01*
X142692381Y-121388190D01*
X142168571Y-121388190D02*
X142073333Y-121340571D01*
X142025714Y-121245333D01*
X142025714Y-121102476D01*
X142073333Y-121007238D01*
X142168571Y-120959619D01*
X142692381Y-120959619D01*
X142025714Y-120054857D02*
X142692381Y-120054857D01*
X141644762Y-120292953D02*
X142359048Y-120531048D01*
X142359048Y-119912000D01*
X142692381Y-116212762D02*
X141692381Y-116212762D01*
X141692381Y-115974667D01*
X141740000Y-115831809D01*
X141835238Y-115736571D01*
X141930476Y-115688952D01*
X142120952Y-115641333D01*
X142263810Y-115641333D01*
X142454286Y-115688952D01*
X142549524Y-115736571D01*
X142644762Y-115831809D01*
X142692381Y-115974667D01*
X142692381Y-116212762D01*
X142692381Y-115212762D02*
X142025714Y-115212762D01*
X142120952Y-115212762D02*
X142073333Y-115165143D01*
X142025714Y-115069905D01*
X142025714Y-114927047D01*
X142073333Y-114831809D01*
X142168571Y-114784190D01*
X142692381Y-114784190D01*
X142168571Y-114784190D02*
X142073333Y-114736571D01*
X142025714Y-114641333D01*
X142025714Y-114498476D01*
X142073333Y-114403238D01*
X142168571Y-114355619D01*
X142692381Y-114355619D01*
X141692381Y-113403238D02*
X141692381Y-113879429D01*
X142168571Y-113927048D01*
X142120952Y-113879429D01*
X142073333Y-113784191D01*
X142073333Y-113546095D01*
X142120952Y-113450857D01*
X142168571Y-113403238D01*
X142263810Y-113355619D01*
X142501905Y-113355619D01*
X142597143Y-113403238D01*
X142644762Y-113450857D01*
X142692381Y-113546095D01*
X142692381Y-113784191D01*
X142644762Y-113879429D01*
X142597143Y-113927048D01*
X142692381Y-109608762D02*
X141692381Y-109608762D01*
X141692381Y-109370667D01*
X141740000Y-109227809D01*
X141835238Y-109132571D01*
X141930476Y-109084952D01*
X142120952Y-109037333D01*
X142263810Y-109037333D01*
X142454286Y-109084952D01*
X142549524Y-109132571D01*
X142644762Y-109227809D01*
X142692381Y-109370667D01*
X142692381Y-109608762D01*
X142692381Y-108608762D02*
X142025714Y-108608762D01*
X142120952Y-108608762D02*
X142073333Y-108561143D01*
X142025714Y-108465905D01*
X142025714Y-108323047D01*
X142073333Y-108227809D01*
X142168571Y-108180190D01*
X142692381Y-108180190D01*
X142168571Y-108180190D02*
X142073333Y-108132571D01*
X142025714Y-108037333D01*
X142025714Y-107894476D01*
X142073333Y-107799238D01*
X142168571Y-107751619D01*
X142692381Y-107751619D01*
X141692381Y-106846857D02*
X141692381Y-107037334D01*
X141740000Y-107132572D01*
X141787619Y-107180191D01*
X141930476Y-107275429D01*
X142120952Y-107323048D01*
X142501905Y-107323048D01*
X142597143Y-107275429D01*
X142644762Y-107227810D01*
X142692381Y-107132572D01*
X142692381Y-106942095D01*
X142644762Y-106846857D01*
X142597143Y-106799238D01*
X142501905Y-106751619D01*
X142263810Y-106751619D01*
X142168571Y-106799238D01*
X142120952Y-106846857D01*
X142073333Y-106942095D01*
X142073333Y-107132572D01*
X142120952Y-107227810D01*
X142168571Y-107275429D01*
X142263810Y-107323048D01*
X142692381Y-103004762D02*
X141692381Y-103004762D01*
X141692381Y-102766667D01*
X141740000Y-102623809D01*
X141835238Y-102528571D01*
X141930476Y-102480952D01*
X142120952Y-102433333D01*
X142263810Y-102433333D01*
X142454286Y-102480952D01*
X142549524Y-102528571D01*
X142644762Y-102623809D01*
X142692381Y-102766667D01*
X142692381Y-103004762D01*
X142692381Y-102004762D02*
X142025714Y-102004762D01*
X142120952Y-102004762D02*
X142073333Y-101957143D01*
X142025714Y-101861905D01*
X142025714Y-101719047D01*
X142073333Y-101623809D01*
X142168571Y-101576190D01*
X142692381Y-101576190D01*
X142168571Y-101576190D02*
X142073333Y-101528571D01*
X142025714Y-101433333D01*
X142025714Y-101290476D01*
X142073333Y-101195238D01*
X142168571Y-101147619D01*
X142692381Y-101147619D01*
X141692381Y-100766667D02*
X141692381Y-100100000D01*
X142692381Y-100528572D01*
X142692381Y-96400762D02*
X141692381Y-96400762D01*
X141692381Y-96162667D01*
X141740000Y-96019809D01*
X141835238Y-95924571D01*
X141930476Y-95876952D01*
X142120952Y-95829333D01*
X142263810Y-95829333D01*
X142454286Y-95876952D01*
X142549524Y-95924571D01*
X142644762Y-96019809D01*
X142692381Y-96162667D01*
X142692381Y-96400762D01*
X142692381Y-95400762D02*
X142025714Y-95400762D01*
X142120952Y-95400762D02*
X142073333Y-95353143D01*
X142025714Y-95257905D01*
X142025714Y-95115047D01*
X142073333Y-95019809D01*
X142168571Y-94972190D01*
X142692381Y-94972190D01*
X142168571Y-94972190D02*
X142073333Y-94924571D01*
X142025714Y-94829333D01*
X142025714Y-94686476D01*
X142073333Y-94591238D01*
X142168571Y-94543619D01*
X142692381Y-94543619D01*
X142120952Y-93924572D02*
X142073333Y-94019810D01*
X142025714Y-94067429D01*
X141930476Y-94115048D01*
X141882857Y-94115048D01*
X141787619Y-94067429D01*
X141740000Y-94019810D01*
X141692381Y-93924572D01*
X141692381Y-93734095D01*
X141740000Y-93638857D01*
X141787619Y-93591238D01*
X141882857Y-93543619D01*
X141930476Y-93543619D01*
X142025714Y-93591238D01*
X142073333Y-93638857D01*
X142120952Y-93734095D01*
X142120952Y-93924572D01*
X142168571Y-94019810D01*
X142216190Y-94067429D01*
X142311429Y-94115048D01*
X142501905Y-94115048D01*
X142597143Y-94067429D01*
X142644762Y-94019810D01*
X142692381Y-93924572D01*
X142692381Y-93734095D01*
X142644762Y-93638857D01*
X142597143Y-93591238D01*
X142501905Y-93543619D01*
X142311429Y-93543619D01*
X142216190Y-93591238D01*
X142168571Y-93638857D01*
X142120952Y-93734095D01*
X142692381Y-89796762D02*
X141692381Y-89796762D01*
X141692381Y-89558667D01*
X141740000Y-89415809D01*
X141835238Y-89320571D01*
X141930476Y-89272952D01*
X142120952Y-89225333D01*
X142263810Y-89225333D01*
X142454286Y-89272952D01*
X142549524Y-89320571D01*
X142644762Y-89415809D01*
X142692381Y-89558667D01*
X142692381Y-89796762D01*
X142692381Y-88796762D02*
X142025714Y-88796762D01*
X142120952Y-88796762D02*
X142073333Y-88749143D01*
X142025714Y-88653905D01*
X142025714Y-88511047D01*
X142073333Y-88415809D01*
X142168571Y-88368190D01*
X142692381Y-88368190D01*
X142168571Y-88368190D02*
X142073333Y-88320571D01*
X142025714Y-88225333D01*
X142025714Y-88082476D01*
X142073333Y-87987238D01*
X142168571Y-87939619D01*
X142692381Y-87939619D01*
X142692381Y-87415810D02*
X142692381Y-87225334D01*
X142644762Y-87130095D01*
X142597143Y-87082476D01*
X142454286Y-86987238D01*
X142263810Y-86939619D01*
X141882857Y-86939619D01*
X141787619Y-86987238D01*
X141740000Y-87034857D01*
X141692381Y-87130095D01*
X141692381Y-87320572D01*
X141740000Y-87415810D01*
X141787619Y-87463429D01*
X141882857Y-87511048D01*
X142120952Y-87511048D01*
X142216190Y-87463429D01*
X142263810Y-87415810D01*
X142311429Y-87320572D01*
X142311429Y-87130095D01*
X142263810Y-87034857D01*
X142216190Y-86987238D01*
X142120952Y-86939619D01*
X142692381Y-83668952D02*
X141692381Y-83668952D01*
X141692381Y-83430857D01*
X141740000Y-83287999D01*
X141835238Y-83192761D01*
X141930476Y-83145142D01*
X142120952Y-83097523D01*
X142263810Y-83097523D01*
X142454286Y-83145142D01*
X142549524Y-83192761D01*
X142644762Y-83287999D01*
X142692381Y-83430857D01*
X142692381Y-83668952D01*
X142692381Y-82668952D02*
X142025714Y-82668952D01*
X142120952Y-82668952D02*
X142073333Y-82621333D01*
X142025714Y-82526095D01*
X142025714Y-82383237D01*
X142073333Y-82287999D01*
X142168571Y-82240380D01*
X142692381Y-82240380D01*
X142168571Y-82240380D02*
X142073333Y-82192761D01*
X142025714Y-82097523D01*
X142025714Y-81954666D01*
X142073333Y-81859428D01*
X142168571Y-81811809D01*
X142692381Y-81811809D01*
X142692381Y-80811809D02*
X142692381Y-81383238D01*
X142692381Y-81097524D02*
X141692381Y-81097524D01*
X141835238Y-81192762D01*
X141930476Y-81288000D01*
X141978095Y-81383238D01*
X141692381Y-80192762D02*
X141692381Y-80097523D01*
X141740000Y-80002285D01*
X141787619Y-79954666D01*
X141882857Y-79907047D01*
X142073333Y-79859428D01*
X142311429Y-79859428D01*
X142501905Y-79907047D01*
X142597143Y-79954666D01*
X142644762Y-80002285D01*
X142692381Y-80097523D01*
X142692381Y-80192762D01*
X142644762Y-80288000D01*
X142597143Y-80335619D01*
X142501905Y-80383238D01*
X142311429Y-80430857D01*
X142073333Y-80430857D01*
X141882857Y-80383238D01*
X141787619Y-80335619D01*
X141740000Y-80288000D01*
X141692381Y-80192762D01*
X119554667Y-102576381D02*
X119554667Y-103290667D01*
X119507047Y-103433524D01*
X119411809Y-103528762D01*
X119268952Y-103576381D01*
X119173714Y-103576381D01*
X120554667Y-103576381D02*
X119983238Y-103576381D01*
X120268952Y-103576381D02*
X120268952Y-102576381D01*
X120173714Y-102719238D01*
X120078476Y-102814476D01*
X119983238Y-102862095D01*
X133310381Y-104981333D02*
X134024667Y-104981333D01*
X134167524Y-105028953D01*
X134262762Y-105124191D01*
X134310381Y-105267048D01*
X134310381Y-105362286D01*
X133310381Y-104600381D02*
X133310381Y-103981333D01*
X133691333Y-104314667D01*
X133691333Y-104171809D01*
X133738952Y-104076571D01*
X133786571Y-104028952D01*
X133881810Y-103981333D01*
X134119905Y-103981333D01*
X134215143Y-104028952D01*
X134262762Y-104076571D01*
X134310381Y-104171809D01*
X134310381Y-104457524D01*
X134262762Y-104552762D01*
X134215143Y-104600381D01*
X119427667Y-136485381D02*
X119427667Y-137199667D01*
X119380047Y-137342524D01*
X119284809Y-137437762D01*
X119141952Y-137485381D01*
X119046714Y-137485381D01*
X120332429Y-136485381D02*
X120141952Y-136485381D01*
X120046714Y-136533000D01*
X119999095Y-136580619D01*
X119903857Y-136723476D01*
X119856238Y-136913952D01*
X119856238Y-137294905D01*
X119903857Y-137390143D01*
X119951476Y-137437762D01*
X120046714Y-137485381D01*
X120237191Y-137485381D01*
X120332429Y-137437762D01*
X120380048Y-137390143D01*
X120427667Y-137294905D01*
X120427667Y-137056810D01*
X120380048Y-136961571D01*
X120332429Y-136913952D01*
X120237191Y-136866333D01*
X120046714Y-136866333D01*
X119951476Y-136913952D01*
X119903857Y-136961571D01*
X119856238Y-137056810D01*
X133310381Y-140922333D02*
X134024667Y-140922333D01*
X134167524Y-140969953D01*
X134262762Y-141065191D01*
X134310381Y-141208048D01*
X134310381Y-141303286D01*
X133310381Y-140541381D02*
X133310381Y-139874714D01*
X134310381Y-140303286D01*
X127833714Y-143533762D02*
X127976571Y-143581381D01*
X128214667Y-143581381D01*
X128309905Y-143533762D01*
X128357524Y-143486143D01*
X128405143Y-143390905D01*
X128405143Y-143295667D01*
X128357524Y-143200429D01*
X128309905Y-143152810D01*
X128214667Y-143105190D01*
X128024190Y-143057571D01*
X127928952Y-143009952D01*
X127881333Y-142962333D01*
X127833714Y-142867095D01*
X127833714Y-142771857D01*
X127881333Y-142676619D01*
X127928952Y-142629000D01*
X128024190Y-142581381D01*
X128262286Y-142581381D01*
X128405143Y-142629000D01*
X128738476Y-142914714D02*
X128928952Y-143581381D01*
X129119429Y-143105190D01*
X129309905Y-143581381D01*
X129500381Y-142914714D01*
X129881333Y-143581381D02*
X129881333Y-142914714D01*
X129881333Y-142581381D02*
X129833714Y-142629000D01*
X129881333Y-142676619D01*
X129928952Y-142629000D01*
X129881333Y-142581381D01*
X129881333Y-142676619D01*
X130214666Y-142914714D02*
X130595618Y-142914714D01*
X130357523Y-142581381D02*
X130357523Y-143438524D01*
X130405142Y-143533762D01*
X130500380Y-143581381D01*
X130595618Y-143581381D01*
X131357524Y-143533762D02*
X131262286Y-143581381D01*
X131071809Y-143581381D01*
X130976571Y-143533762D01*
X130928952Y-143486143D01*
X130881333Y-143390905D01*
X130881333Y-143105190D01*
X130928952Y-143009952D01*
X130976571Y-142962333D01*
X131071809Y-142914714D01*
X131262286Y-142914714D01*
X131357524Y-142962333D01*
X131786095Y-143581381D02*
X131786095Y-142581381D01*
X132214667Y-143581381D02*
X132214667Y-143057571D01*
X132167048Y-142962333D01*
X132071810Y-142914714D01*
X131928952Y-142914714D01*
X131833714Y-142962333D01*
X131786095Y-143009952D01*
X144089381Y-133389666D02*
X143613190Y-133723000D01*
X144089381Y-133961095D02*
X143089381Y-133961095D01*
X143089381Y-133580142D01*
X143137000Y-133484904D01*
X143184619Y-133437285D01*
X143279857Y-133389666D01*
X143422714Y-133389666D01*
X143517952Y-133437285D01*
X143565571Y-133484904D01*
X143613190Y-133580142D01*
X143613190Y-133961095D01*
X144089381Y-132437285D02*
X144089381Y-133008714D01*
X144089381Y-132723000D02*
X143089381Y-132723000D01*
X143232238Y-132818238D01*
X143327476Y-132913476D01*
X143375095Y-133008714D01*
X144089381Y-129706666D02*
X143613190Y-130040000D01*
X144089381Y-130278095D02*
X143089381Y-130278095D01*
X143089381Y-129897142D01*
X143137000Y-129801904D01*
X143184619Y-129754285D01*
X143279857Y-129706666D01*
X143422714Y-129706666D01*
X143517952Y-129754285D01*
X143565571Y-129801904D01*
X143613190Y-129897142D01*
X143613190Y-130278095D01*
X143184619Y-129325714D02*
X143137000Y-129278095D01*
X143089381Y-129182857D01*
X143089381Y-128944761D01*
X143137000Y-128849523D01*
X143184619Y-128801904D01*
X143279857Y-128754285D01*
X143375095Y-128754285D01*
X143517952Y-128801904D01*
X144089381Y-129373333D01*
X144089381Y-128754285D01*
X155789334Y-83129381D02*
X155456000Y-82653190D01*
X155217905Y-83129381D02*
X155217905Y-82129381D01*
X155598858Y-82129381D01*
X155694096Y-82177000D01*
X155741715Y-82224619D01*
X155789334Y-82319857D01*
X155789334Y-82462714D01*
X155741715Y-82557952D01*
X155694096Y-82605571D01*
X155598858Y-82653190D01*
X155217905Y-82653190D01*
X156122667Y-82129381D02*
X156741715Y-82129381D01*
X156408381Y-82510333D01*
X156551239Y-82510333D01*
X156646477Y-82557952D01*
X156694096Y-82605571D01*
X156741715Y-82700810D01*
X156741715Y-82938905D01*
X156694096Y-83034143D01*
X156646477Y-83081762D01*
X156551239Y-83129381D01*
X156265524Y-83129381D01*
X156170286Y-83081762D01*
X156122667Y-83034143D01*
X156805334Y-106624381D02*
X156472000Y-106148190D01*
X156233905Y-106624381D02*
X156233905Y-105624381D01*
X156614858Y-105624381D01*
X156710096Y-105672000D01*
X156757715Y-105719619D01*
X156805334Y-105814857D01*
X156805334Y-105957714D01*
X156757715Y-106052952D01*
X156710096Y-106100571D01*
X156614858Y-106148190D01*
X156233905Y-106148190D01*
X157662477Y-105957714D02*
X157662477Y-106624381D01*
X157424381Y-105576762D02*
X157186286Y-106291048D01*
X157805334Y-106291048D01*
X145375334Y-106243381D02*
X145042000Y-105767190D01*
X144803905Y-106243381D02*
X144803905Y-105243381D01*
X145184858Y-105243381D01*
X145280096Y-105291000D01*
X145327715Y-105338619D01*
X145375334Y-105433857D01*
X145375334Y-105576714D01*
X145327715Y-105671952D01*
X145280096Y-105719571D01*
X145184858Y-105767190D01*
X144803905Y-105767190D01*
X146232477Y-105243381D02*
X146042000Y-105243381D01*
X145946762Y-105291000D01*
X145899143Y-105338619D01*
X145803905Y-105481476D01*
X145756286Y-105671952D01*
X145756286Y-106052905D01*
X145803905Y-106148143D01*
X145851524Y-106195762D01*
X145946762Y-106243381D01*
X146137239Y-106243381D01*
X146232477Y-106195762D01*
X146280096Y-106148143D01*
X146327715Y-106052905D01*
X146327715Y-105814810D01*
X146280096Y-105719571D01*
X146232477Y-105671952D01*
X146137239Y-105624333D01*
X145946762Y-105624333D01*
X145851524Y-105671952D01*
X145803905Y-105719571D01*
X145756286Y-105814810D01*
X156789381Y-133262666D02*
X156313190Y-133596000D01*
X156789381Y-133834095D02*
X155789381Y-133834095D01*
X155789381Y-133453142D01*
X155837000Y-133357904D01*
X155884619Y-133310285D01*
X155979857Y-133262666D01*
X156122714Y-133262666D01*
X156217952Y-133310285D01*
X156265571Y-133357904D01*
X156313190Y-133453142D01*
X156313190Y-133834095D01*
X156217952Y-132691238D02*
X156170333Y-132786476D01*
X156122714Y-132834095D01*
X156027476Y-132881714D01*
X155979857Y-132881714D01*
X155884619Y-132834095D01*
X155837000Y-132786476D01*
X155789381Y-132691238D01*
X155789381Y-132500761D01*
X155837000Y-132405523D01*
X155884619Y-132357904D01*
X155979857Y-132310285D01*
X156027476Y-132310285D01*
X156122714Y-132357904D01*
X156170333Y-132405523D01*
X156217952Y-132500761D01*
X156217952Y-132691238D01*
X156265571Y-132786476D01*
X156313190Y-132834095D01*
X156408429Y-132881714D01*
X156598905Y-132881714D01*
X156694143Y-132834095D01*
X156741762Y-132786476D01*
X156789381Y-132691238D01*
X156789381Y-132500761D01*
X156741762Y-132405523D01*
X156694143Y-132357904D01*
X156598905Y-132310285D01*
X156408429Y-132310285D01*
X156313190Y-132357904D01*
X156265571Y-132405523D01*
X156217952Y-132500761D01*
X143470381Y-144779905D02*
X144279905Y-144779905D01*
X144375143Y-144732286D01*
X144422762Y-144684667D01*
X144470381Y-144589429D01*
X144470381Y-144398952D01*
X144422762Y-144303714D01*
X144375143Y-144256095D01*
X144279905Y-144208476D01*
X143470381Y-144208476D01*
X143565619Y-143779905D02*
X143518000Y-143732286D01*
X143470381Y-143637048D01*
X143470381Y-143398952D01*
X143518000Y-143303714D01*
X143565619Y-143256095D01*
X143660857Y-143208476D01*
X143756095Y-143208476D01*
X143898952Y-143256095D01*
X144470381Y-143827524D01*
X144470381Y-143208476D01*
M02*
