G04 #@! TF.FileFunction,Copper,L1,Top,Signal*
%FSLAX46Y46*%
G04 Gerber Fmt 4.6, Leading zero omitted, Abs format (unit mm)*
G04 Created by KiCad (PCBNEW 4.0.2-stable) date 19/08/2017 21:27:20*
%MOMM*%
G01*
G04 APERTURE LIST*
%ADD10C,0.100000*%
%ADD11C,2.340000*%
%ADD12R,2.400000X1.600000*%
%ADD13O,2.400000X1.600000*%
%ADD14R,1.700000X1.700000*%
%ADD15O,1.700000X1.700000*%
%ADD16C,1.600000*%
%ADD17R,2.400000X1.700000*%
%ADD18R,1.700000X2.400000*%
%ADD19O,1.600000X1.600000*%
%ADD20R,1.800000X1.800000*%
%ADD21O,1.800000X1.800000*%
%ADD22C,1.800000*%
%ADD23R,3.500000X3.500000*%
%ADD24C,5.500000*%
%ADD25C,0.600000*%
%ADD26C,0.400000*%
%ADD27C,0.250000*%
%ADD28C,0.254000*%
G04 APERTURE END LIST*
D10*
D11*
X155749000Y-128905000D03*
X153249000Y-126405000D03*
X150749000Y-128905000D03*
D12*
X156972000Y-121539000D03*
D13*
X149352000Y-113919000D03*
X156972000Y-118999000D03*
X149352000Y-116459000D03*
X156972000Y-116459000D03*
X149352000Y-118999000D03*
X156972000Y-113919000D03*
X149352000Y-121539000D03*
D14*
X123698000Y-113157000D03*
D15*
X126238000Y-113157000D03*
X128778000Y-113157000D03*
X131318000Y-113157000D03*
D12*
X152019000Y-102108000D03*
D13*
X144399000Y-81788000D03*
X152019000Y-99568000D03*
X144399000Y-84328000D03*
X152019000Y-97028000D03*
X144399000Y-86868000D03*
X152019000Y-94488000D03*
X144399000Y-89408000D03*
X152019000Y-91948000D03*
X144399000Y-91948000D03*
X152019000Y-89408000D03*
X144399000Y-94488000D03*
X152019000Y-86868000D03*
X144399000Y-97028000D03*
X152019000Y-84328000D03*
X144399000Y-99568000D03*
X152019000Y-81788000D03*
X144399000Y-102108000D03*
D16*
X152654000Y-105156000D03*
X147654000Y-105156000D03*
D17*
X128345000Y-78359000D03*
X127345000Y-80959000D03*
D18*
X120445000Y-83559000D03*
X131745000Y-87659000D03*
D17*
X124645000Y-88159000D03*
D14*
X123698000Y-109220000D03*
D15*
X126238000Y-109220000D03*
X128778000Y-109220000D03*
X131318000Y-109220000D03*
D16*
X146050000Y-110490000D03*
D19*
X146050000Y-107950000D03*
D16*
X152654000Y-110490000D03*
D19*
X152654000Y-107950000D03*
D20*
X132207000Y-117983000D03*
D21*
X122047000Y-117983000D03*
D16*
X156210000Y-95885000D03*
X156210000Y-90885000D03*
X156210000Y-103886000D03*
X156210000Y-98886000D03*
D20*
X153416000Y-138938000D03*
D22*
X153416000Y-136398000D03*
D20*
X145923000Y-113538000D03*
D21*
X145923000Y-123698000D03*
D20*
X139446000Y-141224000D03*
D22*
X136906000Y-141224000D03*
D20*
X139446000Y-134620000D03*
D22*
X136906000Y-134620000D03*
D20*
X139446000Y-128016000D03*
D22*
X136906000Y-128016000D03*
D20*
X139446000Y-121412000D03*
D22*
X136906000Y-121412000D03*
D20*
X139446000Y-114808000D03*
D22*
X136906000Y-114808000D03*
D20*
X139446000Y-108204000D03*
D22*
X136906000Y-108204000D03*
D20*
X139446000Y-101600000D03*
D22*
X136906000Y-101600000D03*
D20*
X139446000Y-94996000D03*
D22*
X136906000Y-94996000D03*
D20*
X139446000Y-88392000D03*
D22*
X136906000Y-88392000D03*
D20*
X139446000Y-81788000D03*
D22*
X136906000Y-81788000D03*
D17*
X128345000Y-91059000D03*
X127345000Y-93659000D03*
D18*
X120445000Y-96259000D03*
X131745000Y-100359000D03*
D17*
X124645000Y-100859000D03*
D14*
X129794000Y-104648000D03*
D15*
X127254000Y-104648000D03*
X124714000Y-104648000D03*
D23*
X132588000Y-131191000D03*
X126588000Y-131191000D03*
X129588000Y-135891000D03*
D14*
X131318000Y-140589000D03*
D15*
X128778000Y-140589000D03*
D16*
X146050000Y-132334000D03*
D19*
X148590000Y-132334000D03*
D16*
X146050000Y-128778000D03*
D19*
X146050000Y-126238000D03*
D16*
X155956000Y-86995000D03*
D19*
X155956000Y-84455000D03*
D16*
X155956000Y-110490000D03*
D19*
X155956000Y-107950000D03*
D16*
X149352000Y-108458000D03*
D19*
X149352000Y-110998000D03*
D16*
X153924000Y-132334000D03*
D19*
X151384000Y-132334000D03*
D20*
X147320000Y-142240000D03*
D21*
X147320000Y-139700000D03*
X147320000Y-137160000D03*
D24*
X121666000Y-143510000D03*
X156464000Y-78740000D03*
X156210000Y-143510000D03*
D25*
X144399000Y-105537000D03*
X143383000Y-115062000D03*
X142367000Y-115951000D03*
X141351000Y-116840000D03*
D26*
X128778000Y-140589000D02*
X128778000Y-143510000D01*
X130175000Y-144907000D02*
X134112000Y-144907000D01*
X128778000Y-143510000D02*
X130175000Y-144907000D01*
X132207000Y-117983000D02*
X132207000Y-120396000D01*
X135001000Y-144018000D02*
X134112000Y-144907000D01*
X135001000Y-123190000D02*
X135001000Y-144018000D01*
X132207000Y-120396000D02*
X135001000Y-123190000D01*
X134112000Y-144907000D02*
X144653000Y-144907000D01*
X144653000Y-144907000D02*
X147320000Y-142240000D01*
D27*
X149352000Y-121539000D02*
X149352000Y-121666000D01*
D26*
X152019000Y-79121000D02*
X153670000Y-80772000D01*
X153289000Y-97028000D02*
X152019000Y-97028000D01*
X153670000Y-96647000D02*
X153289000Y-97028000D01*
X153670000Y-80772000D02*
X153670000Y-96647000D01*
X133223000Y-108966000D02*
X133223000Y-79629000D01*
X152019000Y-79121000D02*
X152019000Y-81788000D01*
X150622000Y-77724000D02*
X152019000Y-79121000D01*
X135128000Y-77724000D02*
X150622000Y-77724000D01*
X133223000Y-79629000D02*
X135128000Y-77724000D01*
X132207000Y-117983000D02*
X132207000Y-116967000D01*
X128778000Y-108077000D02*
X128778000Y-109220000D01*
X129413000Y-107442000D02*
X128778000Y-108077000D01*
X131953000Y-107442000D02*
X129413000Y-107442000D01*
X133223000Y-108712000D02*
X131953000Y-107442000D01*
X133223000Y-115951000D02*
X133223000Y-108966000D01*
X133223000Y-108966000D02*
X133223000Y-108712000D01*
X132207000Y-116967000D02*
X133223000Y-115951000D01*
D27*
X155956000Y-107569000D02*
X157734000Y-105791000D01*
X157734000Y-105791000D02*
X157734000Y-97409000D01*
X157734000Y-97409000D02*
X156210000Y-95885000D01*
X156210000Y-95885000D02*
X155956000Y-95885000D01*
X155956000Y-95885000D02*
X154813000Y-94742000D01*
X154813000Y-88138000D02*
X155956000Y-86995000D01*
X154813000Y-94742000D02*
X154813000Y-88138000D01*
X155956000Y-107950000D02*
X155956000Y-107569000D01*
X153249000Y-126405000D02*
X153249000Y-123103000D01*
X154813000Y-121539000D02*
X156972000Y-121539000D01*
X153249000Y-123103000D02*
X154813000Y-121539000D01*
X156210000Y-90885000D02*
X157814000Y-90885000D01*
X158369000Y-121539000D02*
X156972000Y-121539000D01*
X159131000Y-120777000D02*
X158369000Y-121539000D01*
X159131000Y-92202000D02*
X159131000Y-120777000D01*
X157814000Y-90885000D02*
X159131000Y-92202000D01*
X154432000Y-111887000D02*
X154374002Y-111944998D01*
X149352000Y-113919000D02*
X152400000Y-113919000D01*
X152400000Y-113919000D02*
X154374002Y-111944998D01*
X156210000Y-103886000D02*
X156210000Y-105156000D01*
X154432000Y-106934000D02*
X154432000Y-111887000D01*
X156210000Y-105156000D02*
X154432000Y-106934000D01*
X155829000Y-110490000D02*
X154432000Y-111887000D01*
X155956000Y-110490000D02*
X155829000Y-110490000D01*
D26*
X152019000Y-99568000D02*
X153162000Y-99568000D01*
D27*
X153035000Y-105156000D02*
X153924000Y-106045000D01*
X153924000Y-109220000D02*
X152654000Y-110490000D01*
X153924000Y-106045000D02*
X153924000Y-109220000D01*
X152146000Y-110490000D02*
X150114000Y-112522000D01*
X146939000Y-112522000D02*
X145923000Y-113538000D01*
X150114000Y-112522000D02*
X146939000Y-112522000D01*
X152654000Y-110490000D02*
X152146000Y-110490000D01*
X148590000Y-91948000D02*
X147955000Y-92583000D01*
X152019000Y-91948000D02*
X148590000Y-91948000D01*
X150368000Y-105156000D02*
X152654000Y-105156000D01*
X149860000Y-104648000D02*
X150368000Y-105156000D01*
X149860000Y-102870000D02*
X149860000Y-104648000D01*
X147955000Y-100965000D02*
X149860000Y-102870000D01*
X147955000Y-92583000D02*
X147955000Y-100965000D01*
X152654000Y-105156000D02*
X153035000Y-105156000D01*
X153416000Y-136398000D02*
X153416000Y-132842000D01*
X153416000Y-132842000D02*
X153924000Y-132334000D01*
X149352000Y-118999000D02*
X146558000Y-118999000D01*
X145923000Y-119634000D02*
X145923000Y-123698000D01*
X146558000Y-118999000D02*
X145923000Y-119634000D01*
X149352000Y-116459000D02*
X149352000Y-118999000D01*
X139446000Y-141224000D02*
X139446000Y-140589000D01*
X139446000Y-140589000D02*
X143510000Y-136525000D01*
X143510000Y-136525000D02*
X143510000Y-119253000D01*
X143510000Y-119253000D02*
X144399000Y-118364000D01*
X144399000Y-118364000D02*
X144399000Y-105537000D01*
X147320000Y-137160000D02*
X147828000Y-137160000D01*
X147828000Y-137160000D02*
X151384000Y-133604000D01*
X151384000Y-133604000D02*
X151384000Y-132334000D01*
D26*
X136906000Y-141224000D02*
X136906000Y-143129000D01*
X144399000Y-137160000D02*
X147320000Y-137160000D01*
X142875000Y-138684000D02*
X144399000Y-137160000D01*
X142875000Y-140970000D02*
X142875000Y-138684000D01*
X140208000Y-143637000D02*
X142875000Y-140970000D01*
X137414000Y-143637000D02*
X140208000Y-143637000D01*
X136906000Y-143129000D02*
X137414000Y-143637000D01*
X136906000Y-114808000D02*
X136906000Y-121412000D01*
X136906000Y-121412000D02*
X136906000Y-128016000D01*
X136906000Y-128016000D02*
X136906000Y-134620000D01*
X136906000Y-134620000D02*
X136906000Y-141224000D01*
X136906000Y-94996000D02*
X136906000Y-101600000D01*
X136906000Y-101600000D02*
X136906000Y-108204000D01*
X136906000Y-108204000D02*
X136906000Y-114808000D01*
X136906000Y-81788000D02*
X136906000Y-88392000D01*
X136906000Y-88392000D02*
X136906000Y-94996000D01*
D27*
X139446000Y-131953000D02*
X139446000Y-134620000D01*
X142367000Y-129032000D02*
X139446000Y-131953000D01*
X142367000Y-118872000D02*
X142367000Y-129032000D01*
X143383000Y-117856000D02*
X142367000Y-118872000D01*
X143383000Y-115062000D02*
X143383000Y-117856000D01*
X142367000Y-115951000D02*
X142367000Y-117602000D01*
X142367000Y-117602000D02*
X141224000Y-118745000D01*
X141224000Y-118745000D02*
X141224000Y-124206000D01*
X141224000Y-124206000D02*
X139446000Y-125984000D01*
X139446000Y-125984000D02*
X139446000Y-128016000D01*
X139446000Y-118745000D02*
X139446000Y-121412000D01*
X141351000Y-116840000D02*
X139446000Y-118745000D01*
X144399000Y-94488000D02*
X143129000Y-94488000D01*
X139446000Y-112395000D02*
X139446000Y-114808000D01*
X141478000Y-110363000D02*
X139446000Y-112395000D01*
X141478000Y-104267000D02*
X141478000Y-110363000D01*
X142367000Y-103378000D02*
X141478000Y-104267000D01*
X142367000Y-95250000D02*
X142367000Y-103378000D01*
X143129000Y-94488000D02*
X142367000Y-95250000D01*
X144399000Y-91948000D02*
X143383000Y-91948000D01*
X143383000Y-91948000D02*
X141732000Y-93599000D01*
X141732000Y-93599000D02*
X141732000Y-102108000D01*
X141732000Y-102108000D02*
X139446000Y-104394000D01*
X139446000Y-104394000D02*
X139446000Y-108204000D01*
X139446000Y-101600000D02*
X139446000Y-97790000D01*
X142621000Y-89408000D02*
X144399000Y-89408000D01*
X141097000Y-90932000D02*
X142621000Y-89408000D01*
X141097000Y-96139000D02*
X141097000Y-90932000D01*
X139446000Y-97790000D02*
X141097000Y-96139000D01*
X139446000Y-94996000D02*
X139446000Y-91567000D01*
X142367000Y-86868000D02*
X144399000Y-86868000D01*
X141097000Y-88138000D02*
X142367000Y-86868000D01*
X141097000Y-89916000D02*
X141097000Y-88138000D01*
X139446000Y-91567000D02*
X141097000Y-89916000D01*
X139446000Y-88392000D02*
X139446000Y-85725000D01*
X140843000Y-84328000D02*
X144399000Y-84328000D01*
X139446000Y-85725000D02*
X140843000Y-84328000D01*
X139446000Y-81788000D02*
X144399000Y-81788000D01*
X130302000Y-104648000D02*
X129794000Y-104648000D01*
D26*
X131318000Y-140589000D02*
X131699000Y-140589000D01*
X131699000Y-140589000D02*
X132588000Y-139700000D01*
X132588000Y-139700000D02*
X132588000Y-131191000D01*
D27*
X146050000Y-126238000D02*
X147828000Y-126238000D01*
X155067000Y-118999000D02*
X156972000Y-118999000D01*
X147828000Y-126238000D02*
X155067000Y-118999000D01*
X146050000Y-132334000D02*
X146050000Y-131953000D01*
X146050000Y-131953000D02*
X144399000Y-130302000D01*
X144399000Y-130302000D02*
X144399000Y-127889000D01*
X144399000Y-127889000D02*
X146050000Y-126238000D01*
X146050000Y-128778000D02*
X150622000Y-128778000D01*
X150622000Y-128778000D02*
X150749000Y-128905000D01*
X152019000Y-89408000D02*
X148082000Y-89408000D01*
X147320000Y-90170000D02*
X147320000Y-90297000D01*
X148082000Y-89408000D02*
X147320000Y-90170000D01*
X149352000Y-108458000D02*
X149352000Y-103251000D01*
X148082000Y-86868000D02*
X152019000Y-86868000D01*
X147320000Y-87630000D02*
X148082000Y-86868000D01*
X147320000Y-101219000D02*
X147320000Y-90297000D01*
X147320000Y-90297000D02*
X147320000Y-87630000D01*
X149352000Y-103251000D02*
X147320000Y-101219000D01*
X149352000Y-110998000D02*
X147447000Y-109093000D01*
X148209000Y-84328000D02*
X152019000Y-84328000D01*
X146685000Y-85852000D02*
X148209000Y-84328000D01*
X146685000Y-102616000D02*
X146685000Y-85852000D01*
X145796000Y-103505000D02*
X146685000Y-102616000D01*
X145796000Y-105537000D02*
X145796000Y-103505000D01*
X147447000Y-107188000D02*
X145796000Y-105537000D01*
X147447000Y-109093000D02*
X147447000Y-107188000D01*
X149352000Y-110998000D02*
X146558000Y-110998000D01*
X146558000Y-110998000D02*
X146050000Y-110490000D01*
D28*
G36*
X153596010Y-76820048D02*
X153079589Y-78063728D01*
X153078772Y-78999904D01*
X151212434Y-77133566D01*
X151200867Y-77125837D01*
X150941541Y-76952561D01*
X150622000Y-76889000D01*
X135128000Y-76889000D01*
X134808459Y-76952561D01*
X134549133Y-77125837D01*
X134537566Y-77133566D01*
X132632566Y-79038566D01*
X132451561Y-79309459D01*
X132388000Y-79629000D01*
X132388000Y-85811560D01*
X130895000Y-85811560D01*
X130659683Y-85855838D01*
X130443559Y-85994910D01*
X130298569Y-86207110D01*
X130247560Y-86459000D01*
X130247560Y-88859000D01*
X130291838Y-89094317D01*
X130430910Y-89310441D01*
X130643110Y-89455431D01*
X130895000Y-89506440D01*
X132388000Y-89506440D01*
X132388000Y-98511560D01*
X130895000Y-98511560D01*
X130659683Y-98555838D01*
X130443559Y-98694910D01*
X130298569Y-98907110D01*
X130247560Y-99159000D01*
X130247560Y-101559000D01*
X130291838Y-101794317D01*
X130430910Y-102010441D01*
X130643110Y-102155431D01*
X130895000Y-102206440D01*
X132388000Y-102206440D01*
X132388000Y-106747708D01*
X132272541Y-106670561D01*
X131953000Y-106607000D01*
X129413000Y-106607000D01*
X129093460Y-106670560D01*
X128822566Y-106851566D01*
X128187566Y-107486566D01*
X128006561Y-107757459D01*
X127961316Y-107984921D01*
X127727946Y-108140853D01*
X127500298Y-108481553D01*
X127433183Y-108338642D01*
X127004924Y-107948355D01*
X126594890Y-107778524D01*
X126365000Y-107899845D01*
X126365000Y-109093000D01*
X126385000Y-109093000D01*
X126385000Y-109347000D01*
X126365000Y-109347000D01*
X126365000Y-110540155D01*
X126594890Y-110661476D01*
X127004924Y-110491645D01*
X127433183Y-110101358D01*
X127500298Y-109958447D01*
X127727946Y-110299147D01*
X128209715Y-110621054D01*
X128778000Y-110734093D01*
X129346285Y-110621054D01*
X129828054Y-110299147D01*
X130048000Y-109969974D01*
X130267946Y-110299147D01*
X130749715Y-110621054D01*
X131318000Y-110734093D01*
X131886285Y-110621054D01*
X132368054Y-110299147D01*
X132388000Y-110269296D01*
X132388000Y-112107704D01*
X132368054Y-112077853D01*
X131886285Y-111755946D01*
X131318000Y-111642907D01*
X130749715Y-111755946D01*
X130267946Y-112077853D01*
X130048000Y-112407026D01*
X129828054Y-112077853D01*
X129346285Y-111755946D01*
X128778000Y-111642907D01*
X128209715Y-111755946D01*
X127727946Y-112077853D01*
X127500298Y-112418553D01*
X127433183Y-112275642D01*
X127004924Y-111885355D01*
X126594890Y-111715524D01*
X126365000Y-111836845D01*
X126365000Y-113030000D01*
X126385000Y-113030000D01*
X126385000Y-113284000D01*
X126365000Y-113284000D01*
X126365000Y-114477155D01*
X126594890Y-114598476D01*
X127004924Y-114428645D01*
X127433183Y-114038358D01*
X127500298Y-113895447D01*
X127727946Y-114236147D01*
X128209715Y-114558054D01*
X128778000Y-114671093D01*
X129346285Y-114558054D01*
X129828054Y-114236147D01*
X130048000Y-113906974D01*
X130267946Y-114236147D01*
X130749715Y-114558054D01*
X131318000Y-114671093D01*
X131886285Y-114558054D01*
X132368054Y-114236147D01*
X132388000Y-114206296D01*
X132388000Y-115605132D01*
X131616566Y-116376566D01*
X131577147Y-116435560D01*
X131307000Y-116435560D01*
X131071683Y-116479838D01*
X130855559Y-116618910D01*
X130710569Y-116831110D01*
X130659560Y-117083000D01*
X130659560Y-118883000D01*
X130703838Y-119118317D01*
X130842910Y-119334441D01*
X131055110Y-119479431D01*
X131307000Y-119530440D01*
X131372000Y-119530440D01*
X131372000Y-120396000D01*
X131435561Y-120715541D01*
X131616566Y-120986434D01*
X134166000Y-123535868D01*
X134166000Y-128793560D01*
X130838000Y-128793560D01*
X130602683Y-128837838D01*
X130386559Y-128976910D01*
X130241569Y-129189110D01*
X130190560Y-129441000D01*
X130190560Y-132941000D01*
X130234838Y-133176317D01*
X130373910Y-133392441D01*
X130540109Y-133506000D01*
X129873750Y-133506000D01*
X129715000Y-133664750D01*
X129715000Y-135764000D01*
X129735000Y-135764000D01*
X129735000Y-136018000D01*
X129715000Y-136018000D01*
X129715000Y-138117250D01*
X129873750Y-138276000D01*
X131464309Y-138276000D01*
X131697698Y-138179327D01*
X131753000Y-138124025D01*
X131753000Y-139091560D01*
X130468000Y-139091560D01*
X130232683Y-139135838D01*
X130016559Y-139274910D01*
X129871569Y-139487110D01*
X129857914Y-139554541D01*
X129828054Y-139509853D01*
X129346285Y-139187946D01*
X128778000Y-139074907D01*
X128209715Y-139187946D01*
X127727946Y-139509853D01*
X127406039Y-139991622D01*
X127293000Y-140559907D01*
X127293000Y-140618093D01*
X127406039Y-141186378D01*
X127727946Y-141668147D01*
X127943000Y-141811841D01*
X127943000Y-143510000D01*
X128006561Y-143829541D01*
X128168567Y-144072000D01*
X128187566Y-144100434D01*
X129584566Y-145497434D01*
X129855459Y-145678439D01*
X130175000Y-145742000D01*
X144653000Y-145742000D01*
X144972541Y-145678439D01*
X145243434Y-145497434D01*
X146953428Y-143787440D01*
X148220000Y-143787440D01*
X148455317Y-143743162D01*
X148671441Y-143604090D01*
X148816431Y-143391890D01*
X148867440Y-143140000D01*
X148867440Y-141340000D01*
X148823162Y-141104683D01*
X148684090Y-140888559D01*
X148471890Y-140743569D01*
X148420854Y-140733234D01*
X148557966Y-140607576D01*
X148811046Y-140064742D01*
X148690997Y-139827000D01*
X147447000Y-139827000D01*
X147447000Y-139847000D01*
X147193000Y-139847000D01*
X147193000Y-139827000D01*
X145949003Y-139827000D01*
X145828954Y-140064742D01*
X146082034Y-140607576D01*
X146216538Y-140730844D01*
X146184683Y-140736838D01*
X145968559Y-140875910D01*
X145823569Y-141088110D01*
X145772560Y-141340000D01*
X145772560Y-142606572D01*
X144307132Y-144072000D01*
X140953868Y-144072000D01*
X143465434Y-141560434D01*
X143646440Y-141289540D01*
X143710000Y-140970000D01*
X143710000Y-139029868D01*
X144744868Y-137995000D01*
X146047180Y-137995000D01*
X146234591Y-138275481D01*
X146472582Y-138434501D01*
X146082034Y-138792424D01*
X145828954Y-139335258D01*
X145949003Y-139573000D01*
X147193000Y-139573000D01*
X147193000Y-139553000D01*
X147447000Y-139553000D01*
X147447000Y-139573000D01*
X148690997Y-139573000D01*
X148811046Y-139335258D01*
X148759059Y-139223750D01*
X151881000Y-139223750D01*
X151881000Y-139964309D01*
X151977673Y-140197698D01*
X152156301Y-140376327D01*
X152389690Y-140473000D01*
X153130250Y-140473000D01*
X153289000Y-140314250D01*
X153289000Y-139065000D01*
X153543000Y-139065000D01*
X153543000Y-140314250D01*
X153701750Y-140473000D01*
X154442310Y-140473000D01*
X154675699Y-140376327D01*
X154854327Y-140197698D01*
X154951000Y-139964309D01*
X154951000Y-139223750D01*
X154792250Y-139065000D01*
X153543000Y-139065000D01*
X153289000Y-139065000D01*
X152039750Y-139065000D01*
X151881000Y-139223750D01*
X148759059Y-139223750D01*
X148557966Y-138792424D01*
X148167418Y-138434501D01*
X148405409Y-138275481D01*
X148738155Y-137777491D01*
X148850598Y-137212204D01*
X151921401Y-134141401D01*
X152086148Y-133894840D01*
X152095746Y-133846586D01*
X152144000Y-133604000D01*
X152144000Y-133537667D01*
X152426811Y-133348698D01*
X152651592Y-133012290D01*
X152656000Y-133022959D01*
X152656000Y-135051154D01*
X152547629Y-135095932D01*
X152115449Y-135527357D01*
X151881267Y-136091330D01*
X151880735Y-136701991D01*
X152113932Y-137266371D01*
X152291092Y-137443841D01*
X152156301Y-137499673D01*
X151977673Y-137678302D01*
X151881000Y-137911691D01*
X151881000Y-138652250D01*
X152039750Y-138811000D01*
X153289000Y-138811000D01*
X153289000Y-138791000D01*
X153543000Y-138791000D01*
X153543000Y-138811000D01*
X154792250Y-138811000D01*
X154951000Y-138652250D01*
X154951000Y-137911691D01*
X154854327Y-137678302D01*
X154675699Y-137499673D01*
X154541006Y-137443881D01*
X154716551Y-137268643D01*
X154950733Y-136704670D01*
X154951265Y-136094009D01*
X154718068Y-135529629D01*
X154286643Y-135097449D01*
X154176000Y-135051506D01*
X154176000Y-133769220D01*
X154208187Y-133769248D01*
X154735800Y-133551243D01*
X155139824Y-133147923D01*
X155358750Y-132620691D01*
X155359248Y-132049813D01*
X155141243Y-131522200D01*
X154737923Y-131118176D01*
X154210691Y-130899250D01*
X153639813Y-130898752D01*
X153112200Y-131116757D01*
X152708176Y-131520077D01*
X152651755Y-131655954D01*
X152426811Y-131319302D01*
X151961264Y-131008233D01*
X151412113Y-130899000D01*
X151355887Y-130899000D01*
X150806736Y-131008233D01*
X150341189Y-131319302D01*
X150030120Y-131784849D01*
X149946149Y-132206998D01*
X149859916Y-132206998D01*
X149981904Y-131984961D01*
X149821041Y-131596577D01*
X149445134Y-131181611D01*
X148939041Y-130942086D01*
X148717000Y-131063371D01*
X148717000Y-132207000D01*
X148737000Y-132207000D01*
X148737000Y-132461000D01*
X148717000Y-132461000D01*
X148717000Y-133604629D01*
X148939041Y-133725914D01*
X149445134Y-133486389D01*
X149821041Y-133071423D01*
X149981904Y-132683039D01*
X149859916Y-132461002D01*
X149946149Y-132461002D01*
X150030120Y-132883151D01*
X150341189Y-133348698D01*
X150475054Y-133438144D01*
X148083663Y-135829535D01*
X147907419Y-135711773D01*
X147320000Y-135594928D01*
X146732581Y-135711773D01*
X146234591Y-136044519D01*
X146047180Y-136325000D01*
X144399000Y-136325000D01*
X144270000Y-136350660D01*
X144270000Y-131247802D01*
X144748531Y-131726333D01*
X144615250Y-132047309D01*
X144614752Y-132618187D01*
X144832757Y-133145800D01*
X145236077Y-133549824D01*
X145763309Y-133768750D01*
X146334187Y-133769248D01*
X146861800Y-133551243D01*
X147265824Y-133147923D01*
X147328313Y-132997432D01*
X147358959Y-133071423D01*
X147734866Y-133486389D01*
X148240959Y-133725914D01*
X148463000Y-133604629D01*
X148463000Y-132461000D01*
X148443000Y-132461000D01*
X148443000Y-132207000D01*
X148463000Y-132207000D01*
X148463000Y-131063371D01*
X148240959Y-130942086D01*
X147734866Y-131181611D01*
X147358959Y-131596577D01*
X147328430Y-131670285D01*
X147267243Y-131522200D01*
X146863923Y-131118176D01*
X146336691Y-130899250D01*
X146070820Y-130899018D01*
X145159000Y-129987198D01*
X145159000Y-129916612D01*
X145236077Y-129993824D01*
X145763309Y-130212750D01*
X146334187Y-130213248D01*
X146861800Y-129995243D01*
X147265824Y-129591923D01*
X147288215Y-129538000D01*
X149057537Y-129538000D01*
X149217903Y-129926115D01*
X149725215Y-130434312D01*
X150388388Y-130709686D01*
X151106462Y-130710313D01*
X151770115Y-130436097D01*
X152278312Y-129928785D01*
X152553686Y-129265612D01*
X152554313Y-128547538D01*
X152316615Y-127972265D01*
X152888388Y-128209686D01*
X153606462Y-128210313D01*
X154181735Y-127972615D01*
X153944314Y-128544388D01*
X153943687Y-129262462D01*
X154217903Y-129926115D01*
X154725215Y-130434312D01*
X155388388Y-130709686D01*
X156106462Y-130710313D01*
X156770115Y-130436097D01*
X157278312Y-129928785D01*
X157553686Y-129265612D01*
X157554313Y-128547538D01*
X157280097Y-127883885D01*
X156772785Y-127375688D01*
X156109612Y-127100314D01*
X155391538Y-127099687D01*
X154816265Y-127337385D01*
X155053686Y-126765612D01*
X155054313Y-126047538D01*
X154780097Y-125383885D01*
X154272785Y-124875688D01*
X154009000Y-124766155D01*
X154009000Y-123417802D01*
X155124560Y-122302242D01*
X155124560Y-122339000D01*
X155168838Y-122574317D01*
X155307910Y-122790441D01*
X155520110Y-122935431D01*
X155772000Y-122986440D01*
X158172000Y-122986440D01*
X158407317Y-122942162D01*
X158623441Y-122803090D01*
X158768431Y-122590890D01*
X158819440Y-122339000D01*
X158819440Y-122134506D01*
X158906401Y-122076401D01*
X159258000Y-121724802D01*
X159258000Y-142022615D01*
X159081337Y-141595057D01*
X158129952Y-140642010D01*
X156886272Y-140125589D01*
X155539636Y-140124414D01*
X154295057Y-140638663D01*
X153342010Y-141590048D01*
X152825589Y-142833728D01*
X152824414Y-144180364D01*
X153338663Y-145424943D01*
X154290048Y-146377990D01*
X154723560Y-146558000D01*
X123153385Y-146558000D01*
X123580943Y-146381337D01*
X124533990Y-145429952D01*
X125050411Y-144186272D01*
X125051586Y-142839636D01*
X124537337Y-141595057D01*
X123585952Y-140642010D01*
X122342272Y-140125589D01*
X120995636Y-140124414D01*
X119751057Y-140638663D01*
X118798010Y-141590048D01*
X118618000Y-142023560D01*
X118618000Y-136176750D01*
X127203000Y-136176750D01*
X127203000Y-137767310D01*
X127299673Y-138000699D01*
X127478302Y-138179327D01*
X127711691Y-138276000D01*
X129302250Y-138276000D01*
X129461000Y-138117250D01*
X129461000Y-136018000D01*
X127361750Y-136018000D01*
X127203000Y-136176750D01*
X118618000Y-136176750D01*
X118618000Y-131476750D01*
X124203000Y-131476750D01*
X124203000Y-133067310D01*
X124299673Y-133300699D01*
X124478302Y-133479327D01*
X124711691Y-133576000D01*
X126302250Y-133576000D01*
X126461000Y-133417250D01*
X126461000Y-131318000D01*
X126715000Y-131318000D01*
X126715000Y-133417250D01*
X126873750Y-133576000D01*
X127542696Y-133576000D01*
X127478302Y-133602673D01*
X127299673Y-133781301D01*
X127203000Y-134014690D01*
X127203000Y-135605250D01*
X127361750Y-135764000D01*
X129461000Y-135764000D01*
X129461000Y-133664750D01*
X129302250Y-133506000D01*
X128633304Y-133506000D01*
X128697698Y-133479327D01*
X128876327Y-133300699D01*
X128973000Y-133067310D01*
X128973000Y-131476750D01*
X128814250Y-131318000D01*
X126715000Y-131318000D01*
X126461000Y-131318000D01*
X124361750Y-131318000D01*
X124203000Y-131476750D01*
X118618000Y-131476750D01*
X118618000Y-129314690D01*
X124203000Y-129314690D01*
X124203000Y-130905250D01*
X124361750Y-131064000D01*
X126461000Y-131064000D01*
X126461000Y-128964750D01*
X126715000Y-128964750D01*
X126715000Y-131064000D01*
X128814250Y-131064000D01*
X128973000Y-130905250D01*
X128973000Y-129314690D01*
X128876327Y-129081301D01*
X128697698Y-128902673D01*
X128464309Y-128806000D01*
X126873750Y-128806000D01*
X126715000Y-128964750D01*
X126461000Y-128964750D01*
X126302250Y-128806000D01*
X124711691Y-128806000D01*
X124478302Y-128902673D01*
X124299673Y-129081301D01*
X124203000Y-129314690D01*
X118618000Y-129314690D01*
X118618000Y-117983000D01*
X120481928Y-117983000D01*
X120598773Y-118570419D01*
X120931519Y-119068409D01*
X121429509Y-119401155D01*
X122016928Y-119518000D01*
X122077072Y-119518000D01*
X122664491Y-119401155D01*
X123162481Y-119068409D01*
X123495227Y-118570419D01*
X123612072Y-117983000D01*
X123495227Y-117395581D01*
X123162481Y-116897591D01*
X122664491Y-116564845D01*
X122077072Y-116448000D01*
X122016928Y-116448000D01*
X121429509Y-116564845D01*
X120931519Y-116897591D01*
X120598773Y-117395581D01*
X120481928Y-117983000D01*
X118618000Y-117983000D01*
X118618000Y-112307000D01*
X122200560Y-112307000D01*
X122200560Y-114007000D01*
X122244838Y-114242317D01*
X122383910Y-114458441D01*
X122596110Y-114603431D01*
X122848000Y-114654440D01*
X124548000Y-114654440D01*
X124783317Y-114610162D01*
X124999441Y-114471090D01*
X125144431Y-114258890D01*
X125166301Y-114150893D01*
X125471076Y-114428645D01*
X125881110Y-114598476D01*
X126111000Y-114477155D01*
X126111000Y-113284000D01*
X126091000Y-113284000D01*
X126091000Y-113030000D01*
X126111000Y-113030000D01*
X126111000Y-111836845D01*
X125881110Y-111715524D01*
X125471076Y-111885355D01*
X125168063Y-112161501D01*
X125151162Y-112071683D01*
X125012090Y-111855559D01*
X124799890Y-111710569D01*
X124548000Y-111659560D01*
X122848000Y-111659560D01*
X122612683Y-111703838D01*
X122396559Y-111842910D01*
X122251569Y-112055110D01*
X122200560Y-112307000D01*
X118618000Y-112307000D01*
X118618000Y-108370000D01*
X122200560Y-108370000D01*
X122200560Y-110070000D01*
X122244838Y-110305317D01*
X122383910Y-110521441D01*
X122596110Y-110666431D01*
X122848000Y-110717440D01*
X124548000Y-110717440D01*
X124783317Y-110673162D01*
X124999441Y-110534090D01*
X125144431Y-110321890D01*
X125166301Y-110213893D01*
X125471076Y-110491645D01*
X125881110Y-110661476D01*
X126111000Y-110540155D01*
X126111000Y-109347000D01*
X126091000Y-109347000D01*
X126091000Y-109093000D01*
X126111000Y-109093000D01*
X126111000Y-107899845D01*
X125881110Y-107778524D01*
X125471076Y-107948355D01*
X125168063Y-108224501D01*
X125151162Y-108134683D01*
X125012090Y-107918559D01*
X124799890Y-107773569D01*
X124548000Y-107722560D01*
X122848000Y-107722560D01*
X122612683Y-107766838D01*
X122396559Y-107905910D01*
X122251569Y-108118110D01*
X122200560Y-108370000D01*
X118618000Y-108370000D01*
X118618000Y-104618907D01*
X123229000Y-104618907D01*
X123229000Y-104677093D01*
X123342039Y-105245378D01*
X123663946Y-105727147D01*
X124145715Y-106049054D01*
X124714000Y-106162093D01*
X125282285Y-106049054D01*
X125764054Y-105727147D01*
X125984000Y-105397974D01*
X126203946Y-105727147D01*
X126685715Y-106049054D01*
X127254000Y-106162093D01*
X127822285Y-106049054D01*
X128304054Y-105727147D01*
X128331850Y-105685548D01*
X128340838Y-105733317D01*
X128479910Y-105949441D01*
X128692110Y-106094431D01*
X128944000Y-106145440D01*
X130644000Y-106145440D01*
X130879317Y-106101162D01*
X131095441Y-105962090D01*
X131240431Y-105749890D01*
X131291440Y-105498000D01*
X131291440Y-103798000D01*
X131247162Y-103562683D01*
X131108090Y-103346559D01*
X130895890Y-103201569D01*
X130644000Y-103150560D01*
X128944000Y-103150560D01*
X128708683Y-103194838D01*
X128492559Y-103333910D01*
X128347569Y-103546110D01*
X128333914Y-103613541D01*
X128304054Y-103568853D01*
X127822285Y-103246946D01*
X127254000Y-103133907D01*
X126685715Y-103246946D01*
X126203946Y-103568853D01*
X125984000Y-103898026D01*
X125764054Y-103568853D01*
X125282285Y-103246946D01*
X124714000Y-103133907D01*
X124145715Y-103246946D01*
X123663946Y-103568853D01*
X123342039Y-104050622D01*
X123229000Y-104618907D01*
X118618000Y-104618907D01*
X118618000Y-100009000D01*
X122797560Y-100009000D01*
X122797560Y-101709000D01*
X122841838Y-101944317D01*
X122980910Y-102160441D01*
X123193110Y-102305431D01*
X123445000Y-102356440D01*
X125845000Y-102356440D01*
X126080317Y-102312162D01*
X126296441Y-102173090D01*
X126441431Y-101960890D01*
X126492440Y-101709000D01*
X126492440Y-100009000D01*
X126448162Y-99773683D01*
X126309090Y-99557559D01*
X126096890Y-99412569D01*
X125845000Y-99361560D01*
X123445000Y-99361560D01*
X123209683Y-99405838D01*
X122993559Y-99544910D01*
X122848569Y-99757110D01*
X122797560Y-100009000D01*
X118618000Y-100009000D01*
X118618000Y-96544750D01*
X118960000Y-96544750D01*
X118960000Y-97585310D01*
X119056673Y-97818699D01*
X119235302Y-97997327D01*
X119468691Y-98094000D01*
X120159250Y-98094000D01*
X120318000Y-97935250D01*
X120318000Y-96386000D01*
X120572000Y-96386000D01*
X120572000Y-97935250D01*
X120730750Y-98094000D01*
X121421309Y-98094000D01*
X121654698Y-97997327D01*
X121833327Y-97818699D01*
X121930000Y-97585310D01*
X121930000Y-96544750D01*
X121771250Y-96386000D01*
X120572000Y-96386000D01*
X120318000Y-96386000D01*
X119118750Y-96386000D01*
X118960000Y-96544750D01*
X118618000Y-96544750D01*
X118618000Y-94932690D01*
X118960000Y-94932690D01*
X118960000Y-95973250D01*
X119118750Y-96132000D01*
X120318000Y-96132000D01*
X120318000Y-94582750D01*
X120572000Y-94582750D01*
X120572000Y-96132000D01*
X121771250Y-96132000D01*
X121930000Y-95973250D01*
X121930000Y-94932690D01*
X121833327Y-94699301D01*
X121654698Y-94520673D01*
X121421309Y-94424000D01*
X120730750Y-94424000D01*
X120572000Y-94582750D01*
X120318000Y-94582750D01*
X120159250Y-94424000D01*
X119468691Y-94424000D01*
X119235302Y-94520673D01*
X119056673Y-94699301D01*
X118960000Y-94932690D01*
X118618000Y-94932690D01*
X118618000Y-92809000D01*
X125497560Y-92809000D01*
X125497560Y-94509000D01*
X125541838Y-94744317D01*
X125680910Y-94960441D01*
X125893110Y-95105431D01*
X126145000Y-95156440D01*
X128545000Y-95156440D01*
X128780317Y-95112162D01*
X128996441Y-94973090D01*
X129141431Y-94760890D01*
X129192440Y-94509000D01*
X129192440Y-92809000D01*
X129148162Y-92573683D01*
X129137066Y-92556440D01*
X129545000Y-92556440D01*
X129780317Y-92512162D01*
X129996441Y-92373090D01*
X130141431Y-92160890D01*
X130192440Y-91909000D01*
X130192440Y-90209000D01*
X130148162Y-89973683D01*
X130009090Y-89757559D01*
X129796890Y-89612569D01*
X129545000Y-89561560D01*
X127145000Y-89561560D01*
X126909683Y-89605838D01*
X126693559Y-89744910D01*
X126548569Y-89957110D01*
X126497560Y-90209000D01*
X126497560Y-91909000D01*
X126541838Y-92144317D01*
X126552934Y-92161560D01*
X126145000Y-92161560D01*
X125909683Y-92205838D01*
X125693559Y-92344910D01*
X125548569Y-92557110D01*
X125497560Y-92809000D01*
X118618000Y-92809000D01*
X118618000Y-87309000D01*
X122797560Y-87309000D01*
X122797560Y-89009000D01*
X122841838Y-89244317D01*
X122980910Y-89460441D01*
X123193110Y-89605431D01*
X123445000Y-89656440D01*
X125845000Y-89656440D01*
X126080317Y-89612162D01*
X126296441Y-89473090D01*
X126441431Y-89260890D01*
X126492440Y-89009000D01*
X126492440Y-87309000D01*
X126448162Y-87073683D01*
X126309090Y-86857559D01*
X126096890Y-86712569D01*
X125845000Y-86661560D01*
X123445000Y-86661560D01*
X123209683Y-86705838D01*
X122993559Y-86844910D01*
X122848569Y-87057110D01*
X122797560Y-87309000D01*
X118618000Y-87309000D01*
X118618000Y-83844750D01*
X118960000Y-83844750D01*
X118960000Y-84885310D01*
X119056673Y-85118699D01*
X119235302Y-85297327D01*
X119468691Y-85394000D01*
X120159250Y-85394000D01*
X120318000Y-85235250D01*
X120318000Y-83686000D01*
X120572000Y-83686000D01*
X120572000Y-85235250D01*
X120730750Y-85394000D01*
X121421309Y-85394000D01*
X121654698Y-85297327D01*
X121833327Y-85118699D01*
X121930000Y-84885310D01*
X121930000Y-83844750D01*
X121771250Y-83686000D01*
X120572000Y-83686000D01*
X120318000Y-83686000D01*
X119118750Y-83686000D01*
X118960000Y-83844750D01*
X118618000Y-83844750D01*
X118618000Y-82232690D01*
X118960000Y-82232690D01*
X118960000Y-83273250D01*
X119118750Y-83432000D01*
X120318000Y-83432000D01*
X120318000Y-81882750D01*
X120572000Y-81882750D01*
X120572000Y-83432000D01*
X121771250Y-83432000D01*
X121930000Y-83273250D01*
X121930000Y-82232690D01*
X121833327Y-81999301D01*
X121654698Y-81820673D01*
X121421309Y-81724000D01*
X120730750Y-81724000D01*
X120572000Y-81882750D01*
X120318000Y-81882750D01*
X120159250Y-81724000D01*
X119468691Y-81724000D01*
X119235302Y-81820673D01*
X119056673Y-81999301D01*
X118960000Y-82232690D01*
X118618000Y-82232690D01*
X118618000Y-80109000D01*
X125497560Y-80109000D01*
X125497560Y-81809000D01*
X125541838Y-82044317D01*
X125680910Y-82260441D01*
X125893110Y-82405431D01*
X126145000Y-82456440D01*
X128545000Y-82456440D01*
X128780317Y-82412162D01*
X128996441Y-82273090D01*
X129141431Y-82060890D01*
X129192440Y-81809000D01*
X129192440Y-80109000D01*
X129148162Y-79873683D01*
X129137066Y-79856440D01*
X129545000Y-79856440D01*
X129780317Y-79812162D01*
X129996441Y-79673090D01*
X130141431Y-79460890D01*
X130192440Y-79209000D01*
X130192440Y-77509000D01*
X130148162Y-77273683D01*
X130009090Y-77057559D01*
X129796890Y-76912569D01*
X129545000Y-76861560D01*
X127145000Y-76861560D01*
X126909683Y-76905838D01*
X126693559Y-77044910D01*
X126548569Y-77257110D01*
X126497560Y-77509000D01*
X126497560Y-79209000D01*
X126541838Y-79444317D01*
X126552934Y-79461560D01*
X126145000Y-79461560D01*
X125909683Y-79505838D01*
X125693559Y-79644910D01*
X125548569Y-79857110D01*
X125497560Y-80109000D01*
X118618000Y-80109000D01*
X118618000Y-76205227D01*
X118721832Y-76049832D01*
X118877227Y-75946000D01*
X154471585Y-75946000D01*
X153596010Y-76820048D01*
X153596010Y-76820048D01*
G37*
X153596010Y-76820048D02*
X153079589Y-78063728D01*
X153078772Y-78999904D01*
X151212434Y-77133566D01*
X151200867Y-77125837D01*
X150941541Y-76952561D01*
X150622000Y-76889000D01*
X135128000Y-76889000D01*
X134808459Y-76952561D01*
X134549133Y-77125837D01*
X134537566Y-77133566D01*
X132632566Y-79038566D01*
X132451561Y-79309459D01*
X132388000Y-79629000D01*
X132388000Y-85811560D01*
X130895000Y-85811560D01*
X130659683Y-85855838D01*
X130443559Y-85994910D01*
X130298569Y-86207110D01*
X130247560Y-86459000D01*
X130247560Y-88859000D01*
X130291838Y-89094317D01*
X130430910Y-89310441D01*
X130643110Y-89455431D01*
X130895000Y-89506440D01*
X132388000Y-89506440D01*
X132388000Y-98511560D01*
X130895000Y-98511560D01*
X130659683Y-98555838D01*
X130443559Y-98694910D01*
X130298569Y-98907110D01*
X130247560Y-99159000D01*
X130247560Y-101559000D01*
X130291838Y-101794317D01*
X130430910Y-102010441D01*
X130643110Y-102155431D01*
X130895000Y-102206440D01*
X132388000Y-102206440D01*
X132388000Y-106747708D01*
X132272541Y-106670561D01*
X131953000Y-106607000D01*
X129413000Y-106607000D01*
X129093460Y-106670560D01*
X128822566Y-106851566D01*
X128187566Y-107486566D01*
X128006561Y-107757459D01*
X127961316Y-107984921D01*
X127727946Y-108140853D01*
X127500298Y-108481553D01*
X127433183Y-108338642D01*
X127004924Y-107948355D01*
X126594890Y-107778524D01*
X126365000Y-107899845D01*
X126365000Y-109093000D01*
X126385000Y-109093000D01*
X126385000Y-109347000D01*
X126365000Y-109347000D01*
X126365000Y-110540155D01*
X126594890Y-110661476D01*
X127004924Y-110491645D01*
X127433183Y-110101358D01*
X127500298Y-109958447D01*
X127727946Y-110299147D01*
X128209715Y-110621054D01*
X128778000Y-110734093D01*
X129346285Y-110621054D01*
X129828054Y-110299147D01*
X130048000Y-109969974D01*
X130267946Y-110299147D01*
X130749715Y-110621054D01*
X131318000Y-110734093D01*
X131886285Y-110621054D01*
X132368054Y-110299147D01*
X132388000Y-110269296D01*
X132388000Y-112107704D01*
X132368054Y-112077853D01*
X131886285Y-111755946D01*
X131318000Y-111642907D01*
X130749715Y-111755946D01*
X130267946Y-112077853D01*
X130048000Y-112407026D01*
X129828054Y-112077853D01*
X129346285Y-111755946D01*
X128778000Y-111642907D01*
X128209715Y-111755946D01*
X127727946Y-112077853D01*
X127500298Y-112418553D01*
X127433183Y-112275642D01*
X127004924Y-111885355D01*
X126594890Y-111715524D01*
X126365000Y-111836845D01*
X126365000Y-113030000D01*
X126385000Y-113030000D01*
X126385000Y-113284000D01*
X126365000Y-113284000D01*
X126365000Y-114477155D01*
X126594890Y-114598476D01*
X127004924Y-114428645D01*
X127433183Y-114038358D01*
X127500298Y-113895447D01*
X127727946Y-114236147D01*
X128209715Y-114558054D01*
X128778000Y-114671093D01*
X129346285Y-114558054D01*
X129828054Y-114236147D01*
X130048000Y-113906974D01*
X130267946Y-114236147D01*
X130749715Y-114558054D01*
X131318000Y-114671093D01*
X131886285Y-114558054D01*
X132368054Y-114236147D01*
X132388000Y-114206296D01*
X132388000Y-115605132D01*
X131616566Y-116376566D01*
X131577147Y-116435560D01*
X131307000Y-116435560D01*
X131071683Y-116479838D01*
X130855559Y-116618910D01*
X130710569Y-116831110D01*
X130659560Y-117083000D01*
X130659560Y-118883000D01*
X130703838Y-119118317D01*
X130842910Y-119334441D01*
X131055110Y-119479431D01*
X131307000Y-119530440D01*
X131372000Y-119530440D01*
X131372000Y-120396000D01*
X131435561Y-120715541D01*
X131616566Y-120986434D01*
X134166000Y-123535868D01*
X134166000Y-128793560D01*
X130838000Y-128793560D01*
X130602683Y-128837838D01*
X130386559Y-128976910D01*
X130241569Y-129189110D01*
X130190560Y-129441000D01*
X130190560Y-132941000D01*
X130234838Y-133176317D01*
X130373910Y-133392441D01*
X130540109Y-133506000D01*
X129873750Y-133506000D01*
X129715000Y-133664750D01*
X129715000Y-135764000D01*
X129735000Y-135764000D01*
X129735000Y-136018000D01*
X129715000Y-136018000D01*
X129715000Y-138117250D01*
X129873750Y-138276000D01*
X131464309Y-138276000D01*
X131697698Y-138179327D01*
X131753000Y-138124025D01*
X131753000Y-139091560D01*
X130468000Y-139091560D01*
X130232683Y-139135838D01*
X130016559Y-139274910D01*
X129871569Y-139487110D01*
X129857914Y-139554541D01*
X129828054Y-139509853D01*
X129346285Y-139187946D01*
X128778000Y-139074907D01*
X128209715Y-139187946D01*
X127727946Y-139509853D01*
X127406039Y-139991622D01*
X127293000Y-140559907D01*
X127293000Y-140618093D01*
X127406039Y-141186378D01*
X127727946Y-141668147D01*
X127943000Y-141811841D01*
X127943000Y-143510000D01*
X128006561Y-143829541D01*
X128168567Y-144072000D01*
X128187566Y-144100434D01*
X129584566Y-145497434D01*
X129855459Y-145678439D01*
X130175000Y-145742000D01*
X144653000Y-145742000D01*
X144972541Y-145678439D01*
X145243434Y-145497434D01*
X146953428Y-143787440D01*
X148220000Y-143787440D01*
X148455317Y-143743162D01*
X148671441Y-143604090D01*
X148816431Y-143391890D01*
X148867440Y-143140000D01*
X148867440Y-141340000D01*
X148823162Y-141104683D01*
X148684090Y-140888559D01*
X148471890Y-140743569D01*
X148420854Y-140733234D01*
X148557966Y-140607576D01*
X148811046Y-140064742D01*
X148690997Y-139827000D01*
X147447000Y-139827000D01*
X147447000Y-139847000D01*
X147193000Y-139847000D01*
X147193000Y-139827000D01*
X145949003Y-139827000D01*
X145828954Y-140064742D01*
X146082034Y-140607576D01*
X146216538Y-140730844D01*
X146184683Y-140736838D01*
X145968559Y-140875910D01*
X145823569Y-141088110D01*
X145772560Y-141340000D01*
X145772560Y-142606572D01*
X144307132Y-144072000D01*
X140953868Y-144072000D01*
X143465434Y-141560434D01*
X143646440Y-141289540D01*
X143710000Y-140970000D01*
X143710000Y-139029868D01*
X144744868Y-137995000D01*
X146047180Y-137995000D01*
X146234591Y-138275481D01*
X146472582Y-138434501D01*
X146082034Y-138792424D01*
X145828954Y-139335258D01*
X145949003Y-139573000D01*
X147193000Y-139573000D01*
X147193000Y-139553000D01*
X147447000Y-139553000D01*
X147447000Y-139573000D01*
X148690997Y-139573000D01*
X148811046Y-139335258D01*
X148759059Y-139223750D01*
X151881000Y-139223750D01*
X151881000Y-139964309D01*
X151977673Y-140197698D01*
X152156301Y-140376327D01*
X152389690Y-140473000D01*
X153130250Y-140473000D01*
X153289000Y-140314250D01*
X153289000Y-139065000D01*
X153543000Y-139065000D01*
X153543000Y-140314250D01*
X153701750Y-140473000D01*
X154442310Y-140473000D01*
X154675699Y-140376327D01*
X154854327Y-140197698D01*
X154951000Y-139964309D01*
X154951000Y-139223750D01*
X154792250Y-139065000D01*
X153543000Y-139065000D01*
X153289000Y-139065000D01*
X152039750Y-139065000D01*
X151881000Y-139223750D01*
X148759059Y-139223750D01*
X148557966Y-138792424D01*
X148167418Y-138434501D01*
X148405409Y-138275481D01*
X148738155Y-137777491D01*
X148850598Y-137212204D01*
X151921401Y-134141401D01*
X152086148Y-133894840D01*
X152095746Y-133846586D01*
X152144000Y-133604000D01*
X152144000Y-133537667D01*
X152426811Y-133348698D01*
X152651592Y-133012290D01*
X152656000Y-133022959D01*
X152656000Y-135051154D01*
X152547629Y-135095932D01*
X152115449Y-135527357D01*
X151881267Y-136091330D01*
X151880735Y-136701991D01*
X152113932Y-137266371D01*
X152291092Y-137443841D01*
X152156301Y-137499673D01*
X151977673Y-137678302D01*
X151881000Y-137911691D01*
X151881000Y-138652250D01*
X152039750Y-138811000D01*
X153289000Y-138811000D01*
X153289000Y-138791000D01*
X153543000Y-138791000D01*
X153543000Y-138811000D01*
X154792250Y-138811000D01*
X154951000Y-138652250D01*
X154951000Y-137911691D01*
X154854327Y-137678302D01*
X154675699Y-137499673D01*
X154541006Y-137443881D01*
X154716551Y-137268643D01*
X154950733Y-136704670D01*
X154951265Y-136094009D01*
X154718068Y-135529629D01*
X154286643Y-135097449D01*
X154176000Y-135051506D01*
X154176000Y-133769220D01*
X154208187Y-133769248D01*
X154735800Y-133551243D01*
X155139824Y-133147923D01*
X155358750Y-132620691D01*
X155359248Y-132049813D01*
X155141243Y-131522200D01*
X154737923Y-131118176D01*
X154210691Y-130899250D01*
X153639813Y-130898752D01*
X153112200Y-131116757D01*
X152708176Y-131520077D01*
X152651755Y-131655954D01*
X152426811Y-131319302D01*
X151961264Y-131008233D01*
X151412113Y-130899000D01*
X151355887Y-130899000D01*
X150806736Y-131008233D01*
X150341189Y-131319302D01*
X150030120Y-131784849D01*
X149946149Y-132206998D01*
X149859916Y-132206998D01*
X149981904Y-131984961D01*
X149821041Y-131596577D01*
X149445134Y-131181611D01*
X148939041Y-130942086D01*
X148717000Y-131063371D01*
X148717000Y-132207000D01*
X148737000Y-132207000D01*
X148737000Y-132461000D01*
X148717000Y-132461000D01*
X148717000Y-133604629D01*
X148939041Y-133725914D01*
X149445134Y-133486389D01*
X149821041Y-133071423D01*
X149981904Y-132683039D01*
X149859916Y-132461002D01*
X149946149Y-132461002D01*
X150030120Y-132883151D01*
X150341189Y-133348698D01*
X150475054Y-133438144D01*
X148083663Y-135829535D01*
X147907419Y-135711773D01*
X147320000Y-135594928D01*
X146732581Y-135711773D01*
X146234591Y-136044519D01*
X146047180Y-136325000D01*
X144399000Y-136325000D01*
X144270000Y-136350660D01*
X144270000Y-131247802D01*
X144748531Y-131726333D01*
X144615250Y-132047309D01*
X144614752Y-132618187D01*
X144832757Y-133145800D01*
X145236077Y-133549824D01*
X145763309Y-133768750D01*
X146334187Y-133769248D01*
X146861800Y-133551243D01*
X147265824Y-133147923D01*
X147328313Y-132997432D01*
X147358959Y-133071423D01*
X147734866Y-133486389D01*
X148240959Y-133725914D01*
X148463000Y-133604629D01*
X148463000Y-132461000D01*
X148443000Y-132461000D01*
X148443000Y-132207000D01*
X148463000Y-132207000D01*
X148463000Y-131063371D01*
X148240959Y-130942086D01*
X147734866Y-131181611D01*
X147358959Y-131596577D01*
X147328430Y-131670285D01*
X147267243Y-131522200D01*
X146863923Y-131118176D01*
X146336691Y-130899250D01*
X146070820Y-130899018D01*
X145159000Y-129987198D01*
X145159000Y-129916612D01*
X145236077Y-129993824D01*
X145763309Y-130212750D01*
X146334187Y-130213248D01*
X146861800Y-129995243D01*
X147265824Y-129591923D01*
X147288215Y-129538000D01*
X149057537Y-129538000D01*
X149217903Y-129926115D01*
X149725215Y-130434312D01*
X150388388Y-130709686D01*
X151106462Y-130710313D01*
X151770115Y-130436097D01*
X152278312Y-129928785D01*
X152553686Y-129265612D01*
X152554313Y-128547538D01*
X152316615Y-127972265D01*
X152888388Y-128209686D01*
X153606462Y-128210313D01*
X154181735Y-127972615D01*
X153944314Y-128544388D01*
X153943687Y-129262462D01*
X154217903Y-129926115D01*
X154725215Y-130434312D01*
X155388388Y-130709686D01*
X156106462Y-130710313D01*
X156770115Y-130436097D01*
X157278312Y-129928785D01*
X157553686Y-129265612D01*
X157554313Y-128547538D01*
X157280097Y-127883885D01*
X156772785Y-127375688D01*
X156109612Y-127100314D01*
X155391538Y-127099687D01*
X154816265Y-127337385D01*
X155053686Y-126765612D01*
X155054313Y-126047538D01*
X154780097Y-125383885D01*
X154272785Y-124875688D01*
X154009000Y-124766155D01*
X154009000Y-123417802D01*
X155124560Y-122302242D01*
X155124560Y-122339000D01*
X155168838Y-122574317D01*
X155307910Y-122790441D01*
X155520110Y-122935431D01*
X155772000Y-122986440D01*
X158172000Y-122986440D01*
X158407317Y-122942162D01*
X158623441Y-122803090D01*
X158768431Y-122590890D01*
X158819440Y-122339000D01*
X158819440Y-122134506D01*
X158906401Y-122076401D01*
X159258000Y-121724802D01*
X159258000Y-142022615D01*
X159081337Y-141595057D01*
X158129952Y-140642010D01*
X156886272Y-140125589D01*
X155539636Y-140124414D01*
X154295057Y-140638663D01*
X153342010Y-141590048D01*
X152825589Y-142833728D01*
X152824414Y-144180364D01*
X153338663Y-145424943D01*
X154290048Y-146377990D01*
X154723560Y-146558000D01*
X123153385Y-146558000D01*
X123580943Y-146381337D01*
X124533990Y-145429952D01*
X125050411Y-144186272D01*
X125051586Y-142839636D01*
X124537337Y-141595057D01*
X123585952Y-140642010D01*
X122342272Y-140125589D01*
X120995636Y-140124414D01*
X119751057Y-140638663D01*
X118798010Y-141590048D01*
X118618000Y-142023560D01*
X118618000Y-136176750D01*
X127203000Y-136176750D01*
X127203000Y-137767310D01*
X127299673Y-138000699D01*
X127478302Y-138179327D01*
X127711691Y-138276000D01*
X129302250Y-138276000D01*
X129461000Y-138117250D01*
X129461000Y-136018000D01*
X127361750Y-136018000D01*
X127203000Y-136176750D01*
X118618000Y-136176750D01*
X118618000Y-131476750D01*
X124203000Y-131476750D01*
X124203000Y-133067310D01*
X124299673Y-133300699D01*
X124478302Y-133479327D01*
X124711691Y-133576000D01*
X126302250Y-133576000D01*
X126461000Y-133417250D01*
X126461000Y-131318000D01*
X126715000Y-131318000D01*
X126715000Y-133417250D01*
X126873750Y-133576000D01*
X127542696Y-133576000D01*
X127478302Y-133602673D01*
X127299673Y-133781301D01*
X127203000Y-134014690D01*
X127203000Y-135605250D01*
X127361750Y-135764000D01*
X129461000Y-135764000D01*
X129461000Y-133664750D01*
X129302250Y-133506000D01*
X128633304Y-133506000D01*
X128697698Y-133479327D01*
X128876327Y-133300699D01*
X128973000Y-133067310D01*
X128973000Y-131476750D01*
X128814250Y-131318000D01*
X126715000Y-131318000D01*
X126461000Y-131318000D01*
X124361750Y-131318000D01*
X124203000Y-131476750D01*
X118618000Y-131476750D01*
X118618000Y-129314690D01*
X124203000Y-129314690D01*
X124203000Y-130905250D01*
X124361750Y-131064000D01*
X126461000Y-131064000D01*
X126461000Y-128964750D01*
X126715000Y-128964750D01*
X126715000Y-131064000D01*
X128814250Y-131064000D01*
X128973000Y-130905250D01*
X128973000Y-129314690D01*
X128876327Y-129081301D01*
X128697698Y-128902673D01*
X128464309Y-128806000D01*
X126873750Y-128806000D01*
X126715000Y-128964750D01*
X126461000Y-128964750D01*
X126302250Y-128806000D01*
X124711691Y-128806000D01*
X124478302Y-128902673D01*
X124299673Y-129081301D01*
X124203000Y-129314690D01*
X118618000Y-129314690D01*
X118618000Y-117983000D01*
X120481928Y-117983000D01*
X120598773Y-118570419D01*
X120931519Y-119068409D01*
X121429509Y-119401155D01*
X122016928Y-119518000D01*
X122077072Y-119518000D01*
X122664491Y-119401155D01*
X123162481Y-119068409D01*
X123495227Y-118570419D01*
X123612072Y-117983000D01*
X123495227Y-117395581D01*
X123162481Y-116897591D01*
X122664491Y-116564845D01*
X122077072Y-116448000D01*
X122016928Y-116448000D01*
X121429509Y-116564845D01*
X120931519Y-116897591D01*
X120598773Y-117395581D01*
X120481928Y-117983000D01*
X118618000Y-117983000D01*
X118618000Y-112307000D01*
X122200560Y-112307000D01*
X122200560Y-114007000D01*
X122244838Y-114242317D01*
X122383910Y-114458441D01*
X122596110Y-114603431D01*
X122848000Y-114654440D01*
X124548000Y-114654440D01*
X124783317Y-114610162D01*
X124999441Y-114471090D01*
X125144431Y-114258890D01*
X125166301Y-114150893D01*
X125471076Y-114428645D01*
X125881110Y-114598476D01*
X126111000Y-114477155D01*
X126111000Y-113284000D01*
X126091000Y-113284000D01*
X126091000Y-113030000D01*
X126111000Y-113030000D01*
X126111000Y-111836845D01*
X125881110Y-111715524D01*
X125471076Y-111885355D01*
X125168063Y-112161501D01*
X125151162Y-112071683D01*
X125012090Y-111855559D01*
X124799890Y-111710569D01*
X124548000Y-111659560D01*
X122848000Y-111659560D01*
X122612683Y-111703838D01*
X122396559Y-111842910D01*
X122251569Y-112055110D01*
X122200560Y-112307000D01*
X118618000Y-112307000D01*
X118618000Y-108370000D01*
X122200560Y-108370000D01*
X122200560Y-110070000D01*
X122244838Y-110305317D01*
X122383910Y-110521441D01*
X122596110Y-110666431D01*
X122848000Y-110717440D01*
X124548000Y-110717440D01*
X124783317Y-110673162D01*
X124999441Y-110534090D01*
X125144431Y-110321890D01*
X125166301Y-110213893D01*
X125471076Y-110491645D01*
X125881110Y-110661476D01*
X126111000Y-110540155D01*
X126111000Y-109347000D01*
X126091000Y-109347000D01*
X126091000Y-109093000D01*
X126111000Y-109093000D01*
X126111000Y-107899845D01*
X125881110Y-107778524D01*
X125471076Y-107948355D01*
X125168063Y-108224501D01*
X125151162Y-108134683D01*
X125012090Y-107918559D01*
X124799890Y-107773569D01*
X124548000Y-107722560D01*
X122848000Y-107722560D01*
X122612683Y-107766838D01*
X122396559Y-107905910D01*
X122251569Y-108118110D01*
X122200560Y-108370000D01*
X118618000Y-108370000D01*
X118618000Y-104618907D01*
X123229000Y-104618907D01*
X123229000Y-104677093D01*
X123342039Y-105245378D01*
X123663946Y-105727147D01*
X124145715Y-106049054D01*
X124714000Y-106162093D01*
X125282285Y-106049054D01*
X125764054Y-105727147D01*
X125984000Y-105397974D01*
X126203946Y-105727147D01*
X126685715Y-106049054D01*
X127254000Y-106162093D01*
X127822285Y-106049054D01*
X128304054Y-105727147D01*
X128331850Y-105685548D01*
X128340838Y-105733317D01*
X128479910Y-105949441D01*
X128692110Y-106094431D01*
X128944000Y-106145440D01*
X130644000Y-106145440D01*
X130879317Y-106101162D01*
X131095441Y-105962090D01*
X131240431Y-105749890D01*
X131291440Y-105498000D01*
X131291440Y-103798000D01*
X131247162Y-103562683D01*
X131108090Y-103346559D01*
X130895890Y-103201569D01*
X130644000Y-103150560D01*
X128944000Y-103150560D01*
X128708683Y-103194838D01*
X128492559Y-103333910D01*
X128347569Y-103546110D01*
X128333914Y-103613541D01*
X128304054Y-103568853D01*
X127822285Y-103246946D01*
X127254000Y-103133907D01*
X126685715Y-103246946D01*
X126203946Y-103568853D01*
X125984000Y-103898026D01*
X125764054Y-103568853D01*
X125282285Y-103246946D01*
X124714000Y-103133907D01*
X124145715Y-103246946D01*
X123663946Y-103568853D01*
X123342039Y-104050622D01*
X123229000Y-104618907D01*
X118618000Y-104618907D01*
X118618000Y-100009000D01*
X122797560Y-100009000D01*
X122797560Y-101709000D01*
X122841838Y-101944317D01*
X122980910Y-102160441D01*
X123193110Y-102305431D01*
X123445000Y-102356440D01*
X125845000Y-102356440D01*
X126080317Y-102312162D01*
X126296441Y-102173090D01*
X126441431Y-101960890D01*
X126492440Y-101709000D01*
X126492440Y-100009000D01*
X126448162Y-99773683D01*
X126309090Y-99557559D01*
X126096890Y-99412569D01*
X125845000Y-99361560D01*
X123445000Y-99361560D01*
X123209683Y-99405838D01*
X122993559Y-99544910D01*
X122848569Y-99757110D01*
X122797560Y-100009000D01*
X118618000Y-100009000D01*
X118618000Y-96544750D01*
X118960000Y-96544750D01*
X118960000Y-97585310D01*
X119056673Y-97818699D01*
X119235302Y-97997327D01*
X119468691Y-98094000D01*
X120159250Y-98094000D01*
X120318000Y-97935250D01*
X120318000Y-96386000D01*
X120572000Y-96386000D01*
X120572000Y-97935250D01*
X120730750Y-98094000D01*
X121421309Y-98094000D01*
X121654698Y-97997327D01*
X121833327Y-97818699D01*
X121930000Y-97585310D01*
X121930000Y-96544750D01*
X121771250Y-96386000D01*
X120572000Y-96386000D01*
X120318000Y-96386000D01*
X119118750Y-96386000D01*
X118960000Y-96544750D01*
X118618000Y-96544750D01*
X118618000Y-94932690D01*
X118960000Y-94932690D01*
X118960000Y-95973250D01*
X119118750Y-96132000D01*
X120318000Y-96132000D01*
X120318000Y-94582750D01*
X120572000Y-94582750D01*
X120572000Y-96132000D01*
X121771250Y-96132000D01*
X121930000Y-95973250D01*
X121930000Y-94932690D01*
X121833327Y-94699301D01*
X121654698Y-94520673D01*
X121421309Y-94424000D01*
X120730750Y-94424000D01*
X120572000Y-94582750D01*
X120318000Y-94582750D01*
X120159250Y-94424000D01*
X119468691Y-94424000D01*
X119235302Y-94520673D01*
X119056673Y-94699301D01*
X118960000Y-94932690D01*
X118618000Y-94932690D01*
X118618000Y-92809000D01*
X125497560Y-92809000D01*
X125497560Y-94509000D01*
X125541838Y-94744317D01*
X125680910Y-94960441D01*
X125893110Y-95105431D01*
X126145000Y-95156440D01*
X128545000Y-95156440D01*
X128780317Y-95112162D01*
X128996441Y-94973090D01*
X129141431Y-94760890D01*
X129192440Y-94509000D01*
X129192440Y-92809000D01*
X129148162Y-92573683D01*
X129137066Y-92556440D01*
X129545000Y-92556440D01*
X129780317Y-92512162D01*
X129996441Y-92373090D01*
X130141431Y-92160890D01*
X130192440Y-91909000D01*
X130192440Y-90209000D01*
X130148162Y-89973683D01*
X130009090Y-89757559D01*
X129796890Y-89612569D01*
X129545000Y-89561560D01*
X127145000Y-89561560D01*
X126909683Y-89605838D01*
X126693559Y-89744910D01*
X126548569Y-89957110D01*
X126497560Y-90209000D01*
X126497560Y-91909000D01*
X126541838Y-92144317D01*
X126552934Y-92161560D01*
X126145000Y-92161560D01*
X125909683Y-92205838D01*
X125693559Y-92344910D01*
X125548569Y-92557110D01*
X125497560Y-92809000D01*
X118618000Y-92809000D01*
X118618000Y-87309000D01*
X122797560Y-87309000D01*
X122797560Y-89009000D01*
X122841838Y-89244317D01*
X122980910Y-89460441D01*
X123193110Y-89605431D01*
X123445000Y-89656440D01*
X125845000Y-89656440D01*
X126080317Y-89612162D01*
X126296441Y-89473090D01*
X126441431Y-89260890D01*
X126492440Y-89009000D01*
X126492440Y-87309000D01*
X126448162Y-87073683D01*
X126309090Y-86857559D01*
X126096890Y-86712569D01*
X125845000Y-86661560D01*
X123445000Y-86661560D01*
X123209683Y-86705838D01*
X122993559Y-86844910D01*
X122848569Y-87057110D01*
X122797560Y-87309000D01*
X118618000Y-87309000D01*
X118618000Y-83844750D01*
X118960000Y-83844750D01*
X118960000Y-84885310D01*
X119056673Y-85118699D01*
X119235302Y-85297327D01*
X119468691Y-85394000D01*
X120159250Y-85394000D01*
X120318000Y-85235250D01*
X120318000Y-83686000D01*
X120572000Y-83686000D01*
X120572000Y-85235250D01*
X120730750Y-85394000D01*
X121421309Y-85394000D01*
X121654698Y-85297327D01*
X121833327Y-85118699D01*
X121930000Y-84885310D01*
X121930000Y-83844750D01*
X121771250Y-83686000D01*
X120572000Y-83686000D01*
X120318000Y-83686000D01*
X119118750Y-83686000D01*
X118960000Y-83844750D01*
X118618000Y-83844750D01*
X118618000Y-82232690D01*
X118960000Y-82232690D01*
X118960000Y-83273250D01*
X119118750Y-83432000D01*
X120318000Y-83432000D01*
X120318000Y-81882750D01*
X120572000Y-81882750D01*
X120572000Y-83432000D01*
X121771250Y-83432000D01*
X121930000Y-83273250D01*
X121930000Y-82232690D01*
X121833327Y-81999301D01*
X121654698Y-81820673D01*
X121421309Y-81724000D01*
X120730750Y-81724000D01*
X120572000Y-81882750D01*
X120318000Y-81882750D01*
X120159250Y-81724000D01*
X119468691Y-81724000D01*
X119235302Y-81820673D01*
X119056673Y-81999301D01*
X118960000Y-82232690D01*
X118618000Y-82232690D01*
X118618000Y-80109000D01*
X125497560Y-80109000D01*
X125497560Y-81809000D01*
X125541838Y-82044317D01*
X125680910Y-82260441D01*
X125893110Y-82405431D01*
X126145000Y-82456440D01*
X128545000Y-82456440D01*
X128780317Y-82412162D01*
X128996441Y-82273090D01*
X129141431Y-82060890D01*
X129192440Y-81809000D01*
X129192440Y-80109000D01*
X129148162Y-79873683D01*
X129137066Y-79856440D01*
X129545000Y-79856440D01*
X129780317Y-79812162D01*
X129996441Y-79673090D01*
X130141431Y-79460890D01*
X130192440Y-79209000D01*
X130192440Y-77509000D01*
X130148162Y-77273683D01*
X130009090Y-77057559D01*
X129796890Y-76912569D01*
X129545000Y-76861560D01*
X127145000Y-76861560D01*
X126909683Y-76905838D01*
X126693559Y-77044910D01*
X126548569Y-77257110D01*
X126497560Y-77509000D01*
X126497560Y-79209000D01*
X126541838Y-79444317D01*
X126552934Y-79461560D01*
X126145000Y-79461560D01*
X125909683Y-79505838D01*
X125693559Y-79644910D01*
X125548569Y-79857110D01*
X125497560Y-80109000D01*
X118618000Y-80109000D01*
X118618000Y-76205227D01*
X118721832Y-76049832D01*
X118877227Y-75946000D01*
X154471585Y-75946000D01*
X153596010Y-76820048D01*
G36*
X158371000Y-112909257D02*
X158038483Y-112641834D01*
X157499000Y-112484000D01*
X157099000Y-112484000D01*
X157099000Y-113792000D01*
X157119000Y-113792000D01*
X157119000Y-114046000D01*
X157099000Y-114046000D01*
X157099000Y-114066000D01*
X156845000Y-114066000D01*
X156845000Y-114046000D01*
X155302085Y-114046000D01*
X155180096Y-114268039D01*
X155197633Y-114350819D01*
X155467500Y-114843896D01*
X155899707Y-115191493D01*
X155521352Y-115444302D01*
X155210283Y-115909849D01*
X155101050Y-116459000D01*
X155210283Y-117008151D01*
X155521352Y-117473698D01*
X155903438Y-117729000D01*
X155521352Y-117984302D01*
X155351168Y-118239000D01*
X155067000Y-118239000D01*
X154776161Y-118296852D01*
X154529599Y-118461599D01*
X151166027Y-121825171D01*
X151222950Y-121539000D01*
X151113717Y-120989849D01*
X150802648Y-120524302D01*
X150420562Y-120269000D01*
X150802648Y-120013698D01*
X151113717Y-119548151D01*
X151222950Y-118999000D01*
X151113717Y-118449849D01*
X150802648Y-117984302D01*
X150420562Y-117729000D01*
X150802648Y-117473698D01*
X151113717Y-117008151D01*
X151222950Y-116459000D01*
X151113717Y-115909849D01*
X150802648Y-115444302D01*
X150420562Y-115189000D01*
X150802648Y-114933698D01*
X150972832Y-114679000D01*
X152400000Y-114679000D01*
X152690839Y-114621148D01*
X152937401Y-114456401D01*
X153823841Y-113569961D01*
X155180096Y-113569961D01*
X155302085Y-113792000D01*
X156845000Y-113792000D01*
X156845000Y-112484000D01*
X156445000Y-112484000D01*
X155905517Y-112641834D01*
X155467500Y-112994104D01*
X155197633Y-113487181D01*
X155180096Y-113569961D01*
X153823841Y-113569961D01*
X155527808Y-111865994D01*
X155669309Y-111924750D01*
X156240187Y-111925248D01*
X156767800Y-111707243D01*
X157171824Y-111303923D01*
X157390750Y-110776691D01*
X157391248Y-110205813D01*
X157173243Y-109678200D01*
X156769923Y-109274176D01*
X156634046Y-109217755D01*
X156970698Y-108992811D01*
X157281767Y-108527264D01*
X157391000Y-107978113D01*
X157391000Y-107921887D01*
X157281767Y-107372736D01*
X157259857Y-107339945D01*
X158271401Y-106328401D01*
X158371000Y-106179340D01*
X158371000Y-112909257D01*
X158371000Y-112909257D01*
G37*
X158371000Y-112909257D02*
X158038483Y-112641834D01*
X157499000Y-112484000D01*
X157099000Y-112484000D01*
X157099000Y-113792000D01*
X157119000Y-113792000D01*
X157119000Y-114046000D01*
X157099000Y-114046000D01*
X157099000Y-114066000D01*
X156845000Y-114066000D01*
X156845000Y-114046000D01*
X155302085Y-114046000D01*
X155180096Y-114268039D01*
X155197633Y-114350819D01*
X155467500Y-114843896D01*
X155899707Y-115191493D01*
X155521352Y-115444302D01*
X155210283Y-115909849D01*
X155101050Y-116459000D01*
X155210283Y-117008151D01*
X155521352Y-117473698D01*
X155903438Y-117729000D01*
X155521352Y-117984302D01*
X155351168Y-118239000D01*
X155067000Y-118239000D01*
X154776161Y-118296852D01*
X154529599Y-118461599D01*
X151166027Y-121825171D01*
X151222950Y-121539000D01*
X151113717Y-120989849D01*
X150802648Y-120524302D01*
X150420562Y-120269000D01*
X150802648Y-120013698D01*
X151113717Y-119548151D01*
X151222950Y-118999000D01*
X151113717Y-118449849D01*
X150802648Y-117984302D01*
X150420562Y-117729000D01*
X150802648Y-117473698D01*
X151113717Y-117008151D01*
X151222950Y-116459000D01*
X151113717Y-115909849D01*
X150802648Y-115444302D01*
X150420562Y-115189000D01*
X150802648Y-114933698D01*
X150972832Y-114679000D01*
X152400000Y-114679000D01*
X152690839Y-114621148D01*
X152937401Y-114456401D01*
X153823841Y-113569961D01*
X155180096Y-113569961D01*
X155302085Y-113792000D01*
X156845000Y-113792000D01*
X156845000Y-112484000D01*
X156445000Y-112484000D01*
X155905517Y-112641834D01*
X155467500Y-112994104D01*
X155197633Y-113487181D01*
X155180096Y-113569961D01*
X153823841Y-113569961D01*
X155527808Y-111865994D01*
X155669309Y-111924750D01*
X156240187Y-111925248D01*
X156767800Y-111707243D01*
X157171824Y-111303923D01*
X157390750Y-110776691D01*
X157391248Y-110205813D01*
X157173243Y-109678200D01*
X156769923Y-109274176D01*
X156634046Y-109217755D01*
X156970698Y-108992811D01*
X157281767Y-108527264D01*
X157391000Y-107978113D01*
X157391000Y-107921887D01*
X157281767Y-107372736D01*
X157259857Y-107339945D01*
X158271401Y-106328401D01*
X158371000Y-106179340D01*
X158371000Y-112909257D01*
G36*
X150368000Y-105916000D02*
X151415354Y-105916000D01*
X151436757Y-105967800D01*
X151840077Y-106371824D01*
X152296805Y-106561474D01*
X151916577Y-106718959D01*
X151501611Y-107094866D01*
X151262086Y-107600959D01*
X151383371Y-107823000D01*
X152527000Y-107823000D01*
X152527000Y-107803000D01*
X152781000Y-107803000D01*
X152781000Y-107823000D01*
X152801000Y-107823000D01*
X152801000Y-108077000D01*
X152781000Y-108077000D01*
X152781000Y-108097000D01*
X152527000Y-108097000D01*
X152527000Y-108077000D01*
X151383371Y-108077000D01*
X151262086Y-108299041D01*
X151501611Y-108805134D01*
X151916577Y-109181041D01*
X151990285Y-109211570D01*
X151842200Y-109272757D01*
X151438176Y-109676077D01*
X151219250Y-110203309D01*
X151219129Y-110342069D01*
X150754533Y-110806665D01*
X150677767Y-110420736D01*
X150366698Y-109955189D01*
X150030290Y-109730408D01*
X150163800Y-109675243D01*
X150567824Y-109271923D01*
X150786750Y-108744691D01*
X150787248Y-108173813D01*
X150569243Y-107646200D01*
X150165923Y-107242176D01*
X150112000Y-107219785D01*
X150112000Y-105865078D01*
X150368000Y-105916000D01*
X150368000Y-105916000D01*
G37*
X150368000Y-105916000D02*
X151415354Y-105916000D01*
X151436757Y-105967800D01*
X151840077Y-106371824D01*
X152296805Y-106561474D01*
X151916577Y-106718959D01*
X151501611Y-107094866D01*
X151262086Y-107600959D01*
X151383371Y-107823000D01*
X152527000Y-107823000D01*
X152527000Y-107803000D01*
X152781000Y-107803000D01*
X152781000Y-107823000D01*
X152801000Y-107823000D01*
X152801000Y-108077000D01*
X152781000Y-108077000D01*
X152781000Y-108097000D01*
X152527000Y-108097000D01*
X152527000Y-108077000D01*
X151383371Y-108077000D01*
X151262086Y-108299041D01*
X151501611Y-108805134D01*
X151916577Y-109181041D01*
X151990285Y-109211570D01*
X151842200Y-109272757D01*
X151438176Y-109676077D01*
X151219250Y-110203309D01*
X151219129Y-110342069D01*
X150754533Y-110806665D01*
X150677767Y-110420736D01*
X150366698Y-109955189D01*
X150030290Y-109730408D01*
X150163800Y-109675243D01*
X150567824Y-109271923D01*
X150786750Y-108744691D01*
X150787248Y-108173813D01*
X150569243Y-107646200D01*
X150165923Y-107242176D01*
X150112000Y-107219785D01*
X150112000Y-105865078D01*
X150368000Y-105916000D01*
G36*
X146177000Y-107823000D02*
X146197000Y-107823000D01*
X146197000Y-108077000D01*
X146177000Y-108077000D01*
X146177000Y-108097000D01*
X145923000Y-108097000D01*
X145923000Y-108077000D01*
X145903000Y-108077000D01*
X145903000Y-107823000D01*
X145923000Y-107823000D01*
X145923000Y-107803000D01*
X146177000Y-107803000D01*
X146177000Y-107823000D01*
X146177000Y-107823000D01*
G37*
X146177000Y-107823000D02*
X146197000Y-107823000D01*
X146197000Y-108077000D01*
X146177000Y-108077000D01*
X146177000Y-108097000D01*
X145923000Y-108097000D01*
X145923000Y-108077000D01*
X145903000Y-108077000D01*
X145903000Y-107823000D01*
X145923000Y-107823000D01*
X145923000Y-107803000D01*
X146177000Y-107803000D01*
X146177000Y-107823000D01*
G36*
X150568352Y-92962698D02*
X150946707Y-93215507D01*
X150514500Y-93563104D01*
X150244633Y-94056181D01*
X150227096Y-94138961D01*
X150349085Y-94361000D01*
X151892000Y-94361000D01*
X151892000Y-94341000D01*
X152146000Y-94341000D01*
X152146000Y-94361000D01*
X152166000Y-94361000D01*
X152166000Y-94615000D01*
X152146000Y-94615000D01*
X152146000Y-94635000D01*
X151892000Y-94635000D01*
X151892000Y-94615000D01*
X150349085Y-94615000D01*
X150227096Y-94837039D01*
X150244633Y-94919819D01*
X150514500Y-95412896D01*
X150946707Y-95760493D01*
X150568352Y-96013302D01*
X150257283Y-96478849D01*
X150148050Y-97028000D01*
X150257283Y-97577151D01*
X150568352Y-98042698D01*
X150946707Y-98295507D01*
X150514500Y-98643104D01*
X150244633Y-99136181D01*
X150227096Y-99218961D01*
X150349085Y-99441000D01*
X151892000Y-99441000D01*
X151892000Y-99421000D01*
X152146000Y-99421000D01*
X152146000Y-99441000D01*
X153688915Y-99441000D01*
X153810904Y-99218961D01*
X153793367Y-99136181D01*
X153537796Y-98669223D01*
X154763035Y-98669223D01*
X154790222Y-99239454D01*
X154956136Y-99640005D01*
X155202255Y-99714139D01*
X156030395Y-98886000D01*
X155202255Y-98057861D01*
X154956136Y-98131995D01*
X154763035Y-98669223D01*
X153537796Y-98669223D01*
X153523500Y-98643104D01*
X153091293Y-98295507D01*
X153469648Y-98042698D01*
X153651262Y-97770894D01*
X153879434Y-97618434D01*
X154260434Y-97237434D01*
X154441439Y-96966541D01*
X154505000Y-96647000D01*
X154505000Y-95508802D01*
X154775092Y-95778894D01*
X154774752Y-96169187D01*
X154992757Y-96696800D01*
X155396077Y-97100824D01*
X155923309Y-97319750D01*
X156494187Y-97320248D01*
X156548149Y-97297951D01*
X156836506Y-97586308D01*
X156426777Y-97439035D01*
X155856546Y-97466222D01*
X155455995Y-97632136D01*
X155381861Y-97878255D01*
X156210000Y-98706395D01*
X156224142Y-98692252D01*
X156403748Y-98871858D01*
X156389605Y-98886000D01*
X156403748Y-98900142D01*
X156224142Y-99079748D01*
X156210000Y-99065605D01*
X155381861Y-99893745D01*
X155455995Y-100139864D01*
X155993223Y-100332965D01*
X156563454Y-100305778D01*
X156964005Y-100139864D01*
X156974000Y-100106681D01*
X156974000Y-102649446D01*
X156496691Y-102451250D01*
X155925813Y-102450752D01*
X155398200Y-102668757D01*
X154994176Y-103072077D01*
X154775250Y-103599309D01*
X154774752Y-104170187D01*
X154992757Y-104697800D01*
X155292816Y-104998382D01*
X154590455Y-105700743D01*
X154461401Y-105507599D01*
X154089018Y-105135216D01*
X154089248Y-104871813D01*
X153871243Y-104344200D01*
X153467923Y-103940176D01*
X152940691Y-103721250D01*
X152369813Y-103720752D01*
X151842200Y-103938757D01*
X151438176Y-104342077D01*
X151415785Y-104396000D01*
X150682802Y-104396000D01*
X150620000Y-104333198D01*
X150620000Y-103515141D01*
X150819000Y-103555440D01*
X153219000Y-103555440D01*
X153454317Y-103511162D01*
X153670441Y-103372090D01*
X153815431Y-103159890D01*
X153866440Y-102908000D01*
X153866440Y-101308000D01*
X153822162Y-101072683D01*
X153683090Y-100856559D01*
X153470890Y-100711569D01*
X153295709Y-100676094D01*
X153523500Y-100492896D01*
X153793367Y-99999819D01*
X153810904Y-99917039D01*
X153688915Y-99695000D01*
X152146000Y-99695000D01*
X152146000Y-99715000D01*
X151892000Y-99715000D01*
X151892000Y-99695000D01*
X150349085Y-99695000D01*
X150227096Y-99917039D01*
X150244633Y-99999819D01*
X150514500Y-100492896D01*
X150741182Y-100675202D01*
X150583683Y-100704838D01*
X150367559Y-100843910D01*
X150222569Y-101056110D01*
X150171560Y-101308000D01*
X150171560Y-102106758D01*
X148715000Y-100650198D01*
X148715000Y-92897802D01*
X148904802Y-92708000D01*
X150398168Y-92708000D01*
X150568352Y-92962698D01*
X150568352Y-92962698D01*
G37*
X150568352Y-92962698D02*
X150946707Y-93215507D01*
X150514500Y-93563104D01*
X150244633Y-94056181D01*
X150227096Y-94138961D01*
X150349085Y-94361000D01*
X151892000Y-94361000D01*
X151892000Y-94341000D01*
X152146000Y-94341000D01*
X152146000Y-94361000D01*
X152166000Y-94361000D01*
X152166000Y-94615000D01*
X152146000Y-94615000D01*
X152146000Y-94635000D01*
X151892000Y-94635000D01*
X151892000Y-94615000D01*
X150349085Y-94615000D01*
X150227096Y-94837039D01*
X150244633Y-94919819D01*
X150514500Y-95412896D01*
X150946707Y-95760493D01*
X150568352Y-96013302D01*
X150257283Y-96478849D01*
X150148050Y-97028000D01*
X150257283Y-97577151D01*
X150568352Y-98042698D01*
X150946707Y-98295507D01*
X150514500Y-98643104D01*
X150244633Y-99136181D01*
X150227096Y-99218961D01*
X150349085Y-99441000D01*
X151892000Y-99441000D01*
X151892000Y-99421000D01*
X152146000Y-99421000D01*
X152146000Y-99441000D01*
X153688915Y-99441000D01*
X153810904Y-99218961D01*
X153793367Y-99136181D01*
X153537796Y-98669223D01*
X154763035Y-98669223D01*
X154790222Y-99239454D01*
X154956136Y-99640005D01*
X155202255Y-99714139D01*
X156030395Y-98886000D01*
X155202255Y-98057861D01*
X154956136Y-98131995D01*
X154763035Y-98669223D01*
X153537796Y-98669223D01*
X153523500Y-98643104D01*
X153091293Y-98295507D01*
X153469648Y-98042698D01*
X153651262Y-97770894D01*
X153879434Y-97618434D01*
X154260434Y-97237434D01*
X154441439Y-96966541D01*
X154505000Y-96647000D01*
X154505000Y-95508802D01*
X154775092Y-95778894D01*
X154774752Y-96169187D01*
X154992757Y-96696800D01*
X155396077Y-97100824D01*
X155923309Y-97319750D01*
X156494187Y-97320248D01*
X156548149Y-97297951D01*
X156836506Y-97586308D01*
X156426777Y-97439035D01*
X155856546Y-97466222D01*
X155455995Y-97632136D01*
X155381861Y-97878255D01*
X156210000Y-98706395D01*
X156224142Y-98692252D01*
X156403748Y-98871858D01*
X156389605Y-98886000D01*
X156403748Y-98900142D01*
X156224142Y-99079748D01*
X156210000Y-99065605D01*
X155381861Y-99893745D01*
X155455995Y-100139864D01*
X155993223Y-100332965D01*
X156563454Y-100305778D01*
X156964005Y-100139864D01*
X156974000Y-100106681D01*
X156974000Y-102649446D01*
X156496691Y-102451250D01*
X155925813Y-102450752D01*
X155398200Y-102668757D01*
X154994176Y-103072077D01*
X154775250Y-103599309D01*
X154774752Y-104170187D01*
X154992757Y-104697800D01*
X155292816Y-104998382D01*
X154590455Y-105700743D01*
X154461401Y-105507599D01*
X154089018Y-105135216D01*
X154089248Y-104871813D01*
X153871243Y-104344200D01*
X153467923Y-103940176D01*
X152940691Y-103721250D01*
X152369813Y-103720752D01*
X151842200Y-103938757D01*
X151438176Y-104342077D01*
X151415785Y-104396000D01*
X150682802Y-104396000D01*
X150620000Y-104333198D01*
X150620000Y-103515141D01*
X150819000Y-103555440D01*
X153219000Y-103555440D01*
X153454317Y-103511162D01*
X153670441Y-103372090D01*
X153815431Y-103159890D01*
X153866440Y-102908000D01*
X153866440Y-101308000D01*
X153822162Y-101072683D01*
X153683090Y-100856559D01*
X153470890Y-100711569D01*
X153295709Y-100676094D01*
X153523500Y-100492896D01*
X153793367Y-99999819D01*
X153810904Y-99917039D01*
X153688915Y-99695000D01*
X152146000Y-99695000D01*
X152146000Y-99715000D01*
X151892000Y-99715000D01*
X151892000Y-99695000D01*
X150349085Y-99695000D01*
X150227096Y-99917039D01*
X150244633Y-99999819D01*
X150514500Y-100492896D01*
X150741182Y-100675202D01*
X150583683Y-100704838D01*
X150367559Y-100843910D01*
X150222569Y-101056110D01*
X150171560Y-101308000D01*
X150171560Y-102106758D01*
X148715000Y-100650198D01*
X148715000Y-92897802D01*
X148904802Y-92708000D01*
X150398168Y-92708000D01*
X150568352Y-92962698D01*
G36*
X148592000Y-103565802D02*
X148592000Y-104038392D01*
X148482139Y-104148253D01*
X148408005Y-103902136D01*
X147870777Y-103709035D01*
X147300546Y-103736222D01*
X146899995Y-103902136D01*
X146825861Y-104148255D01*
X147654000Y-104976395D01*
X147668142Y-104962252D01*
X147847748Y-105141858D01*
X147833605Y-105156000D01*
X147847748Y-105170142D01*
X147668142Y-105349748D01*
X147654000Y-105335605D01*
X147639858Y-105349748D01*
X147460252Y-105170142D01*
X147474395Y-105156000D01*
X146646255Y-104327861D01*
X146556000Y-104355047D01*
X146556000Y-103819802D01*
X147222401Y-103153401D01*
X147387148Y-102906839D01*
X147445000Y-102616000D01*
X147445000Y-102418802D01*
X148592000Y-103565802D01*
X148592000Y-103565802D01*
G37*
X148592000Y-103565802D02*
X148592000Y-104038392D01*
X148482139Y-104148253D01*
X148408005Y-103902136D01*
X147870777Y-103709035D01*
X147300546Y-103736222D01*
X146899995Y-103902136D01*
X146825861Y-104148255D01*
X147654000Y-104976395D01*
X147668142Y-104962252D01*
X147847748Y-105141858D01*
X147833605Y-105156000D01*
X147847748Y-105170142D01*
X147668142Y-105349748D01*
X147654000Y-105335605D01*
X147639858Y-105349748D01*
X147460252Y-105170142D01*
X147474395Y-105156000D01*
X146646255Y-104327861D01*
X146556000Y-104355047D01*
X146556000Y-103819802D01*
X147222401Y-103153401D01*
X147387148Y-102906839D01*
X147445000Y-102616000D01*
X147445000Y-102418802D01*
X148592000Y-103565802D01*
G36*
X159258000Y-91254198D02*
X158351401Y-90347599D01*
X158104839Y-90182852D01*
X157814000Y-90125000D01*
X157448646Y-90125000D01*
X157427243Y-90073200D01*
X157023923Y-89669176D01*
X156496691Y-89450250D01*
X155925813Y-89449752D01*
X155573000Y-89595531D01*
X155573000Y-88452802D01*
X155617546Y-88408256D01*
X155669309Y-88429750D01*
X156240187Y-88430248D01*
X156767800Y-88212243D01*
X157171824Y-87808923D01*
X157390750Y-87281691D01*
X157391248Y-86710813D01*
X157173243Y-86183200D01*
X156769923Y-85779176D01*
X156619432Y-85716687D01*
X156693423Y-85686041D01*
X157108389Y-85310134D01*
X157347914Y-84804041D01*
X157226629Y-84582000D01*
X156083000Y-84582000D01*
X156083000Y-84602000D01*
X155829000Y-84602000D01*
X155829000Y-84582000D01*
X154685371Y-84582000D01*
X154564086Y-84804041D01*
X154803611Y-85310134D01*
X155218577Y-85686041D01*
X155292285Y-85716570D01*
X155144200Y-85777757D01*
X154740176Y-86181077D01*
X154521250Y-86708309D01*
X154520752Y-87279187D01*
X154543049Y-87333149D01*
X154505000Y-87371198D01*
X154505000Y-84105959D01*
X154564086Y-84105959D01*
X154685371Y-84328000D01*
X155829000Y-84328000D01*
X155829000Y-83185085D01*
X156083000Y-83185085D01*
X156083000Y-84328000D01*
X157226629Y-84328000D01*
X157347914Y-84105959D01*
X157108389Y-83599866D01*
X156693423Y-83223959D01*
X156305039Y-83063096D01*
X156083000Y-83185085D01*
X155829000Y-83185085D01*
X155606961Y-83063096D01*
X155218577Y-83223959D01*
X154803611Y-83599866D01*
X154564086Y-84105959D01*
X154505000Y-84105959D01*
X154505000Y-81568874D01*
X154544048Y-81607990D01*
X155787728Y-82124411D01*
X157134364Y-82125586D01*
X158378943Y-81611337D01*
X159258000Y-80733813D01*
X159258000Y-91254198D01*
X159258000Y-91254198D01*
G37*
X159258000Y-91254198D02*
X158351401Y-90347599D01*
X158104839Y-90182852D01*
X157814000Y-90125000D01*
X157448646Y-90125000D01*
X157427243Y-90073200D01*
X157023923Y-89669176D01*
X156496691Y-89450250D01*
X155925813Y-89449752D01*
X155573000Y-89595531D01*
X155573000Y-88452802D01*
X155617546Y-88408256D01*
X155669309Y-88429750D01*
X156240187Y-88430248D01*
X156767800Y-88212243D01*
X157171824Y-87808923D01*
X157390750Y-87281691D01*
X157391248Y-86710813D01*
X157173243Y-86183200D01*
X156769923Y-85779176D01*
X156619432Y-85716687D01*
X156693423Y-85686041D01*
X157108389Y-85310134D01*
X157347914Y-84804041D01*
X157226629Y-84582000D01*
X156083000Y-84582000D01*
X156083000Y-84602000D01*
X155829000Y-84602000D01*
X155829000Y-84582000D01*
X154685371Y-84582000D01*
X154564086Y-84804041D01*
X154803611Y-85310134D01*
X155218577Y-85686041D01*
X155292285Y-85716570D01*
X155144200Y-85777757D01*
X154740176Y-86181077D01*
X154521250Y-86708309D01*
X154520752Y-87279187D01*
X154543049Y-87333149D01*
X154505000Y-87371198D01*
X154505000Y-84105959D01*
X154564086Y-84105959D01*
X154685371Y-84328000D01*
X155829000Y-84328000D01*
X155829000Y-83185085D01*
X156083000Y-83185085D01*
X156083000Y-84328000D01*
X157226629Y-84328000D01*
X157347914Y-84105959D01*
X157108389Y-83599866D01*
X156693423Y-83223959D01*
X156305039Y-83063096D01*
X156083000Y-83185085D01*
X155829000Y-83185085D01*
X155606961Y-83063096D01*
X155218577Y-83223959D01*
X154803611Y-83599866D01*
X154564086Y-84105959D01*
X154505000Y-84105959D01*
X154505000Y-81568874D01*
X154544048Y-81607990D01*
X155787728Y-82124411D01*
X157134364Y-82125586D01*
X158378943Y-81611337D01*
X159258000Y-80733813D01*
X159258000Y-91254198D01*
M02*
